<?xml version="1.0" standalone="no"?>
<!DOCTYPE svg PUBLIC "-//W3C//DTD SVG 1.1//EN" "http://www.w3.org/Graphics/SVG/1.1/DTD/svg11.dtd" >
<svg xmlns="http://www.w3.org/2000/svg">
<metadata>
This is a custom SVG webfont generated by Font Squirrel.
Copyright   : Copyright  1993 1994 2001 Adobe Systems Incorporated  All Rights Reserved
Designer    : Herb Lubalin Tom Carnase Ed Benguiat Adobe Type Staff
Foundry URL : httpwwwadobecomtype
</metadata>
<defs>
<font id="ITCAvantGardeGothicStdDemi" horiz-adv-x="1232" >
<font-face units-per-em="2048" ascent="1516" descent="-532" />
<missing-glyph horiz-adv-x="616" />
<glyph unicode=" "  horiz-adv-x="616" />
<glyph unicode="&#x09;" horiz-adv-x="616" />
<glyph unicode="&#xa0;" horiz-adv-x="616" />
<glyph unicode="!" horiz-adv-x="643" d="M184 0v303h277v-303h-277zM184 459v1057h277v-1057h-277z" />
<glyph unicode="&#x22;" horiz-adv-x="880" d="M164 909v607h205v-607h-205zM512 909v607h207v-607h-207z" />
<glyph unicode="#" d="M55 494l23 182h233l25 182h-232l23 182h233l52 357h186l-49 -357h192l50 357h188l-51 -357h248l-23 -182h-252l-24 -182h247l-22 -182h-250l-55 -392h-185l54 392h-195l-53 -392h-187l54 392h-230zM498 676h194l25 182h-193z" />
<glyph unicode="$" d="M166 461h276q4 -86 55.5 -139.5t123 -53.5t121 52.5t49.5 121.5q0 43 -19.5 79t-45.5 59.5t-74 47t-80.5 37t-90.5 31.5q-291 94 -291 371q0 164 93.5 264.5t230.5 132.5v197h223v-197q135 -29 215 -128t80 -246h-252q-4 72 -49 118.5t-110.5 46.5t-110.5 -46t-45 -113 q0 -47 17.5 -81t64.5 -62.5t85 -44t124 -46.5q156 -57 234.5 -163.5t78.5 -227.5q0 -137 -87 -253t-245 -161v-202h-223v202q-162 23 -254 141t-94 263z" />
<glyph unicode="%" horiz-adv-x="1685" d="M66 1184v2q0 150 104 254t256 104t256 -104.5t104 -256t-104 -256t-256 -104.5q-150 0 -255 105.5t-105 255.5zM252 1182q0 -72 50 -123t124 -51t125 51t51 127t-50 126t-126 50q-74 0 -124 -51t-50 -127v-2zM389 0l705 1516h194l-704 -1516h-195zM897 332v2 q0 150 105.5 254t257.5 104q150 0 255 -104.5t105 -256t-105.5 -256t-255 -104.5t-256 104.5t-106.5 256.5zM1083 330q0 -74 50.5 -125t126.5 -51q74 0 124 51t50 127t-50.5 127t-123.5 51q-76 0 -126.5 -51t-50.5 -127v-2z" />
<glyph unicode="&#x26;" horiz-adv-x="1533" d="M104 406q0 84 29 154.5t82 123.5t96 86t105 68q-160 166 -160 331q0 158 113.5 266.5t279.5 108.5t274.5 -105.5t108.5 -256.5q0 -72 -22.5 -130.5t-65.5 -101.5t-75.5 -66.5t-80.5 -52.5l222 -225l149 301h283l-254 -479l270 -276l-182 -181l-234 240 q-131 -240 -428 -240q-229 0 -369.5 126.5t-140.5 308.5zM397 432q2 -88 66.5 -145.5t161.5 -57.5q156 0 239 158l-282 285q-183 -99 -185 -240zM518 1184q0 -14 2 -28.5t7 -28.5l10 -24q4 -11 13 -25l15 -21q6 -8 18 -22l16 -19q5 -6 17.5 -19.5t16.5 -17.5q78 49 115.5 94 t37.5 111q0 57 -36.5 98t-98.5 41h-2q-55 0 -93 -40t-38 -99z" />
<glyph unicode="'" horiz-adv-x="485" d="M139 909v607h207v-607h-207z" />
<glyph unicode="(" horiz-adv-x="944" d="M154 502q0 207 72.5 405.5t237.5 374.5t398 262v-299q-166 -82 -292 -283.5t-126 -463.5q0 -256 123 -457t295 -285v-303q-348 135 -528 429t-180 620z" />
<glyph unicode=")" horiz-adv-x="944" d="M82 -248q168 84 293 285t125 463q0 256 -123 456.5t-295 286.5v301q348 -135 528.5 -429t180.5 -619q0 -207 -73 -406t-238 -375t-398 -262v299z" />
<glyph unicode="*" horiz-adv-x="1323" d="M297 1047l276 104l-276 98l88 158l238 -188l-52 297h181l-50 -297l236 188l86 -156l-274 -102l276 -102l-94 -164l-234 194l54 -297h-181l50 301l-230 -198z" />
<glyph unicode="+" horiz-adv-x="1228" d="M100 387v260h385v387h258v-387h385v-260h-385v-387h-258v387h-385z" />
<glyph unicode="," horiz-adv-x="624" d="M41 -160l131 463h281l-187 -463h-225z" />
<glyph unicode="-" horiz-adv-x="567" d="M0 453v264h567v-264h-567z" />
<glyph unicode="." horiz-adv-x="624" d="M172 0v303h281v-303h-281z" />
<glyph unicode="/" horiz-adv-x="1175" d="M145 -205l586 1721h299l-584 -1721h-301z" />
<glyph unicode="0" d="M72 987q0 125 39 225.5t98 161t136 100t144.5 55t128.5 15.5q86 0 175.5 -29.5t174.5 -91t139 -174t54 -258.5v-467q0 -119 -35.5 -216t-92 -157.5t-130.5 -102.5t-143.5 -59.5t-136.5 -17.5q-86 0 -177.5 30t-177.5 90.5t-141 173t-55 259.5v463zM377 997v-481 q0 -113 61.5 -194.5t178 -81.5t178 87t61.5 189v483q0 39 -9 80t-32.5 89.5t-75 78t-125.5 29.5q-119 0 -178 -83t-59 -196z" />
<glyph unicode="1" d="M217 1257v259h576v-1516h-306v1257h-270z" />
<glyph unicode="2" d="M102 987q8 221 107 354q80 113 197.5 158t226.5 45q229 0 363 -136t134 -333q-2 -133 -56 -238.5t-187 -232.5l-361 -346h613v-258h-1030v240l442 397q98 86 143 131t88 122t43 159q0 109 -61.5 168t-157.5 59q-104 0 -156.5 -81t-54.5 -208h-293z" />
<glyph unicode="3" d="M72 449h307q6 -82 66.5 -144.5t164.5 -64.5q106 0 166 64.5t60 164.5q0 104 -80 160.5t-181 56.5h-122v227h67q88 0 158 49.5t70 139.5q0 74 -40 124t-112 50q-86 0 -123 -52.5t-41 -119.5h-301q2 117 49 207t120 138t150.5 71.5t157.5 23.5q197 0 321 -115.5t124 -283.5 q0 -205 -203 -318q96 -33 160.5 -87t89 -115.5t33 -100.5t8.5 -78q0 -201 -157 -338t-380 -137q-133 0 -255 52.5t-189 150.5q-78 107 -88 275z" />
<glyph unicode="4" d="M25 274v224l702 1018h291v-1002h164v-240h-164v-274h-293v274h-700zM334 514h409v631z" />
<glyph unicode="5" d="M51 416h307q25 -78 93.5 -127t150.5 -49q109 0 187.5 78.5t78.5 187t-75.5 187.5t-192.5 79q-154 0 -235 -143l-248 61l133 826h799v-259h-564l-53 -299q100 63 236 64q162 0 280.5 -82t172 -194.5t53.5 -231.5q0 -207 -152 -375t-412 -168q-219 0 -373.5 124t-185.5 321 z" />
<glyph unicode="6" d="M49 535q0 188 137 399l398 582h352l-285 -400q-10 -16 -33 -47l-32 -45q45 23 121 23q188 0 334.5 -138.5t146.5 -373.5q0 -244 -164 -404t-401 -160q-139 0 -257 51.5t-190 145.5q-127 144 -127 367zM350 510v-2q0 -119 77 -193.5t185 -74.5q115 0 193 77.5t78 190.5 q0 115 -77 192.5t-192 77.5q-106 0 -185 -74.5t-79 -193.5z" />
<glyph unicode="7" d="M145 1257v259h940v-236l-567 -1280h-336l588 1257h-625z" />
<glyph unicode="8" d="M86 467q4 279 219 373q-166 106 -166 299v2q0 162 128 282.5t349 120.5q223 0 350.5 -120.5t127.5 -284.5q0 -193 -166 -299q215 -96 219 -373q-2 -215 -151.5 -355.5t-379 -140.5t-379 140.5t-151.5 355.5zM391 467q0 -88 63.5 -157.5t162 -69.5t162 69.5t63.5 159.5 q0 92 -63.5 161.5t-162 69.5t-162 -69.5t-63.5 -161.5v-2zM436 1112q0 -74 53.5 -126t127 -52t127 52t53.5 128q0 78 -52.5 129t-128 51t-128 -51t-52.5 -129v-2z" />
<glyph unicode="9" d="M49 981q0 244 164 403.5t401 159.5q291 0 447 -196q127 -143 127 -367q0 -188 -137 -399l-398 -582h-352l285 399l32 45q23 31 33 48q-45 -23 -121 -23q-190 0 -335.5 138t-145.5 374zM354 1010q0 -115 76 -194t188 -79q109 0 189 75t80 196v2q0 117 -78 191.5 t-188.5 74.5t-188.5 -76.5t-78 -189.5z" />
<glyph unicode=":" horiz-adv-x="624" d="M172 0v303h281v-303h-281zM172 821v303h281v-303h-281z" />
<glyph unicode=";" horiz-adv-x="624" d="M43 -160l129 463h283l-201 -463h-211zM172 821v303h281v-303h-281z" />
<glyph unicode="&#x3c;" horiz-adv-x="1228" d="M96 391v252l1037 449v-283l-762 -293l762 -291v-282z" />
<glyph unicode="=" horiz-adv-x="1228" d="M100 135v258h1028v-258h-1028zM100 639v260h1028v-260h-1028z" />
<glyph unicode="&#x3e;" horiz-adv-x="1228" d="M96 -57v282l762 293l-762 291v283l1037 -449v-252z" />
<glyph unicode="?" horiz-adv-x="1183" d="M94 1069q8 213 156.5 344t357.5 131q213 0 345 -131t132 -303q0 -66 -18 -122t-59 -109.5t-71 -84t-87 -83.5q-94 -90 -123 -146.5t-33 -118.5h-282q2 102 49 187.5t157 191.5q86 86 121 139.5t37 114.5q0 82 -48 134.5t-134 52.5q-88 0 -138 -52.5t-61 -138.5 q-4 -33 -4 -49h-295q-2 18 -2 43zM412 0v303h282v-303h-282z" />
<glyph unicode="@" horiz-adv-x="1556" d="M16 748q0 324 225.5 561t573.5 237q305 0 512 -188.5t207 -474.5q0 -231 -133 -393t-289 -162q-70 0 -122 36.5t-68 110.5q-92 -145 -248 -145q-117 0 -205 92t-88 246q0 182 120 334.5t290 152.5q160 0 206 -133l27 106h174l-106 -475q-16 -82 -17 -98v-10q0 -61 70 -62 q78 0 154.5 116t76.5 282q0 229 -160.5 371.5t-392.5 142.5q-272 0 -454.5 -192.5t-182.5 -457.5q0 -76 18.5 -155.5t65.5 -164.5t116 -151.5t180.5 -109.5t248.5 -43q285 0 481 147l45 -141q-121 -84 -272 -121t-252 -37q-162 0 -297 48.5t-226 126t-155.5 180t-93.5 210.5 t-29 214zM559 672q0 -96 48 -141.5t110 -45.5q139 0 203 174q37 111 36 168q0 72 -39.5 121t-105.5 49q-98 0 -175 -98t-77 -225v-2z" />
<glyph unicode="A" horiz-adv-x="1515" d="M16 0l615 1516h268l600 -1516h-334l-110 297h-598l-109 -297h-332zM537 541h436l-221 614z" />
<glyph unicode="B" horiz-adv-x="1269" d="M143 0v1516h498q221 0 340 -91q147 -98 147 -303q0 -209 -186 -311q264 -90 264 -365q0 -104 -43 -194t-121 -146q-86 -66 -174 -86t-258 -20h-467zM449 268h215q90 0 141 23q109 47 108 174q0 121 -106 168q-49 20 -154 20h-204v-385zM449 909h169q82 0 132 21 q86 45 86 151.5t-84 143.5q-47 23 -136 22h-167v-338z" />
<glyph unicode="C" horiz-adv-x="1679" d="M78 760q0 203 96 381t280.5 290.5t415.5 112.5q125 0 239 -35.5t195.5 -92t147.5 -130.5t104.5 -145.5t57.5 -141.5h-322q-47 102 -154.5 188.5t-269.5 88.5q-213 0 -349 -153.5t-136 -362.5q0 -213 138 -366.5t349 -153.5q94 0 174 31.5t130.5 84t76 86t41.5 66.5h322 q-70 -238 -273.5 -387.5t-468.5 -149.5q-340 0 -567 232.5t-227 556.5z" />
<glyph unicode="D" horiz-adv-x="1499" d="M143 1516h482q88 0 157.5 -7.5t162.5 -32t176 -81t147 -142.5q156 -197 155 -493q0 -342 -191.5 -551t-584.5 -209h-504v1516zM449 268h215q233 0 343.5 134.5t110.5 353.5q0 205 -102 340q-117 152 -350 151h-217v-979z" />
<glyph unicode="E" horiz-adv-x="1091" d="M143 0v1516h850v-269h-544v-344h534v-268h-534v-367h544v-268h-850z" />
<glyph unicode="F" horiz-adv-x="1021" d="M143 0v1516h805v-269h-499v-362h487v-269h-487v-616h-306z" />
<glyph unicode="G" horiz-adv-x="1748" d="M76 762q0 336 233.5 559t569.5 223q252 0 458.5 -141t282.5 -352h-344q-49 76 -113 125q-127 100 -291 100q-197 0 -344 -139.5t-147 -374.5q0 -242 147.5 -382t343.5 -140q176 0 302 92q121 86 155 229h-565v246h917q1 -21 1 -41q0 -188 -68 -340q-100 -223 -308 -339 t-432 -116q-338 0 -568 229.5t-230 561.5z" />
<glyph unicode="H" horiz-adv-x="1478" d="M143 0v1516h306v-609h583v609h305v-1516h-305v639h-583v-639h-306z" />
<glyph unicode="I" horiz-adv-x="589" d="M143 0v1516h306v-1516h-306z" />
<glyph unicode="J" horiz-adv-x="1120" d="M12 438h326q0 -12 4 -41q16 -74 59 -115.5t103 -41.5q113 2 147 98q20 53 21 147v1031h305v-957q0 -225 -47 -334q-51 -104 -152 -168q-127 -86 -289 -86q-31 0 -68.5 4.5t-104 26t-122 58t-104.5 109.5t-67 169q-7 30 -11 100z" />
<glyph unicode="K" horiz-adv-x="1359" d="M180 0v1516h305v-703l502 703h322l-549 -756l604 -760h-373l-506 680v-680h-305z" />
<glyph unicode="L" horiz-adv-x="964" d="M150 0v1516h305v-1248h497v-268h-802z" />
<glyph unicode="M" horiz-adv-x="1884" d="M143 0v1516h412l389 -1088l383 1088h414v-1516h-283l8 1214l-424 -1214h-200l-426 1214l8 -1214h-281z" />
<glyph unicode="N" horiz-adv-x="1544" d="M143 0v1516h273l696 -1051l-6 1051h293v-1516h-271l-698 1049l6 -1049h-293z" />
<glyph unicode="O" horiz-adv-x="1742" d="M76 743v2q0 178 64.5 330t174 253.5t254 158.5t301.5 57q340 0 568.5 -230.5t228.5 -555.5q0 -328 -228.5 -557.5t-570.5 -229.5q-340 0 -566 229.5t-226 542.5zM381 758q0 -213 139 -365.5t354 -152.5q219 0 353.5 157.5t134.5 358.5q0 205 -134 362.5t-356 157.5 q-219 0 -355 -153.5t-136 -362.5v-2z" />
<glyph unicode="P" horiz-adv-x="1239" d="M137 0v1516h459q182 0 278.5 -25t167.5 -80q82 -68 127 -170t45 -217q0 -113 -44 -219.5t-115 -163.5q-80 -66 -173.5 -93.5t-252.5 -27.5h-187v-520h-305zM442 788h181q125 0 198 39q100 51 101 193q0 137 -105 188q-74 39 -207 39h-168v-459z" />
<glyph unicode="Q" horiz-adv-x="1781" d="M82 752q0 207 97 387t282.5 292.5t415.5 112.5q346 0 574 -232.5t228 -545.5q0 -272 -159 -477q82 -61 247 -70v-246q-70 0 -106 2q-211 8 -344 123q-197 -127 -436 -127q-236 0 -421.5 114t-281.5 291t-96 376zM406 764q154 47 253 47q195 0 355 -104q92 -61 268 -224 q92 111 92 283q0 225 -144.5 367.5t-350.5 142.5h-2q-176 0 -306.5 -110.5t-164.5 -293.5q-3 -34 -3 -61t3 -47zM442 518q63 -143 190.5 -210.5t246.5 -67.5h2q135 0 219 55q-57 68 -160 149q-137 106 -311 107q-97 0 -187 -33z" />
<glyph unicode="R" horiz-adv-x="1286" d="M137 0v1516h459q319 0 453 -97q92 -68 142 -176t50 -235q0 -164 -82 -283q-84 -123 -250 -164l338 -561h-319l-408 705h60q201 0 272 55q96 80 96 221q0 68 -30.5 127t-81.5 92q-76 47 -215 47h-179v-1247h-305z" />
<glyph unicode="S" horiz-adv-x="1144" d="M61 471h304q4 -72 27.5 -124t58 -75.5t66.5 -34t61 -10.5q86 0 146 59.5t60 141.5q0 57 -37.5 99t-78.5 62.5t-158 65.5l-45 19q-51 18 -85 32.5t-96.5 51.5t-99.5 78t-67.5 109.5t-30.5 150.5q0 207 151.5 327.5t350.5 120.5q82 0 159.5 -22.5t150.5 -71.5t119 -139 t50 -209h-301q-6 35 -14.5 59.5t-27.5 58t-56 51t-90 17.5q-78 0 -132.5 -48t-54.5 -124q-2 -78 58.5 -118t277.5 -130q184 -80 272 -176t88 -250q0 -201 -126.5 -336t-378.5 -135t-387.5 137.5t-133.5 362.5z" />
<glyph unicode="T" horiz-adv-x="993" d="M18 1247v269h959v-269h-326v-1247h-305v1247h-328z" />
<glyph unicode="U" horiz-adv-x="1382" d="M139 584v932h305v-932q0 -150 43 -230q66 -115 205 -114q145 0 203 108q43 74 43 236v932h305v-932q0 -170 -37 -278.5t-123 -188.5q-152 -145 -389 -146q-254 0 -395 146q-98 94 -129 196.5t-31 270.5z" />
<glyph unicode="V" horiz-adv-x="1449" d="M29 1516h315l379 -1151l383 1151h315l-542 -1516h-310z" />
<glyph unicode="W" horiz-adv-x="1961" d="M31 1516h311l258 -1098l264 1098h234l266 -1100l256 1100h309l-409 -1516h-275l-266 1075l-264 -1075h-283z" />
<glyph unicode="X" horiz-adv-x="1449" d="M20 0l527 797l-475 719h346l309 -496l305 496h344l-471 -725l525 -791h-349l-366 582l-353 -582h-342z" />
<glyph unicode="Y" horiz-adv-x="1277" d="M23 1516h329l287 -689l289 689h327l-462 -973v-543h-306v543z" />
<glyph unicode="Z" horiz-adv-x="1021" d="M27 1247v269h956v-244l-575 -1004h587v-268h-960v199l606 1048h-614z" />
<glyph unicode="[" horiz-adv-x="944" d="M217 -422v1938h580v-222h-320v-1497h320v-219h-580z" />
<glyph unicode="\" horiz-adv-x="1175" d="M145 1516h299l586 -1721h-299z" />
<glyph unicode="]" horiz-adv-x="944" d="M145 -203h322v1497h-322v222h582v-1938h-582v219z" />
<glyph unicode="^" horiz-adv-x="1228" d="M123 768l356 748h271l356 -748h-293l-201 512l-198 -512h-291z" />
<glyph unicode="_" horiz-adv-x="1024" d="M0 -154h1024v-102h-1024v102z" />
<glyph unicode="`" horiz-adv-x="1136" d="M244 1483l86 190l493 -268l-78 -160z" />
<glyph unicode="a" horiz-adv-x="1425" d="M74 563q0 262 164.5 429t406.5 167q141 0 238.5 -59.5t140.5 -138.5v163h268v-1124h-268v162q-51 -96 -153.5 -146.5t-225.5 -50.5q-260 0 -415.5 174t-155.5 424zM342 557q0 -76 33 -150.5t114.5 -133t194.5 -58.5q209 0 299 180q37 68 43 158v18q0 74 -31 140 q-39 86 -118.5 142t-194.5 56q-156 0 -248 -105.5t-92 -244.5v-2z" />
<glyph unicode="b" horiz-adv-x="1409" d="M133 1516h268v-396v-135q76 92 178.5 133t196.5 41q102 0 200.5 -38t179.5 -108.5t131 -186t50 -259.5q0 -276 -166.5 -439t-406.5 -163q-127 0 -226.5 55.5t-146.5 141.5v-162h-258v1516zM391 563q0 -145 93.5 -246.5t240.5 -101.5q156 0 250 104.5t94 243.5v2 q0 141 -96 242.5t-242 101.5q-152 0 -246 -102.5t-94 -243.5z" />
<glyph unicode="c" horiz-adv-x="1318" d="M72 563q0 250 171 423t421 173q213 0 375.5 -124t211.5 -328h-274q-37 92 -116 147t-187 55h-6q-134 0 -234 -96q-92 -98 -92 -249.5t94 -249t238 -97.5q115 0 191.5 56.5t111.5 136.5h274q-49 -193 -206.5 -319t-370.5 -126q-262 0 -432 175t-170 423z" />
<glyph unicode="d" horiz-adv-x="1419" d="M74 563q0 266 164.5 431t400.5 165q143 0 239.5 -57.5t137.5 -122.5v164v373h268v-1516h-256v162q-115 -197 -385 -197q-254 0 -411.5 173t-157.5 425zM342 565v-2q0 -145 96.5 -245.5t247.5 -100.5q147 0 250 102q97 97 97 234q0 8 -1 16q0 145 -100 242q-98 98 -244 98 q-158 0 -252 -102.5t-94 -241.5z" />
<glyph unicode="e" horiz-adv-x="1308" d="M61 559q0 244 170 422t420 178q254 0 420 -172q171 -176 171 -425q0 -43 -5 -89h-905q8 -129 105 -205q95 -74 214 -73h6q186 0 271 151h276q-78 -182 -227 -283q-141 -98 -322 -98q-254 0 -424 176t-170 418zM336 678h637q-8 92 -96 174q-86 80 -217 80h-7 q-137 0 -223 -80t-94 -174z" />
<glyph unicode="f" horiz-adv-x="616" d="M10 918v206h140v64q0 96 29.5 164.5t70.5 104.5t107.5 56.5t116.5 25.5t122 5v-207q-37 0 -58.5 -3t-54 -16t-49 -48t-16.5 -90v-56h178v-206h-178v-918h-268v918h-140z" />
<glyph unicode="g" horiz-adv-x="1409" d="M74 557q0 268 167 434t406 166q121 0 219.5 -50t145.5 -134v151h270v-991q0 -256 -104 -397q-76 -102 -213.5 -167t-302.5 -65q-240 0 -381.5 115t-178.5 268h312q35 -74 116 -114q70 -39 148 -39q131 0 232.5 89t101.5 249v94q-47 -86 -139.5 -143.5t-225.5 -57.5 q-246 0 -409.5 167t-163.5 425zM342 563q0 -147 95 -246.5t241 -99.5q147 0 240 96q92 92 96 240q0 145 -82 242q-88 113 -254 112q-139 0 -237.5 -97t-98.5 -245v-2z" />
<glyph unicode="h" horiz-adv-x="1298" d="M133 0v1516h268v-365v-160q45 86 135.5 128t196.5 40q244 0 348 -158q88 -129 88 -383v-618h-268v606q0 139 -51 213q-63 88 -195 88q-141 0 -206 -98q-47 -72 -48 -180v-629h-268z" />
<glyph unicode="i" horiz-adv-x="532" d="M133 0v1124h268v-1124h-268zM133 1276v240h268v-240h-268z" />
<glyph unicode="j" horiz-adv-x="604" d="M2 -213h39q49 4 79 22.5t43 53.5t16 66.5t3 82.5v1112h269v-1104q0 -102 -12.5 -169.5t-48.5 -133t-115.5 -100.5t-202.5 -39h-70v209zM182 1276v240h269v-240h-269z" />
<glyph unicode="k" horiz-adv-x="1146" d="M141 0v1516h269v-820l387 428h321l-467 -495l469 -629h-307l-403 561v-561h-269z" />
<glyph unicode="l" horiz-adv-x="532" d="M133 0v1516h268v-1516h-268z" />
<glyph unicode="m" horiz-adv-x="1974" d="M133 0v1124h252v-141q27 57 114 116.5t214 59.5q170 0 276 -115q35 -39 68 -102q39 66 82 107q117 111 286 110q188 0 299 -112q76 -78 99.5 -165t23.5 -266v-616h-268v606q0 139 -45 209q-47 92 -176 92q-137 0 -195 -102q-39 -70 -39 -189v-616h-268v616q0 117 -35 187 q-55 102 -184 104q-133 0 -193 -104q-43 -78 -43 -195v-608h-268z" />
<glyph unicode="n" horiz-adv-x="1298" d="M133 0v1124h252q0 -96 -2 -149q104 186 350 184q104 0 185 -31.5t127.5 -80t76 -116t38.5 -128t9 -125.5v-678h-268v610q0 297 -244 297q-135 -2 -195.5 -79.5t-60.5 -206.5v-621h-268z" />
<glyph unicode="o" horiz-adv-x="1351" d="M74 563v2q0 233 162.5 412.5t439 179.5t439.5 -179t163 -414.5t-163 -416t-439.5 -180.5t-439 180t-162.5 416zM342 561q0 -145 97.5 -243.5t236.5 -98.5t235.5 98.5t96.5 246t-96.5 245.5t-235.5 98t-236.5 -98t-97.5 -246v-2z" />
<glyph unicode="p" horiz-adv-x="1417" d="M133 -393v1517h252v-163q141 199 397 198q141 0 252 -55t176.5 -146.5t98 -195t32.5 -209.5q0 -244 -157.5 -416t-399.5 -172q-147 0 -242.5 57.5t-140.5 127.5v-150v-393h-268zM389 559q0 -145 98 -244q100 -100 244 -100q150 0 246 102.5t96 243.5v2q0 133 -92 239.5 t-252 106.5q-145 0 -244 -102q-96 -101 -96 -248z" />
<glyph unicode="q" horiz-adv-x="1417" d="M74 545q0 272 162.5 443t408.5 171q150 0 243 -60.5t138 -135.5v161h258v-1517h-268v393v158q-119 -193 -387 -193q-244 0 -399.5 168t-155.5 412zM342 555q0 -131 95 -234.5t249 -103.5q141 0 242 100q98 98 98 242v17q0 133 -94 231q-102 102 -248 102 q-158 0 -250 -105.5t-92 -246.5v-2z" />
<glyph unicode="r" horiz-adv-x="712" d="M131 1124h254v-147q88 180 311 182v-270h-12q-285 0 -285 -283v-606h-268v1124z" />
<glyph unicode="s" horiz-adv-x="985" d="M61 328h269q6 -80 58 -113t108 -33q63 0 109 38q44 36 44 89q0 70 -52 101.5t-224 91.5q-8 4 -15 6q-274 86 -276 293q0 162 117.5 260t285.5 98q63 0 125 -15.5t123.5 -51t102.5 -105t49 -166.5h-264q-4 121 -138 121q-63 0 -98 -33.5t-35 -79.5q2 -88 191 -141l109 -32 q38 -11 97.5 -39.5t90 -61.5t55.5 -87t25 -129q0 -166 -121 -269q-123 -104 -305 -105q-70 0 -138.5 19.5t-133 59.5t-108 114t-51.5 170z" />
<glyph unicode="t" horiz-adv-x="690" d="M20 918v206h187v392h268v-392h193v-206h-193v-918h-268v918h-187z" />
<glyph unicode="u" horiz-adv-x="1302" d="M129 444v680h268v-612q0 -137 57 -217q55 -78 182 -78h7q258 0 258 287v620h268v-1124h-251v150q-99 -184 -345 -185h-6q-106 0 -187 32t-127 80t-76 114.5t-39 126.5t-9 126z" />
<glyph unicode="v" horiz-adv-x="1155" d="M29 1124h278l271 -786l270 786h278l-417 -1124h-263z" />
<glyph unicode="w" horiz-adv-x="1693" d="M16 1124h279l223 -782l215 745h228l219 -745l219 782h278l-360 -1124h-252l-221 760l-215 -760h-252z" />
<glyph unicode="x" horiz-adv-x="1175" d="M6 0l416 592l-379 532h324l219 -346l219 346h319l-376 -532l419 -592h-329l-252 387l-254 -387h-326z" />
<glyph unicode="y" horiz-adv-x="1128" d="M8 1124h287l274 -747l271 747h286l-591 -1517h-287l184 436z" />
<glyph unicode="z" horiz-adv-x="890" d="M29 0v186l528 732h-518v206h811v-206l-502 -711h510v-207h-829z" />
<glyph unicode="{" horiz-adv-x="1069" d="M221 340v278q66 6 127.5 55.5t61.5 145.5v428q0 135 77.5 205t200.5 70h230v-207h-113q-74 0 -97.5 -40t-23.5 -118v-416q0 -43 -13.5 -80.5t-33 -63.5t-47 -49.5t-45.5 -33.5l-42 -24q-24 -13 -26 -13q78 -16 142.5 -73.5t64.5 -161.5v-420q0 -82 22.5 -121t98.5 -39 h113v-207h-230q-123 0 -200.5 69.5t-77.5 207.5v420q-1 143 -189 188z" />
<glyph unicode="|" horiz-adv-x="1136" d="M420 -512v2048h297v-2048h-297z" />
<glyph unicode="}" horiz-adv-x="1069" d="M152 1315v207h229q121 0 198.5 -70t77.5 -205v-428q0 -96 62.5 -145t128.5 -56v-278q-190 -45 -191 -188v-420q0 -137 -77.5 -207t-198.5 -70h-229v207h110q76 0 98.5 39t22.5 121v420q0 43 18.5 81.5t49 66.5t55 45.5t53.5 32.5t31 15q-205 51 -207 258v416 q0 80 -22.5 119t-98.5 39h-110z" />
<glyph unicode="~" horiz-adv-x="1228" d="M141 557q95 172 255 172h3q80 0 232 -67l44 -20l47 -20l41 -17q24 -9 43 -13t36 -4q39 0 74.5 24.5t53 45t52.5 69.5l63 -252q-57 -82 -112.5 -127t-130.5 -45q-84 0 -215 70q-139 74 -236 73q-106 0 -184 -139z" />
<glyph unicode="&#xa1;" horiz-adv-x="643" d="M184 -391v1057h277v-1057h-277zM184 821v303h277v-303h-277z" />
<glyph unicode="&#xa2;" d="M131 762q0 98 36 191.5t125 177t220 116.5v211h217v-205q152 -39 249 -142t126 -226h-281q-61 111 -194 110q-96 0 -163 -66.5t-67 -162.5q0 -94 64.5 -161.5t165.5 -67.5q121 0 188 98h287q-39 -129 -136.5 -226.5t-230.5 -123.5v-217h-225v217q-137 37 -227 125 t-122 176t-32 176z" />
<glyph unicode="&#xa3;" d="M25 625v217h118q-63 86 -65 207q0 195 147.5 345t382.5 150q209 0 356.5 -127t165.5 -344h-282q-16 82 -73.5 142.5t-162.5 60.5q-100 0 -163.5 -68.5t-65.5 -165.5q2 -111 78 -200h381v-217h-244q104 -109 104 -207q0 -80 -83 -176h110q102 0 156 37q76 63 76 155 q0 31 -15 80h262q20 -76 21 -123q0 -137 -103 -256q-129 -135 -356 -135h-684v242h152q166 18 165 155q0 106 -124 228h-254z" />
<glyph unicode="&#xa4;" d="M20 248l170 170q-88 131 -88 280q0 160 93 289l-175 172l136 137l176 -174q125 88 284 88q158 0 283 -86l174 170l133 -135l-170 -170q94 -129 94 -291q0 -154 -88 -280l170 -168l-135 -137l-166 166q-133 -94 -295 -95q-158 0 -294 95l-166 -164zM356 698 q0 -106 77 -184t183.5 -78t183.5 77t77 187q0 109 -76 186t-185 77q-106 0 -183 -77t-77 -186v-2z" />
<glyph unicode="&#xa5;" d="M18 1516h324l274 -543l283 543h318l-283 -504h246v-226h-367l-47 -88v-88h414v-225h-416v-385h-299v385h-412v225h412v84l-47 92h-361v226h246z" />
<glyph unicode="&#xa6;" horiz-adv-x="1136" d="M420 358h297v-716h-297v716zM420 666v716h297v-716h-297z" />
<glyph unicode="&#xa7;" horiz-adv-x="1323" d="M92 602q0 190 199 326q-72 102 -72 225q0 190 136.5 290.5t322.5 100.5q209 0 334 -116.5t129 -284.5h-264q-31 158 -213 157q-74 0 -129.5 -36.5t-55.5 -112.5q0 -43 26.5 -77t48 -47t67.5 -34l356 -162q45 -20 79 -40.5t79 -59.5t70.5 -98.5t25.5 -134.5 q0 -172 -182 -322q115 -123 114 -280q0 -174 -128 -300t-357 -126q-59 0 -122.5 11t-138.5 45t-132.5 84t-98.5 138t-47 199h267q23 -229 266 -230q111 0 168 51.5t59 122.5q-2 61 -50 104.5t-138 84.5l-363 168q-51 23 -80.5 41t-78 60t-73 105.5t-24.5 147.5zM338 643 q0 -104 121 -158l426 -196q43 23 73.5 67.5t32.5 98.5v2q-2 57 -42 94t-118 72l-385 176q-108 -54 -108 -156z" />
<glyph unicode="&#xa8;" horiz-adv-x="1136" d="M217 1300v291h258v-291h-258zM659 1300v291h259v-291h-259z" />
<glyph unicode="&#xa9;" horiz-adv-x="1638" d="M37 758q0 324 227.5 554t558.5 230h2q326 0 551.5 -230.5t225.5 -553.5q0 -326 -228.5 -555.5t-552.5 -229.5q-326 0 -555 228.5t-229 556.5zM178 758q0 -272 188.5 -463t454.5 -191t452.5 189.5t186.5 464.5q0 268 -184 460.5t-455 192.5h-2q-270 0 -455.5 -191.5 t-185.5 -461.5zM391 762q0 195 119 328t321 133q166 0 272.5 -96.5t117.5 -225.5h-174q-43 168 -216 168q-129 0 -194.5 -90t-65.5 -219q0 -137 71 -220t189 -83q23 0 46.5 5t63.5 23.5t70.5 66.5t43.5 122h178q-14 -172 -127 -272.5t-281 -100.5q-193 0 -313.5 127 t-120.5 334z" />
<glyph unicode="&#xaa;" horiz-adv-x="817" d="M55 1219q0 145 91.5 235t220.5 90t190 -108v88h166v-611h-166v88q-55 -106 -195 -106q-131 0 -219 94.5t-88 229.5zM221 1214q0 -57 45 -109t123 -52q106 0 152 92q16 39 16 74q0 39 -14 75q-37 92 -154 92q-74 0 -121 -50t-47 -119v-3z" />
<glyph unicode="&#xab;" horiz-adv-x="827" d="M61 578l209 378h195l-209 -378l209 -377h-195zM397 578l209 378h195l-209 -378l209 -377h-195z" />
<glyph unicode="&#xac;" horiz-adv-x="1228" d="M96 608v260h1037v-630h-261v370h-776z" />
<glyph unicode="&#xad;" horiz-adv-x="567" d="M0 453v264h567v-264h-567z" />
<glyph unicode="&#xae;" horiz-adv-x="1638" d="M37 758q0 322 227.5 553t558.5 231h2q326 0 551.5 -231.5t225.5 -552.5q0 -326 -228.5 -555.5t-552.5 -229.5q-326 0 -555 228.5t-229 556.5zM178 758q0 -272 188.5 -463t454.5 -191t452.5 189.5t186.5 464.5q0 268 -184 460.5t-455 192.5h-2q-270 0 -455.5 -191.5 t-185.5 -461.5zM483 322v882h373q78 0 145.5 -19.5t119.5 -77.5t52 -149q0 -152 -149 -215q123 -43 133 -202q12 -180 27 -219h-172q-10 18 -29 208q-2 33 -8 53.5t-23.5 45t-55.5 37t-97 12.5h-137v-356h-179zM661 797h150q119 4 158 55q29 35 28 94q0 131 -170 131h-166 v-280z" />
<glyph unicode="&#xaf;" horiz-adv-x="1136" d="M201 1341v209h733v-209h-733z" />
<glyph unicode="&#xb0;" horiz-adv-x="819" d="M117 1163q0 123 85 208t207.5 85t207.5 -85t85 -208v-2q0 -121 -85 -206t-207.5 -85t-207.5 85t-85 208zM260 1161q0 -61 44 -105t105.5 -44t105.5 44t44 107q0 61 -44 107.5t-105.5 46.5t-105.5 -46t-44 -108v-2z" />
<glyph unicode="&#xb1;" horiz-adv-x="1228" d="M98 -125v258h1032v-258h-1032zM98 543v260h387v309h258v-309h387v-260h-387v-301h-258v301h-387z" />
<glyph unicode="&#xb2;" horiz-adv-x="804" d="M68 1190q4 131 59 213q94 131 276 131q158 0 242 -70.5t84 -203.5q0 -84 -29.5 -143.5t-101.5 -125.5l-221 -209h358v-176h-663v160l303 270q127 113 127 201q0 119 -111 119q-61 0 -91 -49.5t-30 -116.5h-202z" />
<glyph unicode="&#xb3;" horiz-adv-x="804" d="M51 885h211q14 -119 135 -119q61 0 96 34t35 91q0 43 -33.5 79t-103.5 36h-98v151h51q55 0 97 27.5t42 79.5q0 37 -22.5 63.5t-67.5 28.5q-90 0 -98 -96h-207q2 152 119 221q82 53 192 53q127 0 207 -71.5t80 -172.5q0 -125 -117 -188q80 -27 126 -88.5t46 -136.5 q0 -121 -101 -205t-245 -84q-86 0 -165.5 32.5t-123.5 92.5q-51 70 -55 172z" />
<glyph unicode="&#xb4;" horiz-adv-x="1136" d="M313 1417l492 271l88 -195l-500 -238z" />
<glyph unicode="&#xb5;" horiz-adv-x="1261" d="M121 1124h268v-575q0 -156 51 -234q63 -98 187 -98q125 0 188 102q59 94 59 254v551h269v-1124h-256v168q-82 -190 -256 -191q-164 0 -242 129v-120v-371h-268v1509z" />
<glyph unicode="&#xb6;" horiz-adv-x="1363" d="M-4 1112q0 102 37 179t90 119t128 66.5t133 32t122 7.5h678v-195h-109v-1544h-211v1542h-215v-1542h-211v944q-199 0 -320.5 99t-121.5 292z" />
<glyph unicode="&#xb7;" horiz-adv-x="624" d="M172 369v301h281v-301h-281z" />
<glyph unicode="&#xb8;" horiz-adv-x="1136" d="M360 -303h132q18 -61 75 -62q35 0 56.5 23t21.5 61q0 35 -21.5 55.5t-54.5 20.5q-41 0 -63 -37l-111 58l88 184h144l-58 -111q16 6 39 7q66 0 117 -47.5t51 -129.5q0 -78 -55 -138t-154 -60q-31 0 -64.5 7t-83 50t-59.5 119z" />
<glyph unicode="&#xb9;" horiz-adv-x="804" d="M143 1339v177h373v-910h-203v733h-170z" />
<glyph unicode="&#xba;" horiz-adv-x="817" d="M80 1217v2q0 129 88 226t240 99q152 0 239.5 -98t87.5 -227t-90 -226.5t-237 -97.5q-150 0 -239 97.5t-89 224.5zM246 1217q0 -68 48 -116t113.5 -48t113.5 47t48 119q0 70 -47 118.5t-114 48.5q-66 0 -114 -48t-48 -119v-2z" />
<glyph unicode="&#xbb;" horiz-adv-x="827" d="M27 199l209 379l-209 378h194l209 -378l-209 -379h-194zM362 199l209 379l-209 378h197l209 -378l-209 -379h-197z" />
<glyph unicode="&#xbc;" horiz-adv-x="1740" d="M96 1339v177h371v-910h-203v733h-168zM362 0l644 1516h227l-647 -1516h-224zM901 162v143l442 604h199v-590h100v-157h-100v-162h-203v162h-438zM1120 319h221v332z" />
<glyph unicode="&#xbd;" horiz-adv-x="1796" d="M96 1339v177h371v-910h-203v733h-168zM362 0l644 1516h227l-647 -1516h-224zM1034 584q4 131 58 209q92 135 278 135q158 0 242 -71t84 -204q0 -84 -30 -143t-101 -125l-222 -209h359v-176h-664v160l303 270q127 113 127 201q0 119 -110 119q-61 0 -91 -49.5t-30 -116.5 h-203z" />
<glyph unicode="&#xbe;" horiz-adv-x="1949" d="M84 885h211q14 -119 135 -119q61 0 96 34t35 91q0 43 -33.5 79t-103.5 36h-98v151h51q55 0 97 27.5t42 79.5q0 37 -22.5 63.5t-67.5 28.5q-90 0 -98 -96h-207q2 152 119 221q82 53 192 53q127 0 207 -71.5t80 -172.5q0 -125 -117 -188q80 -27 126 -88.5t46 -136.5 q0 -121 -101.5 -205t-244.5 -84q-88 0 -168 32.5t-123 94.5q-49 68 -53 170zM590 0l645 1516h225l-645 -1516h-225zM1122 162v143l443 604h198v-590h101v-157h-101v-162h-202v162h-439zM1335 319h228v338z" />
<glyph unicode="&#xbf;" horiz-adv-x="1183" d="M98 12q0 66 18.5 122t59.5 109.5t70.5 84t87.5 84.5q94 90 122.5 146t32.5 118h283q-2 -102 -49 -187.5t-158 -191.5q-84 -84 -119.5 -138.5t-37.5 -115.5q0 -82 48 -134t134 -52q88 0 138 53t60 139q4 29 5 47h294q1 -12 1.5 -22.5t-1.5 -18.5q-8 -215 -154.5 -346 t-357.5 -131q-213 0 -345 131t-132 303zM489 821v303h283v-303h-283z" />
<glyph unicode="&#xc0;" horiz-adv-x="1515" d="M16 0l615 1516h268l600 -1516h-334l-110 297h-598l-109 -297h-332zM432 1802l86 191l492 -267l-76 -161zM537 541h436l-221 614z" />
<glyph unicode="&#xc1;" horiz-adv-x="1515" d="M16 0l615 1516h268l600 -1516h-334l-110 297h-598l-109 -297h-332zM506 1739l491 268l88 -192l-499 -238zM537 541h436l-221 614z" />
<glyph unicode="&#xc2;" horiz-adv-x="1515" d="M16 0l615 1516h268l600 -1516h-334l-110 297h-598l-109 -297h-332zM324 1614l348 315h180l340 -315h-268l-164 137l-164 -137h-272zM537 541h436l-221 614z" />
<glyph unicode="&#xc3;" horiz-adv-x="1515" d="M16 0l615 1516h268l600 -1516h-334l-110 297h-598l-109 -297h-332zM354 1847q102 74 217 74q63 0 174 -29q96 -29 164 -28q100 0 160 51l94 -180q-109 -76 -223 -76q-49 0 -172 29q-111 29 -162 28q-84 0 -157 -53zM537 541h436l-221 614z" />
<glyph unicode="&#xc4;" horiz-adv-x="1515" d="M16 0l615 1516h268l600 -1516h-334l-110 297h-598l-109 -297h-332zM408 1620v291h258v-291h-258zM537 541h436l-221 614zM850 1620v291h258v-291h-258z" />
<glyph unicode="&#xc5;" horiz-adv-x="1515" d="M16 0l615 1516h268l600 -1516h-334l-110 297h-598l-109 -297h-332zM518 1804.5q0 98.5 69.5 169t170.5 70.5h2q98 0 167.5 -70.5t69.5 -169t-69.5 -169t-170 -70.5t-170 70.5t-69.5 169zM537 541h436l-221 614zM657 1804q0 -41 30 -69.5t71 -28.5t70.5 29.5t29.5 70.5 t-28.5 71t-71.5 30h-2q-41 0 -70 -31t-29 -72z" />
<glyph unicode="&#xc6;" horiz-adv-x="1980" d="M-18 0l1050 1516h834v-269h-512v-344h501v-268h-501v-367h512v-268h-807v326h-494l-215 -326h-368zM696 563h363v531z" />
<glyph unicode="&#xc7;" horiz-adv-x="1679" d="M78 760q0 203 96 381t280.5 290.5t415.5 112.5q125 0 239 -35.5t195.5 -92t147.5 -130.5t104.5 -145.5t57.5 -141.5h-322q-47 102 -154.5 188.5t-269.5 88.5q-213 0 -349 -153.5t-136 -362.5q0 -213 138 -366.5t349 -153.5q94 0 174 31.5t130.5 84t76 86t41.5 66.5h322 q-68 -229 -264.5 -377.5t-452.5 -157.5l-45 -84q18 6 41 7q63 0 115.5 -48.5t52.5 -128.5q0 -78 -55.5 -138t-155.5 -60q-18 0 -42 5t-60.5 20.5t-65.5 54.5t-37 96h131q18 -61 74 -62q35 0 57.5 23t22.5 61q0 35 -21.5 55.5t-54.5 20.5q-41 0 -63 -37l-111 58l80 164 q-299 39 -490.5 262t-191.5 518z" />
<glyph unicode="&#xc8;" horiz-adv-x="1091" d="M143 0v1516h850v-269h-544v-344h534v-268h-534v-367h544v-268h-850zM223 1835l84 190l494 -266l-78 -160z" />
<glyph unicode="&#xc9;" horiz-adv-x="1091" d="M143 0v1516h850v-269h-544v-344h534v-268h-534v-367h544v-268h-850zM293 1772l489 268l88 -193l-499 -237z" />
<glyph unicode="&#xca;" horiz-adv-x="1091" d="M113 1647l348 315h178l340 -315h-268l-164 137l-164 -137h-270zM143 0v1516h850v-269h-544v-344h534v-268h-534v-367h544v-268h-850z" />
<glyph unicode="&#xcb;" horiz-adv-x="1091" d="M143 0v1516h850v-269h-544v-344h534v-268h-534v-367h544v-268h-850zM195 1653v293h258v-293h-258zM637 1653v293h260v-293h-260z" />
<glyph unicode="&#xcc;" horiz-adv-x="589" d="M-78 1833l86 190l494 -266l-78 -162zM143 0v1516h306v-1516h-306z" />
<glyph unicode="&#xcd;" horiz-adv-x="589" d="M90 1769l490 269l88 -193l-500 -239zM143 0v1516h306v-1516h-306z" />
<glyph unicode="&#xce;" horiz-adv-x="589" d="M-139 1642l348 316h180l338 -316h-268l-164 138l-162 -138h-272zM143 0v1516h306v-1516h-306z" />
<glyph unicode="&#xcf;" horiz-adv-x="589" d="M-55 1651v291h258v-291h-258zM143 0v1516h306v-1516h-306zM387 1651v291h258v-291h-258z" />
<glyph unicode="&#xd0;" horiz-adv-x="1499" d="M0 639v268h143v609h488q88 0 156.5 -7.5t159.5 -32t173 -81t148 -142.5q156 -197 155 -493q0 -336 -193.5 -548t-551.5 -212h-535v639h-143zM449 268h215q233 0 343.5 134.5t110.5 353.5q0 205 -102 340q-117 152 -350 151h-217v-340h292v-268h-292v-371z" />
<glyph unicode="&#xd1;" horiz-adv-x="1544" d="M143 0v1516h273l696 -1051l-6 1051h293v-1516h-271l-698 1049l6 -1049h-293zM369 1845q109 74 217 74q63 0 174 -29q92 -29 164 -28q100 0 157 49l95 -178q-104 -78 -222 -78q-39 0 -174 31q-109 29 -162 28q-86 0 -155 -53z" />
<glyph unicode="&#xd2;" horiz-adv-x="1742" d="M76 743v2q0 178 64.5 330t174 253.5t254 158.5t301.5 57q340 0 568.5 -230.5t228.5 -555.5q0 -328 -228.5 -557.5t-570.5 -229.5q-340 0 -566 229.5t-226 542.5zM381 758q0 -213 139 -365.5t354 -152.5q219 0 353.5 157.5t134.5 358.5q0 205 -134 362.5t-356 157.5 q-219 0 -355 -153.5t-136 -362.5v-2zM547 1835l86 190l493 -266l-77 -160z" />
<glyph unicode="&#xd3;" horiz-adv-x="1742" d="M76 743v2q0 178 64.5 330t174 253.5t254 158.5t301.5 57q340 0 568.5 -230.5t228.5 -555.5q0 -328 -228.5 -557.5t-570.5 -229.5q-340 0 -566 229.5t-226 542.5zM381 758q0 -213 139 -365.5t354 -152.5q219 0 353.5 157.5t134.5 358.5q0 205 -134 362.5t-356 157.5 q-219 0 -355 -153.5t-136 -362.5v-2zM616 1772l492 268l88 -193l-500 -237z" />
<glyph unicode="&#xd4;" horiz-adv-x="1742" d="M76 743v2q0 178 64.5 330t174 253.5t254 158.5t301.5 57q340 0 568.5 -230.5t228.5 -555.5q0 -328 -228.5 -557.5t-570.5 -229.5q-340 0 -566 229.5t-226 542.5zM381 758q0 -213 139 -365.5t354 -152.5q219 0 353.5 157.5t134.5 358.5q0 205 -134 362.5t-356 157.5 q-219 0 -355 -153.5t-136 -362.5v-2zM438 1645l346 315h181l340 -315h-269l-164 137l-163 -137h-271z" />
<glyph unicode="&#xd5;" horiz-adv-x="1742" d="M76 743v2q0 178 64.5 330t174 253.5t254 158.5t301.5 57q340 0 568.5 -230.5t228.5 -555.5q0 -328 -228.5 -557.5t-570.5 -229.5q-340 0 -566 229.5t-226 542.5zM381 758q0 -213 139 -365.5t354 -152.5q219 0 353.5 157.5t134.5 358.5q0 205 -134 362.5t-356 157.5 q-219 0 -355 -153.5t-136 -362.5v-2zM467 1845q109 74 217 74q63 0 174 -29q96 -29 166 -28q98 0 158 49l94 -178q-106 -78 -223 -78q-41 0 -172 31q-111 29 -162 28q-84 0 -158 -53z" />
<glyph unicode="&#xd6;" horiz-adv-x="1742" d="M76 743v2q0 178 64.5 330t174 253.5t254 158.5t301.5 57q340 0 568.5 -230.5t228.5 -555.5q0 -328 -228.5 -557.5t-570.5 -229.5q-340 0 -566 229.5t-226 542.5zM381 758q0 -213 139 -365.5t354 -152.5q219 0 353.5 157.5t134.5 358.5q0 205 -134 362.5t-356 157.5 q-219 0 -355 -153.5t-136 -362.5v-2zM520 1653v293h258v-293h-258zM963 1653v293h258v-293h-258z" />
<glyph unicode="&#xd7;" horiz-adv-x="1228" d="M111 184l317 318l-317 315l184 184l317 -315l320 318l186 -187l-319 -315l315 -318l-184 -184l-316 317l-319 -317z" />
<glyph unicode="&#xd8;" horiz-adv-x="1742" d="M76 758q0 334 229.5 560t566.5 226q199 0 369 -88l84 117h297l-188 -256q94 -88 163.5 -229.5t69.5 -329.5q0 -326 -228.5 -556.5t-570.5 -230.5q-201 0 -364 86l-86 -114h-297l188 254q-233 219 -233 561zM381 762q0 -195 111 -322l579 789q-80 47 -199 47 q-221 0 -356 -155.5t-135 -358.5zM674 287q86 -47 198 -47q221 0 355.5 157.5t134.5 358.5q0 174 -109 319z" />
<glyph unicode="&#xd9;" horiz-adv-x="1382" d="M139 584v932h305v-932q0 -150 43 -230q66 -115 205 -114q145 0 203 108q43 74 43 236v932h305v-932q0 -170 -37 -278.5t-123 -188.5q-152 -145 -389 -146q-254 0 -395 146q-98 94 -129 196.5t-31 270.5zM299 1827l84 192l494 -268l-78 -160z" />
<glyph unicode="&#xda;" horiz-adv-x="1382" d="M139 584v932h305v-932q0 -150 43 -230q66 -115 205 -114q145 0 203 108q43 74 43 236v932h305v-932q0 -170 -37 -278.5t-123 -188.5q-152 -145 -389 -146q-254 0 -395 146q-98 94 -129 196.5t-31 270.5zM492 1763l489 269l88 -193l-500 -237z" />
<glyph unicode="&#xdb;" horiz-adv-x="1382" d="M139 584v932h305v-932q0 -150 43 -230q66 -115 205 -114q145 0 203 108q43 74 43 236v932h305v-932q0 -170 -37 -278.5t-123 -188.5q-152 -145 -389 -146q-254 0 -395 146q-98 94 -129 196.5t-31 270.5zM258 1640l346 314h180l340 -314h-268l-164 136l-164 -136h-270z " />
<glyph unicode="&#xdc;" horiz-adv-x="1382" d="M139 584v932h305v-932q0 -150 43 -230q66 -115 205 -114q145 0 203 108q43 74 43 236v932h305v-932q0 -170 -37 -278.5t-123 -188.5q-152 -145 -389 -146q-254 0 -395 146q-98 94 -129 196.5t-31 270.5zM340 1647v290h258v-290h-258zM782 1647v290h260v-290h-260z" />
<glyph unicode="&#xdd;" horiz-adv-x="1277" d="M23 1516h329l287 -689l289 689h327l-462 -973v-543h-306v543zM453 1763l491 269l88 -193l-500 -237z" />
<glyph unicode="&#xde;" horiz-adv-x="1239" d="M137 1516h305v-230l154 2q184 0 279.5 -24.5t166.5 -81.5q82 -68 127 -170.5t45 -215t-44 -219t-115 -163.5q-80 -66 -171 -93.5t-255 -27.5h-187v-293h-305v1516zM442 561h181q125 0 198 39q100 55 100.5 190.5t-104.5 190.5q-74 39 -207 39h-168v-459z" />
<glyph unicode="&#xdf;" horiz-adv-x="1351" d="M129 0v899q0 186 23.5 284.5t93.5 178.5q78 90 189.5 139t223.5 49q203 0 333 -123.5t130 -296.5q0 -193 -166 -290q139 -29 230.5 -140.5t91.5 -255.5q0 -193 -143.5 -336t-362.5 -143q-274 2 -375 223v-188h-268zM397 971v-553h156q12 -88 68.5 -144.5t152.5 -56.5 q104 0 170 66.5t66 156.5q0 104 -64 164q-74 70 -258 70h-113v205h66q90 0 150.5 58t60.5 148q0 98 -60.5 156.5t-160.5 58.5q-137 0 -197 -118q-37 -74 -37 -211z" />
<glyph unicode="&#xe0;" horiz-adv-x="1425" d="M74 563q0 262 164.5 429t406.5 167q141 0 238.5 -59.5t140.5 -138.5v163h268v-1124h-268v162q-51 -96 -153.5 -146.5t-225.5 -50.5q-260 0 -415.5 174t-155.5 424zM342 557q0 -76 33 -150.5t114.5 -133t194.5 -58.5q209 0 299 180q37 68 43 158v18q0 74 -31 140 q-39 86 -118.5 142t-194.5 56q-156 0 -248 -105.5t-92 -244.5v-2zM367 1483l86 190l493 -268l-78 -160z" />
<glyph unicode="&#xe1;" horiz-adv-x="1425" d="M74 563q0 262 164.5 429t406.5 167q141 0 238.5 -59.5t140.5 -138.5v163h268v-1124h-268v162q-51 -96 -153.5 -146.5t-225.5 -50.5q-260 0 -415.5 174t-155.5 424zM342 557q0 -76 33 -150.5t114.5 -133t194.5 -58.5q209 0 299 180q37 68 43 158v18q0 74 -31 140 q-39 86 -118.5 142t-194.5 56q-156 0 -248 -105.5t-92 -244.5v-2zM457 1417l489 271l90 -195l-499 -238z" />
<glyph unicode="&#xe2;" horiz-adv-x="1425" d="M74 563q0 262 164.5 429t406.5 167q141 0 238.5 -59.5t140.5 -138.5v163h268v-1124h-268v162q-51 -96 -153.5 -146.5t-225.5 -50.5q-260 0 -415.5 174t-155.5 424zM258 1294l346 316h180l340 -316h-268l-164 138l-164 -138h-270zM342 557q0 -76 33 -150.5t114.5 -133 t194.5 -58.5q209 0 299 180q37 68 43 158v18q0 74 -31 140q-39 86 -118.5 142t-194.5 56q-156 0 -248 -105.5t-92 -244.5v-2z" />
<glyph unicode="&#xe3;" horiz-adv-x="1425" d="M74 563q0 262 164.5 429t406.5 167q141 0 238.5 -59.5t140.5 -138.5v163h268v-1124h-268v162q-51 -96 -153.5 -146.5t-225.5 -50.5q-260 0 -415.5 174t-155.5 424zM295 1493q104 76 217 76q63 0 174 -29q96 -29 164 -29q98 0 160 50l94 -179q-106 -78 -223 -77 q-39 0 -174 30q-123 29 -162 29q-82 0 -156 -53zM342 557q0 -76 33 -150.5t114.5 -133t194.5 -58.5q209 0 299 180q37 68 43 158v18q0 74 -31 140q-39 86 -118.5 142t-194.5 56q-156 0 -248 -105.5t-92 -244.5v-2z" />
<glyph unicode="&#xe4;" horiz-adv-x="1425" d="M74 563q0 262 164.5 429t406.5 167q141 0 238.5 -59.5t140.5 -138.5v163h268v-1124h-268v162q-51 -96 -153.5 -146.5t-225.5 -50.5q-260 0 -415.5 174t-155.5 424zM334 1300v291h260v-291h-260zM342 557q0 -76 33 -150.5t114.5 -133t194.5 -58.5q209 0 299 180 q37 68 43 158v18q0 74 -31 140q-39 86 -118.5 142t-194.5 56q-156 0 -248 -105.5t-92 -244.5v-2zM778 1300v291h258v-291h-258z" />
<glyph unicode="&#xe5;" horiz-adv-x="1425" d="M74 563q0 262 164.5 429t406.5 167q141 0 238.5 -59.5t140.5 -138.5v163h268v-1124h-268v162q-51 -96 -153.5 -146.5t-225.5 -50.5q-260 0 -415.5 174t-155.5 424zM342 557q0 -76 33 -150.5t114.5 -133t194.5 -58.5q209 0 299 180q37 68 43 158v18q0 74 -31 140 q-39 86 -118.5 142t-194.5 56q-156 0 -248 -105.5t-92 -244.5v-2zM438 1458q0 100 70 170t170 70h2q98 0 168 -71t70 -169t-70 -168.5t-170 -70.5t-170 70.5t-70 168.5zM578 1458q0 -41 29.5 -69.5t70.5 -28.5t70.5 29.5t29.5 70.5t-28.5 71t-71.5 30h-2q-43 0 -70.5 -30 t-27.5 -73z" />
<glyph unicode="&#xe6;" horiz-adv-x="2267" d="M74 561q0 254 163.5 426t415.5 172q123 0 224.5 -54t144.5 -144v163h246v-161q119 197 360 196q233 0 395 -166q88 -88 137 -220q36 -99 36 -212q0 -39 -5 -80h-907q12 -106 72.5 -174.5t124 -90t127.5 -21.5q164 0 278 151h273q-72 -168 -206 -274.5t-327 -106.5 q-117 0 -211 54.5t-147 148.5v-168h-246v168q-47 -94 -147.5 -148.5t-225.5 -54.5q-139 0 -252.5 56.5t-181.5 146.5t-104.5 191.5t-36.5 201.5zM342 565q0 -152 99.5 -250t246.5 -98q139 0 236.5 100.5t97.5 241.5q0 150 -94 248q-98 102 -250 102q-156 0 -246 -109.5 t-90 -232.5v-2zM1290 664h639q-31 135 -114.5 200.5t-200.5 65.5q-147 0 -238 -96q-66 -68 -86 -170z" />
<glyph unicode="&#xe7;" horiz-adv-x="1318" d="M72 563q0 250 171 423t421 173q213 0 375.5 -124t211.5 -328h-274q-37 88 -117 142t-186 54h-6q-134 0 -234 -96q-92 -92 -92 -243.5t94 -249t238 -97.5q115 0 191.5 56.5t111.5 136.5h274q-49 -186 -198.5 -309.5t-354.5 -131.5l-41 -80q18 6 41 7q63 0 114.5 -48.5 t51.5 -128.5q0 -78 -55 -138t-154 -60q-31 0 -64.5 7t-81.5 50t-58 119h131q18 -61 73 -62q35 0 56.5 23t23.5 61q-2 35 -23.5 55.5t-52.5 20.5q-41 0 -63 -37l-111 58l76 161q-213 35 -351 199t-138 387z" />
<glyph unicode="&#xe8;" horiz-adv-x="1308" d="M61 559q0 244 170 422t420 178q254 0 420 -172q171 -176 171 -425q0 -43 -5 -89h-905q8 -129 105 -205q95 -74 214 -73h6q186 0 271 151h276q-78 -182 -227 -283q-141 -98 -322 -98q-254 0 -424 176t-170 418zM332 1483l84 190l493 -268l-75 -160zM336 678h637 q-8 92 -96 174q-86 80 -217 80h-7q-137 0 -223 -80t-94 -174z" />
<glyph unicode="&#xe9;" horiz-adv-x="1308" d="M61 559q0 244 170 422t420 178q254 0 420 -172q171 -176 171 -425q0 -43 -5 -89h-905q8 -129 105 -205q95 -74 214 -73h6q186 0 271 151h276q-78 -182 -227 -283q-141 -98 -322 -98q-254 0 -424 176t-170 418zM336 678h637q-8 92 -96 174q-86 80 -217 80h-7 q-137 0 -223 -80t-94 -174zM397 1417l492 271l88 -195l-500 -238z" />
<glyph unicode="&#xea;" horiz-adv-x="1308" d="M61 559q0 244 170 422t420 178q254 0 420 -172q171 -176 171 -425q0 -43 -5 -89h-905q8 -129 105 -205q95 -74 214 -73h6q186 0 271 151h276q-78 -182 -227 -283q-141 -98 -322 -98q-254 0 -424 176t-170 418zM221 1294l348 316h181l337 -316h-268l-164 138l-161 -138 h-273zM336 678h637q-8 92 -96 174q-86 80 -217 80h-7q-137 0 -223 -80t-94 -174z" />
<glyph unicode="&#xeb;" horiz-adv-x="1308" d="M61 559q0 244 170 422t420 178q254 0 420 -172q171 -176 171 -425q0 -43 -5 -89h-905q8 -129 105 -205q95 -74 214 -73h6q186 0 271 151h276q-78 -182 -227 -283q-141 -98 -322 -98q-254 0 -424 176t-170 418zM301 1300v291h258v-291h-258zM336 678h637q-8 92 -96 174 q-86 80 -217 80h-7q-137 0 -223 -80t-94 -174zM743 1300v291h261v-291h-261z" />
<glyph unicode="&#xec;" horiz-adv-x="532" d="M-100 1483l86 190l493 -268l-78 -160zM133 0v1124h268v-1124h-268z" />
<glyph unicode="&#xed;" horiz-adv-x="532" d="M51 1417l492 271l88 -195l-500 -238zM133 0v1124h268v-1124h-268z" />
<glyph unicode="&#xee;" horiz-adv-x="532" d="M-166 1294l346 316h180l340 -316h-268l-164 138l-164 -138h-270zM133 0v1124h268v-1124h-268z" />
<glyph unicode="&#xef;" horiz-adv-x="532" d="M-84 1300v291h258v-291h-258zM133 0v1124h268v-1124h-268zM358 1300v291h260v-291h-260z" />
<glyph unicode="&#xf0;" horiz-adv-x="1351" d="M74 559q2 270 159.5 428t376.5 158q172 0 281 -113q-18 41 -55 86q-78 84 -160 129l-477 -119v177l278 67q-70 39 -229 90l278 78q119 -43 234 -104l426 104v-176l-240 -55q145 -102 234 -273q98 -184 98 -415q0 -287 -170 -469.5t-432 -184.5q-254 0 -428 163t-174 429z M342 561q0 -141 90 -241.5t246 -100.5t244 105.5t88 240.5q0 133 -90.5 238.5t-235.5 105.5q-162 0 -252 -102t-90 -244v-2z" />
<glyph unicode="&#xf1;" horiz-adv-x="1298" d="M133 0v1124h252q0 -96 -2 -149q103 184 345 184h5q104 0 185 -31.5t127.5 -80t76 -116t38.5 -128t9 -125.5v-678h-268v610q0 297 -244 297q-135 -2 -195.5 -79.5t-60.5 -206.5v-621h-268zM246 1493q104 76 217 76q63 0 174 -29q96 -29 166 -29q98 0 158 50l94 -179 q-106 -78 -221 -77q-43 0 -175 30q-127 29 -161 29q-80 0 -158 -53z" />
<glyph unicode="&#xf2;" horiz-adv-x="1351" d="M74 563v2q0 233 162.5 412.5t439 179.5t439.5 -179t163 -414.5t-163 -416t-439.5 -180.5t-439 180t-162.5 416zM342 561q0 -145 97.5 -243.5t236.5 -98.5t235.5 98.5t96.5 246t-96.5 245.5t-235.5 98t-236.5 -98t-97.5 -246v-2zM352 1483l86 190l492 -268l-76 -160z" />
<glyph unicode="&#xf3;" horiz-adv-x="1351" d="M74 563v2q0 233 162.5 412.5t439 179.5t439.5 -179t163 -414.5t-163 -416t-439.5 -180.5t-439 180t-162.5 416zM342 561q0 -145 97.5 -243.5t236.5 -98.5t235.5 98.5t96.5 246t-96.5 245.5t-235.5 98t-236.5 -98t-97.5 -246v-2zM420 1417l489 271l88 -195l-499 -238z" />
<glyph unicode="&#xf4;" horiz-adv-x="1351" d="M74 563v2q0 233 162.5 412.5t439 179.5t439.5 -179t163 -414.5t-163 -416t-439.5 -180.5t-439 180t-162.5 416zM242 1294l348 316h180l338 -316h-268l-164 138l-162 -138h-272zM342 561q0 -145 97.5 -243.5t236.5 -98.5t235.5 98.5t96.5 246t-96.5 245.5t-235.5 98 t-236.5 -98t-97.5 -246v-2z" />
<glyph unicode="&#xf5;" horiz-adv-x="1351" d="M74 563v2q0 233 162.5 412.5t439 179.5t439.5 -179t163 -414.5t-163 -416t-439.5 -180.5t-439 180t-162.5 416zM272 1493q104 76 217 76q63 0 175 -29q96 -29 163 -29q98 0 160 50l94 -179q-106 -78 -223 -77q-39 0 -174 30q-123 29 -162 29q-82 0 -155 -53zM342 561 q0 -145 97.5 -243.5t236.5 -98.5t235.5 98.5t96.5 246t-96.5 245.5t-235.5 98t-236.5 -98t-97.5 -246v-2z" />
<glyph unicode="&#xf6;" horiz-adv-x="1351" d="M74 563v2q0 233 162.5 412.5t439 179.5t439.5 -179t163 -414.5t-163 -416t-439.5 -180.5t-439 180t-162.5 416zM326 1300v291h258v-291h-258zM342 561q0 -145 97.5 -243.5t236.5 -98.5t235.5 98.5t96.5 246t-96.5 245.5t-235.5 98t-236.5 -98t-97.5 -246v-2zM768 1300 v291h258v-291h-258z" />
<glyph unicode="&#xf7;" horiz-adv-x="1228" d="M100 387v260h1028v-260h-1028zM485 -88v287h256v-287h-256zM485 834v286h256v-286h-256z" />
<glyph unicode="&#xf8;" horiz-adv-x="1351" d="M74 -70l159 215q-160 164 -159 414q0 238 161.5 418t440.5 180q162 0 266 -57l66 92h268l-160 -217q162 -174 162 -412q0 -154 -67.5 -287t-209 -222t-325.5 -89q-150 0 -264 60l-68 -95h-270zM342 563q0 -125 68 -196l378 516q-49 25 -112 24q-141 0 -237.5 -99.5 t-96.5 -244.5zM565 242q53 -25 111 -25q147 0 239.5 101.5t92.5 244.5q0 119 -64 191z" />
<glyph unicode="&#xf9;" horiz-adv-x="1302" d="M129 444v680h268v-612q0 -137 57 -217q55 -78 182 -78h7q258 0 258 287v620h268v-1124h-251v150q-99 -184 -345 -185h-6q-106 0 -187 32t-127 80t-76 114.5t-39 126.5t-9 126zM258 1483l86 190l494 -268l-78 -160z" />
<glyph unicode="&#xfa;" horiz-adv-x="1302" d="M129 444v680h268v-612q0 -137 57 -217q55 -78 182 -78h7q258 0 258 287v620h268v-1124h-251v150q-99 -184 -345 -185h-6q-106 0 -187 32t-127 80t-76 114.5t-39 126.5t-9 126zM451 1417l489 271l90 -195l-500 -238z" />
<glyph unicode="&#xfb;" horiz-adv-x="1302" d="M129 444v680h268v-612q0 -137 57 -217q55 -78 182 -78h7q258 0 258 287v620h268v-1124h-251v150q-99 -184 -345 -185h-6q-106 0 -187 32t-127 80t-76 114.5t-39 126.5t-9 126zM217 1294l348 316h180l338 -316h-268l-162 138l-164 -138h-272z" />
<glyph unicode="&#xfc;" horiz-adv-x="1302" d="M129 444v680h268v-612q0 -137 57 -217q55 -78 182 -78h7q258 0 258 287v620h268v-1124h-251v150q-99 -184 -345 -185h-6q-106 0 -187 32t-127 80t-76 114.5t-39 126.5t-9 126zM301 1300v291h258v-291h-258zM743 1300v291h258v-291h-258z" />
<glyph unicode="&#xfd;" horiz-adv-x="1128" d="M8 1124h287l274 -747l271 747h286l-591 -1517h-287l184 436zM379 1417l489 271l90 -195l-499 -238z" />
<glyph unicode="&#xfe;" horiz-adv-x="1415" d="M131 -393v1909h268v-412v-129q57 84 156.5 133t226.5 49q182 0 314.5 -94t191 -228.5t58.5 -281.5q0 -248 -160 -418t-400 -170q-258 0 -387 185v-144v-399h-268zM387 559q0 -135 94 -235q98 -109 252 -109q152 0 248 102.5t96 243.5v2q0 137 -95 240.5t-249 103.5 q-150 0 -250 -106q-96 -101 -96 -242z" />
<glyph unicode="&#xff;" horiz-adv-x="1128" d="M8 1124h287l274 -747l271 747h286l-591 -1517h-287l184 436zM213 1300v291h258v-291h-258zM655 1300v291h260v-291h-260z" />
<glyph unicode="&#x152;" horiz-adv-x="2269" d="M76 756q0 209 95 387t277.5 289.5t415.5 111.5q180 0 303 -63.5t185 -157.5v96v97h811v-269h-516v-344h503v-268h-503v-367h516v-268h-811v98v95q-195 -221 -492 -222q-334 0 -559 228.5t-225 556.5zM381 754q0 -197 130 -355.5t351 -158.5t355.5 154.5t134.5 367.5 q-4 219 -138.5 366.5t-349.5 147.5q-221 0 -352 -154.5t-131 -365.5v-2z" />
<glyph unicode="&#x153;" horiz-adv-x="2244" d="M74 559q0 248 168 424t438 176q147 0 271 -69.5t182 -176.5q57 96 178 170t274 74q248 0 420 -176q96 -98 140 -232q30 -92 30 -183q0 -42 -6 -85h-905q10 -131 99 -208.5t218 -77.5q186 0 279 149h276q-63 -152 -182 -250q-160 -129 -367 -129q-178 0 -289.5 76 t-162.5 174q-57 -104 -174 -177t-293 -73q-262 0 -428 179t-166 415zM342 559q0 -143 97.5 -243.5t238.5 -100.5q147 0 238.5 107.5t91.5 238.5q0 135 -93.5 241.5t-238.5 106.5q-133 0 -233.5 -96t-100.5 -252v-2zM1272 666h633q-18 106 -104.5 184t-211.5 78 q-121 0 -210 -71.5t-107 -190.5z" />
<glyph unicode="&#x178;" horiz-adv-x="1277" d="M23 1516h329l287 -689l289 689h327l-462 -973v-543h-306v543zM287 1647v290h260v-290h-260zM729 1647v290h260v-290h-260z" />
<glyph unicode="&#x2c6;" horiz-adv-x="1136" d="M135 1294l346 316h181l339 -316h-268l-164 138l-163 -138h-271z" />
<glyph unicode="&#x2dc;" horiz-adv-x="1136" d="M164 1493q104 76 217 76q63 0 174 -29q96 -29 166 -29q98 0 158 50l94 -179q-106 -78 -223 -77q-41 0 -172 30q-127 29 -162 29q-80 0 -158 -53z" />
<glyph unicode="&#x2013;" horiz-adv-x="1024" d="M72 453v264h880v-264h-880z" />
<glyph unicode="&#x2014;" horiz-adv-x="2048" d="M72 453v264h1904v-264h-1904z" />
<glyph unicode="&#x2018;" horiz-adv-x="624" d="M178 1516h236l161 -463h-202z" />
<glyph unicode="&#x2019;" horiz-adv-x="624" d="M49 1053l162 463h235l-196 -463h-201z" />
<glyph unicode="&#x201a;" horiz-adv-x="624" d="M49 -193l162 461h235l-196 -461h-201z" />
<glyph unicode="&#x201c;" horiz-adv-x="1042" d="M236 1516h235l162 -463h-201zM565 1516h236l162 -463h-201z" />
<glyph unicode="&#x201d;" horiz-adv-x="1042" d="M80 1053l162 463h233l-194 -463h-201zM410 1053l161 463h234l-195 -463h-200z" />
<glyph unicode="&#x201e;" horiz-adv-x="1042" d="M80 -193l162 461h233l-194 -461h-201zM410 -193l161 461h234l-195 -461h-200z" />
<glyph unicode="&#x2022;" horiz-adv-x="1327" d="M385 770q0 115 81 198t200 83h2q113 0 193.5 -83t80.5 -198q0 -117 -82 -199t-196 -82q-117 0 -198 82t-81 199z" />
<glyph unicode="&#x2026;" horiz-adv-x="2048" d="M203 0v303h280v-303h-280zM885 0v303h280v-303h-280zM1567 0v303h280v-303h-280z" />
<glyph unicode="&#x2039;" horiz-adv-x="468" d="M39 578l209 378h194l-209 -378l209 -379h-194z" />
<glyph unicode="&#x203a;" horiz-adv-x="468" d="M25 199l208 379l-208 378h196l209 -378l-209 -379h-196z" />
<glyph unicode="&#x20ac;" horiz-adv-x="1146" d="M8 481l70 195h112v112h-182l70 195h115q0 113 38.5 221.5t100.5 179.5q141 162 377 162q160 0 279.5 -69.5t160.5 -143.5l-88 -248q-88 203 -352 203q-121 0 -183.5 -91t-62.5 -214h559l-70 -195h-489v-112h448l-71 -195h-371q18 -106 76.5 -180t163.5 -74q102 0 194 40 t131 108v-299q-33 -35 -120 -71t-205 -36q-231 0 -363.5 144.5t-150.5 367.5h-187z" />
<glyph unicode="&#x2122;" horiz-adv-x="2027" d="M37 1341v175h612v-175h-203v-735h-206v735h-203zM770 606v910h264l244 -631l240 631h262v-910h-195v670l-242 -670h-137l-241 666v-666h-195z" />
<glyph unicode="&#xe000;" horiz-adv-x="1125" d="M0 1125h1125v-1125h-1125v1125z" />
<glyph unicode="&#xfb01;" horiz-adv-x="1124" d="M10 918v206h140v64q0 96 29.5 164.5t70.5 104.5t107.5 56.5t116.5 25.5t122 5v-207q-37 0 -58.5 -3t-54 -16t-49 -48t-16.5 -90v-56h573v-1124h-268v918h-305v-918h-268v918h-140zM723 1276v240h268v-240h-268z" />
<glyph unicode="&#xfb02;" horiz-adv-x="1124" d="M10 918v206h140v64q0 96 29.5 164.5t70.5 104.5t107.5 56.5t116.5 25.5t122 5v-207q-37 0 -58.5 -3t-54 -16t-49 -48t-16.5 -90v-56h305v389h268v-1513h-268v918h-305v-918h-268v918h-140z" />
<glyph unicode="&#xfb03;" horiz-adv-x="1765" d="M10 918v206h140v64q0 96 29.5 164.5t70.5 104.5t107.5 56.5t116.5 25.5t122 5v-207q-37 0 -58.5 -3t-54 -16t-49 -48t-16.5 -90v-56h178v-206h-178v-918h-268v918h-140zM627 918v206h139v64q0 96 29.5 164.5t70.5 104.5t107.5 56.5t117 25.5t121.5 5v-207q-37 0 -58 -3 t-54 -16t-49.5 -48t-16.5 -90v-56h178v-206h-178v-918h-268v918h-139zM1366 0v1124h268v-1124h-268zM1366 1276v240h268v-240h-268z" />
<glyph unicode="&#xfb04;" horiz-adv-x="1765" d="M10 918v206h140v64q0 96 29.5 164.5t70.5 104.5t107.5 56.5t116.5 25.5t122 5v-207q-37 0 -58.5 -3t-54 -16t-49 -48t-16.5 -90v-56h178v-206h-178v-918h-268v918h-140zM627 918v206h139v64q0 96 29.5 164.5t70.5 104.5t107.5 56.5t117 25.5t121.5 5v-207q-37 0 -58 -3 t-54 -16t-49.5 -48t-16.5 -90v-56h178v-206h-178v-918h-268v918h-139zM1366 0v1516h268v-1516h-268z" />
</font>
</defs>
</svg>
