<?xml version="1.0" encoding="UTF-8"?>
<svg width="1621px" height="1057px" viewBox="0 0 1621 1057" version="1.1" xmlns="http://www.w3.org/2000/svg" xmlns:xlink="http://www.w3.org/1999/xlink" style="background: #FFFFFF;">
    <!-- Generator: Sketch 43.1 (39012) - http://www.bohemiancoding.com/sketch -->
    <title>tech-stack</title>
    <desc>Created with Sketch.</desc>
    <defs>
        <rect id="path-1" x="0" y="0" width="105" height="61.75" rx="30.875"></rect>
        <rect id="path-2" x="0" y="0" width="105" height="61.75" rx="30.875"></rect>
        <rect id="path-3" x="0" y="0" width="105" height="61.75" rx="30.875"></rect>
        <rect id="path-4" x="0" y="0" width="105" height="61.75" rx="30.875"></rect>
        <rect id="path-5" x="0" y="0" width="105" height="61.75" rx="30.875"></rect>
        <rect id="path-6" x="0" y="0" width="105" height="654" rx="8"></rect>
        <rect id="path-7" x="0" y="0" width="105" height="61.75" rx="30.875"></rect>
        <rect id="path-8" x="0" y="0" width="105" height="61.75" rx="30.875"></rect>
    </defs>
    <g id="Architecture" stroke="none" stroke-width="1" fill="none" fill-rule="evenodd">
        <g id="tech-stack">
            <rect id="Rectangle-Copy-3" fill="#FAC955" x="116" y="740" width="11" height="66"></rect>
            <g id="Arrow-33-Copy-5" transform="translate(121.500000, 803.000000) rotate(-270.000000) translate(-121.500000, -803.000000) translate(91.500000, 787.500000)" fill="#FAC955">
                <g id="Arrow-33">
                    <path d="M4.61852778e-14,9.86704743 L41.6621147,9.86704743 L38.7845097,0.826043805 C38.6774813,0.489731321 38.8709002,0.132675807 39.216554,0.0285271778 C39.3981405,-0.0261798569 39.5952152,-0.00145905981 39.7565963,0.0962894451 L59.6909769,14.6173513 C59.9981592,14.8034011 60.0921759,15.1965115 59.9009453,15.4954049 C59.8738344,15.5377834 59.8416919,15.5769236 59.8051859,15.6120095 L42.0924032,30.1903857 C41.8350006,30.4378104 41.4201741,30.4353626 41.1658769,30.1849035 C41.0157516,30.0370632 40.9491341,29.827287 40.9873697,29.6228146 L42.5232813,21.4076181 C42.5226786,21.4078859 1.87738713e-13,21.4076181 1.87738713e-13,21.4076181 L4.61852778e-14,9.86704743 Z" id="Arrow-33-shape"></path>
                </g>
            </g>
            <g id="Rectangle-Comments" transform="translate(35.000000, 766.000000)">
                <rect id="Background" stroke="#F1F3EE" stroke-width="3" x="1.5" y="19.5" width="405" height="251" rx="8"></rect>
                <text id="Text" font-family="AvantGardeGothicITCW01Dm, Avant Garde Gothic ITCW01Dm" font-size="24" font-weight="normal" fill="#9B9B9B">
                    <tspan x="26" y="18">DATA PROCESSING</tspan>
                </text>
            </g>
            <g id="Rectangle-Comments" transform="translate(35.000000, 366.000000)">
                <rect id="Background" stroke="#F1F3EE" stroke-width="3" x="1.5" y="19.5" width="405" height="348" rx="8"></rect>
                <text id="Text" font-family="AvantGardeGothicITCW01Dm, Avant Garde Gothic ITCW01Dm" font-size="24" font-weight="normal" fill="#9B9B9B">
                    <tspan x="26" y="18">ANALYTICS</tspan>
                </text>
            </g>
            <rect id="Rectangle-2" fill="#FAC955" x="231" y="447" width="9" height="6"></rect>
            <rect id="Rectangle-2" fill="#FAC955" transform="translate(230.000000, 566.000000) rotate(-270.000000) translate(-230.000000, -566.000000) " x="162" y="563" width="136" height="6"></rect>
            <g id="Rectangle-Comments-Copy-2" transform="translate(1047.000000, 747.000000)">
                <path d="M150.5,288.5 L150.5,143 L150.5,141.5 L149,141.5 L1.5,141.5 L1.5,33.0031208 C1.5,29.4088176 4.40923473,26.5 8.00982296,26.5 L341.990177,26.5 C345.585813,26.5 348.5,29.4116955 348.5,33.0031208 L348.5,281.996879 C348.5,285.591182 345.590765,288.5 341.990177,288.5 L150.5,288.5 Z" id="Combined-Shape" stroke="#F1F3EE" stroke-width="3"></path>
                <text id="Text" font-family="AvantGardeGothicITCW01Dm, Avant Garde Gothic ITCW01Dm" font-size="24" font-weight="normal" fill="#9B9B9B">
                    <tspan x="25" y="25">AUCTIONS</tspan>
                </text>
            </g>
            <g id="Rectangle-Comments" transform="translate(887.000000, 40.000000)">
                <rect id="Background" stroke="#F1F3EE" stroke-width="3" x="1.5" y="19.5" width="405" height="262" rx="8"></rect>
                <text id="Text" font-family="AvantGardeGothicITCW01Dm, Avant Garde Gothic ITCW01Dm" font-size="24" font-weight="normal" fill="#9B9B9B">
                    <tspan x="26" y="18">PUBLISHING</tspan>
                </text>
            </g>
            <g id="Rectangle-Comments" transform="translate(1045.000000, 364.000000)">
                <rect id="Background" stroke="#F1F3EE" stroke-width="3" x="1.5" y="19.5" width="532" height="321" rx="8"></rect>
                <text id="Text" font-family="AvantGardeGothicITCW01Dm, Avant Garde Gothic ITCW01Dm" font-size="24" font-weight="normal" fill="#9B9B9B">
                    <tspan x="26" y="18">PARTNER SUCCESS</tspan>
                </text>
            </g>
            <g id="Smaller-Round-Button" transform="translate(528.000000, 517.000000)">
                <g id="Small-Button-Copy">
                    <path d="M4.14473684,64.125 C4.14473684,78.5559211 14.3484456,90.25 26.9378279,90.25 L78.0621721,90.25 C90.6440573,90.25 100.855263,78.5493386 100.855263,64.125 C100.855263,49.6940789 90.6515544,36.4166667 78.0621721,36.4166667 L26.9378279,36.4166667 C14.3559427,36.4166667 4.14473684,49.7006614 4.14473684,64.125 Z M4.90835442e-14,62.5416667 C4.90835442e-14,45.489875 0,30.0338542 0,30.0338542 L105,31.8815918 C105,31.8815918 105,45.4861258 105,62.5416667 C105,79.5934583 92.9295537,93.4166667 78.0621721,93.4166667 L26.9378279,93.4166667 C12.0604763,93.4166667 4.90835442e-14,79.5972075 4.90835442e-14,62.5416667 Z" id="Background-Copy" fill="#9B9B9B" fill-rule="nonzero"></path>
                    <g id="Background">
                        <use fill="#FFFFFF" fill-rule="evenodd" xlink:href="#path-1"></use>
                        <rect stroke="#9B9B9B" stroke-width="2" x="1" y="1" width="103" height="59.75" rx="29.875"></rect>
                    </g>
                    <text id="Text" font-family="AvantGardeGothicITCW01Dm, Avant Garde Gothic ITCW01Dm" font-size="16" font-weight="normal" fill="#9B9B9B">
                        <tspan x="17.62" y="27.0833333">MONGO</tspan>
                        <tspan x="41.62" y="47.0833333">DB</tspan>
                    </text>
                </g>
            </g>
            <g id="Smaller-Round-Button" transform="translate(528.000000, 708.000000)">
                <g id="Small-Button-Copy">
                    <path d="M4.14473684,64.125 C4.14473684,78.5559211 14.3484456,90.25 26.9378279,90.25 L78.0621721,90.25 C90.6440573,90.25 100.855263,78.5493386 100.855263,64.125 C100.855263,49.6940789 90.6515544,36.4166667 78.0621721,36.4166667 L26.9378279,36.4166667 C14.3559427,36.4166667 4.14473684,49.7006614 4.14473684,64.125 Z M4.90835442e-14,62.5416667 C4.90835442e-14,45.489875 0,30.0338542 0,30.0338542 L105,31.8815918 C105,31.8815918 105,45.4861258 105,62.5416667 C105,79.5934583 92.9295537,93.4166667 78.0621721,93.4166667 L26.9378279,93.4166667 C12.0604763,93.4166667 4.90835442e-14,79.5972075 4.90835442e-14,62.5416667 Z" id="Background-Copy" fill="#9B9B9B" fill-rule="nonzero"></path>
                    <g id="Background">
                        <use fill="#FFFFFF" fill-rule="evenodd" xlink:href="#path-2"></use>
                        <rect stroke="#9B9B9B" stroke-width="2" x="1" y="1" width="103" height="59.75" rx="29.875"></rect>
                    </g>
                    <text id="Text" font-family="AvantGardeGothicITCW01Dm, Avant Garde Gothic ITCW01Dm" font-size="16" font-weight="normal" fill="#9B9B9B">
                        <tspan x="32.98" y="27.0833333">MEM</tspan>
                        <tspan x="22.9" y="47.0833333">CACHE</tspan>
                    </text>
                </g>
            </g>
            <g id="Smaller-Round-Button" transform="translate(528.000000, 38.000000)">
                <g id="Small-Button-Copy">
                    <path d="M4.14473684,64.125 C4.14473684,78.5559211 14.3484456,90.25 26.9378279,90.25 L78.0621721,90.25 C90.6440573,90.25 100.855263,78.5493386 100.855263,64.125 C100.855263,49.6940789 90.6515544,36.4166667 78.0621721,36.4166667 L26.9378279,36.4166667 C14.3559427,36.4166667 4.14473684,49.7006614 4.14473684,64.125 Z M4.90835442e-14,62.5416667 C4.90835442e-14,45.489875 0,30.0338542 0,30.0338542 L105,31.8815918 C105,31.8815918 105,45.4861258 105,62.5416667 C105,79.5934583 92.9295537,93.4166667 78.0621721,93.4166667 L26.9378279,93.4166667 C12.0604763,93.4166667 4.90835442e-14,79.5972075 4.90835442e-14,62.5416667 Z" id="Background-Copy" fill="#9B9B9B" fill-rule="nonzero"></path>
                    <g id="Background">
                        <use fill="#FFFFFF" fill-rule="evenodd" xlink:href="#path-3"></use>
                        <rect stroke="#9B9B9B" stroke-width="2" x="1" y="1" width="103" height="59.75" rx="29.875"></rect>
                    </g>
                    <text id="Text" font-family="AvantGardeGothicITCW01Dm, Avant Garde Gothic ITCW01Dm" font-size="16" font-weight="normal" fill="#9B9B9B">
                        <tspan x="30.1" y="27.0833333">REDIS</tspan>
                    </text>
                </g>
            </g>
            <g id="Smaller-Round-Button" transform="translate(525.000000, 410.000000)">
                <g id="Small-Button-Copy">
                    <path d="M4.14473684,64.125 C4.14473684,78.5559211 14.3484456,90.25 26.9378279,90.25 L78.0621721,90.25 C90.6440573,90.25 100.855263,78.5493386 100.855263,64.125 C100.855263,49.6940789 90.6515544,36.4166667 78.0621721,36.4166667 L26.9378279,36.4166667 C14.3559427,36.4166667 4.14473684,49.7006614 4.14473684,64.125 Z M4.90835442e-14,62.5416667 C4.90835442e-14,45.489875 0,30.0338542 0,30.0338542 L105,31.8815918 C105,31.8815918 105,45.4861258 105,62.5416667 C105,79.5934583 92.9295537,93.4166667 78.0621721,93.4166667 L26.9378279,93.4166667 C12.0604763,93.4166667 4.90835442e-14,79.5972075 4.90835442e-14,62.5416667 Z" id="Background-Copy" fill="#9B9B9B" fill-rule="nonzero"></path>
                    <g id="Background">
                        <use fill="#FFFFFF" fill-rule="evenodd" xlink:href="#path-4"></use>
                        <rect stroke="#9B9B9B" stroke-width="2" x="1" y="1" width="103" height="59.75" rx="29.875"></rect>
                    </g>
                    <text id="Text" font-family="AvantGardeGothicITCW01Dm, Avant Garde Gothic ITCW01Dm" font-size="16" font-weight="normal" fill="#9B9B9B">
                        <tspan x="20.66" y="27.0833333">ELASTIC </tspan>
                        <tspan x="20.02" y="47.0833333">SEARCH</tspan>
                    </text>
                </g>
            </g>
            <g id="Smaller-Round-Button" transform="translate(269.000000, 576.000000)">
                <g id="Small-Button-Copy">
                    <path d="M4.14473684,64.125 C4.14473684,78.5559211 14.3484456,90.25 26.9378279,90.25 L78.0621721,90.25 C90.6440573,90.25 100.855263,78.5493386 100.855263,64.125 C100.855263,49.6940789 90.6515544,36.4166667 78.0621721,36.4166667 L26.9378279,36.4166667 C14.3559427,36.4166667 4.14473684,49.7006614 4.14473684,64.125 Z M4.90835442e-14,62.5416667 C4.90835442e-14,45.489875 0,30.0338542 0,30.0338542 L105,31.8815918 C105,31.8815918 105,45.4861258 105,62.5416667 C105,79.5934583 92.9295537,93.4166667 78.0621721,93.4166667 L26.9378279,93.4166667 C12.0604763,93.4166667 4.90835442e-14,79.5972075 4.90835442e-14,62.5416667 Z" id="Background-Copy" fill="#9B9B9B" fill-rule="nonzero"></path>
                    <g id="Background">
                        <use fill="#FFFFFF" fill-rule="evenodd" xlink:href="#path-5"></use>
                        <rect stroke="#9B9B9B" stroke-width="2" x="1" y="1" width="103" height="59.75" rx="29.875"></rect>
                    </g>
                    <text id="Text" font-family="AvantGardeGothicITCW01Dm, Avant Garde Gothic ITCW01Dm" font-size="16" font-weight="normal" fill="#9B9B9B">
                        <tspan x="34.26" y="27.0833333">AWS</tspan>
                        <tspan x="16.5" y="47.0833333">REDSHIFT</tspan>
                    </text>
                </g>
            </g>
            <g id="Small-Button" transform="translate(698.000000, 32.000000)">
                <rect id="Background" stroke="#9B9B9B" stroke-width="3" x="1.5" y="1.5" width="123" height="1003" rx="8"></rect>
                <text id="Text" font-family="AvantGardeGothicITCW01Dm, Avant Garde Gothic ITCW01Dm" font-size="24" font-weight="normal" fill="#9B9B9B">
                    <tspan x="26.04" y="490.852295">ARTSY </tspan>
                    <tspan x="42.6" y="521.852295">API</tspan>
                </text>
            </g>
            <g id="Small-Button-Copy-2" transform="translate(885.000000, 384.000000)">
                <g id="Background">
                    <use fill-opacity="0.503736413" fill="#FFFFFF" fill-rule="evenodd" xlink:href="#path-6"></use>
                    <rect stroke="#CFCFCF" stroke-width="3" x="1.5" y="1.5" width="102" height="651" rx="8"></rect>
                </g>
                <text id="Text" font-family="AvantGardeGothicITCW01Dm, Avant Garde Gothic ITCW01Dm" font-size="24" font-weight="normal" fill="#9B9B9B">
                    <tspan x="11.46" y="310.792683">RABBIT</tspan>
                    <tspan x="30.66" y="341.792683">MQ</tspan>
                </text>
            </g>
            <g id="Small-Button-Copy" transform="translate(507.000000, 175.000000)">
                <rect id="Background" stroke="#9B9B9B" stroke-width="3" x="1.5" y="1.5" width="123" height="189" rx="8"></rect>
                <text id="Text" font-family="AvantGardeGothicITCW01Dm, Avant Garde Gothic ITCW01Dm" font-size="20" font-weight="normal" fill="#9B9B9B">
                    <tspan x="13.4" y="102">GRAPHQL</tspan>
                </text>
            </g>
            <g id="PHONE" transform="translate(298.000000, 30.000000)" stroke="#9B9B9B">
                <rect id="Rectangle-4-Copy-4" x="4.91747573" y="162.14538" width="95.3915858" height="11.5217391"></rect>
                <rect id="Edge-Copy" stroke-width="1.5" x="-0.523462783" y="-0.75" width="106.273463" height="193.5" rx="3"></rect>
                <rect id="Rectangle-4-Copy-13" stroke-width="0.5" x="11.5016181" y="153.057824" width="39.2661812" height="8.84782609"></rect>
                <rect id="Rectangle-4-Copy-14" stroke-width="0.5" x="54.4587379" y="153.057824" width="39.2661812" height="8.84782609"></rect>
                <rect id="Rectangle-4-Copy-8" stroke-width="0.5" x="4.66747573" y="16.9456522" width="95.8915858" height="79.7540761"></rect>
                <rect id="Rectangle-3-Copy" x="4.91747573" y="17.1956522" width="95.3915858" height="156.471467"></rect>
                <ellipse id="Oval-1-Copy-7" cx="19.0857605" cy="30.1671196" rx="5.78640777" ry="5.76086957"></ellipse>
                <ellipse id="Oval-1-Copy-8" cx="73.5679612" cy="111.558424" rx="5.78640777" ry="5.76086957"></ellipse>
                <ellipse id="Oval-1-Copy-9" cx="88.236246" cy="111.558424" rx="5.78640777" ry="5.76086957"></ellipse>
                <path d="M28.5048948,139.826087 L76.7216424,139.826087" id="Path-10-Copy-5" stroke-width="2"></path>
                <path d="M10.7038835,114.595109 L58.9132015,114.595109" id="Path-10-Copy-4" stroke-width="2"></path>
                <path d="M10.7038835,108.334239 L58.9132015,108.334239" id="Path-10-Copy-3" stroke-width="2"></path>
                <ellipse id="Oval-1-Copy-6" cx="52.6132686" cy="183.652174" rx="6.28640777" ry="6.26086957"></ellipse>
            </g>
            <g id="force" transform="translate(31.000000, 30.000000)" stroke="#9B9B9B">
                <g>
                    <rect id="Window" stroke-width="1.5" x="0" y="0" width="240.406667" height="192.735177"></rect>
                    <path d="M0,6.01147541 L240.406667,6.01147541" id="titlebar-bottom"></path>
                    <path d="M0,16.5842896 L240.406667,16.5842896" id="artsy-header-bottom" stroke-width="0.5"></path>
                    <g id="paging-circles" transform="translate(117.401498, 95.999666)" stroke-width="0.5">
                        <ellipse id="Oval-16-Copy-3" cx="0.343438096" cy="0.7493418" rx="1" ry="1"></ellipse>
                        <ellipse id="Oval-16-Copy-4" cx="0.343438096" cy="0.7493418" rx="1" ry="1"></ellipse>
                        <ellipse id="Oval-16-Copy-5" cx="3.09094287" cy="0.7493418" rx="1" ry="1"></ellipse>
                        <ellipse id="Oval-16-Copy-6" cx="5.83844764" cy="0.7493418" rx="1" ry="1"></ellipse>
                    </g>
                    <rect id="artwork4" stroke-width="0.75" x="182.709067" y="175.530344" width="34.3438096" height="17.2631112"></rect>
                    <rect id="artwork3" stroke-width="0.75" x="130.506477" y="175.530344" width="34.3438096" height="17.2631112"></rect>
                    <rect id="artwork2" stroke-width="0.75" x="78.3038862" y="175.530344" width="34.3438096" height="17.2631112"></rect>
                    <rect id="artwork1" stroke-width="0.75" x="23.3537906" y="175.530344" width="34.3438096" height="17.2631112"></rect>
                    <path d="M103.031429,166.422951 L138.518691,166.422951" id="artworks-title" stroke-width="2"></path>
                    <g id="traffic-lights" transform="translate(3.795276, 2.531148)">
                        <ellipse id="Oval-16" cx="1.01285776" cy="0.924174178" rx="1" ry="1"></ellipse>
                        <ellipse id="Oval-16-Copy" cx="5.13411491" cy="0.924174178" rx="1" ry="1"></ellipse>
                        <ellipse id="Oval-16-Copy-2" cx="9.2553721" cy="0.924174178" rx="1" ry="1"></ellipse>
                    </g>
                    <path d="M0.581094936,91.8859288 L240.700642,91.8859288" id="herounit-bottom" stroke-width="0.5"></path>
                    <g id="hero-unit-copy" transform="translate(22.721245, 40.481409)">
                        <path d="M5.68434189e-14,0 L43.9600763,0" id="Path-10-Copy-6" stroke-width="8"></path>
                        <path d="M5.68434189e-14,10.4409836 L97.1593847,10.4409836" id="Path-10-Copy-7" stroke-width="3"></path>
                        <path d="M5.68434189e-14,16.1360656 L97.1593847,16.1360656" id="Path-10-Copy-8" stroke-width="3"></path>
                        <rect id="Rectangle-4-Copy-18" x="1.52020044e-23" y="25.1114262" width="25.4144191" height="8.29277211"></rect>
                    </g>
                    <g id="featured-artworks" transform="translate(22.771654, 103.777049)">
                        <path d="M23.9359276,1.89836066 L52.5351985,1.89836066" id="Path-10-Copy-9" stroke-width="2"></path>
                        <path d="M23.9359276,7.59344262 L48.4495881,7.59344262" id="Path-10-Copy-10" stroke-width="2"></path>
                        <rect id="Rectangle-21" stroke-width="0.75" x="0.582137018" y="0.631944013" width="20.6062858" height="20.7319303"></rect>
                        <path d="M95.3710514,1.89836066 L123.970322,1.89836066" id="Path-10-Copy-9" stroke-width="2"></path>
                        <path d="M95.3710514,7.59344262 L119.884712,7.59344262" id="Path-10-Copy-10" stroke-width="2"></path>
                        <rect id="Rectangle-21" stroke-width="0.75" x="72.0172608" y="0.631944013" width="20.6062858" height="20.7319303"></rect>
                        <path d="M165.432423,1.89836066 L194.031694,1.89836066" id="Path-10-Copy-9" stroke-width="2"></path>
                        <path d="M165.432423,7.59344262 L189.946084,7.59344262" id="Path-10-Copy-10" stroke-width="2"></path>
                        <rect id="Rectangle-21" stroke-width="0.75" x="142.078633" y="0.631944013" width="20.6062858" height="20.7319303"></rect>
                        <path d="M23.9359276,31.0065574 L52.5351985,31.0065574" id="Path-10-Copy-16" stroke-width="2"></path>
                        <path d="M23.9359276,36.7016393 L48.4495881,36.7016393" id="Path-10-Copy-11" stroke-width="2"></path>
                        <rect id="Rectangle-21-Copy" stroke-width="0.75" x="0.582137018" y="29.6566464" width="20.6062858" height="20.7319303"></rect>
                        <path d="M95.3710514,31.0065574 L123.970322,31.0065574" id="Path-10-Copy-12" stroke-width="2"></path>
                        <path d="M95.3710514,36.7016393 L119.884712,36.7016393" id="Path-10-Copy-13" stroke-width="2"></path>
                        <rect id="Rectangle-21-Copy-2" stroke-width="0.75" x="72.0172608" y="28.2745177" width="20.6062858" height="20.7319303"></rect>
                        <path d="M165.432423,31.0065574 L194.031694,31.0065574" id="Path-10-Copy-14" stroke-width="2"></path>
                        <path d="M165.432423,36.7016393 L189.946084,36.7016393" id="Path-10-Copy-15" stroke-width="2"></path>
                        <rect id="Rectangle-21-Copy-3" stroke-width="0.75" x="142.078633" y="29.6566464" width="20.6062858" height="20.7319303"></rect>
                    </g>
                    <polyline id="left-arrow" stroke-width="1.5" points="7.54731192 103.760725 4.63314304 100.845446 7.56396433 97.9135086"></polyline>
                    <polyline id="right-arrow" stroke-width="1.5" points="234.233108 97.9135086 237.147277 100.828788 234.216455 103.760725"></polyline>
                    <path d="M222.644944,11.3901639 L236.284199,11.3901639" id="user-settings" stroke-width="2"></path>
                    <g id="title" transform="translate(76.930134, 10.940475)" stroke-width="2">
                        <path d="M75.6513011,0.382151681 L85.2144271,0.382151681" id="Path-10-Copy-29"></path>
                        <path d="M60.5400247,0.382151681 L70.1031509,0.382151681" id="Path-10-Copy-30"></path>
                        <path d="M45.4287484,0.382151681 L54.9918749,0.382151681" id="Path-10-Copy-31"></path>
                        <path d="M30.3174722,0.382151681 L39.8805987,0.382151681" id="Path-10-Copy-32"></path>
                        <path d="M15.2061959,0.382151681 L24.7693224,0.382151681" id="Path-10-Copy-33"></path>
                        <path d="M0.0949196673,0.382151681 L9.65804616,0.382151681" id="Path-10-Copy-34"></path>
                    </g>
                    <rect id="artsy-favicon" stroke-width="0.5" x="2.74750477" y="8.40932703" width="5.49500954" height="5.52851475"></rect>
                </g>
            </g>
            <g id="Arrow-33" transform="translate(239.000000, 238.000000)" fill="#FAC955">
                <path d="M17.9731021,23.4462339 C30.1883264,32.6033084 226.854906,29.4570313 171.939453,29.4570313 L207.93621,40.6213087 C207.93621,40.6213087 28.4405516,45.1580129 14.6031406,33.1221305 C0.747269506,21.0958906 7.86202241e-05,-0.000640752663 0,0 C7.86202241e-05,-0.000265677934 5.77946702,14.2767664 17.9731021,23.4462339 Z" id="Arrow-33-shape"></path>
            </g>
            <g id="Arrow-33-Copy-2" transform="translate(239.000000, 240.000000)" fill="#FAC955">
                <path d="M17.9731021,23.4462339 C30.1883264,32.6033084 39.1445313,41.578125 50.8515625,49.4179688 L50.8515625,60.6542969 C43.0703125,55.7714844 28.4405516,45.1580129 14.6031406,33.1221305 C0.747269506,21.0958906 7.86202241e-05,-0.000640752663 0,0 C7.86202241e-05,-0.000265677934 5.77946702,14.2767664 17.9731021,23.4462339 Z" id="Arrow-33-shape"></path>
            </g>
            <g id="Arrow-33-Copy-2" transform="translate(243.125206, 472.952941) rotate(-270.000000) translate(-243.125206, -472.952941) translate(217.125206, 456.452941)" fill="#FAC955">
                <path d="M8.20965664,20.6442486 C12.6930551,24.4167095 40.7256576,26.5949322 51.031434,26.5949322 C51.031434,26.5949322 51.031434,29.0999993 51.031434,32.3986431 C51.031434,32.3986431 0.0967964754,29.7428814 0.0967964754,25.0917118 C0.0967964754,11.4776981 0.0968750956,-0.000640752663 0.0967964754,-2.71988622e-13 C0.0968532497,-0.000191855059 2.98114102,-1.01717774e-13 6.11102383,-2.84217121e-13 C6.11102383,2.5851614 5.09878664,8.96322342 5.6330993,14.1379243 C5.9189062,16.9059014 6.64721834,19.3295679 8.20965664,20.6442486 Z" id="Arrow-33-shape"></path>
            </g>
            <g id="Arrow-33-Copy-4" transform="translate(295.390625, 301.587891) rotate(-180.000000) translate(-295.390625, -301.587891) translate(264.390625, 270.087891)" fill="#FAC955">
                <path d="M28.9731021,25.4462339 C41.1883264,34.6033084 50.1445312,43.578125 61.8515625,51.4179688 L61.8515625,62.6542969 C54.0703125,57.7714844 42.8105132,50.1983122 28.9731021,38.1624299 C24.4469497,34.2339439 15.549601,30.0665226 8.74270681,21.0999189 C5.20860845,16.4445125 0.390625,8.53739636 0.390625,1.33369346 C0.390625,-1.69417237 11.3906505,1.99979256 11.390625,2 C12.6802198,10.4172754 16.779467,16.2767664 28.9731021,25.4462339 Z" id="Arrow-33-shape"></path>
            </g>
            <g id="Arrow-33" transform="translate(381.000000, 238.000000)" fill="#FAC955">
                <path d="M17.9731021,23.4462339 C30.1883264,32.6033084 49.9945376,28.8620004 49.9945376,28.8620004 C49.9945376,28.8620004 72.1106111,32.3948918 71.8811344,32.7612773 C71.8486013,32.8132252 63.3187652,38.250548 63.3187652,38.250548 C63.3180419,38.2508762 28.4405516,45.1580129 14.6031406,33.1221305 C0.747269506,21.0958906 7.86202241e-05,-0.000640752663 0,0 C7.86202241e-05,-0.000265677934 5.77946702,14.2767664 17.9731021,23.4462339 Z" id="Arrow-33-shape"></path>
            </g>
            <g id="Arrow-33" transform="translate(247.000000, 858.000000) rotate(-270.000000) translate(-247.000000, -858.000000) translate(211.000000, 831.000000)" fill="#FAC955">
                <g id="Arrow-33-shape">
                    <path d="M17.9731021,23.4462339 C30.1883264,32.6033084 49.9945376,28.8620004 49.9945376,28.8620004 L46.5414116,17.7794799 C46.4129776,17.3672259 46.6450802,16.9295449 47.0598648,16.8018788 C47.2777686,16.7348186 47.5142582,16.7651215 47.7079156,16.8849423 L71.6291723,31.6849535 C71.9977911,31.9130146 72.1106111,32.3948918 71.8811344,32.7612773 C71.8486013,32.8132252 71.8100303,32.8612035 71.7662231,32.9042121 L50.5108838,53.7744796 C50.2020007,54.0777744 49.7042089,54.0747738 49.3990523,53.7677595 C49.2189019,53.5865359 49.1389609,53.3293909 49.1848437,53.0787473 L51.0279376,43.0085065 C51.0272143,43.0088347 28.4405516,45.1580129 14.6031406,33.1221305 C0.747269506,21.0958906 7.86202241e-05,-0.000640752663 0,0 C7.86202241e-05,-0.000265677934 5.77946702,14.2767664 17.9731021,23.4462339 Z"></path>
                </g>
            </g>
            <g id="Arrow-33" transform="translate(403.000000, 991.000000) rotate(-90.000000) translate(-403.000000, -991.000000) translate(367.000000, 964.000000)" fill="#FAC955">
                <g id="Arrow-33-shape">
                    <path d="M17.9731021,23.4462339 C30.1883264,32.6033084 49.9945376,28.8620004 49.9945376,28.8620004 L46.5414116,17.7794799 C46.4129776,17.3672259 46.6450802,16.9295449 47.0598648,16.8018788 C47.2777686,16.7348186 47.5142582,16.7651215 47.7079156,16.8849423 L71.6291723,31.6849535 C71.9977911,31.9130146 72.1106111,32.3948918 71.8811344,32.7612773 C71.8486013,32.8132252 71.8100303,32.8612035 71.7662231,32.9042121 L50.5108838,53.7744796 C50.2020007,54.0777744 49.7042089,54.0747738 49.3990523,53.7677595 C49.2189019,53.5865359 49.1389609,53.3293909 49.1848437,53.0787473 L51.0279376,43.0085065 C51.0272143,43.0088347 28.4405516,45.1580129 14.6031406,33.1221305 C0.747269506,21.0958906 7.86202241e-05,-0.000640752663 0,0 C7.86202241e-05,-0.000265677934 5.77946702,14.2767664 17.9731021,23.4462339 Z"></path>
                </g>
            </g>
            <g id="Arrow-29" transform="translate(646.000000, 249.000000)">
                <g>
                    <path d="M0,8 C0,8 0.455520749,8 0.998245642,8 L29,8" id="Stroke-29" stroke="#FAC955" stroke-width="6"></path>
                    <path d="M40.2835353,9.05015963 C41.2159928,8.4538487 41.2191798,7.48907572 40.2835353,6.89072672 L30.3693163,0.550537662 C28.5084943,-0.639466663 27,0.180158477 27,2.38683443 L27,13.5540519 C27,15.758215 28.5041128,16.583155 30.3693163,15.3903487 L40.2835353,9.05015963 Z" id="Arrow-head-29" fill="#FAC955"></path>
                </g>
            </g>
            <g id="Arrow-29" transform="translate(646.000000, 439.000000)">
                <g>
                    <path d="M0,8 C0,8 0.455520749,8 0.998245642,8 L29,8" id="Stroke-29" stroke="#FAC955" stroke-width="6"></path>
                    <path d="M40.2835353,9.05015963 C41.2159928,8.4538487 41.2191798,7.48907572 40.2835353,6.89072672 L30.3693163,0.550537662 C28.5084943,-0.639466663 27,0.180158477 27,2.38683443 L27,13.5540519 C27,15.758215 28.5041128,16.583155 30.3693163,15.3903487 L40.2835353,9.05015963 Z" id="Arrow-head-29" fill="#FAC955"></path>
                </g>
            </g>
            <g id="Arrow-29" transform="translate(647.000000, 529.000000)">
                <g>
                    <path d="M0,8 C0,8 0.455520749,8 0.998245642,8 L29,8" id="Stroke-29" stroke="#FAC955" stroke-width="6"></path>
                    <path d="M40.2835353,9.05015963 C41.2159928,8.4538487 41.2191798,7.48907572 40.2835353,6.89072672 L30.3693163,0.550537662 C28.5084943,-0.639466663 27,0.180158477 27,2.38683443 L27,13.5540519 C27,15.758215 28.5041128,16.583155 30.3693163,15.3903487 L40.2835353,9.05015963 Z" id="Arrow-head-29" fill="#FAC955"></path>
                </g>
            </g>
            <g id="Arrow-29" transform="translate(1018.000000, 543.000000)">
                <g>
                    <path d="M0,8 C0,8 0.455520749,8 0.998245642,8 L29,8" id="Stroke-29" stroke="#FAC955" stroke-width="6"></path>
                    <path d="M40.2835353,9.05015963 C41.2159928,8.4538487 41.2191798,7.48907572 40.2835353,6.89072672 L30.3693163,0.550537662 C28.5084943,-0.639466663 27,0.180158477 27,2.38683443 L27,13.5540519 C27,15.758215 28.5041128,16.583155 30.3693163,15.3903487 L40.2835353,9.05015963 Z" id="Arrow-head-29" fill="#FAC955"></path>
                </g>
            </g>
            <g id="Arrow-29" transform="translate(1018.000000, 812.000000)">
                <g>
                    <path d="M0,8 C0,8 0.455520749,8 0.998245642,8 L29,8" id="Stroke-29" stroke="#FAC955" stroke-width="6"></path>
                    <path d="M40.2835353,9.05015963 C41.2159928,8.4538487 41.2191798,7.48907572 40.2835353,6.89072672 L30.3693163,0.550537662 C28.5084943,-0.639466663 27,0.180158477 27,2.38683443 L27,13.5540519 C27,15.758215 28.5041128,16.583155 30.3693163,15.3903487 L40.2835353,9.05015963 Z" id="Arrow-head-29" fill="#FAC955"></path>
                </g>
            </g>
            <g id="Arrow-29" transform="translate(646.000000, 730.000000)">
                <g>
                    <path d="M0,8 C0,8 0.455520749,8 0.998245642,8 L29,8" id="Stroke-29" stroke="#FAC955" stroke-width="6"></path>
                    <path d="M40.2835353,9.05015963 C41.2159928,8.4538487 41.2191798,7.48907572 40.2835353,6.89072672 L30.3693163,0.550537662 C28.5084943,-0.639466663 27,0.180158477 27,2.38683443 L27,13.5540519 C27,15.758215 28.5041128,16.583155 30.3693163,15.3903487 L40.2835353,9.05015963 Z" id="Arrow-head-29" fill="#FAC955"></path>
                </g>
            </g>
            <g id="Arrow-29" transform="translate(646.000000, 60.000000)">
                <g>
                    <path d="M0,8 C0,8 0.455520749,8 0.998245642,8 L29,8" id="Stroke-29" stroke="#FAC955" stroke-width="6"></path>
                    <path d="M40.2835353,9.05015963 C41.2159928,8.4538487 41.2191798,7.48907572 40.2835353,6.89072672 L30.3693163,0.550537662 C28.5084943,-0.639466663 27,0.180158477 27,2.38683443 L27,13.5540519 C27,15.758215 28.5041128,16.583155 30.3693163,15.3903487 L40.2835353,9.05015963 Z" id="Arrow-head-29" fill="#FAC955"></path>
                </g>
            </g>
            <g id="Arrow-29" transform="translate(1219.000000, 433.000000)">
                <g>
                    <path d="M0,8 C0,8 0.455520749,8 0.998245642,8 L29,8" id="Stroke-29" stroke="#FAC955" stroke-width="6"></path>
                    <path d="M40.2835353,9.05015963 C41.2159928,8.4538487 41.2191798,7.48907572 40.2835353,6.89072672 L30.3693163,0.550537662 C28.5084943,-0.639466663 27,0.180158477 27,2.38683443 L27,13.5540519 C27,15.758215 28.5041128,16.583155 30.3693163,15.3903487 L40.2835353,9.05015963 Z" id="Arrow-head-29" fill="#FAC955"></path>
                </g>
            </g>
            <g id="Arrow-29" transform="translate(1136.500000, 500.000000) rotate(-270.000000) translate(-1136.500000, -500.000000) translate(1116.000000, 492.000000)">
                <g>
                    <path d="M0,8 C0,8 0.455520749,8 0.998245642,8 L29,8" id="Stroke-29" stroke="#FAC955" stroke-width="6"></path>
                    <path d="M40.2835353,9.05015963 C41.2159928,8.4538487 41.2191798,7.48907572 40.2835353,6.89072672 L30.3693163,0.550537662 C28.5084943,-0.639466663 27,0.180158477 27,2.38683443 L27,13.5540519 C27,15.758215 28.5041128,16.583155 30.3693163,15.3903487 L40.2835353,9.05015963 Z" id="Arrow-head-29" fill="#FAC955"></path>
                </g>
            </g>
            <g id="Arrow-29" transform="translate(1095.500000, 605.000000) rotate(-270.000000) translate(-1095.500000, -605.000000) translate(1075.000000, 597.000000)">
                <g>
                    <path d="M0,8 C0,8 0.455520749,8 0.998245642,8 L29,8" id="Stroke-29" stroke="#FAC955" stroke-width="6"></path>
                    <path d="M40.2835353,9.05015963 C41.2159928,8.4538487 41.2191798,7.48907572 40.2835353,6.89072672 L30.3693163,0.550537662 C28.5084943,-0.639466663 27,0.180158477 27,2.38683443 L27,13.5540519 C27,15.758215 28.5041128,16.583155 30.3693163,15.3903487 L40.2835353,9.05015963 Z" id="Arrow-head-29" fill="#FAC955"></path>
                </g>
            </g>
            <g id="Arrow-29" transform="translate(937.500000, 176.000000) rotate(-270.000000) translate(-937.500000, -176.000000) translate(917.000000, 168.000000)">
                <g>
                    <path d="M0,8 C0,8 0.455520749,8 0.998245642,8 L29,8" id="Stroke-29" stroke="#FAC955" stroke-width="6"></path>
                    <path d="M40.2835353,9.05015963 C41.2159928,8.4538487 41.2191798,7.48907572 40.2835353,6.89072672 L30.3693163,0.550537662 C28.5084943,-0.639466663 27,0.180158477 27,2.38683443 L27,13.5540519 C27,15.758215 28.5041128,16.583155 30.3693163,15.3903487 L40.2835353,9.05015963 Z" id="Arrow-head-29" fill="#FAC955"></path>
                </g>
            </g>
            <g id="Arrow-29" transform="translate(1250.000000, 604.500000) rotate(-270.000000) translate(-1250.000000, -604.500000) translate(1229.500000, 596.500000)">
                <g>
                    <path d="M0,8 C0,8 0.455520749,8 0.998245642,8 L29,8" id="Stroke-29" stroke="#FAC955" stroke-width="6"></path>
                    <path d="M40.2835353,9.05015963 C41.2159928,8.4538487 41.2191798,7.48907572 40.2835353,6.89072672 L30.3693163,0.550537662 C28.5084943,-0.639466663 27,0.180158477 27,2.38683443 L27,13.5540519 C27,15.758215 28.5041128,16.583155 30.3693163,15.3903487 L40.2835353,9.05015963 Z" id="Arrow-head-29" fill="#FAC955"></path>
                </g>
            </g>
            <g id="Arrow-29" transform="translate(1179.500000, 605.000000) rotate(-90.000000) translate(-1179.500000, -605.000000) translate(1159.000000, 597.000000)">
                <g>
                    <path d="M0,8 C0,8 0.455520749,8 0.998245642,8 L29,8" id="Stroke-29" stroke="#FAC955" stroke-width="6"></path>
                    <path d="M40.2835353,9.05015963 C41.2159928,8.4538487 41.2191798,7.48907572 40.2835353,6.89072672 L30.3693163,0.550537662 C28.5084943,-0.639466663 27,0.180158477 27,2.38683443 L27,13.5540519 C27,15.758215 28.5041128,16.583155 30.3693163,15.3903487 L40.2835353,9.05015963 Z" id="Arrow-head-29" fill="#FAC955"></path>
                </g>
            </g>
            <g id="Arrow-29" transform="translate(1021.500000, 176.000000) rotate(-90.000000) translate(-1021.500000, -176.000000) translate(1001.000000, 168.000000)">
                <g>
                    <path d="M0,8 C0,8 0.455520749,8 0.998245642,8 L29,8" id="Stroke-29" stroke="#FAC955" stroke-width="6"></path>
                    <path d="M40.2835353,9.05015963 C41.2159928,8.4538487 41.2191798,7.48907572 40.2835353,6.89072672 L30.3693163,0.550537662 C28.5084943,-0.639466663 27,0.180158477 27,2.38683443 L27,13.5540519 C27,15.758215 28.5041128,16.583155 30.3693163,15.3903487 L40.2835353,9.05015963 Z" id="Arrow-head-29" fill="#FAC955"></path>
                </g>
            </g>
            <g id="Arrow-29" transform="translate(1335.000000, 604.500000) rotate(-90.000000) translate(-1335.000000, -604.500000) translate(1314.500000, 596.500000)">
                <g>
                    <path d="M0,8 C0,8 0.455520749,8 0.998245642,8 L29,8" id="Stroke-29" stroke="#FAC955" stroke-width="6"></path>
                    <path d="M40.2835353,9.05015963 C41.2159928,8.4538487 41.2191798,7.48907572 40.2835353,6.89072672 L30.3693163,0.550537662 C28.5084943,-0.639466663 27,0.180158477 27,2.38683443 L27,13.5540519 C27,15.758215 28.5041128,16.583155 30.3693163,15.3903487 L40.2835353,9.05015963 Z" id="Arrow-head-29" fill="#FAC955"></path>
                </g>
            </g>
            <g id="Arrow-29" transform="translate(1227.152543, 500.152543) rotate(-315.000000) translate(-1227.152543, -500.152543) translate(1206.652543, 492.152543)">
                <g>
                    <path d="M0,8 C0,8 0.455520749,8 0.998245642,8 L29,8" id="Stroke-29" stroke="#FAC955" stroke-width="6"></path>
                    <path d="M40.2835353,9.05015963 C41.2159928,8.4538487 41.2191798,7.48907572 40.2835353,6.89072672 L30.3693163,0.550537662 C28.5084943,-0.639466663 27,0.180158477 27,2.38683443 L27,13.5540519 C27,15.758215 28.5041128,16.583155 30.3693163,15.3903487 L40.2835353,9.05015963 Z" id="Arrow-head-29" fill="#FAC955"></path>
                </g>
            </g>
            <g id="Arrow-29" transform="translate(1217.000000, 826.000000)">
                <g>
                    <path d="M0,8 C0,8 0.455520749,8 0.998245642,8 L29,8" id="Stroke-29" stroke="#FAC955" stroke-width="6"></path>
                    <path d="M40.2835353,9.05015963 C41.2159928,8.4538487 41.2191798,7.48907572 40.2835353,6.89072672 L30.3693163,0.550537662 C28.5084943,-0.639466663 27,0.180158477 27,2.38683443 L27,13.5540519 C27,15.758215 28.5041128,16.583155 30.3693163,15.3903487 L40.2835353,9.05015963 Z" id="Arrow-head-29" fill="#FAC955"></path>
                </g>
            </g>
            <g id="Arrow-29" transform="translate(1395.000000, 433.000000)">
                <g>
                    <path d="M0,8 C0,8 0.455520749,8 0.998245642,8 L29,8" id="Stroke-29" stroke="#FAC955" stroke-width="6"></path>
                    <path d="M40.2835353,9.05015963 C41.2159928,8.4538487 41.2191798,7.48907572 40.2835353,6.89072672 L30.3693163,0.550537662 C28.5084943,-0.639466663 27,0.180158477 27,2.38683443 L27,13.5540519 C27,15.758215 28.5041128,16.583155 30.3693163,15.3903487 L40.2835353,9.05015963 Z" id="Arrow-head-29" fill="#FAC955"></path>
                </g>
            </g>
            <g id="Arrow-29" transform="translate(666.500000, 292.000000) rotate(-180.000000) translate(-666.500000, -292.000000) translate(646.000000, 284.000000)">
                <g>
                    <path d="M0,8 C0,8 0.455520749,8 0.998245642,8 L29,8" id="Stroke-29" stroke="#FAC955" stroke-width="6"></path>
                    <path d="M40.2835353,9.05015963 C41.2159928,8.4538487 41.2191798,7.48907572 40.2835353,6.89072672 L30.3693163,0.550537662 C28.5084943,-0.639466663 27,0.180158477 27,2.38683443 L27,13.5540519 C27,15.758215 28.5041128,16.583155 30.3693163,15.3903487 L40.2835353,9.05015963 Z" id="Arrow-head-29" fill="#FAC955"></path>
                </g>
            </g>
            <g id="Arrow-29" transform="translate(666.500000, 482.000000) rotate(-180.000000) translate(-666.500000, -482.000000) translate(646.000000, 474.000000)">
                <g>
                    <path d="M0,8 C0,8 0.455520749,8 0.998245642,8 L29,8" id="Stroke-29" stroke="#FAC955" stroke-width="6"></path>
                    <path d="M40.2835353,9.05015963 C41.2159928,8.4538487 41.2191798,7.48907572 40.2835353,6.89072672 L30.3693163,0.550537662 C28.5084943,-0.639466663 27,0.180158477 27,2.38683443 L27,13.5540519 C27,15.758215 28.5041128,16.583155 30.3693163,15.3903487 L40.2835353,9.05015963 Z" id="Arrow-head-29" fill="#FAC955"></path>
                </g>
            </g>
            <g id="Arrow-29" transform="translate(667.500000, 572.000000) rotate(-180.000000) translate(-667.500000, -572.000000) translate(647.000000, 564.000000)">
                <g>
                    <path d="M0,8 C0,8 0.455520749,8 0.998245642,8 L29,8" id="Stroke-29" stroke="#FAC955" stroke-width="6"></path>
                    <path d="M40.2835353,9.05015963 C41.2159928,8.4538487 41.2191798,7.48907572 40.2835353,6.89072672 L30.3693163,0.550537662 C28.5084943,-0.639466663 27,0.180158477 27,2.38683443 L27,13.5540519 C27,15.758215 28.5041128,16.583155 30.3693163,15.3903487 L40.2835353,9.05015963 Z" id="Arrow-head-29" fill="#FAC955"></path>
                </g>
            </g>
            <g id="Arrow-29" transform="translate(1024.500000, 551.000000) rotate(-180.000000) translate(-1024.500000, -551.000000) translate(1004.000000, 543.000000)">
                <g>
                    <path d="M0,8 C0,8 0.455520749,8 0.998245642,8 L29,8" id="Stroke-29" stroke="#FAC955" stroke-width="6"></path>
                    <path d="M40.2835353,9.05015963 C41.2159928,8.4538487 41.2191798,7.48907572 40.2835353,6.89072672 L30.3693163,0.550537662 C28.5084943,-0.639466663 27,0.180158477 27,2.38683443 L27,13.5540519 C27,15.758215 28.5041128,16.583155 30.3693163,15.3903487 L40.2835353,9.05015963 Z" id="Arrow-head-29" fill="#FAC955"></path>
                </g>
            </g>
            <g id="Arrow-29" transform="translate(1024.500000, 820.000000) rotate(-180.000000) translate(-1024.500000, -820.000000) translate(1004.000000, 812.000000)">
                <g>
                    <path d="M0,8 C0,8 0.455520749,8 0.998245642,8 L29,8" id="Stroke-29" stroke="#FAC955" stroke-width="6"></path>
                    <path d="M40.2835353,9.05015963 C41.2159928,8.4538487 41.2191798,7.48907572 40.2835353,6.89072672 L30.3693163,0.550537662 C28.5084943,-0.639466663 27,0.180158477 27,2.38683443 L27,13.5540519 C27,15.758215 28.5041128,16.583155 30.3693163,15.3903487 L40.2835353,9.05015963 Z" id="Arrow-head-29" fill="#FAC955"></path>
                </g>
            </g>
            <g id="Arrow-29" transform="translate(666.500000, 773.000000) rotate(-180.000000) translate(-666.500000, -773.000000) translate(646.000000, 765.000000)">
                <g>
                    <path d="M0,8 C0,8 0.455520749,8 0.998245642,8 L29,8" id="Stroke-29" stroke="#FAC955" stroke-width="6"></path>
                    <path d="M40.2835353,9.05015963 C41.2159928,8.4538487 41.2191798,7.48907572 40.2835353,6.89072672 L30.3693163,0.550537662 C28.5084943,-0.639466663 27,0.180158477 27,2.38683443 L27,13.5540519 C27,15.758215 28.5041128,16.583155 30.3693163,15.3903487 L40.2835353,9.05015963 Z" id="Arrow-head-29" fill="#FAC955"></path>
                </g>
            </g>
            <g id="Arrow-29" transform="translate(666.500000, 103.000000) rotate(-180.000000) translate(-666.500000, -103.000000) translate(646.000000, 95.000000)">
                <g>
                    <path d="M0,8 C0,8 0.455520749,8 0.998245642,8 L29,8" id="Stroke-29" stroke="#FAC955" stroke-width="6"></path>
                    <path d="M40.2835353,9.05015963 C41.2159928,8.4538487 41.2191798,7.48907572 40.2835353,6.89072672 L30.3693163,0.550537662 C28.5084943,-0.639466663 27,0.180158477 27,2.38683443 L27,13.5540519 C27,15.758215 28.5041128,16.583155 30.3693163,15.3903487 L40.2835353,9.05015963 Z" id="Arrow-head-29" fill="#FAC955"></path>
                </g>
            </g>
            <g id="Arrow-29" transform="translate(666.500000, 656.000000) rotate(-180.000000) translate(-666.500000, -656.000000) translate(646.000000, 648.000000)">
                <g>
                    <path d="M0,8 C0,8 0.455520749,8 0.998245642,8 L29,8" id="Stroke-29" stroke="#FAC955" stroke-width="6"></path>
                    <path d="M40.2835353,9.05015963 C41.2159928,8.4538487 41.2191798,7.48907572 40.2835353,6.89072672 L30.3693163,0.550537662 C28.5084943,-0.639466663 27,0.180158477 27,2.38683443 L27,13.5540519 C27,15.758215 28.5041128,16.583155 30.3693163,15.3903487 L40.2835353,9.05015963 Z" id="Arrow-head-29" fill="#FAC955"></path>
                </g>
            </g>
            <rect id="Rectangle-Copy-2" fill="#FAC955" x="116" y="686" width="11" height="55"></rect>
            <rect id="Rectangle-Copy-2" fill="#FAC955" x="116" y="681" width="11" height="60"></rect>
            <rect id="Rectangle-Copy-4" fill="#FAC955" transform="translate(550.250000, 922.500000) rotate(-270.000000) translate(-550.250000, -922.500000) " x="544.75" y="842.25" width="11" height="160.5"></rect>
            <rect id="Rectangle-Copy-5" fill="#FAC955" transform="translate(980.500000, 843.250000) rotate(-270.000000) translate(-980.500000, -843.250000) " x="975" y="763" width="11" height="160.5"></rect>
            <rect id="Rectangle-Copy-6" fill="#FAC955" transform="translate(980.500000, 440.250000) rotate(-270.000000) translate(-980.500000, -440.250000) " x="975" y="360" width="11" height="160.5"></rect>
            <g id="Arrow-29" transform="translate(226.500000, 982.000000) rotate(-360.000000) translate(-226.500000, -982.000000) translate(206.000000, 974.000000)">
                <g>
                    <path d="M0,8 C0,8 0.455520749,8 0.998245642,8 L29,8" id="Stroke-29" stroke="#FAC955" stroke-width="6"></path>
                    <path d="M40.2835353,9.05015963 C41.2159928,8.4538487 41.2191798,7.48907572 40.2835353,6.89072672 L30.3693163,0.550537662 C28.5084943,-0.639466663 27,0.180158477 27,2.38683443 L27,13.5540519 C27,15.758215 28.5041128,16.583155 30.3693163,15.3903487 L40.2835353,9.05015963 Z" id="Arrow-head-29" fill="#FAC955"></path>
                </g>
            </g>
            <g id="Arrow-29" transform="translate(122.500000, 926.000000) rotate(-270.000000) translate(-122.500000, -926.000000) translate(102.000000, 918.000000)">
                <g>
                    <path d="M0,8 C0,8 0.455520749,8 0.998245642,8 L29,8" id="Stroke-29" stroke="#FAC955" stroke-width="6"></path>
                    <path d="M40.2835353,9.05015963 C41.2159928,8.4538487 41.2191798,7.48907572 40.2835353,6.89072672 L30.3693163,0.550537662 C28.5084943,-0.639466663 27,0.180158477 27,2.38683443 L27,13.5540519 C27,15.758215 28.5041128,16.583155 30.3693163,15.3903487 L40.2835353,9.05015963 Z" id="Arrow-head-29" fill="#FAC955"></path>
                </g>
            </g>
            <g id="Arrow-33-Copy-5" transform="translate(320.500000, 390.000000) rotate(-270.000000) translate(-320.500000, -390.000000) translate(290.500000, 374.500000)" fill="#FAC955">
                <g id="Arrow-33">
                    <path d="M4.61852778e-14,9.86704743 L41.6621147,9.86704743 L38.7845097,0.826043805 C38.6774813,0.489731321 38.8709002,0.132675807 39.216554,0.0285271778 C39.3981405,-0.0261798569 39.5952152,-0.00145905981 39.7565963,0.0962894451 L59.6909769,14.6173513 C59.9981592,14.8034011 60.0921759,15.1965115 59.9009453,15.4954049 C59.8738344,15.5377834 59.8416919,15.5769236 59.8051859,15.6120095 L42.0924032,30.1903857 C41.8350006,30.4378104 41.4201741,30.4353626 41.1658769,30.1849035 C41.0157516,30.0370632 40.9491341,29.827287 40.9873697,29.6228146 L42.5232813,21.4076181 C42.5226786,21.4078859 1.87738713e-13,21.4076181 1.87738713e-13,21.4076181 L4.61852778e-14,9.86704743 Z" id="Arrow-33-shape"></path>
                </g>
            </g>
            <g id="Arrow-33-Copy-5" transform="translate(320.500000, 539.000000) rotate(-270.000000) translate(-320.500000, -539.000000) translate(290.500000, 523.500000)" fill="#FAC955">
                <g id="Arrow-33">
                    <path d="M4.61852778e-14,9.86704743 L41.6621147,9.86704743 L38.7845097,0.826043805 C38.6774813,0.489731321 38.8709002,0.132675807 39.216554,0.0285271778 C39.3981405,-0.0261798569 39.5952152,-0.00145905981 39.7565963,0.0962894451 L59.6909769,14.6173513 C59.9981592,14.8034011 60.0921759,15.1965115 59.9009453,15.4954049 C59.8738344,15.5377834 59.8416919,15.5769236 59.8051859,15.6120095 L42.0924032,30.1903857 C41.8350006,30.4378104 41.4201741,30.4353626 41.1658769,30.1849035 C41.0157516,30.0370632 40.9491341,29.827287 40.9873697,29.6228146 L42.5232813,21.4076181 C42.5226786,21.4078859 1.87738713e-13,21.4076181 1.87738713e-13,21.4076181 L4.61852778e-14,9.86704743 Z" id="Arrow-33-shape"></path>
                </g>
            </g>
            <g id="Arrow-33-Copy-5" transform="translate(430.000000, 257.000000)" fill="#FAC955">
                <g id="Arrow-33">
                    <path d="M4.61852778e-14,9.86704743 L41.6621147,9.86704743 L38.7845097,0.826043805 C38.6774813,0.489731321 38.8709002,0.132675807 39.216554,0.0285271778 C39.3981405,-0.0261798569 39.5952152,-0.00145905981 39.7565963,0.0962894451 L59.6909769,14.6173513 C59.9981592,14.8034011 60.0921759,15.1965115 59.9009453,15.4954049 C59.8738344,15.5377834 59.8416919,15.5769236 59.8051859,15.6120095 L42.0924032,30.1903857 C41.8350006,30.4378104 41.4201741,30.4353626 41.1658769,30.1849035 C41.0157516,30.0370632 40.9491341,29.827287 40.9873697,29.6228146 L42.5232813,21.4076181 C42.5226786,21.4078859 1.87738713e-13,21.4076181 1.87738713e-13,21.4076181 L4.61852778e-14,9.86704743 Z" id="Arrow-33-shape"></path>
                </g>
            </g>
            <g id="Arrow-33-Copy-6" transform="translate(446.500000, 655.500000) rotate(-180.000000) translate(-446.500000, -655.500000) translate(406.000000, 640.000000)" fill="#FAC955">
                <g id="Arrow-33">
                    <path d="M5.68434189e-14,9.86704743 L62.6621147,9.86704743 L59.7845097,0.826043805 C59.6774813,0.489731321 59.8709002,0.132675807 60.216554,0.0285271778 C60.3981405,-0.0261798569 60.5952152,-0.00145905981 60.7565963,0.0962894451 L80.6909769,14.6173513 C80.9981592,14.8034011 81.0921759,15.1965115 80.9009453,15.4954049 C80.8738344,15.5377834 80.8416919,15.5769236 80.8051859,15.6120095 L63.0924032,30.1903857 C62.8350006,30.4378104 62.4201741,30.4353626 62.1658769,30.1849035 C62.0157516,30.0370632 61.9491341,29.827287 61.9873697,29.6228146 L63.5232813,21.4076181 C63.5226786,21.4078859 1.70518114e-13,21.4076181 1.70518114e-13,21.4076181 L5.68434189e-14,9.86704743 Z" id="Arrow-33-shape"></path>
                </g>
            </g>
            <g id="Arrow-33-Copy-12" transform="translate(868.500000, 114.500000) rotate(-180.000000) translate(-868.500000, -114.500000) translate(835.000000, 99.000000)" fill="#FAC955">
                <g id="Arrow-33">
                    <path d="M0,9.86704743 L48.6621147,9.86704743 L45.7845097,0.826043805 C45.6774813,0.489731321 45.8709002,0.132675807 46.216554,0.0285271778 C46.3981405,-0.0261798569 46.5952152,-0.00145905981 46.7565963,0.0962894451 L66.6909769,14.6173513 C66.9981592,14.8034011 67.0921759,15.1965115 66.9009453,15.4954049 C66.8738344,15.5377834 66.8416919,15.5769236 66.8051859,15.6120095 L49.0924032,30.1903857 C48.8350006,30.4378104 48.4201741,30.4353626 48.1658769,30.1849035 C48.0157516,30.0370632 47.9491341,29.827287 47.9873697,29.6228146 L49.5232813,21.4076181 C49.5226786,21.4078859 1.1366949e-13,21.4076181 1.1366949e-13,21.4076181 L0,9.86704743 Z" id="Arrow-33-shape"></path>
                </g>
            </g>
            <g id="Arrow-33-Copy-11" transform="translate(868.500000, 843.500000) rotate(-180.000000) translate(-868.500000, -843.500000) translate(835.000000, 828.000000)" fill="#FAC955">
                <g id="Arrow-33">
                    <path d="M0,9.86704743 L48.6621147,9.86704743 L45.7845097,0.826043805 C45.6774813,0.489731321 45.8709002,0.132675807 46.216554,0.0285271778 C46.3981405,-0.0261798569 46.5952152,-0.00145905981 46.7565963,0.0962894451 L66.6909769,14.6173513 C66.9981592,14.8034011 67.0921759,15.1965115 66.9009453,15.4954049 C66.8738344,15.5377834 66.8416919,15.5769236 66.8051859,15.6120095 L49.0924032,30.1903857 C48.8350006,30.4378104 48.4201741,30.4353626 48.1658769,30.1849035 C48.0157516,30.0370632 47.9491341,29.827287 47.9873697,29.6228146 L49.5232813,21.4076181 C49.5226786,21.4078859 1.1366949e-13,21.4076181 1.1366949e-13,21.4076181 L0,9.86704743 Z" id="Arrow-33-shape"></path>
                </g>
            </g>
            <g id="Arrow-33-Copy-13" transform="translate(868.500000, 440.500000) rotate(-180.000000) translate(-868.500000, -440.500000) translate(835.000000, 425.000000)" fill="#FAC955">
                <g id="Arrow-33">
                    <path d="M0,9.86704743 L48.6621147,9.86704743 L45.7845097,0.826043805 C45.6774813,0.489731321 45.8709002,0.132675807 46.216554,0.0285271778 C46.3981405,-0.0261798569 46.5952152,-0.00145905981 46.7565963,0.0962894451 L66.6909769,14.6173513 C66.9981592,14.8034011 67.0921759,15.1965115 66.9009453,15.4954049 C66.8738344,15.5377834 66.8416919,15.5769236 66.8051859,15.6120095 L49.0924032,30.1903857 C48.8350006,30.4378104 48.4201741,30.4353626 48.1658769,30.1849035 C48.0157516,30.0370632 47.9491341,29.827287 47.9873697,29.6228146 L49.5232813,21.4076181 C49.5226786,21.4078859 1.1366949e-13,21.4076181 1.1366949e-13,21.4076181 L0,9.86704743 Z" id="Arrow-33-shape"></path>
                </g>
            </g>
            <g id="Arrow-33-Copy-8" transform="translate(431.500000, 922.500000) rotate(-180.000000) translate(-431.500000, -922.500000) translate(391.000000, 907.000000)" fill="#FAC955">
                <g id="Arrow-33">
                    <path d="M5.68434189e-14,9.86704743 L62.6621147,9.86704743 L59.7845097,0.826043805 C59.6774813,0.489731321 59.8709002,0.132675807 60.216554,0.0285271778 C60.3981405,-0.0261798569 60.5952152,-0.00145905981 60.7565963,0.0962894451 L80.6909769,14.6173513 C80.9981592,14.8034011 81.0921759,15.1965115 80.9009453,15.4954049 C80.8738344,15.5377834 80.8416919,15.5769236 80.8051859,15.6120095 L63.0924032,30.1903857 C62.8350006,30.4378104 62.4201741,30.4353626 62.1658769,30.1849035 C62.0157516,30.0370632 61.9491341,29.827287 61.9873697,29.6228146 L63.5232813,21.4076181 C63.5226786,21.4078859 1.70518114e-13,21.4076181 1.70518114e-13,21.4076181 L5.68434189e-14,9.86704743 Z" id="Arrow-33-shape"></path>
                </g>
            </g>
            <g id="Arrow-33-Copy-8" transform="translate(606.000000, 907.000000)" fill="#FAC955">
                <g id="Arrow-33">
                    <path d="M5.68434189e-14,9.86704743 L62.6621147,9.86704743 L59.7845097,0.826043805 C59.6774813,0.489731321 59.8709002,0.132675807 60.216554,0.0285271778 C60.3981405,-0.0261798569 60.5952152,-0.00145905981 60.7565963,0.0962894451 L80.6909769,14.6173513 C80.9981592,14.8034011 81.0921759,15.1965115 80.9009453,15.4954049 C80.8738344,15.5377834 80.8416919,15.5769236 80.8051859,15.6120095 L63.0924032,30.1903857 C62.8350006,30.4378104 62.4201741,30.4353626 62.1658769,30.1849035 C62.0157516,30.0370632 61.9491341,29.827287 61.9873697,29.6228146 L63.5232813,21.4076181 C63.5226786,21.4078859 1.70518114e-13,21.4076181 1.70518114e-13,21.4076181 L5.68434189e-14,9.86704743 Z" id="Arrow-33-shape"></path>
                </g>
            </g>
            <rect id="Rectangle" fill="#FAC955" x="315" y="331" width="11" height="36"></rect>
            <rect id="Rectangle-Copy" fill="#FAC955" x="315" y="484" width="11" height="60"></rect>
            <g id="Small-Button---thin---1-line-" transform="translate(274.000000, 427.000000)">
                <g id="Small-Button">
                    <rect id="Background" stroke="#9B9B9B" stroke-width="2" x="1" y="1" width="93" height="41" rx="8"></rect>
                    <text id="Text" font-family="AvantGardeGothicITCW01Dm, Avant Garde Gothic ITCW01Dm" font-size="14" font-weight="normal" fill="#9B9B9B">
                        <tspan x="14.32" y="28.0727273">SEGMENT</tspan>
                    </text>
                </g>
            </g>
            <g id="Small-Button---thin---2-line-" transform="translate(1275.000000, 413.000000)">
                <g id="Small-Button">
                    <rect id="Background" stroke="#9B9B9B" stroke-width="2" x="1" y="1" width="103" height="53" rx="8"></rect>
                    <text id="Text" font-family="AvantGardeGothicITCW01Dm, Avant Garde Gothic ITCW01Dm" font-size="14" font-weight="normal" fill="#9B9B9B">
                        <tspan x="28.14" y="24">IMAGE</tspan>
                        <tspan x="6.44" y="42">PROCESSING</tspan>
                    </text>
                </g>
            </g>
            <g id="Small-Button---thin---2-line-" transform="translate(1273.000000, 803.000000)">
                <g id="Small-Button">
                    <rect id="Background" stroke="#9B9B9B" stroke-width="2" x="1" y="1" width="103" height="53" rx="8"></rect>
                    <text id="Text" font-family="AvantGardeGothicITCW01Dm, Avant Garde Gothic ITCW01Dm" font-size="14" font-weight="normal" fill="#9B9B9B">
                        <tspan x="15.54" y="24">AUCTIONS</tspan>
                        <tspan x="20.16" y="42">USER EXP</tspan>
                    </text>
                </g>
            </g>
            <g id="Small-Button---thin---1-line-" transform="translate(1137.000000, 88.000000)">
                <g id="Small-Button">
                    <rect id="Background" stroke="#9B9B9B" stroke-width="2" x="1" y="1" width="103" height="53" rx="8"></rect>
                    <text id="Text" font-family="AvantGardeGothicITCW01Dm, Avant Garde Gothic ITCW01Dm" font-size="14" font-weight="normal" fill="#9B9B9B">
                        <tspan x="20.16" y="32">SAILTHRU</tspan>
                    </text>
                </g>
            </g>
            <g id="Small-Button---thin---2-line-" transform="translate(1137.000000, 154.000000)">
                <g id="Small-Button">
                    <rect id="Background" stroke="#9B9B9B" stroke-width="2" x="1" y="1" width="103" height="53" rx="8"></rect>
                    <text id="Text" font-family="AvantGardeGothicITCW01Dm, Avant Garde Gothic ITCW01Dm" font-size="14" font-weight="normal" fill="#9B9B9B">
                        <tspan x="5.18" y="24">DISTRIBUTION </tspan>
                        <tspan x="14.14" y="42">CHANNELS</tspan>
                    </text>
                </g>
            </g>
            <g id="Small-Button---2-lines-Copy" transform="translate(59.000000, 839.000000)">
                <g id="Small-Button">
                    <rect id="Background" stroke="#9B9B9B" stroke-width="3" x="1.5" y="1.5" width="123" height="52" rx="8"></rect>
                    <text id="Text" font-family="AvantGardeGothicITCW01Dm, Avant Garde Gothic ITCW01Dm" font-size="16" font-weight="normal" fill="#9B9B9B">
                        <tspan x="42.68" y="24">HDFS</tspan>
                        <tspan x="26.2" y="44">HADOOP</tspan>
                    </text>
                </g>
            </g>
            <g id="Small-Button---thin---1-line-" transform="translate(78.000000, 485.000000)">
                <g id="Small-Button">
                    <rect id="Background" stroke="#9B9B9B" stroke-width="2" x="1" y="1" width="93" height="41" rx="8"></rect>
                    <text id="Text" font-family="AvantGardeGothicITCW01Dm, Avant Garde Gothic ITCW01Dm" font-size="14" font-weight="normal" fill="#9B9B9B">
                        <tspan x="11.24" y="28.0727273">MIXPANEL</tspan>
                    </text>
                </g>
            </g>
            <g id="Small-Button---thin---1-line-" transform="translate(78.000000, 537.000000)">
                <g id="Small-Button">
                    <rect id="Background" stroke="#9B9B9B" stroke-width="2" x="1" y="1" width="93" height="41" rx="8"></rect>
                    <text id="Text" font-family="AvantGardeGothicITCW01Dm, Avant Garde Gothic ITCW01Dm" font-size="14" font-weight="normal" fill="#9B9B9B">
                        <tspan x="15.44" y="28.0727273">PARSE.LY</tspan>
                    </text>
                </g>
            </g>
            <g id="Small-Button---thin---1-line-" transform="translate(1059.000000, 991.000000)">
                <g id="Small-Button">
                    <rect id="Background" stroke="#9B9B9B" stroke-width="2" x="1" y="1" width="93" height="41" rx="8"></rect>
                    <text id="Text" font-family="AvantGardeGothicITCW01Dm, Avant Garde Gothic ITCW01Dm" font-size="14" font-weight="normal" fill="#9B9B9B">
                        <tspan x="24.4" y="28.0727273">SLACK</tspan>
                    </text>
                </g>
            </g>
            <g id="Small-Button---thin---2-line-" transform="translate(1059.000000, 926.000000)">
                <g id="Small-Button">
                    <rect id="Background" stroke="#9B9B9B" stroke-width="2" x="1" y="1" width="93" height="53" rx="8"></rect>
                    <text id="Text" font-family="AvantGardeGothicITCW01Dm, Avant Garde Gothic ITCW01Dm" font-size="14" font-weight="normal" fill="#9B9B9B">
                        <tspan x="27.9" y="24">DASH</tspan>
                        <tspan x="18.1" y="42">BOARDS</tspan>
                    </text>
                </g>
            </g>
            <g id="Small-Button---thin---1-line-" transform="translate(1073.000000, 529.000000)">
                <g id="Small-Button">
                    <rect id="Background" stroke="#9B9B9B" stroke-width="2" x="1" y="1" width="124" height="41" rx="8"></rect>
                    <text id="Text" font-family="AvantGardeGothicITCW01Dm, Avant Garde Gothic ITCW01Dm" font-size="14" font-weight="normal" fill="#9B9B9B">
                        <tspan x="19.18" y="28.0727273">MESSAGING</tspan>
                    </text>
                </g>
            </g>
            <g id="Small-Button---thin---1-line-" transform="translate(1073.000000, 634.000000)">
                <g id="Small-Button">
                    <rect id="Background" stroke="#9B9B9B" stroke-width="2" x="1" y="1" width="124" height="41" rx="8"></rect>
                    <text id="Text" font-family="AvantGardeGothicITCW01Dm, Avant Garde Gothic ITCW01Dm" font-size="14" font-weight="normal" fill="#9B9B9B">
                        <tspan x="26.6" y="28.0727273">SENDGRID</tspan>
                    </text>
                </g>
            </g>
            <g id="Small-Button---thin---1-line-" transform="translate(1227.000000, 634.000000)">
                <g id="Small-Button">
                    <rect id="Background" stroke="#9B9B9B" stroke-width="2" x="1" y="1" width="124" height="41" rx="8"></rect>
                    <text id="Text" font-family="AvantGardeGothicITCW01Dm, Avant Garde Gothic ITCW01Dm" font-size="14" font-weight="normal" fill="#9B9B9B">
                        <tspan x="41.16" y="28.0727273">STRIPE</tspan>
                    </text>
                </g>
            </g>
            <g id="Small-Button---thin---1-line-" transform="translate(1227.000000, 529.000000)">
                <g id="Small-Button">
                    <rect id="Background" stroke="#9B9B9B" stroke-width="2" x="1" y="1" width="124" height="41" rx="8"></rect>
                    <text id="Text" font-family="AvantGardeGothicITCW01Dm, Avant Garde Gothic ITCW01Dm" font-size="14" font-weight="normal" fill="#9B9B9B">
                        <tspan x="22.12" y="28.0727273">INVOICING</tspan>
                    </text>
                </g>
            </g>
            <g id="Cloud" transform="translate(69.000000, 594.000000)">
                <path d="M81.25,72 C93.8144787,72 104,61.7432513 104,49.0909091 C104,37.525726 95.4896694,27.9621382 84.4311826,26.4040137 C84.4767837,25.7905044 84.5,25.1707096 84.5,24.5454545 C84.5,10.9893737 73.5869414,0 60.125,0 C48.0607277,0 38.0435445,8.8259164 36.0935469,20.4155542 C34.4426735,19.9088979 32.6904426,19.6363636 30.875,19.6363636 C21.3247269,19.6363636 13.5237551,27.1783841 13.025301,36.6703751 C5.50972148,38.7988085 0,45.7514722 0,54 C0,63.941126 8.00290961,72 17.875,72 C18.4227708,72 18.9647867,71.9751885 19.5,71.9266205 L19.5,72 L81.25,72 Z" stroke="#9B9B9B" stroke-width="3"></path>
                <text id="Text" font-family="AvantGardeGothicITCW01Dm, Avant Garde Gothic ITCW01Dm" font-size="16" font-weight="normal" fill="#9B9B9B">
                    <tspan x="43.72" y="52">S3</tspan>
                </text>
            </g>
            <g id="Cloud" transform="translate(270.000000, 873.000000)">
                <path d="M81.25,72 C93.8144787,72 104,61.7432513 104,49.0909091 C104,37.525726 95.4896694,27.9621382 84.4311826,26.4040137 C84.4767837,25.7905044 84.5,25.1707096 84.5,24.5454545 C84.5,10.9893737 73.5869414,0 60.125,0 C48.0607277,0 38.0435445,8.8259164 36.0935469,20.4155542 C34.4426735,19.9088979 32.6904426,19.6363636 30.875,19.6363636 C21.3247269,19.6363636 13.5237551,27.1783841 13.025301,36.6703751 C5.50972148,38.7988085 0,45.7514722 0,54 C0,63.941126 8.00290961,72 17.875,72 C18.4227708,72 18.9647867,71.9751885 19.5,71.9266205 L19.5,72 L81.25,72 Z" stroke="#9B9B9B" stroke-width="3"></path>
                <text id="Text" font-family="AvantGardeGothicITCW01Dm, Avant Garde Gothic ITCW01Dm" font-size="16" font-weight="normal" fill="#9B9B9B">
                    <tspan x="43.72" y="52">S3</tspan>
                </text>
            </g>
            <g id="Small-Button---thin---2-line-" transform="translate(78.000000, 421.000000)">
                <g id="Small-Button">
                    <rect id="Background" stroke="#9B9B9B" stroke-width="2" x="1" y="1" width="93" height="53" rx="8"></rect>
                    <text id="Text" font-family="AvantGardeGothicITCW01Dm, Avant Garde Gothic ITCW01Dm" font-size="14" font-weight="normal" fill="#9B9B9B">
                        <tspan x="15.58" y="24">GOOGLE</tspan>
                        <tspan x="8.02" y="42">ANALYTICS</tspan>
                    </text>
                </g>
            </g>
            <g id="Arrow-29" transform="translate(211.500000, 450.000000) rotate(-180.000000) translate(-211.500000, -450.000000) translate(191.000000, 442.000000)">
                <g>
                    <path d="M0,8 C0,8 0.455520749,8 0.998245642,8 L29,8" id="Stroke-29" stroke="#FAC955" stroke-width="6"></path>
                    <path d="M40.2835353,9.05015963 C41.2159928,8.4538487 41.2191798,7.48907572 40.2835353,6.89072672 L30.3693163,0.550537662 C28.5084943,-0.639466663 27,0.180158477 27,2.38683443 L27,13.5540519 C27,15.758215 28.5041128,16.583155 30.3693163,15.3903487 L40.2835353,9.05015963 Z" id="Arrow-head-29" fill="#FAC955"></path>
                </g>
            </g>
            <g id="Arrow-29" transform="translate(211.500000, 505.000000) rotate(-180.000000) translate(-211.500000, -505.000000) translate(191.000000, 497.000000)">
                <g>
                    <path d="M0,8 C0,8 0.455520749,8 0.998245642,8 L29,8" id="Stroke-29" stroke="#FAC955" stroke-width="6"></path>
                    <path d="M40.2835353,9.05015963 C41.2159928,8.4538487 41.2191798,7.48907572 40.2835353,6.89072672 L30.3693163,0.550537662 C28.5084943,-0.639466663 27,0.180158477 27,2.38683443 L27,13.5540519 C27,15.758215 28.5041128,16.583155 30.3693163,15.3903487 L40.2835353,9.05015963 Z" id="Arrow-head-29" fill="#FAC955"></path>
                </g>
            </g>
            <g id="Arrow-29" transform="translate(211.500000, 560.000000) rotate(-180.000000) translate(-211.500000, -560.000000) translate(191.000000, 552.000000)">
                <g>
                    <path d="M0,8 C0,8 0.455520749,8 0.998245642,8 L29,8" id="Stroke-29" stroke="#FAC955" stroke-width="6"></path>
                    <path d="M40.2835353,9.05015963 C41.2159928,8.4538487 41.2191798,7.48907572 40.2835353,6.89072672 L30.3693163,0.550537662 C28.5084943,-0.639466663 27,0.180158477 27,2.38683443 L27,13.5540519 C27,15.758215 28.5041128,16.583155 30.3693163,15.3903487 L40.2835353,9.05015963 Z" id="Arrow-head-29" fill="#FAC955"></path>
                </g>
            </g>
            <g id="Arrow-29" transform="translate(211.500000, 631.000000) rotate(-180.000000) translate(-211.500000, -631.000000) translate(191.000000, 623.000000)">
                <g>
                    <path d="M0,8 C0,8 0.455520749,8 0.998245642,8 L29,8" id="Stroke-29" stroke="#FAC955" stroke-width="6"></path>
                    <path d="M40.2835353,9.05015963 C41.2159928,8.4538487 41.2191798,7.48907572 40.2835353,6.89072672 L30.3693163,0.550537662 C28.5084943,-0.639466663 27,0.180158477 27,2.38683443 L27,13.5540519 C27,15.758215 28.5041128,16.583155 30.3693163,15.3903487 L40.2835353,9.05015963 Z" id="Arrow-head-29" fill="#FAC955"></path>
                </g>
            </g>
            <g id="Small-Button---2-lines-Copy" transform="translate(507.000000, 629.000000)">
                <g id="Small-Button">
                    <rect id="Background" stroke="#9B9B9B" stroke-width="3" x="1.5" y="1.5" width="123" height="52" rx="8"></rect>
                    <text id="Text" font-family="AvantGardeGothicITCW01Dm, Avant Garde Gothic ITCW01Dm" font-size="16" font-weight="normal" fill="#9B9B9B">
                        <tspan x="39.16" y="24">DAILY</tspan>
                        <tspan x="38.84" y="44">TASKS</tspan>
                    </text>
                </g>
            </g>
            <g id="Small-Button---2-lines-Copy" transform="translate(59.000000, 954.000000)">
                <g id="Small-Button">
                    <rect id="Background" stroke="#9B9B9B" stroke-width="3" x="1.5" y="1.5" width="123" height="52" rx="8"></rect>
                    <text id="Text" font-family="AvantGardeGothicITCW01Dm, Avant Garde Gothic ITCW01Dm" font-size="16" font-weight="normal" fill="#9B9B9B">
                        <tspan x="37.24" y="24">SPARK </tspan>
                        <tspan x="42.36" y="44">JOBS</tspan>
                    </text>
                </g>
            </g>
            <g id="Small-Button---1-line-Copy" transform="translate(1073.000000, 413.000000)">
                <g id="Small-Button">
                    <rect id="Background" stroke="#9B9B9B" stroke-width="3" x="1.5" y="1.5" width="123" height="52" rx="8"></rect>
                    <text id="Text" font-family="AvantGardeGothicITCW01Dm, Avant Garde Gothic ITCW01Dm" font-size="16" font-weight="normal" fill="#9B9B9B">
                        <tspan x="44.44" y="32">CMS</tspan>
                    </text>
                </g>
            </g>
            <g id="Small-Button---2-lines-Copy" transform="translate(1073.000000, 806.000000)">
                <g id="Small-Button">
                    <rect id="Background" stroke="#9B9B9B" stroke-width="3" x="1.5" y="1.5" width="123" height="52" rx="8"></rect>
                    <text id="Text" font-family="AvantGardeGothicITCW01Dm, Avant Garde Gothic ITCW01Dm" font-size="16" font-weight="normal" fill="#9B9B9B">
                        <tspan x="25.24" y="24">AUCTION</tspan>
                        <tspan x="31.96" y="44">ENGINE</tspan>
                    </text>
                </g>
            </g>
            <g id="Small-Button---1-line-Copy" transform="translate(915.000000, 89.000000)">
                <g id="Small-Button">
                    <rect id="Background" stroke="#9B9B9B" stroke-width="3" x="1.5" y="1.5" width="123" height="52" rx="8"></rect>
                    <text id="Text" font-family="AvantGardeGothicITCW01Dm, Avant Garde Gothic ITCW01Dm" font-size="16" font-weight="normal" fill="#9B9B9B">
                        <tspan x="34.84" y="32">WRITER</tspan>
                    </text>
                </g>
            </g>
            <g id="Arrow-33" transform="translate(381.000000, 238.000000)" fill="#FAC955">
                <path d="M17.9731021,23.4462339 C30.1883264,32.6033084 49.9945376,28.8620004 49.9945376,28.8620004 C49.9945376,28.8620004 72.1106111,32.3948918 71.8811344,32.7612773 C71.8486013,32.8132252 63.3187652,38.250548 63.3187652,38.250548 C63.3180419,38.2508762 28.4405516,45.1580129 14.6031406,33.1221305 C0.747269506,21.0958906 7.86202241e-05,-0.000640752663 0,0 C7.86202241e-05,-0.000265677934 5.77946702,14.2767664 17.9731021,23.4462339 Z" id="Arrow-33-shape"></path>
            </g>
            <g id="Cloud" transform="translate(1451.000000, 404.000000)">
                <path d="M81.25,72 C93.8144787,72 104,61.7432513 104,49.0909091 C104,37.525726 95.4896694,27.9621382 84.4311826,26.4040137 C84.4767837,25.7905044 84.5,25.1707096 84.5,24.5454545 C84.5,10.9893737 73.5869414,0 60.125,0 C48.0607277,0 38.0435445,8.8259164 36.0935469,20.4155542 C34.4426735,19.9088979 32.6904426,19.6363636 30.875,19.6363636 C21.3247269,19.6363636 13.5237551,27.1783841 13.025301,36.6703751 C5.50972148,38.7988085 0,45.7514722 0,54 C0,63.941126 8.00290961,72 17.875,72 C18.4227708,72 18.9647867,71.9751885 19.5,71.9266205 L19.5,72 L81.25,72 Z" stroke="#9B9B9B" stroke-width="3"></path>
                <text id="Text" font-family="AvantGardeGothicITCW01Dm, Avant Garde Gothic ITCW01Dm" font-size="16" font-weight="normal" fill="#9B9B9B">
                    <tspan x="43.72" y="52">S3</tspan>
                </text>
            </g>
            <g id="Smaller-Round-Button" transform="translate(1273.000000, 918.000000)">
                <g id="Small-Button-Copy">
                    <path d="M4.14473684,64.125 C4.14473684,78.5559211 14.3484456,90.25 26.9378279,90.25 L78.0621721,90.25 C90.6440573,90.25 100.855263,78.5493386 100.855263,64.125 C100.855263,49.6940789 90.6515544,36.4166667 78.0621721,36.4166667 L26.9378279,36.4166667 C14.3559427,36.4166667 4.14473684,49.7006614 4.14473684,64.125 Z M4.90835442e-14,62.5416667 C4.90835442e-14,45.489875 0,30.0338542 0,30.0338542 L105,31.8815918 C105,31.8815918 105,45.4861258 105,62.5416667 C105,79.5934583 92.9295537,93.4166667 78.0621721,93.4166667 L26.9378279,93.4166667 C12.0604763,93.4166667 4.90835442e-14,79.5972075 4.90835442e-14,62.5416667 Z" id="Background-Copy" fill="#9B9B9B" fill-rule="nonzero"></path>
                    <g id="Background">
                        <use fill="#FFFFFF" fill-rule="evenodd" xlink:href="#path-7"></use>
                        <rect stroke="#9B9B9B" stroke-width="2" x="1" y="1" width="103" height="59.75" rx="29.875"></rect>
                    </g>
                    <text id="Text" font-family="AvantGardeGothicITCW01Dm, Avant Garde Gothic ITCW01Dm" font-size="16" font-weight="normal" fill="#9B9B9B">
                        <tspan x="29.46" y="27.0833333">AKKA</tspan>
                        <tspan x="23.06" y="47.0833333">PERSIST</tspan>
                    </text>
                </g>
            </g>
            <g id="Smaller-Round-Button" transform="translate(926.000000, 207.000000)">
                <g id="Small-Button-Copy">
                    <path d="M4.14473684,64.125 C4.14473684,78.5559211 14.3484456,90.25 26.9378279,90.25 L78.0621721,90.25 C90.6440573,90.25 100.855263,78.5493386 100.855263,64.125 C100.855263,49.6940789 90.6515544,36.4166667 78.0621721,36.4166667 L26.9378279,36.4166667 C14.3559427,36.4166667 4.14473684,49.7006614 4.14473684,64.125 Z M4.90835442e-14,62.5416667 C4.90835442e-14,45.489875 0,30.0338542 0,30.0338542 L105,31.8815918 C105,31.8815918 105,45.4861258 105,62.5416667 C105,79.5934583 92.9295537,93.4166667 78.0621721,93.4166667 L26.9378279,93.4166667 C12.0604763,93.4166667 4.90835442e-14,79.5972075 4.90835442e-14,62.5416667 Z" id="Background-Copy" fill="#9B9B9B" fill-rule="nonzero"></path>
                    <g id="Background">
                        <use fill="#FFFFFF" fill-rule="evenodd" xlink:href="#path-8"></use>
                        <rect stroke="#9B9B9B" stroke-width="2" x="1" y="1" width="103" height="59.75" rx="29.875"></rect>
                    </g>
                    <text id="Text" font-family="AvantGardeGothicITCW01Dm, Avant Garde Gothic ITCW01Dm" font-size="16" font-weight="normal" fill="#9B9B9B">
                        <tspan x="17.62" y="27.0833333">MONGO</tspan>
                        <tspan x="41.62" y="47.0833333">DB</tspan>
                    </text>
                </g>
            </g>
            <g id="Arrow-33-Copy-2" transform="translate(243.125206, 472.952941) rotate(-270.000000) translate(-243.125206, -472.952941) translate(217.125206, 456.452941)" fill="#FAC955">
                <path d="M8.20965664,20.6442486 C12.6930551,24.4167095 40.7256576,26.5949322 51.031434,26.5949322 C51.031434,26.5949322 51.031434,29.0999993 51.031434,32.3986431 C51.031434,32.3986431 0.0967964754,29.7428814 0.0967964754,25.0917118 C0.0967964754,11.4776981 0.0968750956,-0.000640752663 0.0967964754,-2.71988622e-13 C0.0968532497,-0.000191855059 2.98114102,-1.01717774e-13 6.11102383,-2.84217121e-13 C6.11102383,2.5851614 5.09878664,8.96322342 5.6330993,14.1379243 C5.9189062,16.9059014 6.64721834,19.3295679 8.20965664,20.6442486 Z" id="Arrow-33-shape"></path>
            </g>
            <g id="Arrow-29" transform="translate(211.500000, 505.000000) rotate(-180.000000) translate(-211.500000, -505.000000) translate(191.000000, 497.000000)">
                <g>
                    <path d="M0,8 C0,8 0.455520749,8 0.998245642,8 L29,8" id="Stroke-29" stroke="#FAC955" stroke-width="6"></path>
                    <path d="M40.2835353,9.05015963 C41.2159928,8.4538487 41.2191798,7.48907572 40.2835353,6.89072672 L30.3693163,0.550537662 C28.5084943,-0.639466663 27,0.180158477 27,2.38683443 L27,13.5540519 C27,15.758215 28.5041128,16.583155 30.3693163,15.3903487 L40.2835353,9.05015963 Z" id="Arrow-head-29" fill="#FAC955"></path>
                </g>
            </g>
            <rect id="Rectangle-2" fill="#FAC955" transform="translate(1083.500000, 169.500000) scale(-1, 1) rotate(-270.000000) translate(-1083.500000, -169.500000) " x="1078" y="166.5" width="11" height="6"></rect>
            <g id="Arrow-29" transform="translate(1104.000000, 117.000000) scale(-1, 1) rotate(-180.000000) translate(-1104.000000, -117.000000) translate(1083.500000, 109.000000)">
                <g>
                    <path d="M0,8 C0,8 0.455520749,8 0.998245642,8 L29,8" id="Stroke-29" stroke="#FAC955" stroke-width="6"></path>
                    <path d="M40.2835353,9.05015963 C41.2159928,8.4538487 41.2191798,7.48907572 40.2835353,6.89072672 L30.3693163,0.550537662 C28.5084943,-0.639466663 27,0.180158477 27,2.38683443 L27,13.5540519 C27,15.758215 28.5041128,16.583155 30.3693163,15.3903487 L40.2835353,9.05015963 Z" id="Arrow-head-29" fill="#FAC955"></path>
                </g>
            </g>
            <g id="Arrow-33-Copy-2" transform="translate(1070.000000, 140.000000) scale(-1, 1) rotate(-270.000000) translate(-1070.000000, -140.000000) translate(1044.000000, 123.500000)" fill="#FAC955">
                <path d="M8.20965664,20.6442486 C12.6930551,24.4167095 40.7256576,26.5949322 51.031434,26.5949322 C51.031434,26.5949322 51.031434,29.0999993 51.031434,32.3986431 C51.031434,32.3986431 0.0967964754,29.7428814 0.0967964754,25.0917118 C0.0967964754,11.4776981 0.0968750956,-0.000640752663 0.0967964754,-2.71988622e-13 C0.0968532497,-0.000191855059 2.98114102,-1.01717774e-13 6.11102383,-2.84217121e-13 C6.11102383,2.5851614 5.09878664,8.96322342 5.6330993,14.1379243 C5.9189062,16.9059014 6.64721834,19.3295679 8.20965664,20.6442486 Z" id="Arrow-33-shape"></path>
            </g>
            <g id="Arrow-29" transform="translate(1104.000000, 172.500000) scale(-1, 1) rotate(-180.000000) translate(-1104.000000, -172.500000) translate(1083.500000, 165.000000)">
                <g>
                    <path d="M0,7.5 C0,7.5 0.216754794,7.5 0.503349304,7.5 L29,7.5" id="Stroke-29" stroke="#FAC955" stroke-width="6"></path>
                    <path d="M40.2544318,8.53370954 C41.2029628,7.96261547 41.2088569,7.04023779 40.2544318,6.46559496 L30.4348561,0.553398226 C28.5378374,-0.588763877 27,0.279897526 27,2.48647099 L27,12.5128335 C27,14.7226022 28.5318959,15.5916457 30.4348561,14.4459063 L40.2544318,8.53370954 Z" id="Arrow-head-29" fill="#FAC955"></path>
                </g>
            </g>
            <rect id="Rectangle-2" fill="#FAC955" x="1077.5" y="114" width="9" height="6"></rect>
            <g id="Arrow-29" transform="translate(1006.000000, 946.000000)">
                <g>
                    <path d="M0,8 C0,8 0.455520749,8 0.998245642,8 L29,8" id="Stroke-29" stroke="#FAC955" stroke-width="6"></path>
                    <path d="M40.2835353,9.05015963 C41.2159928,8.4538487 41.2191798,7.48907572 40.2835353,6.89072672 L30.3693163,0.550537662 C28.5084943,-0.639466663 27,0.180158477 27,2.38683443 L27,13.5540519 C27,15.758215 28.5041128,16.583155 30.3693163,15.3903487 L40.2835353,9.05015963 Z" id="Arrow-head-29" fill="#FAC955"></path>
                </g>
            </g>
            <g id="Arrow-29" transform="translate(1006.000000, 1005.000000)">
                <g>
                    <path d="M0,8 C0,8 0.455520749,8 0.998245642,8 L29,8" id="Stroke-29" stroke="#FAC955" stroke-width="6"></path>
                    <path d="M40.2835353,9.05015963 C41.2159928,8.4538487 41.2191798,7.48907572 40.2835353,6.89072672 L30.3693163,0.550537662 C28.5084943,-0.639466663 27,0.180158477 27,2.38683443 L27,13.5540519 C27,15.758215 28.5041128,16.583155 30.3693163,15.3903487 L40.2835353,9.05015963 Z" id="Arrow-head-29" fill="#FAC955"></path>
                </g>
            </g>
            <g id="Arrow-29" transform="translate(1227.152543, 905.152543) rotate(-315.000000) translate(-1227.152543, -905.152543) translate(1206.652543, 897.152543)">
                <g>
                    <path d="M0,8 C0,8 0.455520749,8 0.998245642,8 L29,8" id="Stroke-29" stroke="#FAC955" stroke-width="6"></path>
                    <path d="M40.2835353,9.05015963 C41.2159928,8.4538487 41.2191798,7.48907572 40.2835353,6.89072672 L30.3693163,0.550537662 C28.5084943,-0.639466663 27,0.180158477 27,2.38683443 L27,13.5540519 C27,15.758215 28.5041128,16.583155 30.3693163,15.3903487 L40.2835353,9.05015963 Z" id="Arrow-head-29" fill="#FAC955"></path>
                </g>
            </g>
            <g id="Arrow-29" transform="translate(1250.152543, 893.152543) rotate(-135.000000) translate(-1250.152543, -893.152543) translate(1229.652543, 885.152543)">
                <g>
                    <path d="M0,8 C0,8 0.455520749,8 0.998245642,8 L29,8" id="Stroke-29" stroke="#FAC955" stroke-width="6"></path>
                    <path d="M40.2835353,9.05015963 C41.2159928,8.4538487 41.2191798,7.48907572 40.2835353,6.89072672 L30.3693163,0.550537662 C28.5084943,-0.639466663 27,0.180158477 27,2.38683443 L27,13.5540519 C27,15.758215 28.5041128,16.583155 30.3693163,15.3903487 L40.2835353,9.05015963 Z" id="Arrow-head-29" fill="#FAC955"></path>
                </g>
            </g>
        </g>
    </g>
</svg>