<?xml version="1.0" encoding="UTF-8"?>
<svg width="1552px" height="1057px" viewBox="0 0 1552 1057" version="1.1" xmlns="http://www.w3.org/2000/svg" xmlns:xlink="http://www.w3.org/1999/xlink">
    <!-- Generator: Sketch 43.1 (39012) - http://www.bohemiancoding.com/sketch -->
    <title>Artboard</title>
    <desc>Created with Sketch.</desc>
    <defs>
        <rect id="path-1" x="0" y="0" width="105" height="61.75" rx="30.875"></rect>
        <rect id="path-2" x="0" y="0" width="105" height="61.75" rx="30.875"></rect>
        <rect id="path-3" x="0" y="0" width="105" height="61.75" rx="30.875"></rect>
        <rect id="path-4" x="0" y="0" width="76" height="39" rx="19.5"></rect>
    </defs>
    <g id="Architecture" stroke="none" stroke-width="1" fill="none" fill-rule="evenodd">
        <g id="Artboard">
            <g id="Rectangle-Comments" transform="translate(1144.000000, 713.000000)">
                <rect id="Background" stroke="#FAC955" stroke-width="3" x="1.5" y="19.5" width="405" height="251" rx="8"></rect>
                <text id="Text" font-family="AvantGardeGothicITCW01Dm, Avant Garde Gothic ITCW01Dm" font-size="24" font-weight="normal" fill="#FAC955">
                    <tspan x="26" y="18">DATA PROCESSING</tspan>
                </text>
            </g>
            <g id="Rectangle-Comments" transform="translate(35.000000, 367.000000)">
                <rect id="Background" stroke="#FAC955" stroke-width="3" x="1.5" y="19.5" width="405" height="557" rx="8"></rect>
                <text id="Text" font-family="AvantGardeGothicITCW01Dm, Avant Garde Gothic ITCW01Dm" font-size="24" font-weight="normal" fill="#FAC955">
                    <tspan x="26" y="18">ANALYTICS</tspan>
                </text>
            </g>
            <g id="Rectangle-Comments" transform="translate(1003.000000, 403.000000)">
                <rect id="Background" stroke="#FAC955" stroke-width="3" x="1.5" y="19.5" width="405" height="251" rx="8"></rect>
                <text id="Text" font-family="AvantGardeGothicITCW01Dm, Avant Garde Gothic ITCW01Dm" font-size="24" font-weight="normal" fill="#FAC955">
                    <tspan x="26" y="18">AUCTIONS</tspan>
                </text>
            </g>
            <g id="Smaller-Round-Button" transform="translate(887.000000, 162.000000)">
                <g id="Small-Button-Copy">
                    <path d="M4.14473684,64.125 C4.14473684,78.5559211 14.3484456,90.25 26.9378279,90.25 L78.0621721,90.25 C90.6440573,90.25 100.855263,78.5493386 100.855263,64.125 C100.855263,49.6940789 90.6515544,36.4166667 78.0621721,36.4166667 L26.9378279,36.4166667 C14.3559427,36.4166667 4.14473684,49.7006614 4.14473684,64.125 Z M4.90835442e-14,62.5416667 C4.90835442e-14,45.489875 0,30.0338542 0,30.0338542 L105,31.8815918 C105,31.8815918 105,45.4861258 105,62.5416667 C105,79.5934583 92.9295537,93.4166667 78.0621721,93.4166667 L26.9378279,93.4166667 C12.0604763,93.4166667 4.90835442e-14,79.5972075 4.90835442e-14,62.5416667 Z" id="Background-Copy" fill="#5FDDF7" fill-rule="nonzero"></path>
                    <g id="Background">
                        <use fill="#FFFFFF" fill-rule="evenodd" xlink:href="#path-1"></use>
                        <rect stroke="#5FDDF7" stroke-width="2" x="1" y="1" width="103" height="59.75" rx="29.875"></rect>
                    </g>
                    <text id="Text" font-family="AvantGardeGothicITCW01Dm, Avant Garde Gothic ITCW01Dm" font-size="16" font-weight="normal" fill="#5FDDF7">
                        <tspan x="17.62" y="27.0833333">MONGO</tspan>
                        <tspan x="41.62" y="47.0833333">DB</tspan>
                    </text>
                </g>
            </g>
            <g id="Smaller-Round-Button" transform="translate(887.000000, 38.000000)">
                <g id="Small-Button-Copy">
                    <path d="M4.14473684,64.125 C4.14473684,78.5559211 14.3484456,90.25 26.9378279,90.25 L78.0621721,90.25 C90.6440573,90.25 100.855263,78.5493386 100.855263,64.125 C100.855263,49.6940789 90.6515544,36.4166667 78.0621721,36.4166667 L26.9378279,36.4166667 C14.3559427,36.4166667 4.14473684,49.7006614 4.14473684,64.125 Z M4.90835442e-14,62.5416667 C4.90835442e-14,45.489875 0,30.0338542 0,30.0338542 L105,31.8815918 C105,31.8815918 105,45.4861258 105,62.5416667 C105,79.5934583 92.9295537,93.4166667 78.0621721,93.4166667 L26.9378279,93.4166667 C12.0604763,93.4166667 4.90835442e-14,79.5972075 4.90835442e-14,62.5416667 Z" id="Background-Copy" fill="#5FDDF7" fill-rule="nonzero"></path>
                    <g id="Background">
                        <use fill="#FFFFFF" fill-rule="evenodd" xlink:href="#path-2"></use>
                        <rect stroke="#5FDDF7" stroke-width="2" x="1" y="1" width="103" height="59.75" rx="29.875"></rect>
                    </g>
                    <text id="Text" font-family="AvantGardeGothicITCW01Dm, Avant Garde Gothic ITCW01Dm" font-size="16" font-weight="normal" fill="#5FDDF7">
                        <tspan x="20.66" y="27.0833333">ELASTIC </tspan>
                        <tspan x="20.02" y="47.0833333">SEARCH</tspan>
                    </text>
                </g>
            </g>
            <g id="Smaller-Round-Button" transform="translate(268.000000, 609.000000)">
                <g id="Small-Button-Copy">
                    <path d="M4.14473684,64.125 C4.14473684,78.5559211 14.3484456,90.25 26.9378279,90.25 L78.0621721,90.25 C90.6440573,90.25 100.855263,78.5493386 100.855263,64.125 C100.855263,49.6940789 90.6515544,36.4166667 78.0621721,36.4166667 L26.9378279,36.4166667 C14.3559427,36.4166667 4.14473684,49.7006614 4.14473684,64.125 Z M4.90835442e-14,62.5416667 C4.90835442e-14,45.489875 0,30.0338542 0,30.0338542 L105,31.8815918 C105,31.8815918 105,45.4861258 105,62.5416667 C105,79.5934583 92.9295537,93.4166667 78.0621721,93.4166667 L26.9378279,93.4166667 C12.0604763,93.4166667 4.90835442e-14,79.5972075 4.90835442e-14,62.5416667 Z" id="Background-Copy" fill="#5FDDF7" fill-rule="nonzero"></path>
                    <g id="Background">
                        <use fill="#FFFFFF" fill-rule="evenodd" xlink:href="#path-3"></use>
                        <rect stroke="#5FDDF7" stroke-width="2" x="1" y="1" width="103" height="59.75" rx="29.875"></rect>
                    </g>
                    <text id="Text" font-family="AvantGardeGothicITCW01Dm, Avant Garde Gothic ITCW01Dm" font-size="16" font-weight="normal" fill="#5FDDF7">
                        <tspan x="34.26" y="27.0833333">AWS</tspan>
                        <tspan x="16.5" y="47.0833333">REDSHIFT</tspan>
                    </text>
                </g>
            </g>
            <g id="Smaller-Round-Button" transform="translate(1476.000000, 249.000000)">
                <g id="Small-Button-Copy">
                    <path d="M3,40.5 C3,49.614266 10.3855416,57 19.4978564,57 L56.5021436,57 C65.6090319,57 73,49.6101086 73,40.5 C73,31.385734 65.6144584,23 56.5021436,23 L19.4978564,23 C10.3909681,23 3,31.3898914 3,40.5 Z M3.55271368e-14,39.5 C3.55271368e-14,28.7304474 0,18.96875 0,18.96875 L76,20.1357422 C76,20.1357422 76,28.7280795 76,39.5 C76,50.2695526 67.263296,59 56.5021436,59 L19.4978564,59 C8.72948764,59 3.55271368e-14,50.2719205 3.55271368e-14,39.5 Z" id="Background-Copy" fill="#5FDDF7" fill-rule="nonzero"></path>
                    <g id="Background">
                        <use fill="#FFFFFF" fill-rule="evenodd" xlink:href="#path-4"></use>
                        <rect stroke="#5FDDF7" stroke-width="2" x="1" y="1" width="74" height="37" rx="18.5"></rect>
                    </g>
                    <text id="Text" font-family="AvantGardeGothicITCW01Dm, Avant Garde Gothic ITCW01Dm" font-size="16" font-weight="normal" fill="#5FDDF7">
                        <tspan x="27.12" y="23">DB</tspan>
                    </text>
                </g>
            </g>
            <g id="Small-Button" transform="translate(697.000000, 38.000000)">
                <rect id="Background" stroke="#FAC955" stroke-width="3" x="1.5" y="1.5" width="123" height="904" rx="8"></rect>
                <text id="Text" font-family="AvantGardeGothicITCW01Dm, Avant Garde Gothic ITCW01Dm" font-size="24" font-weight="normal" fill="#FAC955">
                    <tspan x="26.04" y="445.007984">ARTSY </tspan>
                    <tspan x="42.6" y="476.007984">API</tspan>
                </text>
            </g>
            <g id="Small-Button-Copy" transform="translate(507.000000, 175.000000)">
                <rect id="Background" stroke="#FAC955" stroke-width="3" x="1.5" y="1.5" width="123" height="189" rx="8"></rect>
                <text id="Text" font-family="AvantGardeGothicITCW01Dm, Avant Garde Gothic ITCW01Dm" font-size="20" font-weight="normal" fill="#FAC955">
                    <tspan x="13.4" y="102">GRAPHQL</tspan>
                </text>
            </g>
            <g id="EIGEN-PHONE" transform="translate(301.000000, 39.000000)">
                <g id="PHONE">
                    <rect id="Rectangle-4-Copy-4" stroke="#82D7DA" x="4.91747573" y="162.14538" width="95.3915858" height="11.5217391"></rect>
                    <rect id="Edge-Copy" stroke="#82D7DA" stroke-width="1.5" x="-0.523462783" y="-0.75" width="106.273463" height="193.5" rx="3"></rect>
                    <rect id="Rectangle-4-Copy-13" stroke="#82D7DA" stroke-width="0.5" x="11.5016181" y="153.057824" width="39.2661812" height="8.84782609"></rect>
                    <rect id="Rectangle-4-Copy-14" stroke="#82D7DA" stroke-width="0.5" x="54.4587379" y="153.057824" width="39.2661812" height="8.84782609"></rect>
                    <rect id="Rectangle-4-Copy-8" stroke="#82D7DA" stroke-width="0.5" x="4.66747573" y="16.9456522" width="95.8915858" height="79.7540761"></rect>
                    <rect id="Rectangle-3-Copy" stroke="#82D7DA" x="4.91747573" y="17.1956522" width="95.3915858" height="156.471467"></rect>
                    <ellipse id="Oval-1-Copy-7" stroke="#82D7DA" cx="19.0857605" cy="30.1671196" rx="5.78640777" ry="5.76086957"></ellipse>
                    <ellipse id="Oval-1-Copy-8" stroke="#82D7DA" cx="73.5679612" cy="111.558424" rx="5.78640777" ry="5.76086957"></ellipse>
                    <ellipse id="Oval-1-Copy-9" stroke="#82D7DA" cx="88.236246" cy="111.558424" rx="5.78640777" ry="5.76086957"></ellipse>
                    <path d="M28.5048948,139.826087 L76.7216424,139.826087" id="Path-10-Copy-5" stroke="#82D7DA" stroke-width="2"></path>
                    <path d="M10.7038835,114.595109 L58.9132015,114.595109" id="Path-10-Copy-4" stroke="#82D7DA" stroke-width="2"></path>
                    <path d="M10.7038835,108.334239 L58.9132015,108.334239" id="Path-10-Copy-3" stroke="#82D7DA" stroke-width="2"></path>
                    <ellipse id="Oval-1-Copy-6" stroke="#99E0E2" cx="52.6132686" cy="183.652174" rx="6.28640777" ry="6.26086957"></ellipse>
                </g>
            </g>
            <g id="force" transform="translate(34.000000, 39.000000)" stroke="#82D7DA">
                <g>
                    <rect id="Window" stroke-width="1.5" x="0" y="0" width="240.406667" height="192.735177"></rect>
                    <path d="M0,6.01147541 L240.406667,6.01147541" id="titlebar-bottom"></path>
                    <path d="M0,16.5842896 L240.406667,16.5842896" id="artsy-header-bottom" stroke-width="0.5"></path>
                    <g id="paging-circles" transform="translate(117.401498, 95.999666)" stroke-width="0.5">
                        <ellipse id="Oval-16-Copy-3" cx="0.343438096" cy="0.7493418" rx="1" ry="1"></ellipse>
                        <ellipse id="Oval-16-Copy-4" cx="0.343438096" cy="0.7493418" rx="1" ry="1"></ellipse>
                        <ellipse id="Oval-16-Copy-5" cx="3.09094287" cy="0.7493418" rx="1" ry="1"></ellipse>
                        <ellipse id="Oval-16-Copy-6" cx="5.83844764" cy="0.7493418" rx="1" ry="1"></ellipse>
                    </g>
                    <rect id="artwork4" stroke-width="0.75" x="182.709067" y="175.530344" width="34.3438096" height="17.2631112"></rect>
                    <rect id="artwork3" stroke-width="0.75" x="130.506477" y="175.530344" width="34.3438096" height="17.2631112"></rect>
                    <rect id="artwork2" stroke-width="0.75" x="78.3038862" y="175.530344" width="34.3438096" height="17.2631112"></rect>
                    <rect id="artwork1" stroke-width="0.75" x="23.3537906" y="175.530344" width="34.3438096" height="17.2631112"></rect>
                    <path d="M103.031429,166.422951 L138.518691,166.422951" id="artworks-title" stroke-width="2"></path>
                    <g id="traffic-lights" transform="translate(3.795276, 2.531148)">
                        <ellipse id="Oval-16" cx="1.01285776" cy="0.924174178" rx="1" ry="1"></ellipse>
                        <ellipse id="Oval-16-Copy" cx="5.13411491" cy="0.924174178" rx="1" ry="1"></ellipse>
                        <ellipse id="Oval-16-Copy-2" cx="9.2553721" cy="0.924174178" rx="1" ry="1"></ellipse>
                    </g>
                    <path d="M0.581094936,91.8859288 L240.700642,91.8859288" id="herounit-bottom" stroke-width="0.5"></path>
                    <g id="hero-unit-copy" transform="translate(22.721245, 40.481409)">
                        <path d="M4.83159736e-14,0 L43.9600763,0" id="Path-10-Copy-6" stroke-width="8"></path>
                        <path d="M6.06758738e-14,10.4409836 L97.1593847,10.4409836" id="Path-10-Copy-7" stroke-width="3"></path>
                        <path d="M6.06758738e-14,16.1360656 L97.1593847,16.1360656" id="Path-10-Copy-8" stroke-width="3"></path>
                        <rect id="Rectangle-4-Copy-18" x="8.98901835e-15" y="25.1114262" width="25.4144191" height="8.29277211"></rect>
                    </g>
                    <g id="featured-artworks" transform="translate(22.771654, 103.777049)">
                        <path d="M23.9359276,1.89836066 L52.5351985,1.89836066" id="Path-10-Copy-9" stroke-width="2"></path>
                        <path d="M23.9359276,7.59344262 L48.4495881,7.59344262" id="Path-10-Copy-10" stroke-width="2"></path>
                        <rect id="Rectangle-21" stroke-width="0.75" x="0.582137018" y="0.631944013" width="20.6062858" height="20.7319303"></rect>
                        <path d="M95.3710514,1.89836066 L123.970322,1.89836066" id="Path-10-Copy-9" stroke-width="2"></path>
                        <path d="M95.3710514,7.59344262 L119.884712,7.59344262" id="Path-10-Copy-10" stroke-width="2"></path>
                        <rect id="Rectangle-21" stroke-width="0.75" x="72.0172608" y="0.631944013" width="20.6062858" height="20.7319303"></rect>
                        <path d="M165.432423,1.89836066 L194.031694,1.89836066" id="Path-10-Copy-9" stroke-width="2"></path>
                        <path d="M165.432423,7.59344262 L189.946084,7.59344262" id="Path-10-Copy-10" stroke-width="2"></path>
                        <rect id="Rectangle-21" stroke-width="0.75" x="142.078633" y="0.631944013" width="20.6062858" height="20.7319303"></rect>
                        <path d="M23.9359276,31.0065574 L52.5351985,31.0065574" id="Path-10-Copy-16" stroke-width="2"></path>
                        <path d="M23.9359276,36.7016393 L48.4495881,36.7016393" id="Path-10-Copy-11" stroke-width="2"></path>
                        <rect id="Rectangle-21-Copy" stroke-width="0.75" x="0.582137018" y="29.6566464" width="20.6062858" height="20.7319303"></rect>
                        <path d="M95.3710514,31.0065574 L123.970322,31.0065574" id="Path-10-Copy-12" stroke-width="2"></path>
                        <path d="M95.3710514,36.7016393 L119.884712,36.7016393" id="Path-10-Copy-13" stroke-width="2"></path>
                        <rect id="Rectangle-21-Copy-2" stroke-width="0.75" x="72.0172608" y="28.2745177" width="20.6062858" height="20.7319303"></rect>
                        <path d="M165.432423,31.0065574 L194.031694,31.0065574" id="Path-10-Copy-14" stroke-width="2"></path>
                        <path d="M165.432423,36.7016393 L189.946084,36.7016393" id="Path-10-Copy-15" stroke-width="2"></path>
                        <rect id="Rectangle-21-Copy-3" stroke-width="0.75" x="142.078633" y="29.6566464" width="20.6062858" height="20.7319303"></rect>
                    </g>
                    <polyline id="left-arrow" stroke-width="1.5" points="7.54731192 103.760725 4.63314304 100.845446 7.56396433 97.9135086"></polyline>
                    <polyline id="right-arrow" stroke-width="1.5" points="234.233108 97.9135086 237.147277 100.828788 234.216455 103.760725"></polyline>
                    <path d="M222.644944,11.3901639 L236.284199,11.3901639" id="user-settings" stroke-width="2"></path>
                    <g id="title" transform="translate(76.930134, 10.940475)" stroke-width="2">
                        <path d="M75.6513011,0.382151681 L85.2144271,0.382151681" id="Path-10-Copy-29"></path>
                        <path d="M60.5400247,0.382151681 L70.1031509,0.382151681" id="Path-10-Copy-30"></path>
                        <path d="M45.4287484,0.382151681 L54.9918749,0.382151681" id="Path-10-Copy-31"></path>
                        <path d="M30.3174722,0.382151681 L39.8805987,0.382151681" id="Path-10-Copy-32"></path>
                        <path d="M15.2061959,0.382151681 L24.7693224,0.382151681" id="Path-10-Copy-33"></path>
                        <path d="M0.0949196673,0.382151681 L9.65804616,0.382151681" id="Path-10-Copy-34"></path>
                    </g>
                    <rect id="artsy-favicon" stroke-width="0.5" x="2.74750477" y="8.40932703" width="5.49500954" height="5.52851475"></rect>
                </g>
            </g>
            <g id="Arrow-33" transform="translate(239.000000, 238.000000)" fill="#9B9B9B">
                <path d="M17.9731021,23.4462339 C30.1883264,32.6033084 226.854906,29.4570313 171.939453,29.4570313 L207.93621,40.6213087 C207.93621,40.6213087 28.4405516,45.1580129 14.6031406,33.1221305 C0.747269506,21.0958906 7.86202241e-05,-0.000640752663 0,0 C7.86202241e-05,-0.000265677934 5.77946702,14.2767664 17.9731021,23.4462339 Z" id="Arrow-33-shape"></path>
            </g>
            <g id="Arrow-33-Copy-2" transform="translate(239.000000, 240.000000)" fill="#9B9B9B">
                <path d="M17.9731021,23.4462339 C30.1883264,32.6033084 39.1445313,41.578125 50.8515625,49.4179688 L50.8515625,60.6542969 C43.0703125,55.7714844 28.4405516,45.1580129 14.6031406,33.1221305 C0.747269506,21.0958906 7.86202241e-05,-0.000640752663 0,0 C7.86202241e-05,-0.000265677934 5.77946702,14.2767664 17.9731021,23.4462339 Z" id="Arrow-33-shape"></path>
            </g>
            <g id="Arrow-33-Copy-4" transform="translate(295.390625, 301.587891) rotate(-180.000000) translate(-295.390625, -301.587891) translate(264.390625, 270.087891)" fill="#9B9B9B">
                <path d="M28.9731021,25.4462339 C41.1883264,34.6033084 50.1445312,43.578125 61.8515625,51.4179688 L61.8515625,62.6542969 C54.0703125,57.7714844 39.4405516,47.1580129 25.6031406,35.1221305 C21.0769882,31.1936446 14.2784924,27.2448467 7.47159825,18.2782431 C3.93749989,13.6228366 0.390625,8.53739636 0.390625,1.33369346 C0.390625,-1.69417237 11.3906505,1.99979256 11.390625,2 C12.6802198,10.4172754 16.779467,16.2767664 28.9731021,25.4462339 Z" id="Arrow-33-shape"></path>
            </g>
            <g id="Arrow-33" transform="translate(381.000000, 238.000000)" fill="#9B9B9B">
                <path d="M17.9731021,23.4462339 C30.1883264,32.6033084 49.9945376,28.8620004 49.9945376,28.8620004 C49.9945376,28.8620004 72.1106111,32.3948918 71.8811344,32.7612773 C71.8486013,32.8132252 63.3187652,38.250548 63.3187652,38.250548 C63.3180419,38.2508762 28.4405516,45.1580129 14.6031406,33.1221305 C0.747269506,21.0958906 7.86202241e-05,-0.000640752663 0,0 C7.86202241e-05,-0.000265677934 5.77946702,14.2767664 17.9731021,23.4462339 Z" id="Arrow-33-shape"></path>
            </g>
            <g id="Arrow-33" transform="translate(724.000000, 993.000000)" fill="#9B9B9B">
                <g id="Arrow-33-shape">
                    <path d="M17.9731021,23.4462339 C30.1883264,32.6033084 49.9945376,28.8620004 49.9945376,28.8620004 L46.5414116,17.7794799 C46.4129776,17.3672259 46.6450802,16.9295449 47.0598648,16.8018788 C47.2777686,16.7348186 47.5142582,16.7651215 47.7079156,16.8849423 L71.6291723,31.6849535 C71.9977911,31.9130146 72.1106111,32.3948918 71.8811344,32.7612773 C71.8486013,32.8132252 71.8100303,32.8612035 71.7662231,32.9042121 L50.5108838,53.7744796 C50.2020007,54.0777744 49.7042089,54.0747738 49.3990523,53.7677595 C49.2189019,53.5865359 49.1389609,53.3293909 49.1848437,53.0787473 L51.0279376,43.0085065 C51.0272143,43.0088347 28.4405516,45.1580129 14.6031406,33.1221305 C0.747269506,21.0958906 7.86202241e-05,-0.000640752663 0,0 C7.86202241e-05,-0.000265677934 5.77946702,14.2767664 17.9731021,23.4462339 Z"></path>
                </g>
            </g>
            <g id="Arrow-29" transform="translate(645.000000, 249.000000)">
                <g>
                    <path d="M0,8 C0,8 0.455520749,8 0.998245642,8 L29,8" id="Stroke-29" stroke="#9B9B9B" stroke-width="6"></path>
                    <path d="M40.2835353,9.07989948 C41.2159928,8.48358855 41.2191798,7.51881557 40.2835353,6.92046658 L30.3693163,0.580277512 C28.5084943,-0.609726812 27,0.209898327 27,2.41657428 L27,13.5837918 C27,15.7879548 28.5041128,16.6128949 30.3693163,15.4200885 L40.2835353,9.07989948 Z" id="Arrow-head-29" fill="#9B9B9B"></path>
                </g>
            </g>
            <g id="Arrow-29" transform="translate(835.000000, 59.000000)">
                <g>
                    <path d="M0,8 C0,8 0.455520749,8 0.998245642,8 L29,8" id="Stroke-29" stroke="#9B9B9B" stroke-width="6"></path>
                    <path d="M40.2835353,9.07989948 C41.2159928,8.48358855 41.2191798,7.51881557 40.2835353,6.92046658 L30.3693163,0.580277512 C28.5084943,-0.609726812 27,0.209898327 27,2.41657428 L27,13.5837918 C27,15.7879548 28.5041128,16.6128949 30.3693163,15.4200885 L40.2835353,9.07989948 Z" id="Arrow-head-29" fill="#9B9B9B"></path>
                </g>
            </g>
            <g id="Arrow-29" transform="translate(835.000000, 184.000000)">
                <g>
                    <path d="M0,8 C0,8 0.455520749,8 0.998245642,8 L29,8" id="Stroke-29" stroke="#9B9B9B" stroke-width="6"></path>
                    <path d="M40.2835353,9.07989948 C41.2159928,8.48358855 41.2191798,7.51881557 40.2835353,6.92046658 L30.3693163,0.580277512 C28.5084943,-0.609726812 27,0.209898327 27,2.41657428 L27,13.5837918 C27,15.7879548 28.5041128,16.6128949 30.3693163,15.4200885 L40.2835353,9.07989948 Z" id="Arrow-head-29" fill="#9B9B9B"></path>
                </g>
            </g>
            <g id="Arrow-29" transform="translate(665.500000, 292.000000) rotate(-180.000000) translate(-665.500000, -292.000000) translate(645.000000, 284.000000)">
                <g>
                    <path d="M0,8 C0,8 0.455520749,8 0.998245642,8 L29,8" id="Stroke-29" stroke="#9B9B9B" stroke-width="6"></path>
                    <path d="M40.2835353,9.07989948 C41.2159928,8.48358855 41.2191798,7.51881557 40.2835353,6.92046658 L30.3693163,0.580277512 C28.5084943,-0.609726812 27,0.209898327 27,2.41657428 L27,13.5837918 C27,15.7879548 28.5041128,16.6128949 30.3693163,15.4200885 L40.2835353,9.07989948 Z" id="Arrow-head-29" fill="#9B9B9B"></path>
                </g>
            </g>
            <g id="Arrow-29" transform="translate(855.500000, 102.000000) rotate(-180.000000) translate(-855.500000, -102.000000) translate(835.000000, 94.000000)">
                <g>
                    <path d="M0,8 C0,8 0.455520749,8 0.998245642,8 L29,8" id="Stroke-29" stroke="#9B9B9B" stroke-width="6"></path>
                    <path d="M40.2835353,9.07989948 C41.2159928,8.48358855 41.2191798,7.51881557 40.2835353,6.92046658 L30.3693163,0.580277512 C28.5084943,-0.609726812 27,0.209898327 27,2.41657428 L27,13.5837918 C27,15.7879548 28.5041128,16.6128949 30.3693163,15.4200885 L40.2835353,9.07989948 Z" id="Arrow-head-29" fill="#9B9B9B"></path>
                </g>
            </g>
            <g id="Arrow-29" transform="translate(855.500000, 227.000000) rotate(-180.000000) translate(-855.500000, -227.000000) translate(835.000000, 219.000000)">
                <g>
                    <path d="M0,8 C0,8 0.455520749,8 0.998245642,8 L29,8" id="Stroke-29" stroke="#9B9B9B" stroke-width="6"></path>
                    <path d="M40.2835353,9.07989948 C41.2159928,8.48358855 41.2191798,7.51881557 40.2835353,6.92046658 L30.3693163,0.580277512 C28.5084943,-0.609726812 27,0.209898327 27,2.41657428 L27,13.5837918 C27,15.7879548 28.5041128,16.6128949 30.3693163,15.4200885 L40.2835353,9.07989948 Z" id="Arrow-head-29" fill="#9B9B9B"></path>
                </g>
            </g>
            <g id="Arrow-29" transform="translate(665.500000, 656.000000) rotate(-180.000000) translate(-665.500000, -656.000000) translate(645.000000, 648.000000)">
                <g>
                    <path d="M0,8 C0,8 0.455520749,8 0.998245642,8 L29,8" id="Stroke-29" stroke="#9B9B9B" stroke-width="6"></path>
                    <path d="M40.2835353,9.07989948 C41.2159928,8.48358855 41.2191798,7.51881557 40.2835353,6.92046658 L30.3693163,0.580277512 C28.5084943,-0.609726812 27,0.209898327 27,2.41657428 L27,13.5837918 C27,15.7879548 28.5041128,16.6128949 30.3693163,15.4200885 L40.2835353,9.07989948 Z" id="Arrow-head-29" fill="#9B9B9B"></path>
                </g>
            </g>
            <g id="Arrow-33-Copy-5" transform="translate(320.500000, 390.000000) rotate(-270.000000) translate(-320.500000, -390.000000) translate(290.500000, 374.500000)" fill="#9B9B9B">
                <g id="Arrow-33">
                    <path d="M4.61852778e-14,9.86704743 L41.6621147,9.86704743 L38.7845097,0.826043805 C38.6774813,0.489731321 38.8709002,0.132675807 39.216554,0.0285271778 C39.3981405,-0.0261798569 39.5952152,-0.00145905981 39.7565963,0.0962894451 L59.6909769,14.6173513 C59.9981592,14.8034011 60.0921759,15.1965115 59.9009453,15.4954049 C59.8738344,15.5377834 59.8416919,15.5769236 59.8051859,15.6120095 L42.0924032,30.1903857 C41.8350006,30.4378104 41.4201741,30.4353626 41.1658769,30.1849035 C41.0157516,30.0370632 40.9491341,29.827287 40.9873697,29.6228146 L42.5232813,21.4076181 C42.5226786,21.4078859 1.87738713e-13,21.4076181 1.87738713e-13,21.4076181 L4.61852778e-14,9.86704743 Z" id="Arrow-33-shape"></path>
                </g>
            </g>
            <g id="Arrow-33-Copy-5" transform="translate(320.500000, 569.000000) rotate(-270.000000) translate(-320.500000, -569.000000) translate(290.500000, 553.500000)" fill="#9B9B9B">
                <g id="Arrow-33">
                    <path d="M4.61852778e-14,9.86704743 L41.6621147,9.86704743 L38.7845097,0.826043805 C38.6774813,0.489731321 38.8709002,0.132675807 39.216554,0.0285271778 C39.3981405,-0.0261798569 39.5952152,-0.00145905981 39.7565963,0.0962894451 L59.6909769,14.6173513 C59.9981592,14.8034011 60.0921759,15.1965115 59.9009453,15.4954049 C59.8738344,15.5377834 59.8416919,15.5769236 59.8051859,15.6120095 L42.0924032,30.1903857 C41.8350006,30.4378104 41.4201741,30.4353626 41.1658769,30.1849035 C41.0157516,30.0370632 40.9491341,29.827287 40.9873697,29.6228146 L42.5232813,21.4076181 C42.5226786,21.4078859 1.87738713e-13,21.4076181 1.87738713e-13,21.4076181 L4.61852778e-14,9.86704743 Z" id="Arrow-33-shape"></path>
                </g>
            </g>
            <g id="Arrow-33-Copy-5" transform="translate(430.000000, 257.000000)" fill="#9B9B9B">
                <g id="Arrow-33">
                    <path d="M4.61852778e-14,9.86704743 L41.6621147,9.86704743 L38.7845097,0.826043805 C38.6774813,0.489731321 38.8709002,0.132675807 39.216554,0.0285271778 C39.3981405,-0.0261798569 39.5952152,-0.00145905981 39.7565963,0.0962894451 L59.6909769,14.6173513 C59.9981592,14.8034011 60.0921759,15.1965115 59.9009453,15.4954049 C59.8738344,15.5377834 59.8416919,15.5769236 59.8051859,15.6120095 L42.0924032,30.1903857 C41.8350006,30.4378104 41.4201741,30.4353626 41.1658769,30.1849035 C41.0157516,30.0370632 40.9491341,29.827287 40.9873697,29.6228146 L42.5232813,21.4076181 C42.5226786,21.4078859 1.87738713e-13,21.4076181 1.87738713e-13,21.4076181 L4.61852778e-14,9.86704743 Z" id="Arrow-33-shape"></path>
                </g>
            </g>
            <g id="Arrow-33-Copy-6" transform="translate(446.500000, 655.500000) rotate(-180.000000) translate(-446.500000, -655.500000) translate(406.000000, 640.000000)" fill="#9B9B9B">
                <g id="Arrow-33">
                    <path d="M5.68434189e-14,9.86704743 L62.6621147,9.86704743 L59.7845097,0.826043805 C59.6774813,0.489731321 59.8709002,0.132675807 60.216554,0.0285271778 C60.3981405,-0.0261798569 60.5952152,-0.00145905981 60.7565963,0.0962894451 L80.6909769,14.6173513 C80.9981592,14.8034011 81.0921759,15.1965115 80.9009453,15.4954049 C80.8738344,15.5377834 80.8416919,15.5769236 80.8051859,15.6120095 L63.0924032,30.1903857 C62.8350006,30.4378104 62.4201741,30.4353626 62.1658769,30.1849035 C62.0157516,30.0370632 61.9491341,29.827287 61.9873697,29.6228146 L63.5232813,21.4076181 C63.5226786,21.4078859 1.70518114e-13,21.4076181 1.70518114e-13,21.4076181 L5.68434189e-14,9.86704743 Z" id="Arrow-33-shape"></path>
                </g>
            </g>
            <g id="Arrow-33-Copy-5" transform="translate(322.500000, 713.000000) rotate(-270.000000) translate(-322.500000, -713.000000) translate(292.500000, 697.500000)" fill="#9B9B9B">
                <g id="Arrow-33">
                    <path d="M4.61852778e-14,9.86704743 L41.6621147,9.86704743 L38.7845097,0.826043805 C38.6774813,0.489731321 38.8709002,0.132675807 39.216554,0.0285271778 C39.3981405,-0.0261798569 39.5952152,-0.00145905981 39.7565963,0.0962894451 L59.6909769,14.6173513 C59.9981592,14.8034011 60.0921759,15.1965115 59.9009453,15.4954049 C59.8738344,15.5377834 59.8416919,15.5769236 59.8051859,15.6120095 L42.0924032,30.1903857 C41.8350006,30.4378104 41.4201741,30.4353626 41.1658769,30.1849035 C41.0157516,30.0370632 40.9491341,29.827287 40.9873697,29.6228146 L42.5232813,21.4076181 C42.5226786,21.4078859 1.87738713e-13,21.4076181 1.87738713e-13,21.4076181 L4.61852778e-14,9.86704743 Z" id="Arrow-33-shape"></path>
                </g>
            </g>
            <rect id="Rectangle" fill="#9B9B9B" x="315" y="331" width="11" height="36"></rect>
            <rect id="Rectangle-Copy" fill="#9B9B9B" x="315" y="484" width="11" height="60"></rect>
            <g id="Small-Button---thin---1-line-" transform="translate(274.000000, 427.000000)">
                <g id="Small-Button">
                    <rect id="Background" stroke="#FAC955" stroke-width="2" x="1" y="1" width="93" height="41" rx="8"></rect>
                    <text id="Text" font-family="AvantGardeGothicITCW01Dm, Avant Garde Gothic ITCW01Dm" font-size="14" font-weight="normal" fill="#FAC955">
                        <tspan x="14.32" y="28.0727273">SEGMENT</tspan>
                    </text>
                </g>
            </g>
            <g id="Small-Button---thin---1-line-" transform="translate(78.000000, 485.000000)">
                <g id="Small-Button">
                    <rect id="Background" stroke="#FAC955" stroke-width="2" x="1" y="1" width="93" height="41" rx="8"></rect>
                    <text id="Text" font-family="AvantGardeGothicITCW01Dm, Avant Garde Gothic ITCW01Dm" font-size="14" font-weight="normal" fill="#FAC955">
                        <tspan x="11.24" y="28.0727273">MIXPANEL</tspan>
                    </text>
                </g>
            </g>
            <g id="Small-Button---thin---1-line-" transform="translate(78.000000, 537.000000)">
                <g id="Small-Button">
                    <rect id="Background" stroke="#FAC955" stroke-width="2" x="1" y="1" width="93" height="41" rx="8"></rect>
                    <text id="Text" font-family="AvantGardeGothicITCW01Dm, Avant Garde Gothic ITCW01Dm" font-size="14" font-weight="normal" fill="#FAC955">
                        <tspan x="15.44" y="28.0727273">PARSE.LY</tspan>
                    </text>
                </g>
            </g>
            <g id="Small-Button---thin---1-line-" transform="translate(274.000000, 753.000000)">
                <g id="Small-Button">
                    <rect id="Background" stroke="#FAC955" stroke-width="2" x="1" y="1" width="93" height="41" rx="8"></rect>
                    <text id="Text" font-family="AvantGardeGothicITCW01Dm, Avant Garde Gothic ITCW01Dm" font-size="14" font-weight="normal" fill="#FAC955">
                        <tspan x="18.94" y="28.0727273">LOOKER</tspan>
                    </text>
                </g>
            </g>
            <g id="Cloud" transform="translate(475.000000, 911.000000)">
                <path d="M81.25,72 C93.8144787,72 104,61.7432513 104,49.0909091 C104,37.525726 95.4896694,27.9621382 84.4311826,26.4040137 C84.4767837,25.7905044 84.5,25.1707096 84.5,24.5454545 C84.5,10.9893737 73.5869414,0 60.125,0 C48.0607277,0 38.0435445,8.8259164 36.0935469,20.4155542 C34.4426735,19.9088979 32.6904426,19.6363636 30.875,19.6363636 C21.3247269,19.6363636 13.5237551,27.1783841 13.025301,36.6703751 C5.50972148,38.7988085 0,45.7514722 0,54 C0,63.941126 8.00290961,72 17.875,72 C18.4227708,72 18.9647867,71.9751885 19.5,71.9266205 L19.5,72 L81.25,72 Z" stroke="#5FDDF7" stroke-width="3"></path>
                <text id="Text" font-family="AvantGardeGothicITCW01Dm, Avant Garde Gothic ITCW01Dm" font-size="16" font-weight="normal" fill="#5FDDF7">
                    <tspan x="43.72" y="52">S3</tspan>
                </text>
            </g>
            <g id="Small-Button---thin---2-line-" transform="translate(78.000000, 421.000000)">
                <g id="Small-Button">
                    <rect id="Background" stroke="#FAC955" stroke-width="2" x="1" y="1" width="93" height="53" rx="8"></rect>
                    <text id="Text" font-family="AvantGardeGothicITCW01Dm, Avant Garde Gothic ITCW01Dm" font-size="14" font-weight="normal" fill="#FAC955">
                        <tspan x="15.58" y="24">GOOGLE</tspan>
                        <tspan x="8.02" y="42">ANALYTICS</tspan>
                    </text>
                </g>
            </g>
            <g id="Arrow-29" transform="translate(211.500000, 450.000000) rotate(-180.000000) translate(-211.500000, -450.000000) translate(191.000000, 442.000000)">
                <g>
                    <path d="M0,8 C0,8 0.455520749,8 0.998245642,8 L29,8" id="Stroke-29" stroke="#9B9B9B" stroke-width="6"></path>
                    <path d="M40.2835353,9.07989948 C41.2159928,8.48358855 41.2191798,7.51881557 40.2835353,6.92046658 L30.3693163,0.580277512 C28.5084943,-0.609726812 27,0.209898327 27,2.41657428 L27,13.5837918 C27,15.7879548 28.5041128,16.6128949 30.3693163,15.4200885 L40.2835353,9.07989948 Z" id="Arrow-head-29" fill="#9B9B9B"></path>
                </g>
            </g>
            <g id="Arrow-29" transform="translate(211.500000, 505.000000) rotate(-180.000000) translate(-211.500000, -505.000000) translate(191.000000, 497.000000)">
                <g>
                    <path d="M0,8 C0,8 0.455520749,8 0.998245642,8 L29,8" id="Stroke-29" stroke="#9B9B9B" stroke-width="6"></path>
                    <path d="M40.2835353,9.07989948 C41.2159928,8.48358855 41.2191798,7.51881557 40.2835353,6.92046658 L30.3693163,0.580277512 C28.5084943,-0.609726812 27,0.209898327 27,2.41657428 L27,13.5837918 C27,15.7879548 28.5041128,16.6128949 30.3693163,15.4200885 L40.2835353,9.07989948 Z" id="Arrow-head-29" fill="#9B9B9B"></path>
                </g>
            </g>
            <g id="Arrow-29" transform="translate(211.500000, 560.000000) rotate(-180.000000) translate(-211.500000, -560.000000) translate(191.000000, 552.000000)">
                <g>
                    <path d="M0,8 C0,8 0.455520749,8 0.998245642,8 L29,8" id="Stroke-29" stroke="#9B9B9B" stroke-width="6"></path>
                    <path d="M40.2835353,9.07989948 C41.2159928,8.48358855 41.2191798,7.51881557 40.2835353,6.92046658 L30.3693163,0.580277512 C28.5084943,-0.609726812 27,0.209898327 27,2.41657428 L27,13.5837918 C27,15.7879548 28.5041128,16.6128949 30.3693163,15.4200885 L40.2835353,9.07989948 Z" id="Arrow-head-29" fill="#9B9B9B"></path>
                </g>
            </g>
            <g id="Small-Button---2-lines" transform="translate(507.000000, 628.000000)">
                <g id="Small-Button">
                    <rect id="Background" stroke="#FAC955" stroke-width="3" x="1.5" y="1.5" width="123" height="52" rx="8"></rect>
                    <text id="Text" font-family="AvantGardeGothicITCW01Dm, Avant Garde Gothic ITCW01Dm" font-size="16" font-weight="normal" fill="#FAC955">
                        <tspan x="39.16" y="24">DAILY</tspan>
                        <tspan x="38.84" y="44">TASKS</tspan>
                    </text>
                </g>
            </g>
        </g>
    </g>
</svg>