<?xml version="1.0" encoding="UTF-8"?>
<svg width="530px" height="460px" viewBox="0 0 530 460" version="1.1" xmlns="http://www.w3.org/2000/svg" xmlns:xlink="http://www.w3.org/1999/xlink">
    <!-- Generator: Sketch 47.1 (45422) - http://www.bohemiancoding.com/sketch -->
    <title>v1</title>
    <desc>Created with Sketch.</desc>
    <defs>
        <path d="M15.5931447,21.0693125 L20.3703944,19.313587 L20.3703944,19.313587 C24.2314454,17.8945812 28.5117771,19.8742499 29.9307829,23.7353008 C30.2332008,24.5581662 30.3879726,25.4279603 30.3879726,26.3046382 L30.3879726,56.9969569 L30.3879726,56.9969569 C30.3879726,60.3419246 28.3068886,63.3337733 25.1708211,64.4973405 L20.3703944,66.2784308 L20.3703944,66.2784308 C16.5220338,67.7062784 12.244822,65.7440649 10.8169744,61.8957043 C10.5099898,61.0683138 10.3528163,60.1928622 10.3528163,59.3103575 C10.3528163,50.8653937 10.3528163,42.42043 10.3528163,33.9754662 C10.3528163,32.1763957 10.3528163,30.3773252 10.3528163,28.5782547 L10.3528163,28.5782547 C10.3528163,25.2242394 12.4450064,22.2263101 15.5931447,21.0693125 Z" id="path-1"></path>
    </defs>
    <g id="Page-1" stroke="none" stroke-width="1" fill="none" fill-rule="evenodd">
        <g id="v1">
            <g id="0-4_room" transform="translate(18.000000, 14.000000)">
                <polyline id="Path-2" stroke="#BCEBED" stroke-width="2" transform="translate(250.949219, 301.207031) scale(1, -1) translate(-250.949219, -301.207031) " points="0 290.9375 198.996094 360.277344 501.898438 242.136719"></polyline>
                <path d="M200,0.5 L200,242.5" id="Path-3" stroke="#BCEBED" stroke-width="2"></path>
                <polygon id="Path" stroke="#80D7DA" stroke-width="4" points="1 64.6445313 200.320312 1 502.441406 112.097656 502.441406 360.867188 312.496094 433.988281 1 313.414062"></polygon>
            </g>
            <g id="2-4_camera" transform="translate(60.000000, 235.000000)">
                <polygon id="Path-5" fill-opacity="0.179630888" fill="#F5A623" points="228.488281 36.859375 158.785156 0.5 0.89453125 49.28125 0.89453125 76.3164063 29.2070312 95.1445313 131.007812 108.998047 220.933594 92.2890625"></polygon>
                <polygon id="Path-2" stroke="#E2D52A" stroke-width="2" fill-opacity="0.27100317" fill="#E2D52A" transform="translate(132.255859, 63.898437) scale(1, -1) translate(-132.255859, -63.898437) " points="38.3632813 58.0195312 158.996094 100.660156 226.148438 74.03125 98.1503906 27.1367187"></polygon>
            </g>
            <g id="2-4_features" transform="translate(89.000000, 260.000000)" fill="#E2D52A">
                <circle id="Oval-2" cx="66" cy="66" r="4"></circle>
                <circle id="Oval-2" cx="86" cy="28" r="4"></circle>
                <circle id="Oval-2" cx="104" cy="36" r="4"></circle>
                <circle id="Oval-2" cx="35" cy="52" r="4"></circle>
                <circle id="Oval-2" cx="46" cy="48" r="4"></circle>
                <circle id="Oval-2" cx="152.5" cy="61.5" r="3.5"></circle>
                <ellipse id="Path" cx="156.5" cy="46" rx="3.5" ry="4"></ellipse>
                <circle id="Oval-2" cx="50" cy="64" r="4"></circle>
                <circle id="Oval-2" cx="118" cy="27" r="3"></circle>
                <circle id="Oval-2" cx="126.5" cy="45.5" r="3.5"></circle>
                <circle id="Oval-2" cx="107" cy="69" r="4"></circle>
                <circle id="Oval-2" cx="83" cy="49" r="3"></circle>
                <circle id="Oval-2-Copy-2" cx="97" cy="15" r="3"></circle>
                <circle id="Oval-2-Copy-3" cx="71" cy="24" r="3"></circle>
                <circle id="Oval-2-Copy-4" cx="65" cy="32" r="3"></circle>
                <circle id="Oval-2-Copy-6" cx="130" cy="3" r="3"></circle>
                <circle id="Oval-2-Copy-7" cx="46" cy="27" r="3"></circle>
                <circle id="Oval-2-Copy-8" cx="16" cy="43" r="3"></circle>
                <circle id="Oval-2" cx="142" cy="6" r="3"></circle>
                <circle id="Oval-2" cx="118" cy="9" r="3"></circle>
                <circle id="Oval-2" cx="4" cy="53" r="4"></circle>
            </g>
            <g id="1-4_phone" transform="translate(257.431048, 288.284945) rotate(-37.000000) translate(-257.431048, -288.284945) translate(246.931048, 264.284945)"></g>
            <g id="0-4_person" transform="translate(238.000000, 241.000000)">
                <g id="Rectangle" transform="translate(20.370394, 42.799490) rotate(-29.000000) translate(-20.370394, -42.799490) ">
                    <use fill="#353535" fill-rule="evenodd" xlink:href="#path-1"></use>
                    <path stroke="#979797" stroke-width="1" d="M15.7656241,21.5386214 C12.8142445,22.6233066 10.8528163,25.4338654 10.8528163,28.5782547 L10.8528163,59.3103575 C10.8528163,60.1334921 10.999416,60.950048 11.2857484,61.7217762 C12.6175382,65.3112401 16.6070025,67.1414466 20.1964664,65.8096568 L24.996893,64.0285666 C27.9369564,62.9377223 29.8879726,60.1328641 29.8879726,56.9969569 L29.8879726,26.3046382 C29.8879726,25.4868116 29.7435906,24.6754068 29.4614741,23.9077803 C28.137726,20.3059215 24.1447327,18.4591479 20.5428739,19.7828959 L15.7656241,21.5386214 Z"></path>
                </g>
                <path d="M57.8662109,54.2951339 C57.2197037,47.2391468 56.4052506,43.8266412 55.4228516,44.0576172 C49.9941406,45.3339844 42.5444721,9.38688117 44.8359375,6.22265625 C48.6060532,1.01660156 83.0625,-7.31651228 81.84375,16.3310547 C81.03125,32.0960993 77.9322917,44.7507924 72.546875,54.2951339 C80.7701069,49.2018936 86.1395731,46.6552734 88.6552734,46.6552734 C92.428824,46.6552734 95.2041008,52.8013269 94.8476562,55.4792972 C94.6100265,57.2646107 93.5517583,70.7331002 91.6728516,95.8847656 C83.9235026,105.734375 75.6959635,110.609701 66.9902344,110.510742 C53.9316406,110.362305 41.5716684,104.533615 39.8232422,101.063477 C38.6576247,98.7500512 36.6400466,83.5553248 33.7705078,55.4792972 L36.8642578,46.6552734 L57.8662109,54.2951339 Z" id="Path-7" fill="#80D7DA"></path>
            </g>
            <g id="4-4_anchors" transform="translate(151.000000, 124.000000)">
                <path d="M26.1171875,153.894531 L26.1171875,75" id="Path-4" stroke="#000000" stroke-width="2" stroke-dasharray="2,2"></path>
                <path d="M26.1171875,153.894531 L89,153.894531" id="Path-4" stroke="#000000" stroke-width="2" stroke-dasharray="2,2"></path>
                <polygon id="Path-6" stroke="#000000" points="0.359375 15.109375 44.578125 0.50390625 44.578125 67.8945313 0.359375 84.4160156"></polygon>
                <circle id="Oval-2-Copy-3" fill="#000000" cx="26" cy="153" r="3"></circle>
            </g>
            <g id="3-4_line" transform="translate(98.000000, 263.000000)" stroke="#000000" stroke-width="2" stroke-dasharray="2,2">
                <path d="M0,39.7773437 L123,0" id="Path-4"></path>
            </g>
        </g>
    </g>
</svg>