<?xml version="1.0" encoding="UTF-8"?>
<svg width="530px" height="460px" viewBox="0 0 530 460" version="1.1" xmlns="http://www.w3.org/2000/svg" xmlns:xlink="http://www.w3.org/1999/xlink">
    <!-- Generator: Sketch 47.1 (45422) - http://www.bohemiancoding.com/sketch -->
    <title>v2</title>
    <desc>Created with Sketch.</desc>
    <defs>
        <path d="M9.24616479,13.5906941 L14.0234146,11.8349687 L14.0234146,11.8349687 C17.8844655,10.4159628 22.1647972,12.3956315 23.5838031,16.2566824 C23.886221,17.0795478 24.0409927,17.9493419 24.0409927,18.8260198 L24.0409927,49.5183386 L24.0409927,49.5183386 C24.0409927,52.8633062 21.9599088,55.8551549 18.8238412,57.0187222 L14.0234146,58.7998124 L14.0234146,58.7998124 C10.175054,60.22766 5.89784212,58.2654465 4.46999453,54.4170859 C4.16300992,53.5896954 4.00583645,52.7142438 4.00583645,51.8317391 C4.00583645,43.3867753 4.00583645,34.9418116 4.00583645,26.4968478 C4.00583645,24.6977773 4.00583645,22.8987068 4.00583645,21.0996363 L4.00583645,21.0996363 C4.00583645,17.745621 6.0980265,14.7476917 9.24616479,13.5906941 Z" id="path-1"></path>
        <path d="M9.24616479,13.5906941 L14.0234146,11.8349687 L14.0234146,11.8349687 C17.8844655,10.4159628 22.1647972,12.3956315 23.5838031,16.2566824 C23.886221,17.0795478 24.0409927,17.9493419 24.0409927,18.8260198 L24.0409927,49.5183386 L24.0409927,49.5183386 C24.0409927,52.8633062 21.9599088,55.8551549 18.8238412,57.0187222 L14.0234146,58.7998124 L14.0234146,58.7998124 C10.175054,60.22766 5.89784212,58.2654465 4.46999453,54.4170859 C4.16300992,53.5896954 4.00583645,52.7142438 4.00583645,51.8317391 C4.00583645,43.3867753 4.00583645,34.9418116 4.00583645,26.4968478 C4.00583645,24.6977773 4.00583645,22.8987068 4.00583645,21.0996363 L4.00583645,21.0996363 C4.00583645,17.745621 6.0980265,14.7476917 9.24616479,13.5906941 Z" id="path-2"></path>
        <path d="M5.24032834,2.21494006 L10.0175781,0.45921461 L10.0175781,0.45921461 C13.878629,-0.959791237 18.1589608,1.01987744 19.5779666,4.88092836 C19.8803845,5.7037938 20.0351562,6.57358786 20.0351562,7.45026573 L20.0351562,38.1425845 L20.0351562,38.1425845 C20.0351562,41.4875521 17.9540723,44.4794008 14.8180048,45.6429681 L10.0175781,47.4240584 L10.0175781,47.4240584 C6.16921751,48.8519059 1.89200567,46.8896924 0.464158083,43.0413318 C0.157173464,42.2139413 8.98985986e-15,41.3384898 8.8817842e-15,40.4559851 C5.28025569e-15,32.0110213 2.64012785e-15,23.5660575 0,15.1210938 C1.84503416e-15,13.3220232 3.69006831e-15,11.5229527 5.53510247e-15,9.72388222 L7.10542736e-15,9.72388222 C9.6736429e-15,6.36986699 2.09219005,3.37193766 5.24032834,2.21494006 Z" id="path-3"></path>
        <path d="M5.24032834,2.21494006 L10.0175781,0.45921461 L10.0175781,0.45921461 C13.878629,-0.959791237 18.1589608,1.01987744 19.5779666,4.88092836 C19.8803845,5.7037938 20.0351562,6.57358786 20.0351562,7.45026573 L20.0351562,38.1425845 L20.0351562,38.1425845 C20.0351562,41.4875521 17.9540723,44.4794008 14.8180048,45.6429681 L10.0175781,47.4240584 L10.0175781,47.4240584 C6.16921751,48.8519059 1.89200567,46.8896924 0.464158083,43.0413318 C0.157173464,42.2139413 8.98985986e-15,41.3384898 8.8817842e-15,40.4559851 C5.28025569e-15,32.0110213 2.64012785e-15,23.5660575 0,15.1210938 C1.84503416e-15,13.3220232 3.69006831e-15,11.5229527 5.53510247e-15,9.72388222 L7.10542736e-15,9.72388222 C9.6736429e-15,6.36986699 2.09219005,3.37193766 5.24032834,2.21494006 Z" id="path-4"></path>
        <mask id="mask-5" maskContentUnits="userSpaceOnUse" maskUnits="objectBoundingBox" x="0" y="0" width="20.0351562" height="47.8902345" fill="white">
            <use xlink:href="#path-4"></use>
        </mask>
        <path d="M5.24032834,2.21494006 L10.0175781,0.45921461 L10.0175781,0.45921461 C13.878629,-0.959791237 18.1589608,1.01987744 19.5779666,4.88092836 C19.8803845,5.7037938 20.0351562,6.57358786 20.0351562,7.45026573 L20.0351562,38.1425845 L20.0351562,38.1425845 C20.0351562,41.4875521 17.9540723,44.4794008 14.8180048,45.6429681 L10.0175781,47.4240584 L10.0175781,47.4240584 C6.16921751,48.8519059 1.89200567,46.8896924 0.464158083,43.0413318 C0.157173464,42.2139413 8.98985986e-15,41.3384898 8.8817842e-15,40.4559851 C5.28025569e-15,32.0110213 2.64012785e-15,23.5660575 0,15.1210938 C1.84503416e-15,13.3220232 3.69006831e-15,11.5229527 5.53510247e-15,9.72388222 L7.10542736e-15,9.72388222 C9.6736429e-15,6.36986699 2.09219005,3.37193766 5.24032834,2.21494006 Z" id="path-6"></path>
    </defs>
    <g id="Page-1" stroke="none" stroke-width="1" fill="none" fill-rule="evenodd">
        <g id="v2">
            <g id="0-4_room" transform="translate(18.000000, 14.000000)">
                <polyline id="Path-2" stroke="#BCEBED" stroke-width="2" transform="translate(250.949219, 301.207031) scale(1, -1) translate(-250.949219, -301.207031) " points="0 290.9375 198.996094 360.277344 501.898438 242.136719"></polyline>
                <path d="M200,0.5 L200,242.5" id="Path-3" stroke="#BCEBED" stroke-width="2"></path>
                <polygon id="Path" stroke="#80D7DA" stroke-width="4" points="1 64.6445313 200.320312 1 502.441406 112.097656 502.441406 360.867188 312.496094 433.988281 1 313.414062"></polygon>
            </g>
            <g id="1-1_camera" transform="translate(47.000000, 93.000000)" fill-opacity="0.179630888" fill="#F5A623">
                <path d="M202.794922,125.993164 L193.664063,0.98828125 L0.509765625,63.03125 L13.8945312,218.316406 L42.2070312,237.144531 L144.007812,250.998047 L233.933594,234.289063 C246.292625,217.862243 249.991193,201.020446 245.029297,183.763672 C240.067401,166.506898 225.989276,147.250062 202.794922,125.993164 Z" id="Path-5"></path>
            </g>
            <g id="2-2_camera" transform="translate(100.000000, 157.000000)" fill-opacity="0.179630888" fill="#F5A623">
                <polygon id="Path-5" points="98.3828125 35.6894531 85.1152344 0.529296875 13.2519531 20.7773438 0.330078125 86.7519531 59.4433594 106.298828 79.1210937 101.582031 107.460937 104.070313"></polygon>
            </g>
            <g id="1-4_features" transform="translate(75.000000, 148.000000)" fill="#E2D52A">
                <circle id="Oval-2" cx="80" cy="178" r="4"></circle>
                <circle id="Oval-2" cx="100" cy="140" r="4"></circle>
                <circle id="Oval-2" cx="118" cy="148" r="4"></circle>
                <circle id="Oval-2" cx="49" cy="164" r="4"></circle>
                <circle id="Oval-2-Copy-10" cx="4" cy="64" r="4"></circle>
                <circle id="Oval-2" cx="60" cy="160" r="4"></circle>
                <circle id="Oval-2-Copy" cx="33" cy="72" r="4"></circle>
                <circle id="Oval-2-Copy-5" cx="67" cy="97" r="4"></circle>
                <circle id="Oval-2-Copy-9" cx="80" cy="80" r="4"></circle>
                <circle id="Oval-2" cx="166.5" cy="173.5" r="3.5"></circle>
                <circle id="Oval-2-Copy-13" cx="66.5" cy="60.5" r="3.5"></circle>
                <circle id="Oval-2-Copy-14" cx="22.5" cy="118.5" r="3.5"></circle>
                <ellipse id="Path" cx="170.5" cy="158" rx="3.5" ry="4"></ellipse>
                <circle id="Oval-2" cx="64" cy="176" r="4"></circle>
                <circle id="Oval-2" cx="132" cy="139" r="3"></circle>
                <circle id="Oval-2" cx="140.5" cy="157.5" r="3.5"></circle>
                <circle id="Oval-2" cx="121" cy="181" r="4"></circle>
                <circle id="Oval-2-Copy-12" cx="133" cy="4" r="4"></circle>
                <circle id="Oval-2" cx="97" cy="161" r="3"></circle>
                <circle id="Oval-2-Copy-2" cx="111" cy="127" r="3"></circle>
                <circle id="Oval-2-Copy-3" cx="85" cy="136" r="3"></circle>
                <circle id="Oval-2-Copy-4" cx="79" cy="144" r="3"></circle>
                <circle id="Oval-2-Copy-6" cx="144" cy="115" r="3"></circle>
                <circle id="Oval-2-Copy-7" cx="60" cy="139" r="3"></circle>
                <circle id="Oval-2-Copy-8" cx="30" cy="155" r="3"></circle>
                <circle id="Oval-2" cx="156" cy="118" r="3"></circle>
                <circle id="Oval-2" cx="132" cy="121" r="3"></circle>
                <circle id="Oval-2" cx="18" cy="165" r="4"></circle>
                <circle id="Oval-2-Copy-11" cx="64" cy="34" r="4"></circle>
            </g>
            <g id="1-2_phone" transform="translate(257.431048, 288.284945) rotate(-37.000000) translate(-257.431048, -288.284945) translate(246.931048, 264.284945)"></g>
            <g id="4-4_anchors" transform="translate(140.000000, 173.000000)" stroke="#000000">
                <path d="M26.1171875,45 L26.1171875,75" id="Path-4" stroke-width="2" stroke-dasharray="2,2"></path>
                <polygon id="Path-6" points="0.359375 15.109375 44.578125 0.50390625 44.578125 67.8945313 0.359375 84.4160156"></polygon>
            </g>
            <g id="4-5_person" transform="translate(252.000000, 241.000000)">
                <g id="Rectangle">
                    <use fill="#353535" fill-rule="evenodd" xlink:href="#path-1"></use>
                    <path stroke="#979797" stroke-width="1" d="M9.41864427,14.060003 C6.46726462,15.1446882 4.50583645,17.955247 4.50583645,21.0996363 L4.50583645,51.8317391 C4.50583645,52.6548737 4.65243614,53.4714297 4.93876851,54.2431578 C6.27055829,57.8326217 10.2600226,59.6628282 13.8494865,58.3310384 L18.6499132,56.5499482 C21.5899765,55.4591039 23.5409927,52.6542457 23.5409927,49.5183386 L23.5409927,18.8260198 C23.5409927,18.0081932 23.3966108,17.1967884 23.1144942,16.4291619 C21.7907461,12.8273031 17.7977528,10.9805295 14.1958941,12.3042775 L9.41864427,14.060003 Z"></path>
                </g>
                <path d="M43.8662109,54.2951339 C43.2197037,47.2391468 42.4052506,43.8266412 41.4228516,44.0576172 C35.9941406,45.3339844 28.5444721,9.38688117 30.8359375,6.22265625 C34.6060532,1.01660156 69.0625,-7.31651228 67.84375,16.3310547 C67.03125,32.0960993 63.9322917,44.7507924 58.546875,54.2951339 C66.7701069,49.2018936 72.1395731,46.6552734 74.6552734,46.6552734 C78.428824,46.6552734 81.2041008,52.8013269 80.8476562,55.4792972 C80.6100265,57.2646107 79.5517583,70.7331002 77.6728516,95.8847656 C69.9235026,105.734375 61.6959635,110.609701 52.9902344,110.510742 C39.9316406,110.362305 27.5716684,104.533615 25.8232422,101.063477 C24.6576247,98.7500512 22.6400466,83.5553248 19.7705078,55.4792972 L22.8642578,46.6552734 L43.8662109,54.2951339 Z" id="Path-7" fill="#80D7DA"></path>
            </g>
            <g id="0-1_person" transform="translate(252.000000, 241.000000)">
                <g id="Rectangle">
                    <use fill="#353535" fill-rule="evenodd" xlink:href="#path-2"></use>
                    <path stroke="#979797" stroke-width="1" d="M9.41864427,14.060003 C6.46726462,15.1446882 4.50583645,17.955247 4.50583645,21.0996363 L4.50583645,51.8317391 C4.50583645,52.6548737 4.65243614,53.4714297 4.93876851,54.2431578 C6.27055829,57.8326217 10.2600226,59.6628282 13.8494865,58.3310384 L18.6499132,56.5499482 C21.5899765,55.4591039 23.5409927,52.6542457 23.5409927,49.5183386 L23.5409927,18.8260198 C23.5409927,18.0081932 23.3966108,17.1967884 23.1144942,16.4291619 C21.7907461,12.8273031 17.7977528,10.9805295 14.1958941,12.3042775 L9.41864427,14.060003 Z"></path>
                </g>
                <path d="M43.8662109,54.2951339 C43.2197037,47.2391468 42.4052506,43.8266412 41.4228516,44.0576172 C35.9941406,45.3339844 28.5444721,9.38688117 30.8359375,6.22265625 C34.6060532,1.01660156 69.0625,-7.31651228 67.84375,16.3310547 C67.03125,32.0960993 63.9322917,44.7507924 58.546875,54.2951339 C66.7701069,49.2018936 72.1395731,46.6552734 74.6552734,46.6552734 C78.428824,46.6552734 81.2041008,52.8013269 80.8476562,55.4792972 C80.6100265,57.2646107 79.5517583,70.7331002 77.6728516,95.8847656 C69.9235026,105.734375 61.6959635,110.609701 52.9902344,110.510742 C39.9316406,110.362305 27.5716684,104.533615 25.8232422,101.063477 C24.6576247,98.7500512 22.6400466,83.5553248 19.7705078,55.4792972 L22.8642578,46.6552734 L43.8662109,54.2951339 Z" id="Path-7" fill="#80D7DA"></path>
            </g>
            <g id="2-3_person" transform="translate(183.000000, 203.000000)" fill="#80D7DA">
                <path d="M24.0957031,53.8487582 C23.4491959,46.7927711 22.6347428,43.3802655 21.6523438,43.6112415 C16.2236328,44.8876087 8.77396432,8.94050549 11.0654297,5.77628056 C14.8355454,0.570225875 49.2919922,-7.76288797 48.0732422,15.884679 C47.2607422,31.6497236 44.1617839,44.3044167 38.7763672,53.8487582 C46.9995991,48.7555179 52.3690653,46.2088977 54.8847656,46.2088977 C58.6583162,46.2088977 61.433593,52.3549512 61.0771484,55.0329215 C60.8395187,56.818235 59.7812505,70.2867245 57.9023438,95.4383899 C50.1529948,105.287999 41.9254557,110.163325 33.2197266,110.064366 C20.1611328,109.915929 7.80116056,104.087239 6.05273438,100.617101 C4.88711692,98.3036755 2.86953879,83.1089491 0,55.0329215 L3.09375,46.2088977 L24.0957031,53.8487582 Z" id="Path-7"></path>
            </g>
            <g id="3-3_temp-phone" transform="translate(155.000000, 195.000000)">
                <g id="Rectangle">
                    <use fill="#353535" fill-rule="evenodd" xlink:href="#path-3"></use>
                    <path stroke="#979797" stroke-width="1" d="M5.41280781,2.68424895 C2.46142817,3.7689342 0.5,6.57949295 0.5,9.72388222 L0.5,40.4559851 C0.5,41.2791197 0.646599691,42.0956756 0.932932058,42.8674038 C2.26472184,46.4568677 6.2541862,48.2870742 9.84365009,46.9552844 L14.6440767,45.1741941 C17.58414,44.0833498 19.5351562,41.2784917 19.5351562,38.1425845 L19.5351562,7.45026573 C19.5351562,6.6324392 19.3907743,5.82103436 19.1086577,5.05340784 C17.7849097,1.45154906 13.7919164,-0.395224566 10.1900576,0.928523495 L5.41280781,2.68424895 Z"></path>
                </g>
            </g>
            <g id="4-4_wall" transform="translate(155.000000, 195.000000)" stroke="#000000" stroke-width="2" stroke-dasharray="2">
                <use id="Rectangle" mask="url(#mask-5)" xlink:href="#path-4"></use>
            </g>
            <g id="2-2_phone" transform="translate(163.000000, 203.000000)">
                <g id="Rectangle">
                    <use fill="#353535" fill-rule="evenodd" xlink:href="#path-6"></use>
                    <path stroke="#979797" stroke-width="1" d="M5.41280781,2.68424895 C2.46142817,3.7689342 0.5,6.57949295 0.5,9.72388222 L0.5,40.4559851 C0.5,41.2791197 0.646599691,42.0956756 0.932932058,42.8674038 C2.26472184,46.4568677 6.2541862,48.2870742 9.84365009,46.9552844 L14.6440767,45.1741941 C17.58414,44.0833498 19.5351562,41.2784917 19.5351562,38.1425845 L19.5351562,7.45026573 C19.5351562,6.6324392 19.3907743,5.82103436 19.1086577,5.05340784 C17.7849097,1.45154906 13.7919164,-0.395224566 10.1900576,0.928523495 L5.41280781,2.68424895 Z"></path>
                </g>
            </g>
        </g>
    </g>
</svg>