<?xml version="1.0" encoding="UTF-8"?>
<svg width="530px" height="460px" viewBox="0 0 530 460" version="1.1" xmlns="http://www.w3.org/2000/svg" xmlns:xlink="http://www.w3.org/1999/xlink">
    <!-- Generator: Sketch 47.1 (45422) - http://www.bohemiancoding.com/sketch -->
    <title>What is AR</title>
    <desc>Created with Sketch.</desc>
    <defs>
        <radialGradient cx="73.2212612%" cy="27.1693638%" fx="73.2212612%" fy="27.1693638%" r="207.875515%" id="radialGradient-1">
            <stop stop-color="#FFFFFF" offset="0%"></stop>
            <stop stop-color="#000000" offset="100%"></stop>
        </radialGradient>
        <path d="M5.24032834,2.21494006 L10.0175781,0.45921461 L10.0175781,0.45921461 C13.878629,-0.959791237 18.1589608,1.01987744 19.5779666,4.88092836 C19.8803845,5.7037938 20.0351562,6.57358786 20.0351562,7.45026573 L20.0351562,38.1425845 L20.0351562,38.1425845 C20.0351562,41.4875521 17.9540723,44.4794008 14.8180048,45.6429681 L10.0175781,47.4240584 L10.0175781,47.4240584 C6.16921751,48.8519059 1.89200567,46.8896924 0.464158083,43.0413318 C0.157173464,42.2139413 8.98985986e-15,41.3384898 8.8817842e-15,40.4559851 C5.28025569e-15,32.0110213 2.64012785e-15,23.5660575 0,15.1210938 C1.84503416e-15,13.3220232 3.69006831e-15,11.5229527 5.53510247e-15,9.72388222 L7.10542736e-15,9.72388222 C9.6736429e-15,6.36986699 2.09219005,3.37193766 5.24032834,2.21494006 Z" id="path-2"></path>
        <path d="M5.24032834,3.21494006 L10.0175781,1.45921461 L10.0175781,1.45921461 C13.878629,0.0402087634 18.1589608,2.01987744 19.5779666,5.88092836 C19.8803845,6.7037938 20.0351562,7.57358786 20.0351562,8.45026573 L20.0351562,39.1425845 L20.0351562,39.1425845 C20.0351562,42.4875521 17.9540723,45.4794008 14.8180048,46.6429681 L10.0175781,48.4240584 L10.0175781,48.4240584 C6.16921751,49.8519059 1.89200567,47.8896924 0.464158083,44.0413318 C0.157173464,43.2139413 8.98985986e-15,42.3384898 8.8817842e-15,41.4559851 C5.28025569e-15,33.0110213 2.64012785e-15,24.5660575 0,16.1210938 C1.84503416e-15,14.3220232 3.69006831e-15,12.5229527 5.53510247e-15,10.7238822 L7.10542736e-15,10.7238822 C9.6736429e-15,7.36986699 2.09219005,4.37193766 5.24032834,3.21494006 Z" id="path-3"></path>
    </defs>
    <g id="Page-1" stroke="none" stroke-width="1" fill="none" fill-rule="evenodd">
        <g id="What-is-AR">
            <g id="0-4_room" transform="translate(18.000000, 14.000000)">
                <polyline id="Path-2" stroke="#BCEBED" stroke-width="2" transform="translate(250.949219, 301.207031) scale(1, -1) translate(-250.949219, -301.207031) " points="0 290.9375 198.996094 360.277344 501.898438 242.136719"></polyline>
                <path d="M200,0.5 L200,242.5" id="Path-3" stroke="#BCEBED" stroke-width="2"></path>
                <polygon id="Path" stroke="#80D7DA" stroke-width="4" points="1 64.6445313 200.320312 1 502.441406 112.097656 502.441406 360.867188 312.496094 433.988281 1 313.414062"></polygon>
            </g>
            <g id="0-4_balls" transform="translate(101.000000, 253.000000)" fill="url(#radialGradient-1)">
                <circle id="Oval" cx="28" cy="61" r="28"></circle>
                <circle id="Oval-Copy" cx="75.5" cy="18.5" r="18.5"></circle>
            </g>
            <g id="2-4_camera" transform="translate(60.000000, 41.000000)" fill-opacity="0.179630888" fill="#F5A623">
                <path d="M280.613281,208.308594 L228.488281,36.859375 L158.785156,0.5 L0.89453125,49.28125 L0.89453125,266.316406 L39.9960938,282.289063 C51.9153646,268.739583 60.2330729,263.415365 64.9492188,266.316406 C72.0234375,270.667969 79.0976562,285.667969 72.0234375,292.890625 C67.3072917,297.705729 75.7643229,303.733073 97.3945312,310.972656 L273.246094,253.71875 L280.613281,208.308594 Z" id="Path-5"></path>
            </g>
            <g id="3-4_features" transform="translate(108.000000, 211.000000)" fill="#E2D52A">
                <circle id="Oval-2" cx="45" cy="99" r="4"></circle>
                <circle id="Oval-2" cx="65" cy="61" r="4"></circle>
                <circle id="Oval-2" cx="83" cy="69" r="4"></circle>
                <circle id="Oval-2" cx="14" cy="85" r="4"></circle>
                <circle id="Oval-2" cx="25" cy="81" r="4"></circle>
                <circle id="Oval-2" cx="131.5" cy="94.5" r="3.5"></circle>
                <ellipse id="Path" cx="135.5" cy="79" rx="3.5" ry="4"></ellipse>
                <circle id="Oval-2" cx="29" cy="97" r="4"></circle>
                <circle id="Oval-2" cx="97" cy="60" r="3"></circle>
                <circle id="Oval-2" cx="105.5" cy="78.5" r="3.5"></circle>
                <circle id="Oval-2" cx="65" cy="117" r="4"></circle>
                <circle id="Oval-2" cx="113" cy="3" r="3"></circle>
                <circle id="Oval-2" cx="101" cy="23" r="3"></circle>
                <circle id="Oval-2-Copy" cx="84" cy="12" r="3"></circle>
                <circle id="Oval-2-Copy-2" cx="76" cy="48" r="3"></circle>
                <circle id="Oval-2-Copy-3" cx="64" cy="29" r="3"></circle>
                <circle id="Oval-2-Copy-4" cx="40" cy="39" r="3"></circle>
                <circle id="Oval-2-Copy-5" cx="48" cy="20" r="3"></circle>
                <circle id="Oval-2-Copy-6" cx="83" cy="29" r="3"></circle>
                <circle id="Oval-2-Copy-7" cx="25" cy="60" r="3"></circle>
                <circle id="Oval-2-Copy-8" cx="3" cy="58" r="3"></circle>
                <circle id="Oval-2" cx="121" cy="39" r="3"></circle>
                <circle id="Oval-2" cx="97" cy="42" r="3"></circle>
                <circle id="Oval-2" cx="37" cy="117" r="4"></circle>
            </g>
            <g id="1-4_phone" transform="translate(325.000000, 247.000000)">
                <g id="Rectangle">
                    <use fill="#3A3A3A" fill-rule="evenodd" xlink:href="#path-2"></use>
                    <path stroke="#979797" stroke-width="1" d="M5.41280781,2.68424895 C2.46142817,3.7689342 0.5,6.57949295 0.5,9.72388222 L0.5,40.4559851 C0.5,41.2791197 0.646599691,42.0956756 0.932932058,42.8674038 C2.26472184,46.4568677 6.2541862,48.2870742 9.84365009,46.9552844 L14.6440767,45.1741941 C17.58414,44.0833498 19.5351562,41.2784917 19.5351562,38.1425845 L19.5351562,7.45026573 C19.5351562,6.6324392 19.3907743,5.82103436 19.1086577,5.05340784 C17.7849097,1.45154906 13.7919164,-0.395224566 10.1900576,0.928523495 L5.41280781,2.68424895 Z"></path>
                </g>
                <g id="Rectangle">
                    <use fill="#353535" fill-rule="evenodd" xlink:href="#path-3"></use>
                    <path stroke="#979797" stroke-width="1" d="M5.41280781,3.68424895 C2.46142817,4.7689342 0.5,7.57949295 0.5,10.7238822 L0.5,41.4559851 C0.5,42.2791197 0.646599691,43.0956756 0.932932058,43.8674038 C2.26472184,47.4568677 6.2541862,49.2870742 9.84365009,47.9552844 L14.6440767,46.1741941 C17.58414,45.0833498 19.5351562,42.2784917 19.5351562,39.1425845 L19.5351562,8.45026573 C19.5351562,7.6324392 19.3907743,6.82103436 19.1086577,6.05340784 C17.7849097,2.45154906 13.7919164,0.604775434 10.1900576,1.92852349 L5.41280781,3.68424895 Z"></path>
                </g>
            </g>
            <g id="4-4_anchors" transform="translate(146.000000, 86.000000)">
                <path d="M26.1171875,153.894531 L26.1171875,75" id="Path-4" stroke="#000000" stroke-width="2" stroke-dasharray="2,2"></path>
                <polygon id="Path-6" stroke="#000000" points="0.359375 15.109375 44.578125 0.50390625 44.578125 67.8945313 0.359375 84.4160156"></polygon>
                <circle id="Oval-2-Copy-3" fill="#000000" cx="26" cy="153" r="3"></circle>
            </g>
        </g>
    </g>
</svg>