<?xml version="1.0" encoding="UTF-8"?>
<svg width="14px" height="14px" viewBox="0 0 14 14" version="1.1" xmlns="http://www.w3.org/2000/svg" xmlns:xlink="http://www.w3.org/1999/xlink">
    <!-- Generator: Sketch 47.1 (45422) - http://www.bohemiancoding.com/sketch -->
    <title>Artsy A</title>
    <desc>Created with Sketch.</desc>
    <defs>
        <radialGradient cx="116.007194%" cy="279.923503%" fx="116.007194%" fy="279.923503%" r="170.746455%" gradientTransform="translate(1.160072,2.799235),rotate(107.808356),scale(1.000000,3.139673),translate(-1.160072,-2.799235)" id="radialGradient-1">
            <stop stop-color="#F3FEFA" offset="0%"></stop>
            <stop stop-color="#82D7DA" offset="100%"></stop>
        </radialGradient>
        <radialGradient cx="100%" cy="76.084435%" fx="100%" fy="76.084435%" r="160.3714%" id="radialGradient-2">
            <stop stop-color="#99DFE0" offset="0%"></stop>
            <stop stop-color="#FFFFFF" offset="100%"></stop>
        </radialGradient>
    </defs>
    <g id="Page-1" stroke="none" stroke-width="1" fill="none" fill-rule="evenodd">
        <g id="Artboard" transform="translate(-319.000000, -1397.000000)" fill="url(#radialGradient-2)">
            <g id="Group-5" transform="translate(151.000000, 1109.000000)">
                <g id="Artsy-A" transform="translate(168.000000, 288.000000)">
                    <path d="M5.95862069,8 L5.4137931,6.70945946 L3.5862069,6.70945946 L3.04137931,8 L2,8 L4.12413793,3 L4.86206897,3 L7,8 L5.95862069,8 Z M4.49655172,4.30405405 L4.48275862,4.30405405 L3.90344828,5.83783784 L5.07586207,5.83783784 L4.49655172,4.30405405 Z" id="A"></path>
                    <path d="M0,0 L14,0 L14,14 L0.0239115864,14 L0,0 Z M1.17683117,1.17408461 L1.22670511,12.8276732 L9.79297422,12.8276732 L9.79297422,10.0801192 L10.8345874,10.0801192 L10.8345874,12.8276732 L12.9000544,12.8276732 L12.9000544,1.17408461 L1.17683117,1.17408461 Z" id="Path-4"></path>
                </g>
            </g>
        </g>
    </g>
</svg>