<?xml version="1.0" encoding="UTF-8"?>
<svg width="401px" height="50px" viewBox="0 0 401 50" version="1.1" xmlns="http://www.w3.org/2000/svg" xmlns:xlink="http://www.w3.org/1999/xlink">
    <!-- Generator: Sketch 47.1 (45422) - http://www.bohemiancoding.com/sketch -->
    <title>Group 4</title>
    <desc>Created with Sketch.</desc>
    <defs></defs>
    <g id="Page-1" stroke="none" stroke-width="1" fill="none" fill-rule="evenodd">
        <g id="Artboard" transform="translate(-231.000000, -161.000000)">
            <g id="Group-4" transform="translate(231.000000, 162.000000)">
                <g id="Group" transform="translate(162.000000, 0.000000)">
                    <polygon id="x" fill="#B3F6FC" points="2.96931148 30.4600164 6.33045902 25.2212623 9.69160656 30.4600164 12.056 30.4600164 7.55901639 23.9231639 11.5228525 18.2439836 9.27436066 18.2439836 6.42318033 22.7873279 3.59518033 18.2439836 1.27714754 18.2439836 5.24098361 24.0158852 0.744 30.4600164"></polygon>
                    <path d="M107.888,18.12 C107.888,20.592 106.136,22.104 103.856,22.68 L108.776,30 L106.28,30 L101.744,22.92 L99.512,22.92 L99.512,30 L97.448,30 L97.448,13.464 L101.672,13.464 C105.752,13.464 107.888,15.048 107.888,18.12 Z M105.68,18.12 C105.68,15.984 104.456,15.144 101.912,15.144 L99.512,15.144 L99.512,21.288 L101.936,21.288 C104.312,21.288 105.68,20.4 105.68,18.12 Z M111.408,24.384 C111.504,27.312 113.136,28.584 115.08,28.584 C116.376,28.584 117.336,28.2 118.464,27.456 L119.4,28.8 C118.224,29.712 116.64,30.264 115.08,30.264 C111.384,30.264 109.296,27.624 109.296,23.688 C109.296,19.872 111.432,17.088 114.792,17.088 C117.984,17.088 119.952,19.464 119.952,23.304 C119.952,23.736 119.928,24.12 119.904,24.384 L111.408,24.384 Z M114.816,18.744 C112.944,18.744 111.576,20.064 111.408,22.848 L117.984,22.848 C117.936,20.136 116.736,18.744 114.816,18.744 Z M131.272,27.24 C131.272,28.248 131.584,28.632 132.304,28.848 L131.8,30.288 C130.72,30.144 129.832,29.64 129.496,28.488 C128.584,29.664 127.168,30.264 125.536,30.264 C122.992,30.264 121.456,28.728 121.456,26.376 C121.456,23.784 123.544,22.32 127.36,22.32 L129.232,22.32 L129.232,21.288 C129.232,19.44 128.104,18.768 126.232,18.768 C125.392,18.768 124.24,18.96 122.944,19.416 L122.392,17.88 C123.952,17.328 125.296,17.088 126.544,17.088 C129.688,17.088 131.272,18.672 131.272,21.168 L131.272,27.24 Z M126.04,28.752 C127.288,28.752 128.488,28.08 129.232,26.952 L129.232,23.712 L127.408,23.712 C124.624,23.712 123.616,24.72 123.616,26.352 C123.616,27.936 124.384,28.752 126.04,28.752 Z M140.336,28.536 C138.152,28.536 136.568,27.12 136.568,23.736 C136.568,20.4 138.128,18.792 140.312,18.792 C141.44,18.792 142.496,19.176 143.576,19.896 L144.56,18.576 C143.384,17.592 141.968,17.088 140.336,17.088 C136.568,17.088 134.384,19.944 134.384,23.736 C134.384,27.696 136.544,30.264 140.336,30.264 C141.8,30.264 143.504,29.688 144.584,28.752 L143.624,27.432 C142.664,28.08 141.608,28.536 140.336,28.536 Z M157.056,29.352 L156.264,27.984 C155.592,28.344 154.776,28.584 153.84,28.584 C152.112,28.584 151.416,27.84 151.416,26.448 L151.416,18.936 L155.544,18.936 L155.808,17.352 L151.416,17.352 L151.416,14.256 L149.4,14.496 L149.4,17.352 L146.496,17.352 L146.496,18.936 L149.4,18.936 L149.4,26.472 C149.4,28.68 150.936,30.264 153.648,30.264 C154.848,30.264 156.168,29.928 157.056,29.352 Z M174.88,30 L177.808,30 L177.808,13.464 L175.864,13.464 L175.864,21.744 C175.864,24.72 176.128,27.384 176.152,28.056 L170.224,13.464 L167.392,13.464 L167.392,30 L169.336,30 L169.336,21.72 C169.336,19.176 169.096,16.2 169.048,15.48 L174.88,30 Z M191.272,27.24 C191.272,28.248 191.584,28.632 192.304,28.848 L191.8,30.288 C190.72,30.144 189.832,29.64 189.496,28.488 C188.584,29.664 187.168,30.264 185.536,30.264 C182.992,30.264 181.456,28.728 181.456,26.376 C181.456,23.784 183.544,22.32 187.36,22.32 L189.232,22.32 L189.232,21.288 C189.232,19.44 188.104,18.768 186.232,18.768 C185.392,18.768 184.24,18.96 182.944,19.416 L182.392,17.88 C183.952,17.328 185.296,17.088 186.544,17.088 C189.688,17.088 191.272,18.672 191.272,21.168 L191.272,27.24 Z M186.04,28.752 C187.288,28.752 188.488,28.08 189.232,26.952 L189.232,23.712 L187.408,23.712 C184.624,23.712 183.616,24.72 183.616,26.352 C183.616,27.936 184.384,28.752 186.04,28.752 Z M203.656,29.352 L202.864,27.984 C202.192,28.344 201.376,28.584 200.44,28.584 C198.712,28.584 198.016,27.84 198.016,26.448 L198.016,18.936 L202.144,18.936 L202.408,17.352 L198.016,17.352 L198.016,14.256 L196,14.496 L196,17.352 L193.096,17.352 L193.096,18.936 L196,18.936 L196,26.472 C196,28.68 197.536,30.264 200.248,30.264 C201.448,30.264 202.768,29.928 203.656,29.352 Z M209.8,11.448 C208.936,11.448 208.36,12.048 208.36,12.864 C208.36,13.68 208.936,14.28 209.8,14.28 C210.688,14.28 211.288,13.68 211.288,12.864 C211.288,12.048 210.688,11.448 209.8,11.448 Z M211.408,17.352 L205.624,17.352 L205.624,18.96 L209.392,18.96 L209.392,28.392 L205.504,28.392 L205.504,30 L214.96,30 L214.96,28.392 L211.408,28.392 L211.408,17.352 Z M226.96,17.352 L224.848,17.352 L221.248,28.176 L217.6,17.352 L215.44,17.352 L220.024,30 L222.352,30 L226.96,17.352 Z M230.408,24.384 C230.504,27.312 232.136,28.584 234.08,28.584 C235.376,28.584 236.336,28.2 237.464,27.456 L238.4,28.8 C237.224,29.712 235.64,30.264 234.08,30.264 C230.384,30.264 228.296,27.624 228.296,23.688 C228.296,19.872 230.432,17.088 233.792,17.088 C236.984,17.088 238.952,19.464 238.952,23.304 C238.952,23.736 238.928,24.12 238.904,24.384 L230.408,24.384 Z M233.816,18.744 C231.944,18.744 230.576,20.064 230.408,22.848 L236.984,22.848 C236.936,20.136 235.736,18.744 233.816,18.744 Z" id="React-Native" fill="#AEE6E7"></path>
                    <g id="Layer_2" transform="translate(32.000000, 0.000000)">
                        <ellipse id="Oval" fill="#ACE6E6" fill-rule="nonzero" cx="25.5027491" cy="22.9399538" rx="4.75560781" ry="4.84298426"></ellipse>
                        <path d="M42.2917026,15.5941448 C47.6802602,17.4832823 50.9933643,20.3469633 50.9933643,22.9399538 C50.9933643,25.642128 47.4820428,28.6842099 41.6955335,30.6366758 C37.3206245,32.1128269 31.563881,32.8832907 25.5027491,32.8832907 C19.2885223,32.8832907 13.4039944,32.1600336 8.98083457,30.620361 C3.38353717,28.6720462 0.012133829,25.5904806 0.012133829,22.9399538 C0.012133829,20.3680084 3.17546097,17.526531 8.48827695,15.6401931 C12.9773197,14.0464596 19.0553253,13.0931542 25.5027491,13.0931542 C31.8877974,13.0931542 37.8193439,14.0261868 42.2917026,15.5941448 Z" id="Shape" stroke="#C2EDEC" stroke-width="2"></path>
                        <path d="M17.0855688,18.044936 C20.2753439,12.4121805 24.0322807,7.64555719 27.60029,4.483383 C31.8992677,0.673443861 35.9903587,-0.818732424 38.1960613,0.476604407 C40.4946636,1.82648478 41.3282955,6.44395803 40.0983234,12.5240672 C39.1683792,17.120978 36.9478885,22.5844071 33.9199294,27.9315089 C30.8154703,33.4136663 27.2605428,38.2435215 23.7410688,41.3764449 C19.2874796,45.3410367 14.981961,46.7756768 12.7272491,45.4515719 C10.5394628,44.1666611 9.7027026,39.956575 10.7522788,34.3272949 C11.6390911,29.5709045 13.8646059,23.7328143 17.0855688,18.044936 L17.0855688,18.044936 Z" id="Shape" stroke="#C2EDEC" stroke-width="2"></path>
                        <path d="M10.8075446,11.8959958 C9.71322491,6.20039454 10.4869461,1.84559916 12.6905632,0.546497377 C14.9868903,-0.807341028 19.3314647,0.763126967 23.8897082,4.88488143 C27.3360948,8.00110388 30.8750019,12.6886632 33.911777,18.0306485 C37.0252416,23.5074963 39.3588234,29.0560714 40.2664907,33.7258678 C41.4151283,39.6352025 40.4853736,44.1503463 38.232842,45.4783127 C36.0471413,46.7668919 32.0475279,45.4026275 27.7826766,41.6651878 C24.1792138,38.5073578 20.323974,33.6281721 17.0936264,27.9457964 C13.8946561,22.318447 11.7157807,16.6232319 10.8075446,11.8959958 Z" id="Shape" stroke="#C2EDEC" stroke-width="2"></path>
                    </g>
                </g>
                <g id="Group-6" fill="#AEE6E7">
                    <path d="M3.30081,3.32285292 L137.69966,3.32285292 L137.69966,45.6771471 L80.81462,45.6771471 L80.81462,38.6969767 L77.62567,38.6969767 L77.62567,45.6771471 L3.30081,45.6771471 L3.30081,3.32285292 Z M0,49 L141,49 L141,0 L0,0 L0,49 Z" id="Fill-1"></path>
                    <path d="M28.7856769,16 L25.2124644,16 L19,32 L22.5708892,32 L24.2018354,27.5632832 L29.8181449,27.5632832 L31.4263228,32 L35,32 L28.7856769,16 Z M25.1636754,24.6324543 L26.9981414,19.6184107 L28.8130917,24.6324543 L25.1636754,24.6324543 L25.1636754,24.6324543 Z" id="Fill-2"></path>
                    <polyline id="Fill-3" points="60 16 60 19.177856 65.7569092 19.177856 65.7569092 32 69.2196615 32 69.2196615 19.177856 75 19.177856 75 16 60 16"></polyline>
                    <polyline id="Fill-4" points="118.06107 16 113.988301 22.8227837 109.93893 16 106 16 112.306873 26.1267118 112.306873 32 115.694531 32 115.694531 26.1267118 122 16 118.06107 16"></polyline>
                    <path d="M99.1349527,23.1131455 C98.0664857,22.3450704 96.6044984,21.9929577 95.3137521,21.6807512 C95.0456814,21.6159624 94.7838116,21.5539906 94.5295736,21.4882629 L94.3702576,21.4478873 C93.3189624,21.1877934 91.8784399,20.8305164 91.8784399,19.5948357 C91.8784399,18.2732394 93.4429808,17.9211268 94.3664416,17.9211268 C95.4143979,17.9211268 96.7304249,18.2300469 97.052873,19.7037559 L97.0624129,19.7530516 L100.31599,19.7530516 L100.314082,19.6892019 C100.204374,16.7093897 98.0807955,15 94.4885521,15 C91.8126147,15 88.6892566,16.229108 88.6892566,19.6910798 C88.6892566,23.2953052 91.949035,24.0661972 94.8243561,24.7474178 C95.0886108,24.8107981 95.3476187,24.871831 95.6009026,24.9347418 C97.0662288,25.3112676 97.8098628,25.9807512 97.8098628,26.9244131 C97.8098628,28.9539906 95.1057826,29.0568075 94.5629632,29.0568075 C92.6621413,29.0568075 91.6299259,28.3596244 91.3132017,26.8633803 L91.3036618,26.814554 L88,26.814554 L88.003339,26.8774648 C88.0276657,28.158216 88.1860277,28.9380282 89.0231526,29.9061033 C90.6105893,31.7276995 93.1281647,32 94.4885521,32 C97.625266,32 101,30.3967136 101,26.8755869 C101,25.3793427 100.28594,23.9375587 99.1349527,23.1131455" id="Fill-5"></path>
                    <path d="M52.5454668,25.1948943 C53.7873718,24.3026197 54.558014,22.7236938 54.558014,21.074521 C54.558014,19.2913674 53.6254047,17.634286 52.1256746,16.7555026 C50.8540205,16 49.5686724,16 48.3248786,16 L41,16 L41,32 L44.4423907,32 L44.4423907,24.0909487 L50.8304101,32 L55,32 L50.1357933,26.1290379 C51.0070157,25.9811008 51.7313815,25.7805949 52.5454668,25.1948943 M44.4423907,23.3661501 L44.4423907,19.0150321 L48.3097679,19.0141017 C49.0785213,19.0141017 49.7594441,19.0462013 50.3095656,19.4379089 C50.8285213,19.8110081 51.1373448,20.4664903 51.1373448,21.1908237 C51.1373448,22.6343733 50.0914058,23.3661501 48.0283324,23.3661501 L44.4423907,23.3661501" id="Fill-6"></path>
                </g>
            </g>
        </g>
    </g>
</svg>