<?xml version="1.0" encoding="UTF-8"?>
<svg width="14px" height="19px" viewBox="0 0 14 19" version="1.1" xmlns="http://www.w3.org/2000/svg" xmlns:xlink="http://www.w3.org/1999/xlink">
    <!-- Generator: Sketch 47.1 (45422) - http://www.bohemiancoding.com/sketch -->
    <title>Group 7</title>
    <desc>Created with Sketch.</desc>
    <defs></defs>
    <g id="Page-1" stroke="none" stroke-width="1" fill="none" fill-rule="evenodd">
        <g id="Artboard" transform="translate(-169.000000, -1789.000000)" fill="#ADE6E7">
            <g id="Group-7" transform="translate(169.000000, 1788.000000)">
                <path d="M0.0737304688,10.5003662 L2.39562988,8.12390137 C3.47237142,9.69722493 3.47237142,11.2705485 2.39562988,12.8438721 C1.50467936,11.9794515 0.730712891,11.1982829 0.0737304688,10.5003662 Z" id="Path-6"></path>
                <path d="M3.40100098,6.83886719 C4.61083984,5.69470215 4.81567383,5.46765137 5.8302002,4.54272461 C8.19677734,7.07580566 9.7557373,11.7570801 5.8302002,16.4971924 C4.90100098,15.4859619 4.73022461,15.3458252 3.53686523,14.1022949 C5.1998291,11.4345703 5.55422587,9.70654297 3.40100098,6.83886719 Z" id="Path-7"></path>
                <path d="M6.8425293,3.39831543 C7.76513672,2.45605469 7.97705078,2.26757812 9.18322754,0.98449707 C13.9106445,6.30847168 14.7264404,13.8240967 9.18322754,20.0447998 C7.98864746,19.0844727 7.99609375,18.8260498 6.8425293,17.5223389 C10.9812012,11.4245605 10.1942139,9.00939941 6.8425293,3.39831543 Z" id="Path-7"></path>
            </g>
        </g>
    </g>
</svg>