<?xml version="1.0" encoding="UTF-8"?>
<svg width="759px" height="732px" viewBox="0 0 759 732" version="1.1" xmlns="http://www.w3.org/2000/svg" xmlns:xlink="http://www.w3.org/1999/xlink">
    <!-- Generator: Sketch 45.2 (43514) - http://www.bohemiancoding.com/sketch -->
    <title>logo-mobile</title>
    <desc>Created with Sketch.</desc>
    <defs></defs>
    <g id="Behind-the-scenes" stroke="none" stroke-width="1" fill="none" fill-rule="evenodd" opacity="0.104789402">
        <g id="Footer-Copy-2" transform="translate(-541.000000, -77.000000)" fill-rule="nonzero" fill="#82D7DA">
            <g id="logo-mobile" transform="translate(541.000000, 77.000000)">
                <g id="Group" transform="translate(100.000000, 545.000000)">
                    <path d="M182.343653,106 C180.986262,108.443305 179.62887,110.615132 178,112.786958 C179.62887,110.615132 180.986262,108.443305 182.343653,106 Z" id="Shape"></path>
                    <path d="M190,87.9003483 C190.271478,87.3573916 190.271478,86.5429567 190.542957,86 L190.542957,86 C190.271478,86.5429567 190.271478,87.0859133 190,87.9003483 Z" id="Shape"></path>
                    <path d="M186.443305,99 C185.62887,100.62887 184.814435,102.25774 184,103.615132 C185.085913,102.25774 185.900348,100.62887 186.443305,99 Z" id="Shape"></path>
                    <path d="M189.62887,91 C189.085913,92.3573916 188.542957,93.9862616 188,95.3436533 C188.542957,93.9862616 189.085913,92.62887 189.62887,91 Z" id="Shape"></path>
                    <path d="M192,50 C192,50 192,50 192,50 L229.735488,50 C229.735488,50 229.735488,50 229.735488,50 L192,50 Z" id="Shape"></path>
                    <path d="M189.814435,88 C189.542957,89.0859133 189.271478,90.1718266 189,91.25774 C189.271478,89.9003483 189.542957,89.0859133 189.814435,88 Z" id="Shape"></path>
                    <path d="M184.085913,103 C183.542957,103.814435 183.271478,104.62887 183,105.443305 C183.271478,104.357392 183.542957,103.542957 184.085913,103 Z" id="Shape"></path>
                    <path d="M188.085913,96 C187.814435,97.0859133 187.271478,97.9003483 187,98.9862616 C187.271478,98.1718266 187.542957,97.0859133 188.085913,96 Z" id="Shape"></path>
                    <path d="M191,86.443305 C191.271478,85.62887 191.271478,84.814435 191.542957,84 C191.542957,85.0859133 191.271478,85.9003483 191,86.443305 L191,86.443305 Z" id="Shape"></path>
                    <path d="M193,61 C193,62.3573916 193,63.7147833 193.271478,65.0721749 C193.271478,63.7147833 193.271478,62.3573916 193,61 Z" id="Shape"></path>
                    <path d="M191.542957,51.9003483 C191.542957,52.1718266 191.542957,52.1718266 191.542957,52.443305 C191.814435,54.3436533 192.085913,56.2440016 192.357392,58.1443499 C192.357392,57.3299149 192.357392,56.5154799 192.085913,55.7010449 C192.085913,55.1580883 192.085913,54.8866099 191.814435,54.3436533 C191.814435,53.8006966 191.542957,50.5429567 191.271478,50 L191,50 C191.271478,50.5429567 191.271478,51.3573916 191.542957,51.9003483 Z" id="Shape"></path>
                    <path d="M193.271478,69 C193.271478,70.3573916 193,71.7147833 193,73.0721749 C193,71.7147833 193.271478,70.3573916 193.271478,69 Z" id="Shape"></path>
                    <path d="M192.542957,76 C192.271478,77.3573916 192,78.7147833 192,80.3436533 C192,78.9862616 192.271478,77.3573916 192.542957,76 Z" id="Shape"></path>
                    <path d="M474.980102,38.5499228 C472.808276,35.8351395 470.636449,33.3918345 468.193144,31.4914862 C458.419924,23.075658 445.660443,19.5464397 433.443918,20.9038314 C425.02809,21.7182664 416.88374,24.704528 409.825303,30.4055729 C403.038345,35.5636612 398.151735,42.3506194 395.165474,49.6805343 L229.835171,49.6805343 L192.099683,49.6805343 C192.099683,50.2234909 192.371161,53.4812309 192.64264,54.0241875 C192.64264,54.5671442 192.64264,54.8386225 192.914118,55.3815792 C192.914118,56.1960142 193.185596,57.0104492 193.185596,57.8248842 C193.185596,58.9107975 193.457075,59.9967108 193.457075,61.3541024 C193.457075,62.7114941 193.457075,64.0688857 193.728553,65.4262774 C193.728553,66.5121907 193.728553,67.598104 193.728553,68.9554957 C193.728553,70.3128873 193.457075,71.670279 193.457075,73.0276706 C193.457075,74.1135839 193.185596,75.1994972 193.185596,76.5568889 C192.914118,77.9142805 192.64264,79.2716722 192.64264,80.9005422 C192.371161,81.9864555 192.371161,83.0723688 192.099683,84.1582821 C191.828205,84.9727171 191.828205,85.7871521 191.556726,86.6015871 C191.285248,87.1445437 191.285248,87.9589787 191.01377,88.5019354 C190.742292,89.5878487 190.470813,90.673762 190.199335,91.7596753 C189.656378,93.117067 189.113422,94.745937 188.570465,96.1033286 C188.298987,97.1892419 187.75603,98.0036769 187.484552,99.0895902 C186.670117,100.71846 185.855682,102.34733 185.041247,103.704722 C184.49829,104.519157 184.226812,105.333592 183.955333,106.148027 C182.597942,108.591332 181.24055,110.763158 179.61168,112.934985 C154.364195,148.498646 104.955139,156.642996 69.3914783,131.395511 C33.8278171,106.148027 25.6834672,56.7389708 50.9309519,21.1753097 L21.339814,0 C-15.5812388,51.8523609 -3.36471401,124.065597 48.4876469,160.986649 C100.340008,197.907702 172.553243,185.691177 209.474296,133.838816 C219.518994,119.721943 226.034474,103.161765 229.292214,86.3301087 L396.522865,86.3301087 C397.880257,89.5878487 399.780605,92.8455887 402.22391,95.8318503 C417.969653,116.192725 447.289313,119.993422 467.650187,104.247678 C486.925149,88.2304571 490.725845,58.9107975 474.980102,38.5499228 Z" id="Shape"></path>
                    <path d="M193,58 C193,59.0859133 193.271478,60.1718266 193.271478,61.5292183 C193.271478,60.1718266 193,59.0859133 193,58 Z" id="Shape"></path>
                    <path d="M191.542957,81 C191.271478,82.0859133 191.271478,83.1718266 191,84.25774 C191.271478,83.1718266 191.542957,82.0859133 191.542957,81 Z" id="Shape"></path>
                    <path d="M193.271478,73 C193.271478,74.0859133 193,75.1718266 193,76.5292183 C193,75.1718266 193.271478,74.0859133 193.271478,73 Z" id="Shape"></path>
                    <path d="M193,65 C193,66.0859133 193,67.1718266 193,68.5292183 C193,67.1718266 193,66.0859133 193,65 Z" id="Shape"></path>
                </g>
                <g id="Group" transform="translate(446.000000, 262.000000)">
                    <path d="M151,301 C152.900348,302.900348 154.529218,305.072175 156.158088,307.244002 C154.529218,304.800697 152.900348,302.900348 151,301 Z" id="Shape"></path>
                    <path d="M136.62887,288.085913 C136.085913,287.814435 135.542957,287.271478 135,287 L135,287 C135.542957,287.542957 136.085913,287.814435 136.62887,288.085913 Z" id="Shape"></path>
                    <path d="M145,295 C146.357392,296.085913 147.443305,297.443305 148.800697,298.800697 C147.714783,297.443305 146.357392,296.085913 145,295 Z" id="Shape"></path>
                    <path d="M139,290 C140.357392,290.814435 141.443305,291.900348 142.529218,292.986262 C141.443305,291.900348 140.357392,290.814435 139,290 Z" id="Shape"></path>
                    <path d="M101,274.835139 C101,274.835139 101,274.835139 101,274.835139 L112.673568,239 C112.673568,239 112.673568,239 112.673568,239 L101,274.835139 Z" id="Shape"></path>
                    <path d="M137,288 C137.814435,288.542957 138.900348,289.085913 139.714783,289.900348 C138.900348,289.357392 137.814435,288.814435 137,288 Z" id="Shape"></path>
                    <path d="M149,299 C149.542957,299.542957 150.357392,300.085913 150.900348,300.900348 C150.357392,300.085913 149.814435,299.542957 149,299 Z" id="Shape"></path>
                    <path d="M143,293 C143.814435,293.542957 144.62887,294.357392 145.443305,294.900348 C144.62887,294.085913 143.814435,293.542957 143,293 Z" id="Shape"></path>
                    <path d="M134.900348,287.357392 C134.357392,286.814435 133.542957,286.542957 133,286 C133.542957,286.542957 134.085913,287.085913 134.900348,287.357392 L134.900348,287.357392 Z" id="Shape"></path>
                    <path d="M112,278 C113.357392,278.271478 114.714783,278.814435 116.072175,279.085913 C114.443305,278.542957 113.357392,278.271478 112,278 Z" id="Shape"></path>
                    <path d="M102.171827,275.542957 C102.443305,275.542957 102.443305,275.542957 102.714783,275.542957 C104.615132,275.814435 106.51548,276.085913 108.14435,276.62887 C107.329915,276.357392 106.51548,276.357392 105.701045,276.085913 C105.158088,276.085913 104.88661,275.814435 104.343653,275.814435 C103.800697,275.814435 100.814435,275 100,275 L100,275.271478 C100.814435,275.542957 101.357392,275.542957 102.171827,275.542957 Z" id="Shape"></path>
                    <path d="M119,280 C120.357392,280.542957 121.714783,281.085913 122.800697,281.62887 C121.714783,280.814435 120.357392,280.542957 119,280 Z" id="Shape"></path>
                    <path d="M126,282 C127.357392,282.542957 128.443305,283.357392 129.800697,283.900348 C128.714783,283.357392 127.357392,282.814435 126,282 Z" id="Shape"></path>
                    <path d="M237.000582,30.9629468 C228.313275,6.8013755 201.708399,-5.95810598 177.546827,2.72920056 C174.289087,3.81511388 171.302826,5.44398385 168.588043,7.07285383 C157.728909,13.8598121 150.127516,24.7189452 147.684211,36.9354701 C146.055341,45.0798199 146.32682,53.7671265 149.313081,62.1829547 C152.299343,70.3273046 156.914474,76.8427845 163.158476,82.0008727 L112.12055,239.186825 L100.446982,275.021965 C100.989939,275.021965 103.9762,275.8364 104.790635,275.8364 C105.333592,275.8364 105.60507,275.8364 106.148027,276.107878 C106.962462,276.379357 107.776897,276.379357 108.591332,276.650835 C109.677245,276.922313 110.763158,277.193792 111.849072,277.46527 C113.206463,277.736748 114.563855,278.279705 115.921247,278.551183 C117.00716,278.822662 118.093073,279.09414 119.178987,279.637097 C120.536378,280.180053 121.89377,280.72301 122.979683,281.265967 C124.065597,281.808923 125.15151,282.080402 126.237423,282.623358 C127.594815,283.166315 128.680728,283.98075 130.03812,284.523706 C131.124033,285.066663 131.938468,285.60962 133.024381,286.152576 C133.838816,286.424055 134.381773,286.967011 134.92473,287.509968 C135.467686,287.781446 136.010643,288.324403 136.5536,288.595881 C137.368035,289.138838 138.453948,289.681795 139.268383,290.49623 C140.625775,291.310665 141.711688,292.396578 142.797601,293.482491 C143.612036,294.025448 144.426471,294.839883 145.240906,295.38284 C146.598298,296.468753 147.684211,297.826145 149.041603,299.183536 C149.584559,299.726493 150.398994,300.26945 150.941951,301.083885 C152.842299,302.984233 154.471169,305.15606 156.100039,307.327886 C182.161959,342.348591 174.560566,392.029125 139.81134,417.819566 C104.790635,443.881486 55.1101009,436.280093 29.3196596,401.530866 L0,423.249133 C38.0069661,474.287059 110.49168,485.146192 161.529606,447.139226 C212.567532,409.13226 223.426665,336.647546 185.419699,285.60962 C175.103522,271.764225 161.258128,260.362135 146.32682,252.217785 L197.907702,93.1314842 C201.43692,92.8600059 205.237617,92.0455709 208.766835,90.6881793 C232.928407,82.0008727 245.687888,55.3959965 237.000582,30.9629468 Z" id="Shape"></path>
                    <path d="M108,277 C109.085913,277.271478 110.171827,277.542957 111.25774,277.814435 C110.443305,277.542957 109.085913,277.271478 108,277 Z" id="Shape"></path>
                    <path d="M130,285 C131.085913,285.542957 131.900348,286.085913 132.986262,286.62887 C132.171827,285.814435 131.085913,285.271478 130,285 Z" id="Shape"></path>
                    <path d="M123,281 C124.085913,281.542957 125.171827,281.814435 126.25774,282.357392 C125.171827,282.085913 124.085913,281.542957 123,281 Z" id="Shape"></path>
                    <path d="M116,279 C117.085913,279.271478 118.171827,279.542957 119.25774,280.085913 C118.171827,279.542957 117.085913,279.271478 116,279 Z" id="Shape"></path>
                </g>
                <g id="Group" transform="translate(335.000000, 73.000000)">
                    <path d="M275,164.986262 C277.443305,163.900348 279.88661,162.814435 282.601393,162 C279.88661,162.814435 277.443305,163.900348 275,164.986262 Z" id="Shape"></path>
                    <path d="M258.62887,175 C258.085913,175.542957 257.542957,175.814435 257,176.357392 L257,176.357392 C257.542957,175.814435 258.085913,175.542957 258.62887,175 Z" id="Shape"></path>
                    <path d="M268,168.443305 C269.62887,167.62887 270.986262,166.814435 272.615132,166 C271.25774,166.814435 269.62887,167.62887 268,168.443305 Z" id="Shape"></path>
                    <path d="M261,173.443305 C262.357392,172.62887 263.714783,171.814435 264.800697,171 C263.714783,171.542957 262.357392,172.357392 261,173.443305 Z" id="Shape"></path>
                    <path d="M234.405573,205.261223 C234.405573,205.261223 234.405573,205.261223 234.405573,205.261223 L204,183 C204,183 204,183 204,183 L234.405573,205.261223 Z" id="Shape"></path>
                    <path d="M259,174.900348 C259.814435,174.085913 260.62887,173.542957 261.714783,173 C260.62887,173.542957 259.814435,174.357392 259,174.900348 Z" id="Shape"></path>
                    <path d="M272,166.085913 C272.814435,165.814435 273.62887,165.271478 274.443305,165 C273.62887,165.271478 272.814435,165.814435 272,166.085913 Z" id="Shape"></path>
                    <path d="M265,170.62887 C265.814435,170.085913 266.62887,169.542957 267.714783,169 C266.900348,169.542957 266.085913,170.085913 265,170.62887 Z" id="Shape"></path>
                    <path d="M256.900348,176 C256.357392,176.542957 255.542957,177.085913 255,177.62887 C255.542957,176.814435 256.357392,176.542957 256.900348,176 L256.900348,176 Z" id="Shape"></path>
                    <path d="M240,195.529218 C240.814435,194.443305 241.62887,193.357392 242.171827,192 C241.357392,193.357392 240.814435,194.443305 240,195.529218 Z" id="Shape"></path>
                    <path d="M235.814435,203.429567 C235.814435,203.158088 236.085913,203.158088 236.085913,202.88661 C236.900348,201.25774 237.714783,199.62887 238.800697,198 C238.529218,198.814435 237.986262,199.357392 237.714783,200.171827 C237.443305,200.443305 237.443305,200.986262 237.171827,201.25774 C236.900348,201.800697 235.271478,204.51548 235,205.058437 L235.271478,205.329915 C235.271478,204.51548 235.542957,203.972523 235.814435,203.429567 Z" id="Shape"></path>
                    <path d="M245,189.25774 C245.814435,188.171827 246.62887,187.085913 247.714783,186 C246.62887,187.357392 245.814435,188.171827 245,189.25774 Z" id="Shape"></path>
                    <path d="M250,182.986262 C251.085913,181.900348 251.900348,181.085913 252.986262,180 C251.900348,181.085913 250.814435,181.900348 250,182.986262 Z" id="Shape"></path>
                    <path d="M417.272943,200.633236 C396.912068,140.365047 331.485791,107.516169 270.946123,127.877044 C254.657423,133.30661 239.454637,143.07983 227.238112,154.753398 L92.0419042,56.478243 C92.8563392,52.9490247 93.1278175,49.1483281 93.1278175,45.3476315 C92.3133825,19.5571902 70.8665945,-0.53220615 45.3476315,0.010750509 C19.5571902,0.825185497 -0.53220615,22.2719735 0.010750509,47.7909365 C0.010750509,51.0486764 0.553707168,54.5778947 1.36814216,57.5641563 C4.35440378,70.0521595 12.4987537,80.368336 23.3578868,86.6123376 C30.6878017,90.6845125 39.1036299,93.1278175 48.0624148,92.8563392 C56.478243,92.5848608 64.6225929,90.1415559 71.1380728,85.7979026 L204.976889,182.987145 L235.382462,205.248368 C235.65394,204.705411 237.28281,201.990628 237.554289,201.447671 C237.825767,201.176193 237.825767,200.633236 238.097245,200.361758 C238.368724,199.547323 238.91168,199.004366 239.183159,198.189931 C239.726115,197.104018 240.269072,196.289583 240.812029,195.203669 C241.626464,194.117756 242.440899,193.031843 242.983855,191.674451 C243.526812,190.860016 244.341247,189.774103 244.884204,188.959668 C245.698639,187.873754 246.513074,186.787841 247.598987,185.701928 C248.413422,184.887493 248.956379,184.073058 249.770814,182.987145 C250.856727,181.901231 251.671162,181.086796 252.757075,180.000883 C253.57151,179.186448 254.385945,178.372013 255.20038,177.557578 C255.743337,177.014621 256.286293,176.471665 257.100728,175.928708 C257.643685,175.385751 258.186642,175.114273 258.729598,174.571316 C259.544033,173.756881 260.358468,173.213925 261.444382,172.670968 C262.801773,171.856533 264.159165,171.042098 265.245078,170.227663 C266.059513,169.684706 266.873948,169.14175 267.959862,168.598793 C269.588732,167.784358 270.946123,166.969923 272.574993,166.155488 C273.389428,165.88401 274.203863,165.341053 275.018298,165.069575 C277.461603,163.983661 279.904908,162.897748 282.619691,162.083313 C323.884397,148.237918 368.9498,170.499141 382.795195,211.763847 C396.64059,253.028554 374.379367,298.093956 333.114661,311.939351 L344.788229,346.417099 C404.78494,326.599181 437.362339,261.172903 417.272943,200.633236 Z" id="Shape"></path>
                    <path d="M238,197.986262 C238.542957,196.900348 239.085913,196.085913 239.62887,195 C239.357392,196.085913 238.814435,197.171827 238,197.986262 Z" id="Shape"></path>
                    <path d="M253,180.443305 C253.814435,179.62887 254.62887,178.814435 255.443305,178 C254.62887,178.814435 253.814435,179.62887 253,180.443305 Z" id="Shape"></path>
                    <path d="M247,185.714783 C247.814435,184.900348 248.357392,184.085913 249.171827,183 C248.357392,183.814435 247.542957,184.62887 247,185.714783 Z" id="Shape"></path>
                    <path d="M243,191.714783 C243.542957,190.900348 244.357392,189.814435 244.900348,189 C244.357392,189.814435 243.814435,190.62887 243,191.714783 Z" id="Shape"></path>
                </g>
                <g id="Group" transform="translate(68.000000, 0.000000)">
                    <path d="M230.542957,124.14435 C230.271478,121.429567 230,118.714783 230,116 C230,118.714783 230.271478,121.429567 230.542957,124.14435 Z" id="Shape"></path>
                    <path d="M235,142 C235.271478,142.542957 235.542957,143.357392 235.814435,143.900348 L235.814435,143.900348 C235.271478,143.357392 235,142.814435 235,142 Z" id="Shape"></path>
                    <path d="M231.814435,131.158088 C231.542957,129.529218 231.271478,127.62887 231,126 C231.271478,127.900348 231.542957,129.529218 231.814435,131.158088 Z" id="Shape"></path>
                    <path d="M233.357392,139.615132 C232.814435,138.25774 232.542957,136.62887 232,135 C232.542957,136.62887 233.085913,138.25774 233.357392,139.615132 Z" id="Shape"></path>
                    <path d="M256.405573,174 C256.405573,174 256.405573,174 256.405573,174 L226,196.261223 C226,196.261223 226,196.261223 226,196.261223 L256.405573,174 Z" id="Shape"></path>
                    <path d="M235.085913,141.986262 C234.814435,140.900348 234.271478,139.814435 234,139 C234.271478,140.085913 234.542957,141.171827 235.085913,141.986262 Z" id="Shape"></path>
                    <path d="M230.542957,126.714783 C230.542957,125.900348 230.271478,125.085913 230,124 C230.271478,125.085913 230.271478,125.900348 230.542957,126.714783 Z" id="Shape"></path>
                    <path d="M232.814435,134.986262 C232.542957,133.900348 232.271478,133.085913 232,132 C232.271478,133.085913 232.542957,134.171827 232.814435,134.986262 Z" id="Shape"></path>
                    <path d="M235,144 C235.271478,144.814435 235.542957,145.357392 235.814435,146.171827 C235.542957,145.357392 235.271478,144.542957 235,144 L235,144 Z" id="Shape"></path>
                    <path d="M248.443305,166.25774 C247.62887,165.171827 246.814435,164.085913 246,163 C246.542957,164.085913 247.357392,165.171827 248.443305,166.25774 Z" id="Shape"></path>
                    <path d="M255.343653,172.615132 C255.072175,172.343653 255.072175,172.343653 254.800697,172.072175 C253.443305,170.714783 252.085913,169.357392 251,168 C251.542957,168.542957 252.085913,169.357392 252.62887,169.900348 C252.900348,170.171827 253.171827,170.443305 253.443305,170.714783 C253.986262,171.25774 255.88661,173.429567 256.429567,173.972523 L256.701045,173.701045 C256.429567,173.429567 255.88661,173.158088 255.343653,172.615132 Z" id="Shape"></path>
                    <path d="M244.171827,159.529218 C243.357392,158.443305 242.542957,157.085913 242,156 C242.542957,157.085913 243.357392,158.171827 244.171827,159.529218 Z" id="Shape"></path>
                    <path d="M239.900348,152.800697 C239.085913,151.443305 238.542957,150.357392 238,149 C238.542957,150.357392 239.085913,151.443305 239.900348,152.800697 Z" id="Shape"></path>
                    <path d="M307.621514,0.00956327519 C243.824107,0.552519934 192.514703,52.9478375 193.329138,116.745245 C193.600616,133.84838 197.944269,151.222993 205.274184,166.697258 L70.0779762,264.972413 C66.8202362,263.072064 63.5624963,261.714673 59.7617997,260.628759 C35.0572717,253.298845 9.2668304,267.415718 1.9369155,292.120246 C-5.39299939,316.824774 8.72387374,342.615215 33.4284017,349.94513 C36.6861417,351.031043 39.9438816,351.574 43.2016216,351.574 C55.9611031,352.388435 68.4491062,348.044782 77.6793694,339.628953 C83.923371,333.927908 88.8099809,326.869472 91.2532859,318.182165 C93.6965908,310.037815 93.6965908,301.621987 91.7962425,294.020594 L225.635059,196.831352 L256.040632,174.570129 C255.497675,174.027172 253.597327,171.855346 253.05437,171.312389 C252.782892,171.040911 252.511414,170.769432 252.239935,170.497954 C251.696979,169.954997 251.154022,169.412041 250.611065,168.597606 C249.79663,167.783171 248.982195,166.968736 248.439239,165.882823 C247.624804,164.796909 246.810369,163.710996 245.995934,162.625083 C245.181499,161.810648 244.638542,160.724734 243.824107,159.910299 C243.009672,158.824386 242.195237,157.466994 241.65228,156.381081 C241.109324,155.295168 240.566367,154.480733 239.751932,153.394819 C238.937497,152.037428 238.39454,150.951514 237.851584,149.594123 C237.308627,148.508209 236.76567,147.693774 236.494192,146.607861 C236.222714,145.793426 235.951235,145.25047 235.679757,144.436035 C235.408279,143.893078 235.1368,143.078643 234.865322,142.535686 C234.593844,141.449773 234.050887,140.36386 233.779409,139.549425 C233.236452,138.192033 232.964974,136.563163 232.422017,134.934293 C232.150539,133.84838 231.879061,133.033945 231.607582,131.948031 C231.336104,130.319161 231.064626,128.418813 230.793147,126.789943 C230.793147,125.975508 230.521669,125.161073 230.250191,124.07516 C229.978712,121.360377 229.707234,118.645593 229.707234,115.93081 C229.164277,72.2227989 264.45646,36.6591377 307.892993,36.1161811 C351.601004,35.5732244 387.164665,70.8654072 387.707622,114.30194 L424.085718,114.030462 C423.814239,50.5045325 371.418922,-0.804871713 307.621514,0.00956327519 Z" id="Shape"></path>
                    <path d="M250.171827,167.714783 C249.357392,166.900348 248.542957,166.085913 248,165 C248.542957,166.085913 249.357392,166.900348 250.171827,167.714783 Z" id="Shape"></path>
                    <path d="M237.357392,148.986262 C236.814435,147.900348 236.271478,147.085913 236,146 C236.271478,146.814435 236.814435,147.900348 237.357392,148.986262 Z" id="Shape"></path>
                    <path d="M240.900348,155.986262 C240.357392,154.900348 239.814435,154.085913 239,153 C239.814435,154.085913 240.357392,154.900348 240.900348,155.986262 Z" id="Shape"></path>
                    <path d="M246.171827,162.714783 C245.357392,161.900348 244.814435,160.814435 244,160 C244.814435,160.814435 245.62887,161.900348 246.171827,162.714783 Z" id="Shape"></path>
                </g>
                <g id="Group" transform="translate(0.000000, 188.000000)">
                    <path d="M98.8728716,192.900348 C96.1580883,192.357392 93.7147833,191.814435 91,191 C93.7147833,191.542957 96.4295666,192.357392 98.8728716,192.900348 Z" id="Shape"></path>
                    <path d="M118,194 C118.542957,194 119.357392,194 119.900348,194 L119.900348,194 C119.357392,194 118.814435,194 118,194 Z" id="Shape"></path>
                    <path d="M107.158088,193.814435 C105.529218,193.542957 103.62887,193.271478 102,193 C103.62887,193.271478 105.529218,193.542957 107.158088,193.814435 Z" id="Shape"></path>
                    <path d="M114.615132,194.271478 C112.986262,194.271478 111.62887,194.271478 110,194 C111.357392,194 112.986262,194.271478 114.615132,194.271478 Z" id="Shape"></path>
                    <path d="M155,184 C155,184 155,184 155,184 L166.673568,219.835139 C166.673568,219.835139 166.673568,219.835139 166.673568,219.835139 L155,184 Z" id="Shape"></path>
                    <path d="M118.25774,194 C117.171827,194 116.085913,194 115,194 C116.085913,194.271478 117.171827,194 118.25774,194 Z" id="Shape"></path>
                    <path d="M101.714783,193.542957 C100.900348,193.271478 100.085913,193.271478 99,193 C100.085913,193.271478 100.900348,193.542957 101.714783,193.542957 Z" id="Shape"></path>
                    <path d="M109.986262,194.271478 C108.900348,194.271478 107.814435,194.271478 107,194 C107.814435,194.271478 108.900348,194.271478 109.986262,194.271478 Z" id="Shape"></path>
                    <path d="M120,194.271478 C120.814435,194.271478 121.62887,194.271478 122.443305,194 C121.357392,194.271478 120.542957,194.271478 120,194.271478 L120,194.271478 Z" id="Shape"></path>
                    <path d="M144.800697,189 C143.443305,189.542957 142.357392,190.085913 141,190.357392 C142.085913,190.085913 143.443305,189.542957 144.800697,189 Z" id="Shape"></path>
                    <path d="M153.701045,185.085913 C153.429567,185.085913 153.429567,185.357392 153.158088,185.357392 C151.529218,186.171827 149.900348,186.986262 148,187.800697 C148.814435,187.529218 149.357392,187.25774 150.171827,186.714783 C150.443305,186.443305 150.986262,186.443305 151.25774,186.171827 C151.800697,185.900348 154.51548,184.542957 155.329915,184.271478 L155.329915,184 C154.786958,184.542957 154.244002,184.814435 153.701045,185.085913 Z" id="Shape"></path>
                    <path d="M137.072175,191 C135.714783,191.271478 134.357392,191.814435 133,192.085913 C134.357392,191.814435 135.714783,191.542957 137.072175,191 Z" id="Shape"></path>
                    <path d="M130.343653,193 C128.986262,193.271478 127.62887,193.542957 126,193.542957 C127.62887,193.542957 128.986262,193.271478 130.343653,193 Z" id="Shape"></path>
                    <path d="M257.211693,404.352948 C253.953953,396.751555 248.252908,389.964596 240.922994,384.806508 C233.864557,379.919898 225.991685,377.476593 218.118814,376.933637 L167.080888,219.747684 L155.40732,183.912544 C154.864363,184.184023 151.878102,185.541414 151.335145,185.812893 C151.063667,186.084371 150.52071,186.084371 150.249232,186.355849 C149.434797,186.627328 148.89184,186.898806 148.077405,187.441763 C146.991492,187.984719 145.905578,188.527676 144.819665,188.799154 C143.462273,189.342111 142.37636,189.885068 141.018968,190.156546 C139.933055,190.428024 138.847142,190.970981 137.761228,191.242459 C136.403837,191.513938 135.046445,192.056894 133.689053,192.328373 C132.60314,192.599851 131.517227,192.871329 130.431314,193.142808 C129.073922,193.414286 127.71653,193.685764 126.08766,193.685764 C125.001747,193.957243 123.915834,193.957243 122.82992,194.228721 C122.015485,194.228721 121.20105,194.228721 120.386615,194.500199 C119.843659,194.500199 119.029224,194.500199 118.486267,194.500199 C117.400354,194.500199 116.31444,194.500199 115.228527,194.500199 C113.599657,194.500199 112.242265,194.500199 110.613395,194.228721 C109.527482,194.228721 108.441569,194.228721 107.627134,193.957243 C105.998264,193.685764 104.097916,193.414286 102.469046,193.142808 C101.654611,192.871329 100.840176,192.871329 99.7542623,192.599851 C97.039479,192.056894 94.596174,191.513938 91.8813907,190.699503 C50.3452064,177.668543 26.99807,133.146097 40.3005082,91.6099124 C53.6029463,50.073728 97.853914,26.7265917 139.390098,40.0290298 L150.249232,5.27980367 C89.4380858,-13.7236794 24.5547651,20.2111118 5.27980367,80.7507792 C-13.7236794,141.561925 20.2111118,206.445246 80.7507792,225.720207 C97.3109573,230.878295 114.957049,231.964209 132.060183,229.792382 L183.641066,388.878683 C180.926283,391.321988 178.482978,394.036771 176.311151,397.294511 C161.651321,418.469821 167.080888,447.518002 188.527676,462.177832 C209.702986,476.837662 238.751167,471.408095 253.410997,449.961307 C255.311345,447.246524 256.940215,444.260262 258.026128,441.274001 C262.64126,429.057476 262.098303,415.755038 257.211693,404.352948 Z" id="Shape"></path>
                    <path d="M147.25774,187 C146.171827,187.542957 145.085913,188.085913 144,188.357392 C145.357392,188.085913 146.443305,187.542957 147.25774,187 Z" id="Shape"></path>
                    <path d="M126.25774,194 C125.171827,194.271478 124.085913,194.271478 123,194.542957 C123.814435,194.271478 124.900348,194 126.25774,194 Z" id="Shape"></path>
                    <path d="M133.25774,192 C132.171827,192.271478 131.085913,192.542957 130,192.814435 C131.085913,192.542957 132.171827,192.271478 133.25774,192 Z" id="Shape"></path>
                    <path d="M140.25774,190 C139.171827,190.271478 138.085913,190.814435 137,191.085913 C138.085913,190.814435 139.171827,190.542957 140.25774,190 Z" id="Shape"></path>
                </g>
            </g>
        </g>
    </g>
</svg>