<?xml version="1.0" encoding="UTF-8" standalone="no"?>
<svg width="381px" height="243px" viewBox="0 0 381 243" version="1.1" xmlns="http://www.w3.org/2000/svg" xmlns:xlink="http://www.w3.org/1999/xlink" xmlns:sketch="http://www.bohemiancoding.com/sketch/ns">
    <!-- Generator: Sketch 3.3.3 (12072) - http://www.bohemiancoding.com/sketch -->
    <title>eidolon</title>
    <desc>Created with Sketch.</desc>
    <defs></defs>
    <g id="Page-1" stroke="none" stroke-width="1" fill="none" fill-rule="evenodd" sketch:type="MSPage">
        <g id="SVGs-for-Major-Projects" sketch:type="MSArtboardGroup" transform="translate(-472.000000, -671.000000)">
            <g id="eidolon" sketch:type="MSLayerGroup" transform="translate(472.000000, 672.000000)">
                <g id="open" sketch:type="MSShapeGroup">
                    <rect id="Rectangle-4-Copy" stroke="#93DCDF" x="57.1481481" y="107.631068" width="58.4876543" height="4.67961165"></rect>
                    <rect id="Rectangle-4-Copy-19" stroke="#93DCDF" x="57.1481481" y="201.223301" width="58.4876543" height="4.67961165"></rect>
                    <rect id="Rectangle-4-Copy-7" stroke="#93DCDF" x="143.709877" y="138.048544" width="58.4876543" height="4.67961165"></rect>
                    <rect id="Rectangle-4-Copy-11" fill="#93DCDF" x="155.407407" y="35.0970874" width="14.037037" height="7.01941748"></rect>
                    <rect id="Rectangle-4-Copy-17" fill="#93DCDF" x="174.123457" y="35.0970874" width="14.037037" height="7.01941748"></rect>
                    <rect id="Rectangle-4-Copy-18" fill="#93DCDF" x="192.839506" y="35.0970874" width="14.037037" height="7.01941748"></rect>
                    <rect id="Rectangle-4-Copy-12" stroke="#93DCDF" x="232.611111" y="119.330097" width="58.4876543" height="4.67961165"></rect>
                    <rect id="Rectangle-4-Copy-2" stroke="#93DCDF" x="57.1481481" y="116.990291" width="51.4691358" height="4.67961165"></rect>
                    <rect id="Rectangle-4-Copy-8" stroke="#93DCDF" x="143.709877" y="147.407767" width="65.5061728" height="4.67961165"></rect>
                    <rect id="Rectangle-4-Copy-15" stroke="#93DCDF" x="232.611111" y="128.68932" width="65.5061728" height="4.67961165"></rect>
                    <rect id="Rectangle-4-Copy-22" stroke="#93DCDF" x="369.641975" y="60.8349515" width="4.67901235" height="18.7184466" rx="2"></rect>
                    <rect id="Rectangle-4-Copy-23" stroke="#93DCDF" x="369.641975" y="86.5728155" width="4.67901235" height="18.7184466" rx="2"></rect>
                    <rect id="Rectangle-4-Copy-24" stroke="#93DCDF" x="369.641975" y="112.31068" width="4.67901235" height="18.7184466" rx="2"></rect>
                    <rect id="Rectangle-4-Copy-25" stroke="#93DCDF" x="369.641975" y="138.048544" width="4.67901235" height="18.7184466" rx="2"></rect>
                    <rect id="Rectangle-4-Copy-26" stroke="#93DCDF" x="369.641975" y="163.786408" width="4.67901235" height="18.7184466" rx="2"></rect>
                    <rect id="Rectangle-4-Copy-27" stroke="#93DCDF" x="369.641975" y="189.524272" width="4.67901235" height="18.7184466" rx="2"></rect>
                    <rect id="Rectangle-4-Copy-28" stroke="#93DCDF" x="369.641975" y="215.262136" width="4.67901235" height="18.7184466" rx="2"></rect>
                    <rect id="Rectangle-4-Copy-3" fill="#93DCDF" x="57.1481481" y="126.349515" width="79.5432099" height="11.6990291"></rect>
                    <rect id="Rectangle-4-Copy-20" fill="#93DCDF" x="57.1481481" y="210.582524" width="79.5432099" height="9.3592233"></rect>
                    <rect id="Rectangle-4-Copy-10" fill="#93DCDF" x="232.611111" y="32.7572816" width="79.5432099" height="11.6990291"></rect>
                    <rect id="Rectangle-4-Copy-9" fill="#93DCDF" x="143.709877" y="156.76699" width="79.5432099" height="11.6990291"></rect>
                    <rect id="Rectangle-4-Copy-16" fill="#93DCDF" x="232.611111" y="138.048544" width="79.5432099" height="11.6990291"></rect>
                    <rect id="Rectangle-4-Copy-4" stroke="#93DCDF" x="57.1481481" y="58.4951456" width="79.5432099" height="44.4563107"></rect>
                    <rect id="Rectangle-4-Copy-13" stroke="#93DCDF" x="57.1481481" y="152.087379" width="79.5432099" height="44.4563107"></rect>
                    <rect id="Rectangle-4-Copy-14" stroke="#93DCDF" x="143.709877" y="182.504854" width="79.5432099" height="37.4368932"></rect>
                    <rect id="Rectangle-4-Copy-21" stroke="#93DCDF" x="232.611111" y="163.786408" width="79.5432099" height="56.1553398"></rect>
                    <rect id="Rectangle-4-Copy-5" stroke="#93DCDF" x="143.709877" y="58.4951456" width="79.5432099" height="74.8737864"></rect>
                    <rect id="Rectangle-4-Copy-6" stroke="#93DCDF" x="232.611111" y="58.4951456" width="79.5432099" height="53.815534"></rect>
                    <rect id="Rectangle-3" stroke="#82D7DA" stroke-width="1.5" x="47.7901235" y="23.3980583" width="273.722222" height="196.543689"></rect>
                    <path d="M1.49609375,0.157226562 L371.068464,0.157226562 L371.068464,43.7207036 L378.508149,43.7207036 C378.508149,43.7207036 380.339355,43.7207031 380.339355,45.0712891 C380.339355,46.421875 380.158691,239.336426 380.158691,239.336426 C380.158691,239.336426 380.030298,240.87377 378.62135,240.873767 C377.212402,240.873764 2.72602285,240.873767 2.72602285,240.873767 C2.72602285,240.873767 0.787762523,241.76701 0.787762493,238.935507 C0.787762463,236.104004 1.00634766,1.04443359 1.00634766,1.04443359 L1.49609375,0.157226562 Z" id="Path-41" stroke="#93DCDF"></path>
                </g>
            </g>
        </g>
    </g>
</svg>