<?xml version="1.0" encoding="UTF-8" standalone="no"?>
<svg width="484px" height="243px" viewBox="0 0 484 243" version="1.1" xmlns="http://www.w3.org/2000/svg" xmlns:xlink="http://www.w3.org/1999/xlink">
    <defs></defs>
    <g id="Page-1" stroke="none" stroke-width="1" fill="none" fill-rule="evenodd">
        <g id="SVGs-for-Major-Projects" transform="translate(-472.000000, -936.000000)">
            <g id="emergence" transform="translate(472.000000, 937.000000)">
                <g id="open">
                    <rect id="Rectangle-4-Copy-17" fill="#93DCDF" x="184" y="228" width="15" height="8.02000046"></rect>
                    <rect id="Rectangle-4-Copy" stroke="#93DCDF" x="57" y="125" width="58.4876543" height="4.67961165"></rect>
                    <rect id="Rectangle-4-Copy-57" stroke="#93DCDF" x="57" y="212" width="58.4876543" height="4.67961165"></rect>
                    <rect id="Rectangle-4-Copy-49" stroke="#93DCDF" x="147" y="125" width="58.4876543" height="4.67961165"></rect>
                    <rect id="Rectangle-4-Copy-58" stroke="#93DCDF" x="147" y="212" width="58.4876543" height="4.67961165"></rect>
                    <rect id="Rectangle-4-Copy-52" stroke="#93DCDF" x="237" y="125" width="58.4876543" height="4.67961165"></rect>
                    <rect id="Rectangle-4-Copy-59" stroke="#93DCDF" x="237" y="212" width="58.4876543" height="4.67961165"></rect>
                    <rect id="Rectangle-4-Copy-54" stroke="#93DCDF" x="327" y="125" width="33" height="4.67961165"></rect>
                    <rect id="Rectangle-4-Copy-60" stroke="#93DCDF" x="327" y="212" width="33" height="4.67961165"></rect>
                    <rect id="Rectangle-4-Copy-4" stroke="#93DCDF" x="57" y="76" width="79.5432099" height="44.4563107"></rect>
                    <rect id="Rectangle-4-Copy-61" stroke="#93DCDF" x="57" y="163" width="79.5432099" height="44.4563107"></rect>
                    <rect id="Rectangle-4-Copy-51" stroke="#93DCDF" x="147" y="76" width="79.5432099" height="44.4563107"></rect>
                    <rect id="Rectangle-4-Copy-62" stroke="#93DCDF" x="147" y="163" width="79.5432099" height="44.4563107"></rect>
                    <rect id="Rectangle-4-Copy-53" stroke="#93DCDF" x="237" y="76" width="79.5432099" height="44.4563107"></rect>
                    <rect id="Rectangle-4-Copy-63" stroke="#93DCDF" x="237" y="163" width="79.5432099" height="44.4563107"></rect>
                    <rect id="Rectangle-4-Copy-55" stroke="#93DCDF" x="327" y="76" width="33" height="44.4563107"></rect>
                    <rect id="Rectangle-4-Copy-64" stroke="#93DCDF" x="327" y="163" width="33" height="44.4563107"></rect>
                    <rect id="Rectangle-4-Copy-2" stroke="#93DCDF" x="57.1481481" y="59.8639333" width="107.851852" height="9.80596963"></rect>
                    <rect id="Rectangle-4-Copy-65" stroke="#93DCDF" x="57" y="146" width="107.851852" height="9.80596963"></rect>
                    <rect id="Rectangle-3" stroke="#82D7DA" stroke-width="1.5" x="21" y="12" width="339" height="212"></rect>
                    <path d="M1.49609375,0.157226563 L371.068464,0.157226563 C371.068464,0.157226563 378.62135,-0.306152344 378.62135,1.04443359 C378.62135,2.39501953 380.158691,239.336426 380.158691,239.336426 C380.158691,239.336426 380.030298,240.87377 378.62135,240.873767 C377.212402,240.873764 2.72602285,240.873767 2.72602285,240.873767 C2.72602285,240.873767 0.787762523,241.76701 0.787762493,238.935507 C0.787762463,236.104004 1.00634766,1.04443359 1.00634766,1.04443359 L1.49609375,0.157226563 Z" id="Path-41" stroke="#93DCDF"></path>
                    <rect id="Rectangle-4-Copy-10" fill="#93DCDF" x="289" y="29.7572816" width="49.154321" height="7.22950248"></rect>
                    <rect id="Rectangle-4-Copy-56" fill="#93DCDF" x="404" y="229" width="79.5432099" height="11.6990291"></rect>
                </g>
            </g>
        </g>
    </g>
</svg>