<?xml version="1.0" encoding="UTF-8" standalone="no"?>
<svg width="382px" height="307px" viewBox="0 0 382 307" version="1.1" xmlns="http://www.w3.org/2000/svg" xmlns:xlink="http://www.w3.org/1999/xlink" xmlns:sketch="http://www.bohemiancoding.com/sketch/ns">
    <!-- Generator: Sketch 3.3.3 (12072) - http://www.bohemiancoding.com/sketch -->
    <title>force</title>
    <desc>Created with Sketch.</desc>
    <defs></defs>
    <g id="Page-1" stroke="none" stroke-width="1" fill="none" fill-rule="evenodd" sketch:type="MSPage">
        <g id="SVGs-for-Major-Projects" sketch:type="MSArtboardGroup" transform="translate(-39.000000, -38.000000)" stroke="#82D7DA">
            <g id="force" sketch:type="MSLayerGroup" transform="translate(40.000000, 39.000000)">
                <rect id="Window" stroke-width="1.5" sketch:type="MSShapeGroup" x="0" y="0" width="380.061993" height="304.581498"></rect>
                <path d="M0,9.5 L380.061993,9.5" id="titlebar-bottom" sketch:type="MSShapeGroup"></path>
                <path d="M0,26.2083333 L380.061993,26.2083333" id="artsy-header-bottom" stroke-width="0.5" sketch:type="MSShapeGroup"></path>
                <g id="paging-circles" transform="translate(185.601539, 151.709317)" stroke-width="0.5" sketch:type="MSShapeGroup">
                    <ellipse id="Oval-16-Copy-3" cx="0.542945704" cy="1.184193" rx="0.542945704" ry="0.546048251"></ellipse>
                    <ellipse id="Oval-16-Copy-4" cx="0.542945704" cy="1.184193" rx="0.542945704" ry="0.546048251"></ellipse>
                    <ellipse id="Oval-16-Copy-5" cx="4.88651134" cy="1.184193" rx="0.542945704" ry="0.546048251"></ellipse>
                    <ellipse id="Oval-16-Copy-6" cx="9.23007697" cy="1.184193" rx="0.542945704" ry="0.546048251"></ellipse>
                </g>
                <rect id="artwork4" stroke-width="0.75" sketch:type="MSShapeGroup" x="288.847115" y="277.392512" width="54.2945704" height="27.2810825"></rect>
                <rect id="artwork3" stroke-width="0.75" sketch:type="MSShapeGroup" x="206.319368" y="277.392512" width="54.2945704" height="27.2810825"></rect>
                <rect id="artwork2" stroke-width="0.75" sketch:type="MSShapeGroup" x="123.791621" y="277.392512" width="54.2945704" height="27.2810825"></rect>
                <rect id="artwork1" stroke-width="0.75" sketch:type="MSShapeGroup" x="36.9203079" y="277.392512" width="54.2945704" height="27.2810825"></rect>
                <path d="M162.883711,263 L218.985981,263" id="artworks-title" stroke-width="2" sketch:type="MSShapeGroup"></path>
                <g id="traffic-lights" transform="translate(6.000000, 4.000000)" sketch:type="MSShapeGroup">
                    <ellipse id="Oval-16" cx="1.60123986" cy="1.46048251" rx="1.08589141" ry="1.0920965"></ellipse>
                    <ellipse id="Oval-16-Copy" cx="8.1165883" cy="1.46048251" rx="1.08589141" ry="1.0920965"></ellipse>
                    <ellipse id="Oval-16-Copy-2" cx="14.6319368" cy="1.46048251" rx="1.08589141" ry="1.0920965"></ellipse>
                </g>
                <path d="M0.918660459,145.208333 L380.526741,145.208333" id="herounit-bottom" stroke-width="0.5" sketch:type="MSShapeGroup"></path>
                <g id="hero-unit-copy" transform="translate(35.920308, 63.973211)" sketch:type="MSShapeGroup">
                    <path d="M7.81597009e-14,0 L69.4970501,0" id="Path-10-Copy-6" stroke-width="8"></path>
                    <path d="M9.9475983e-14,16.5 L153.600521,16.5" id="Path-10-Copy-7" stroke-width="3"></path>
                    <path d="M9.9475983e-14,25.5 L153.600521,25.5" id="Path-10-Copy-8" stroke-width="3"></path>
                    <rect id="Rectangle-4-Copy-18" x="1.42108547e-14" y="39.6838601" width="40.1779821" height="13.105158"></rect>
                </g>
                <g id="featured-artworks" transform="translate(36.000000, 164.000000)" sketch:type="MSShapeGroup">
                    <path d="M37.8406158,3 L83.053571,3" id="Path-10-Copy-9" stroke-width="2"></path>
                    <path d="M37.8406158,12 L76.594577,12" id="Path-10-Copy-10" stroke-width="2"></path>
                    <rect id="Rectangle-21" stroke-width="0.75" x="0.9203079" y="0.998668" width="32.5767423" height="32.7628951"></rect>
                    <path d="M150.773322,3 L195.986277,3" id="Path-10-Copy-9" stroke-width="2"></path>
                    <path d="M150.773322,12 L189.527284,12" id="Path-10-Copy-10" stroke-width="2"></path>
                    <rect id="Rectangle-21" stroke-width="0.75" x="113.853014" y="0.998668" width="32.5767423" height="32.7628951"></rect>
                    <path d="M261.534246,3 L306.747201,3" id="Path-10-Copy-9" stroke-width="2"></path>
                    <path d="M261.534246,12 L300.288207,12" id="Path-10-Copy-10" stroke-width="2"></path>
                    <rect id="Rectangle-21" stroke-width="0.75" x="224.613938" y="0.998668" width="32.5767423" height="32.7628951"></rect>
                    <path d="M37.8406158,49 L83.053571,49" id="Path-10-Copy-16" stroke-width="2"></path>
                    <path d="M37.8406158,58 L76.594577,58" id="Path-10-Copy-11" stroke-width="2"></path>
                    <rect id="Rectangle-21-Copy" stroke-width="0.75" x="0.9203079" y="46.866721" width="32.5767423" height="32.7628951"></rect>
                    <path d="M150.773322,49 L195.986277,49" id="Path-10-Copy-12" stroke-width="2"></path>
                    <path d="M150.773322,58 L189.527284,58" id="Path-10-Copy-13" stroke-width="2"></path>
                    <rect id="Rectangle-21-Copy-2" stroke-width="0.75" x="113.853014" y="44.682528" width="32.5767423" height="32.7628951"></rect>
                    <path d="M261.534246,49 L306.747201,49" id="Path-10-Copy-14" stroke-width="2"></path>
                    <path d="M261.534246,58 L300.288207,58" id="Path-10-Copy-15" stroke-width="2"></path>
                    <rect id="Rectangle-21-Copy-3" stroke-width="0.75" x="224.613938" y="46.866721" width="32.5767423" height="32.7628951"></rect>
                </g>
                <path d="M11.9316425,163.974203 L7.32459543,159.367156 L11.9579685,154.733783" id="left-arrow" stroke-width="1.5" sketch:type="MSShapeGroup"></path>
                <path d="M370.302133,154.733783 L374.90918,159.34083 L370.275807,163.974203" id="right-arrow" stroke-width="1.5" sketch:type="MSShapeGroup"></path>
                <path d="M351.982256,18 L373.544729,18" id="user-settings" stroke-width="2" sketch:type="MSShapeGroup"></path>
                <g id="title" transform="translate(121.619838, 17.289351)" stroke-width="2" sketch:type="MSShapeGroup">
                    <path d="M119.598115,0.60391846 L134.716584,0.60391846" id="Path-10-Copy-29"></path>
                    <path d="M95.7085037,0.60391846 L110.826973,0.60391846" id="Path-10-Copy-30"></path>
                    <path d="M71.8188927,0.60391846 L86.9373624,0.60391846" id="Path-10-Copy-31"></path>
                    <path d="M47.9292817,0.60391846 L63.0477514,0.60391846" id="Path-10-Copy-32"></path>
                    <path d="M24.0396707,0.60391846 L39.1581404,0.60391846" id="Path-10-Copy-33"></path>
                    <path d="M0.150059723,0.60391846 L15.2685294,0.60391846" id="Path-10-Copy-34"></path>
                </g>
                <rect id="artsy-favicon" stroke-width="0.5" sketch:type="MSShapeGroup" x="4.34356563" y="13.289351" width="8.68713127" height="8.73677202"></rect>
            </g>
        </g>
    </g>
</svg>