<svg height="618" viewBox="0 0 1101 618" width="1101" xmlns="http://www.w3.org/2000/svg"><g fill="none" fill-rule="evenodd" transform=""><path d="m17.9731021 23.4462339c12.2152243 9.1570745 32.0214355 5.4157665 32.0214355 5.4157665l-3.453126-11.0825205c-.128434-.412254.1036686-.849935.5184532-.9776011.2179038-.0670602.4543934-.0367573.6480508.0830635l23.9212567 14.8000112c.3686188.2280611.4814388.7099383.2519621 1.0763238-.0325331.0519479-.0711041.0999262-.1149113.1429348l-21.2553393 20.8702675c-.3088831.3032948-.8066749.3002942-1.1118315-.0067201-.1801504-.1812236-.2600914-.4383686-.2142086-.6890122l1.8430939-10.0702408c-.0007233.0003282-22.587386 2.1495064-36.424797-9.886376-13.85587109-12.0262399-14.60306198-33.12277125-14.6031406-33.1221305.00007862-.00026568 5.77946702 14.2767664 17.9731021 23.4462339z" fill="#c7f4f4" transform="matrix(0 1 -1 0 567 28)"/><g transform="translate(626 144)"><path d="m0 8h.99824564 28.00175436" stroke="#c7f4f4" stroke-width="6"/><path d="m40.2835353 9.07989948c.9324575-.59631093.9356445-1.56108391 0-2.1594329l-9.914219-6.34018907c-1.860822-1.19000432-3.3693163-.37037918-3.3693163 1.83629677v11.16721752c0 2.204163 1.5041128 3.0291031 3.3693163 1.8362967z" fill="#c7f4f4"/></g><g transform="matrix(0 1 -1 0 754 204.5)"><path d="m0 8h.99824564 28.00175436" stroke="#c7f4f4" stroke-width="6"/><path d="m40.2835353 9.07989948c.9324575-.59631093.9356445-1.56108391 0-2.1594329l-9.914219-6.34018907c-1.860822-1.19000432-3.3693163-.37037918-3.3693163 1.83629677v11.16721752c0 2.204163 1.5041128 3.0291031 3.3693163 1.8362967z" fill="#c7f4f4"/></g><g transform="matrix(0 1 -1 0 789 205)"><path d="m0 8h.99824564 28.00175436" stroke="#c7f4f4" stroke-width="6"/><path d="m40.2835353 9.07989948c.9324575-.59631093.9356445-1.56108391 0-2.1594329l-9.914219-6.34018907c-1.860822-1.19000432-3.3693163-.37037918-3.3693163 1.83629677v11.16721752c0 2.204163 1.5041128 3.0291031 3.3693163 1.8362967z" fill="#c7f4f4"/></g><g transform="matrix(0 1 -1 0 772.5 497.5)"><path d="m0 8h.99824564 28.00175436" stroke="#c7f4f4" stroke-width="6"/><path d="m40.2835353 9.07989948c.9324575-.59631093.9356445-1.56108391 0-2.1594329l-9.914219-6.34018907c-1.860822-1.19000432-3.3693163-.37037918-3.3693163 1.83629677v11.16721752c0 2.204163 1.5041128 3.0291031 3.3693163 1.8362967z" fill="#c7f4f4"/></g><g transform="matrix(0 1 -1 0 540 351)"><path d="m0 8h.99824564 28.00175436" stroke="#c7f4f4" stroke-width="6"/><path d="m40.2835353 9.07989948c.9324575-.59631093.9356445-1.56108391 0-2.1594329l-9.914219-6.34018907c-1.860822-1.19000432-3.3693163-.37037918-3.3693163 1.83629677v11.16721752c0 2.204163 1.5041128 3.0291031 3.3693163 1.8362967z" fill="#c7f4f4"/></g><g transform="matrix(0 -1 1 0 288 243)"><path d="m0 8h.99824564 28.00175436" stroke="#c7f4f4" stroke-width="6"/><path d="m40.2835353 9.07989948c.9324575-.59631093.9356445-1.56108391 0-2.1594329l-9.914219-6.34018907c-1.860822-1.19000432-3.3693163-.37037918-3.3693163 1.83629677v11.16721752c0 2.204163 1.5041128 3.0291031 3.3693163 1.8362967z" fill="#c7f4f4"/></g><g transform="translate(861 144)"><path d="m0 8h.99824564 28.00175436" stroke="#c7f4f4" stroke-width="6"/><path d="m40.2835353 9.07989948c.9324575-.59631093.9356445-1.56108391 0-2.1594329l-9.914219-6.34018907c-1.860822-1.19000432-3.3693163-.37037918-3.3693163 1.83629677v11.16721752c0 2.204163 1.5041128 3.0291031 3.3693163 1.8362967z" fill="#c7f4f4"/></g><g transform="translate(632 437)"><path d="m0 8h.99824564 28.00175436" stroke="#c7f4f4" stroke-width="6"/><path d="m40.2835353 9.07989948c.9324575-.59631093.9356445-1.56108391 0-2.1594329l-9.914219-6.34018907c-1.860822-1.19000432-3.3693163-.37037918-3.3693163 1.83629677v11.16721752c0 2.204163 1.5041128 3.0291031 3.3693163 1.8362967z" fill="#c7f4f4"/></g><g transform="translate(392 144)"><path d="m0 8h.99824564 28.00175436" stroke="#c7f4f4" stroke-width="6"/><path d="m40.2835353 9.07989948c.9324575-.59631093.9356445-1.56108391 0-2.1594329l-9.914219-6.34018907c-1.860822-1.19000432-3.3693163-.37037918-3.3693163 1.83629677v11.16721752c0 2.204163 1.5041128 3.0291031 3.3693163 1.8362967z" fill="#c7f4f4"/></g><g transform="translate(861 437)"><path d="m0 8h.99824564 28.00175436" stroke="#c7f4f4" stroke-width="6"/><path d="m40.2835353 9.07989948c.9324575-.59631093.9356445-1.56108391 0-2.1594329l-9.914219-6.34018907c-1.860822-1.19000432-3.3693163-.37037918-3.3693163 1.83629677v11.16721752c0 2.204163 1.5041128 3.0291031 3.3693163 1.8362967z" fill="#c7f4f4"/></g><g transform="matrix(-1 0 0 -1 667 307)"><path d="m0 8h.99824564 28.00175436" stroke="#c7f4f4" stroke-width="6"/><path d="m40.2835353 9.07989948c.9324575-.59631093.9356445-1.56108391 0-2.1594329l-9.914219-6.34018907c-1.860822-1.19000432-3.3693163-.37037918-3.3693163 1.83629677v11.16721752c0 2.204163 1.5041128 3.0291031 3.3693163 1.8362967z" fill="#c7f4f4"/></g><g transform="matrix(-1 0 0 -1 433 307)"><path d="m0 8h.99824564 28.00175436" stroke="#c7f4f4" stroke-width="6"/><path d="m40.2835353 9.07989948c.9324575-.59631093.9356445-1.56108391 0-2.1594329l-9.914219-6.34018907c-1.860822-1.19000432-3.3693163-.37037918-3.3693163 1.83629677v11.16721752c0 2.204163 1.5041128 3.0291031 3.3693163 1.8362967z" fill="#c7f4f4"/></g><g transform="matrix(-1 0 0 -1 200 161)"><path d="m0 8h.99824564 28.00175436" stroke="#c7f4f4" stroke-width="6"/><path d="m40.2835353 9.07989948c.9324575-.59631093.9356445-1.56108391 0-2.1594329l-9.914219-6.34018907c-1.860822-1.19000432-3.3693163-.37037918-3.3693163 1.83629677v11.16721752c0 2.204163 1.5041128 3.0291031 3.3693163 1.8362967z" fill="#c7f4f4"/></g><g transform="translate(583)"><rect height="52" rx="8" stroke="#c7f4f4" stroke-width="3" width="123" x="1.5" y="1.5"/><text fill="#c7f4f4" font-family="AvantGardeGothicITCW01Dm, Avant Garde Gothic ITCW01Dm" font-size="16"><tspan x="42.84" y="32">()()()</tspan></text></g><g transform="translate(701 125)"><rect height="52" rx="8" stroke="#c7f4f4" stroke-width="3" width="123" x="1.5" y="1.5"/><text fill="#c7f4f4" font-family="AvantGardeGothicITCW01Dm, Avant Garde Gothic ITCW01Dm" font-size="16"><tspan x="42.84" y="32">()()()</tspan></text></g><g transform="translate(701 271)"><rect height="52" rx="8" stroke="#c7f4f4" stroke-width="3" width="123" x="1.5" y="1.5"/><text fill="#c7f4f4" font-family="AvantGardeGothicITCW01Dm, Avant Garde Gothic ITCW01Dm" font-size="16"><tspan x="42.84" y="32">()()()</tspan></text></g><g transform="translate(701 563)"><rect height="52" rx="8" stroke="#c7f4f4" stroke-width="3" width="123" x="1.5" y="1.5"/><text fill="#c7f4f4" font-family="AvantGardeGothicITCW01Dm, Avant Garde Gothic ITCW01Dm" font-size="16"><tspan x="42.84" y="32">()()()</tspan></text></g><g transform="translate(701 417)"><rect height="52" rx="8" stroke="#c7f4f4" stroke-width="3" width="123" x="1.5" y="1.5"/><text fill="#c7f4f4" font-family="AvantGardeGothicITCW01Dm, Avant Garde Gothic ITCW01Dm" font-size="16"><tspan x="42.84" y="32">()()()</tspan></text></g><g transform="translate(936 417)"><rect height="52" rx="8" stroke="#c7f4f4" stroke-width="3" width="123" x="1.5" y="1.5"/><text fill="#c7f4f4" font-family="AvantGardeGothicITCW01Dm, Avant Garde Gothic ITCW01Dm" font-size="16"><tspan x="42.84" y="32">()()()</tspan></text></g><g transform="translate(469 417)"><rect height="52" rx="8" stroke="#c7f4f4" stroke-width="3" width="123" x="1.5" y="1.5"/><text fill="#c7f4f4" font-family="AvantGardeGothicITCW01Dm, Avant Garde Gothic ITCW01Dm" font-size="16"><tspan x="42.84" y="32">()()()</tspan></text></g><g transform="translate(466 271)"><rect height="52" rx="8" stroke="#c7f4f4" stroke-width="3" width="123" x="1.5" y="1.5"/><text fill="#c7f4f4" font-family="AvantGardeGothicITCW01Dm, Avant Garde Gothic ITCW01Dm" font-size="16"><tspan x="42.84" y="32">()()()</tspan></text></g><g transform="translate(233 271)"><rect height="52" rx="8" stroke="#c7f4f4" stroke-width="3" width="123" x="1.5" y="1.5"/><text fill="#c7f4f4" font-family="AvantGardeGothicITCW01Dm, Avant Garde Gothic ITCW01Dm" font-size="16"><tspan x="42.84" y="32">()()()</tspan></text></g><g transform="translate(0 125)"><rect height="52" rx="8" stroke="#c7f4f4" stroke-width="3" width="123" x="1.5" y="1.5"/><text fill="#c7f4f4" font-family="AvantGardeGothicITCW01Dm, Avant Garde Gothic ITCW01Dm" font-size="16"><tspan x="42.84" y="32">()()()</tspan></text></g><g transform="translate(233 125)"><rect height="52" rx="8" stroke="#c7f4f4" stroke-width="3" width="123" x="1.5" y="1.5"/><text fill="#c7f4f4" font-family="AvantGardeGothicITCW01Dm, Avant Garde Gothic ITCW01Dm" font-size="16"><tspan x="42.84" y="32">()()()</tspan></text></g><g transform="translate(936 125)"><rect height="52" rx="8" stroke="#c7f4f4" stroke-width="3" width="123" x="1.5" y="1.5"/><text fill="#c7f4f4" font-family="AvantGardeGothicITCW01Dm, Avant Garde Gothic ITCW01Dm" font-size="16"><tspan x="42.84" y="32">()()()</tspan></text></g><g transform="translate(466 125)"><rect height="52" rx="8" stroke="#c7f4f4" stroke-width="3" width="123" x="1.5" y="1.5"/><text fill="#c7f4f4" font-family="AvantGardeGothicITCW01Dm, Avant Garde Gothic ITCW01Dm" font-size="16"><tspan x="42.84" y="32">()()()</tspan></text></g><path d="m0 8h.99824564 28.00175436" stroke="#c7f4f4" stroke-width="6" transform="translate(1090 437)"/></g></svg>