<?xml version="1.0" encoding="UTF-8"?>
<svg width="1406px" height="999px" viewBox="0 0 1406 999" version="1.1" xmlns="http://www.w3.org/2000/svg" xmlns:xlink="http://www.w3.org/1999/xlink">
    <!-- Generator: Sketch 47.1 (45422) - http://www.bohemiancoding.com/sketch -->
    <title>What is AR Copy 2</title>
    <desc>Created with Sketch.</desc>
    <defs>
        <linearGradient x1="91.6556038%" y1="133.374181%" x2="26.7665013%" y2="39.8116945%" id="linearGradient-1">
            <stop stop-color="#BAEEF0" stop-opacity="0" offset="0%"></stop>
            <stop stop-color="#84D9DC" offset="100%"></stop>
        </linearGradient>
    </defs>
    <g id="Page-1" stroke="none" stroke-width="1" fill="none" fill-rule="evenodd" opacity="0.426970109">
        <g id="What-is-AR-Copy-2">
            <polyline id="Path-11" stroke="#7FD7DA" points="0 141.453125 703 152.296875 1406 -1"></polyline>
            <path d="M432.46973,840 L703,840" id="Path-11-Copy" stroke="#7FD7DA"></path>
            <path d="M-1.50091575,840 L135,840" id="Path-11-Copy-2" stroke="#7FD7DA"></path>
            <path d="M701.507812,153.203125 L701.507812,840.5" id="Path-12" stroke="#7FD7DA"></path>
            <path d="M183,305 C156.490332,305 135,326.490332 135,353 L135,855 C135,881.509668 156.490332,903 183,903 L384,903 C410.509668,903 432,881.509668 432,855 L432,353 C432,326.490332 410.509668,305 384,305 L183,305 Z" id="Rectangle" stroke="#85D9DC" stroke-width="2"></path>
            <path d="M361.523438,324.121094 L391.804688,324.121094 C405.68099,325.936198 412.619141,333.057943 412.619141,345.486328 C412.619141,357.914714 414.080078,531.034505 417.001953,864.845703 C417.001953,881.633464 407.755534,890.027344 389.262695,890.027344 C370.769857,890.027344 299.892578,890.027344 176.630859,890.027344 C158.589193,889.582031 149.568359,881.188151 149.568359,864.845703 C149.568359,848.503255 150.638021,675.383464 152.777344,345.486328 C156.609375,331.242839 164.560547,324.121094 176.630859,324.121094 C188.701172,324.121094 197.695312,324.121094 203.613281,324.121094 C207.276693,324.134115 209.386068,324.727214 209.941406,325.900391 C210.774414,327.660156 210.798828,328.277832 210.798828,333.147461 C210.798828,338.01709 218.239212,345.486328 225.027344,345.486328 C232.295573,345.486328 272.414388,345.152995 345.383789,344.486328 C352.446289,341.890625 355.884766,338.929036 355.699219,335.601563 C355.628708,334.337074 355.699219,333.080078 355.699219,328.600586 C355.699219,325.614258 357.640625,324.121094 361.523438,324.121094 Z" id="Path-14" stroke="#84D9DC" fill-opacity="0.0543195199" fill="#84D9DC"></path>
            <path d="M361.523437,324.121094 L391.804687,324.121094 C405.68099,325.936198 412.619141,333.057943 412.619141,345.486328 C412.619141,357.914714 413.505534,459.749674 415.27832,650.991211 L243.714844,650.976562 C241.407515,501.568794 240.216667,419.664202 240.142301,405.262786 C239.936519,365.411814 240.31682,345.486328 241.283203,345.486328 C248.551432,345.486328 283.251628,345.152995 345.383789,344.486328 C352.446289,341.890625 355.884766,338.929036 355.699219,335.601563 C355.628708,334.337074 355.699219,333.080078 355.699219,328.600586 C355.699219,325.614258 357.640625,324.121094 361.523437,324.121094 Z" id="Path-14" stroke="#84D9DC" fill-opacity="0.35326087" fill="#84D9DC"></path>
            <polyline id="Path-15" stroke="url(#linearGradient-1)" points="702.753906 840.316406 1386.39196 933.280868 1406 935.947266"></polyline>
        </g>
        <path d="" id="Path-13" stroke="#979797"></path>
    </g>
</svg>