<?xml version="1.0" encoding="UTF-8"?>
<svg width="1040px" height="643px" viewBox="0 0 1040 643" version="1.1" xmlns="http://www.w3.org/2000/svg" xmlns:xlink="http://www.w3.org/1999/xlink">
    <!-- Generator: Sketch 46.1 (44463) - http://www.bohemiancoding.com/sketch -->
    <title>Wikidata-logo-en</title>
    <desc>Created with Sketch.</desc>
    <defs></defs>
    <g id="General-Symbols" stroke="none" stroke-width="1" fill="none" fill-rule="evenodd" opacity="0.298233696">
        <g id="Ruby-Copy" transform="translate(-594.000000, -410.000000)" fill-rule="nonzero">
            <g id="Wikidata-logo-en" transform="translate(594.000000, 410.000000)">
                <path d="M0.540158025,641.996866 L37.9837146,641.996866 L37.9837146,0.0674035556 L0.540158025,0.0674035556 L0.540158025,641.996866 Z M77.9271486,641.996866 L192.749902,641.996866 L192.749902,0.0674035556 L77.9271486,0.0674035556 L77.9271486,641.996866 Z M230.201252,0.0674035556 L230.201252,641.97396 L345.024006,641.97396 L345.024006,0.0674035556 L230.201252,0.0674035556 Z" id="Shape" fill="#BCEBED"></path>
                <path d="M924.417905,642.042588 L961.869242,642.042588 L961.869242,0.0673265185 L924.417905,0.0673265185 L924.417905,642.042588 Z M1001.81268,0.0673265185 L1001.81268,642.042588 L1039.25623,642.042588 L1039.25623,0.0673265185 L1001.81268,0.0673265185 Z M383.713611,642.042678 L421.157167,642.042678 L421.157167,0.0674035556 L383.713611,0.0674035556 L383.713611,642.042678 Z M461.108382,0.0674035556 L461.108382,642.019772 L498.559732,642.019772 L498.559732,0.0674035556 L461.108382,0.0674035556 Z" id="Shape" fill="#80D7DA"></path>
                <path d="M537.23375,642.042678 L652.072091,642.042678 L652.072091,0.0674035556 L537.23375,0.0674035556 L537.23375,642.042678 Z M689.507854,642.042678 L729.443494,642.042678 L729.443494,0.0674035556 L689.507854,0.0674035556 L689.507854,642.042678 L689.507854,642.042678 Z M766.894844,0.0674035556 L766.894844,642.019772 L881.717598,642.019772 L881.717598,0.0674035556 L766.894844,0.0674035556 Z" id="Shape" fill="#BCEBED"></path>
            </g>
        </g>
    </g>
</svg>