<?xml version="1.0" encoding="UTF-8" standalone="no"?>
<svg width="2053px" height="1804px" viewBox="0 0 2053 1804" version="1.1" xmlns="http://www.w3.org/2000/svg" xmlns:xlink="http://www.w3.org/1999/xlink">
    <!-- Generator: Sketch 42 (36781) - http://www.bohemiancoding.com/sketch -->
    <title>Swift Copy</title>
    <desc>Created with Sketch.</desc>
    <defs>
        <linearGradient x1="50%" y1="0%" x2="50%" y2="100%" id="linearGradient-1">
            <stop stop-color="#B5E9EC" offset="0%"></stop>
            <stop stop-color="#82D7DA" offset="100%"></stop>
        </linearGradient>
    </defs>
    <g id="General-Symbols" stroke="none" stroke-width="1" fill="none" fill-rule="evenodd">
        <g id="Swift-Copy">
            <g id="Swift_logo-3" transform="translate(782.000000, 657.000000)" fill-rule="nonzero" fill="url(#linearGradient-1)">
                <path d="M338.54482,373.894663 C285.675866,404.39728 212.982471,407.531266 139.847275,376.225352 C80.6311014,351.062955 31.4970727,307.017447 2.84217094e-14,256.692653 C15.1186855,269.273851 32.7567743,279.343336 51.6545648,288.145649 C127.182289,323.501985 202.694153,321.080783 255.834984,288.236161 C255.801,288.202219 255.778343,288.179591 255.755687,288.145649 C180.162259,230.263085 115.908412,154.76458 68.0352177,93.1144453 C57.9519403,83.0472237 50.3925975,70.4637625 42.8332548,59.1395525 C100.787461,111.987374 192.762674,178.672252 225.512651,197.555363 C156.22906,124.568573 94.4900853,33.9771556 97.0049573,36.4888697 C206.617127,147.219256 308.673351,210.136562 308.673351,210.136562 C312.049171,212.037318 314.654669,213.621282 316.750395,215.035536 C318.959405,209.423778 320.896536,203.597054 322.527804,197.555363 C340.165893,133.3822 320.012932,60.3954095 275.912046,0.00113140274 C377.956943,61.6569236 438.438482,177.416395 413.23312,274.309725 C412.576082,276.923265 411.862402,279.502864 411.092081,282.037206 C411.386615,282.387941 411.68115,282.749989 411.975684,283.123352 C462.36375,346.040659 448.509298,412.725536 442.21079,400.144337 C414.875717,346.7195 364.272414,363.056956 338.545953,373.895794 L338.54482,373.894663 Z" id="Shape"></path>
            </g>
            <g id="artsy_react_logo" transform="translate(221.000000, 190.000000)" stroke-width="48" stroke="#82D7DA">
                <g id="React.js_logo">
                    <g id="Page-1">
                        <g id="React.js_logo">
                            <g id="Layer_2">
                                <path d="M1335.92025,483.474621 C1506.13528,542.044683 1610.79039,630.829102 1610.79039,711.221143 C1610.79039,794.998269 1499.87394,889.313757 1317.08832,949.847227 C1178.89267,995.613225 997.047301,1019.50038 805.586838,1019.50038 C609.290381,1019.50038 423.40853,997.076803 283.688716,949.34141 C106.879968,888.936638 0.383286245,793.397013 0.383286245,711.221143 C0.383286245,631.481576 100.307208,543.385548 268.12969,484.902283 C409.930628,435.490809 601.924099,405.934911 805.586838,405.934911 C1007.27925,405.934911 1194.64633,434.862278 1335.92025,483.474621 Z" id="Shape"></path>
                                <path d="M539.702967,559.45797 C640.462333,384.822273 759.137336,237.039794 871.844454,139.001011 C1007.64157,20.8791838 1136.87192,-25.3836522 1206.54617,14.7764522 C1279.15496,56.6276029 1305.48792,199.785894 1266.63528,388.291163 C1237.25998,530.811945 1167.11859,700.197915 1071.47071,865.977318 C973.406325,1035.94393 861.112439,1185.68683 749.938467,1282.81873 C609.257442,1405.73535 473.253708,1450.21435 402.031338,1409.16233 C332.923032,1369.32547 306.491253,1238.79765 339.645513,1064.2697 C367.658348,916.804482 437.958435,735.80267 539.702967,559.45797 L539.702967,559.45797 Z" id="Shape"></path>
                                <path d="M341.391262,368.81869 C306.823634,192.23455 331.264121,57.2202173 400.872496,16.9433858 C473.409418,-25.030478 610.646855,23.6596829 754.633723,151.448908 C863.498994,248.063021 975.286823,393.394232 1071.21319,559.015005 C1169.56204,728.817003 1243.27578,900.842801 1271.94738,1045.6233 C1308.23082,1228.83395 1278.86151,1368.81966 1207.70801,1409.9914 C1138.66558,1449.94199 1012.32485,1407.64488 877.605725,1291.7708 C763.778693,1193.8667 641.998472,1042.59438 539.957493,866.420282 C438.907667,691.952194 370.080836,515.380025 341.391262,368.81869 Z" id="Shape"></path>
                            </g>
                        </g>
                    </g>
                </g>
            </g>
        </g>
    </g>
</svg>