<?xml version="1.0" encoding="UTF-8" standalone="no"?>
<svg width="537px" height="604px" viewBox="0 0 537 604" version="1.1" xmlns="http://www.w3.org/2000/svg" xmlns:xlink="http://www.w3.org/1999/xlink">
    <!-- Generator: Sketch 42 (36781) - http://www.bohemiancoding.com/sketch -->
    <title>GraphQL_Logo</title>
    <desc>Created with Sketch.</desc>
    <defs></defs>
    <g id="General-Symbols" stroke="none" stroke-width="1" fill="none" fill-rule="evenodd">
        <g id="GraphQL" transform="translate(-759.000000, -600.000000)" fill-rule="nonzero" fill="#8FDCDF">
            <g id="GraphQL_Logo" transform="translate(759.000000, 600.000000)">
                <g id="Group">
                    <g>
                        <rect id="Rectangle-path" transform="translate(161.246392, 240.090154) rotate(-149.999272) translate(-161.246392, -240.090154) " x="148.464673" y="-6.66615179" width="25.5634376" height="493.512612"></rect>
                        <rect id="Rectangle-path" x="21.792" y="413.246939" width="493.262" height="25.577551"></rect>
                        <rect id="Rectangle-path" transform="translate(161.305066, 487.803805) rotate(-149.999272) translate(-161.305066, -487.803805) " x="18.8581999" y="475.015311" width="284.893732" height="25.5769883"></rect>
                        <rect id="Rectangle-path" transform="translate(375.633642, 116.345346) rotate(-149.999272) translate(-375.633642, -116.345346) " x="233.186776" y="103.556852" width="284.893732" height="25.5769883"></rect>
                        <rect id="Rectangle-path" transform="translate(161.373442, 116.247966) rotate(-120.000728) translate(-161.373442, -116.247966) " x="148.591723" y="-26.2744083" width="25.5634376" height="285.044749"></rect>
                        <rect id="Rectangle-path" transform="translate(375.809048, 240.094777) rotate(-120.000728) translate(-375.809048, -240.094777) " x="129.183474" y="227.306282" width="493.251148" height="25.5769883"></rect>
                        <rect id="Rectangle-path" x="41.35" y="159.47449" width="25.564" height="285.05102"></rect>
                        <rect id="Rectangle-path" x="470.086" y="159.47449" width="25.564" height="285.05102"></rect>
                        <rect id="Rectangle-path" transform="translate(375.632564, 487.661588) rotate(-120.000728) translate(-375.632564, -487.661588) " x="364.46781" y="363.705641" width="22.3295087" height="247.911893"></rect>
                        <path d="M529.53,452.845918 C514.746,478.577551 481.79,487.360204 456.072,472.568367 C430.354,457.776531 421.576,424.803061 436.36,399.071429 C451.144,373.339796 484.1,364.557143 509.818,379.34898 C535.69,394.294898 544.468,427.114286 529.53,452.845918" id="Shape"></path>
                        <path d="M100.486,204.928571 C85.702,230.660204 52.746,239.442857 27.028,224.65102 C1.31,209.859184 -7.468,176.885714 7.316,151.154082 C22.1,125.422449 55.056,116.639796 80.774,131.431633 C106.492,146.377551 115.27,179.196939 100.486,204.928571" id="Shape"></path>
                        <path d="M7.47,452.845918 C-7.314,427.114286 1.464,394.294898 27.182,379.34898 C52.9,364.557143 85.702,373.339796 100.64,399.071429 C115.424,424.803061 106.646,457.622449 80.928,472.568367 C55.056,487.360204 22.254,478.577551 7.47,452.845918" id="Shape"></path>
                        <path d="M436.514,204.928571 C421.73,179.196939 430.508,146.377551 456.226,131.431633 C481.944,116.639796 514.746,125.422449 529.684,151.154082 C544.468,176.885714 535.69,209.705102 509.972,224.65102 C484.254,239.442857 451.298,230.660204 436.514,204.928571" id="Shape"></path>
                        <path d="M268.5,603.691837 C238.778,603.691837 214.754,579.655102 214.754,549.917347 C214.754,520.179592 238.778,496.142857 268.5,496.142857 C298.222,496.142857 322.246,520.179592 322.246,549.917347 C322.246,579.50102 298.222,603.691837 268.5,603.691837" id="Shape"></path>
                        <path d="M268.5,107.857143 C238.778,107.857143 214.754,83.8204082 214.754,54.0826531 C214.754,24.344898 238.778,0.308163265 268.5,0.308163265 C298.222,0.308163265 322.246,24.344898 322.246,54.0826531 C322.246,83.8204082 298.222,107.857143 268.5,107.857143" id="Shape"></path>
                    </g>
                </g>
            </g>
        </g>
    </g>
</svg>