<?xml version="1.0" encoding="UTF-8" standalone="no"?>
<svg width="399px" height="440px" viewBox="0 0 399 440" version="1.1" xmlns="http://www.w3.org/2000/svg" xmlns:xlink="http://www.w3.org/1999/xlink">
    <!-- Generator: Sketch 42 (36781) - http://www.bohemiancoding.com/sketch -->
    <title>Layer_1</title>
    <desc>Created with Sketch.</desc>
    <defs></defs>
    <g id="General-Symbols" stroke="none" stroke-width="1" fill="none" fill-rule="evenodd">
        <g id="TS-Copy" transform="translate(-831.000000, -682.000000)">
            <g id="jest" transform="translate(841.000000, 692.000000)">
                <g id="Layer_1">
                    <path d="M325.391,208.102 C324.851,208.43 307.042,205.442 284.726,203.931 C266.501,202.696 245.27,202.743 227.982,203.914 C213.963,204.863 195.544,197.816 193.343,206.191 C185.105,237.542 167.38,264.846 144.832,286.119 C127.869,302.122 108.455,314.257 87.457,321.734 C62.458,308.892 50.652,280.33 61.305,255.287 C69.754,235.424 79.585,213.547 61.435,208.542 C48.222,204.898 40.967,217.555 35.888,231.087 C26.158,257.01 7.669,283.835 2.4,315.608 C-3.162,349.15 2.382,384.755 31.392,404.861 C98.954,451.687 172.292,375.833 249.617,356.765 C277.641,349.854 308.402,350.968 333.092,336.668 C351.633,325.929 363.856,308.133 367.325,288.152 C372.905,256.015 356.186,224.086 325.391,208.102 Z" id="Shape" stroke="#80D7DA" stroke-width="20" fill="#FFFFFF" fill-rule="nonzero"></path>
                    <path d="M193.343,206.191 C185.105,237.542 167.38,264.846 144.832,286.119 C127.869,302.122 108.455,314.257 87.456,321.734 C62.457,308.892 50.651,280.33 61.304,255.287 C69.753,235.424 79.584,213.547 61.434,208.542 C48.221,204.898 40.966,217.555 35.887,231.087 C26.157,257.01 7.668,283.835 2.399,315.608 C-3.163,349.15 2.381,384.755 31.391,404.861 C98.953,451.687 172.291,375.833 249.617,356.765 C277.641,349.854 308.402,350.968 333.092,336.668 C351.633,325.929 363.856,308.133 367.325,288.153 C372.905,256.016 356.186,224.087 325.391,208.103" id="Shape" stroke="#80D7DA" stroke-width="20"></path>
                    <polygon id="Shape" fill="#FFFFFF" fill-rule="nonzero" points="255.364 81.17 309.685 191.982 374.778 0 135.789 0 200.732 191.641"></polygon>
                    <polygon id="Shape" stroke="#80D7DA" stroke-width="20" points="255.364 81.17 309.685 191.982 374.777 0 135.789 0 200.732 191.641"></polygon>
                    <circle id="Oval" stroke="#80D7DA" fill="#FFFFFF" fill-rule="nonzero" cx="189.46" cy="206.583" r="40.945"></circle>
                    <circle id="Oval" stroke="#80D7DA" stroke-width="20" cx="189.46" cy="206.583" r="40.945"></circle>
                    <circle id="Oval" stroke="#FFFFFF" stroke-width="20" fill="#FFFFFF" fill-rule="nonzero" cx="322.844" cy="206.583" r="40.945"></circle>
                    <circle id="Oval" stroke="#80D7DA" stroke-width="20" cx="322.844" cy="206.583" r="40.945"></circle>
                    <circle id="Oval" fill="#FFFFFF" fill-rule="nonzero" cx="55.571" cy="206.877" r="40.945"></circle>
                    <circle id="Oval" stroke="#80D7DA" stroke-width="20" cx="55.571" cy="206.877" r="40.945"></circle>
                </g>
            </g>
        </g>
    </g>
</svg>