<?xml version="1.0" encoding="UTF-8" standalone="no"?>
<svg width="506px" height="506px" viewBox="0 0 506 506" version="1.1" xmlns="http://www.w3.org/2000/svg" xmlns:xlink="http://www.w3.org/1999/xlink">
    <!-- Generator: Sketch 42 (36781) - http://www.bohemiancoding.com/sketch -->
    <title>Unofficial_JavaScript_logo_2</title>
    <desc>Created with Sketch.</desc>
    <defs></defs>
    <g id="General-Symbols" stroke="none" stroke-width="1" fill="none" fill-rule="evenodd">
        <g id="JS" transform="translate(-777.000000, -651.000000)" fill-rule="nonzero" fill="#88D9DC">
            <g id="Unofficial_JavaScript_logo_2" transform="translate(777.000000, 651.000000)">
                <g id="Group">
                    <path d="M0,0 L506,0 L506,506 L0,506 L0,0 Z M339.903492,395.314508 L301.262762,417.763238 C315.221937,445.344254 343.750698,466.387429 387.909238,466.387429 C433.071746,466.387429 466.700667,442.93473 466.700667,400.125524 C466.700667,360.416571 443.890508,342.754762 403.490825,325.430286 L391.603841,320.338159 C371.203206,311.503238 362.368286,305.728413 362.368286,291.464032 C362.368286,279.922413 371.195175,271.087492 385.122222,271.087492 C398.77619,271.087492 407.570952,276.846254 415.723175,291.464032 L452.749524,267.690063 C437.087619,240.141175 415.353714,229.619587 385.122222,229.619587 C342.658381,229.619587 315.486984,256.766889 315.486984,292.427841 C315.486984,331.140857 338.281079,349.453238 372.592698,364.071016 L384.479683,369.171175 C406.165397,378.656667 419.096508,384.431492 419.096508,400.735937 C419.096508,414.341714 406.510762,424.188635 386.808889,424.188635 C363.35619,424.188635 350.095778,411.956286 339.903492,395.314508 Z M171.935587,399.434794 L133.230603,422.867413 C144.442921,446.597206 166.490063,466.299079 204.56054,466.299079 C246.695079,466.299079 275.561175,443.890508 275.561175,394.655905 L275.561175,232.334317 L228.013238,232.334317 L228.013238,394.013365 C228.013238,417.779302 218.158286,423.89146 202.53654,423.89146 C186.199968,423.89146 179.405111,412.687175 171.935587,399.434794 Z" id="Combined-Shape"></path>
                </g>
            </g>
        </g>
    </g>
</svg>