<?xml version="1.0" encoding="UTF-8" standalone="no"?>
<svg width="549px" height="492px" viewBox="0 0 549 492" version="1.1" xmlns="http://www.w3.org/2000/svg" xmlns:xlink="http://www.w3.org/1999/xlink">
    <!-- Generator: Sketch 42 (36781) - http://www.bohemiancoding.com/sketch -->
    <title>Swift_logo-3</title>
    <desc>Created with Sketch.</desc>
    <defs>
        <linearGradient x1="50%" y1="0%" x2="50%" y2="100%" id="linearGradient-1">
            <stop stop-color="#B5E9EC" offset="0%"></stop>
            <stop stop-color="#82D7DA" offset="100%"></stop>
        </linearGradient>
    </defs>
    <g id="General-Symbols" stroke="none" stroke-width="1" fill="none" fill-rule="evenodd">
        <g id="Swift" transform="translate(-752.000000, -656.000000)" fill-rule="nonzero" fill="url(#linearGradient-1)">
            <g id="Swift_logo-3" transform="translate(752.000000, 656.000000)">
                <path d="M413.944557,457.602423 C349.300781,494.933985 260.41732,498.769609 170.993661,460.454909 C98.5890304,429.659139 38.5120109,375.752696 5.68434189e-14,314.161157 C18.4858761,329.559042 40.0522698,341.882889 63.1589223,352.655869 C155.507965,395.927802 247.837617,392.96454 312.813823,352.766645 C312.772269,352.725104 312.744566,352.69741 312.716864,352.655869 C220.287484,281.814522 141.723203,189.413367 83.1878274,113.960963 C70.8588312,101.639886 61.6158932,86.2392317 52.3729552,72.3797508 C123.234557,137.059175 235.694227,218.673502 275.738186,241.784176 C191.023951,152.457059 115.534648,41.5839815 118.609625,44.6580196 C252.634304,180.17879 377.4202,257.182061 377.4202,257.182061 C381.547872,259.50836 384.73366,261.446942 387.29614,263.17782 C389.997134,256.309698 392.365697,249.178484 394.360277,241.784176 C415.926671,163.243887 391.2853,73.9167698 337.36239,0.00138470186 C462.134435,75.4607124 536.08625,217.136483 505.267223,335.72235 C504.46385,338.921011 503.591222,342.078132 502.649337,345.179864 C503.009469,345.609121 503.369602,346.052226 503.729734,346.509177 C565.340087,423.512448 548.40001,505.126775 540.698716,489.728891 C507.275654,424.343269 445.402127,444.338364 413.945942,457.603807 L413.944557,457.602423 Z" id="Shape"></path>
            </g>
        </g>
    </g>
</svg>