<?xml version="1.0" encoding="UTF-8" standalone="no"?>
<svg width="502px" height="502px" viewBox="0 0 502 502" version="1.1" xmlns="http://www.w3.org/2000/svg" xmlns:xlink="http://www.w3.org/1999/xlink">
    <!-- Generator: Sketch 42 (36781) - http://www.bohemiancoding.com/sketch -->
    <title>typescript-seeklogo.com</title>
    <desc>Created with Sketch.</desc>
    <defs></defs>
    <g id="General-Symbols" stroke="none" stroke-width="1" fill="none" fill-rule="evenodd">
        <g id="TS" transform="translate(-777.000000, -651.000000)" fill-rule="nonzero" fill="#80D7DA">
            <g id="typescript-seeklogo.com" transform="translate(777.000000, 651.000000)">
                <g id="Group">
                    <path d="M5.45264936e-14,251 L2.3787859e-14,5.68434189e-14 L251,0 L502,0 L502,251 L502,502 L251,502 L8.52651283e-14,502 L5.45264936e-14,251 Z M111.010923,252.665077 L110.85156,273.223171 L143.5214,273.223171 L176.19124,273.223171 L176.19124,366.053331 L176.19124,458.883489 L199.299177,458.883489 L222.407114,458.883489 L222.407114,366.053331 L222.407114,273.223171 L255.076956,273.223171 L287.746797,273.223171 L287.746797,253.063489 C287.746797,241.907935 287.507749,232.585077 287.189019,232.346029 C286.949971,232.027298 247.188384,231.867935 198.980448,231.947616 L111.249971,232.186664 L111.010923,252.665077 Z M405.064253,231.603063 C396.378857,229.451636 375.820763,228.814175 366.975999,230.487507 C339.72457,235.666873 320.839809,253.11735 315.50108,278.137667 C313.987111,285.309096 314.465207,303.078302 316.377588,310.170048 C318.68838,318.696081 324.266159,328.895444 330.162666,335.270048 C340.362032,346.266238 351.517588,353.198619 377.414413,364.354175 C400.044253,374.155127 408.012507,378.856398 411.916953,384.434175 C414.94489,388.816715 415.662032,391.366555 415.662032,397.18338 C415.662032,403.637667 413.749651,408.020207 409.128063,412.24338 C398.291238,421.964652 376.298857,423.15989 360.282666,414.71354 C354.70489,411.765286 345.461715,402.920525 341.23854,396.466238 L338.210603,392.004017 L323.788063,400.370682 C315.819809,404.992271 307.373461,409.852905 305.142349,411.127827 C302.831555,412.482429 300.759809,413.75735 300.520763,414.076081 C299.962984,415.032271 308.967111,428.339254 313.588699,433.438936 C325.381715,446.506873 344.505524,456.46719 364.665207,460.052905 C373.90838,461.726238 394.307111,461.965286 402.912826,460.451317 C430.722032,455.750048 450.483301,441.566555 458.451555,420.68973 C465.702666,401.486238 463.31219,375.669096 452.63473,359.49354 C443.072826,344.991317 427.694095,334.791954 391.75727,319.33354 C372.235047,310.88719 366.019809,306.7437 362.673143,299.811317 C361.079491,296.624017 360.521715,294.313223 360.521715,290.408779 C360.442032,277.101794 370.242984,269.13354 385.462349,270.169413 C395.82108,270.886555 402.594095,274.950365 409.04838,284.352905 C411.199809,287.540207 413.11219,289.611954 413.590286,289.293223 C426.817588,281.085921 448.650603,266.424334 448.491238,265.786873 C447.933461,263.635444 441.080763,254.631317 436.459174,249.691 C427.53473,240.447827 417.813461,234.790365 405.064253,231.603063 Z" id="Combined-Shape"></path>
                </g>
            </g>
        </g>
    </g>
</svg>