<?xml version="1.0" encoding="UTF-8" standalone="no"?>
<svg width="474px" height="507px" viewBox="0 0 474 507" version="1.1" xmlns="http://www.w3.org/2000/svg" xmlns:xlink="http://www.w3.org/1999/xlink">
    <!-- Generator: Sketch 42 (36781) - http://www.bohemiancoding.com/sketch -->
    <title>Shape</title>
    <desc>Created with Sketch.</desc>
    <defs></defs>
    <g id="General-Symbols" stroke="none" stroke-width="1" fill="none" fill-rule="evenodd">
        <g id="Yarn" transform="translate(-790.000000, -649.000000)" fill-rule="nonzero" fill="#93DDE0">
            <g id="yarn-kitten-outline" transform="translate(790.000000, 649.000000)">
                <path d="M473.108464,369.916716 C470.433856,348.804106 452.603135,334.233431 429.720376,334.530792 C395.544828,334.976833 366.867085,352.669795 347.847649,364.415543 C340.418182,369.024633 334.02884,372.444282 328.531034,374.971848 C329.719749,357.724927 328.679624,335.125513 319.764263,310.295894 C308.917241,280.559824 294.355486,262.272141 283.954232,251.715836 C295.989969,234.171554 312.483386,208.598534 320.210031,169.04956 C326.896552,135.29912 324.816301,82.814956 309.511599,53.3762463 C306.391223,47.4290323 301.190596,43.1173021 294.652665,41.3331378 C291.978056,40.5897361 286.926019,39.1029326 276.970533,41.9278592 C262.408777,10.8536657 257.20815,7.58269795 253.196238,5.05513196 C244.875235,-0.297360704 235.068339,-1.48680352 225.855799,1.93284457 C213.522884,6.39325513 202.973041,18.2876833 193.017555,39.4002933 C191.531661,42.5225806 190.194357,45.4961877 189.005643,48.4697947 C170.134796,49.8079179 140.416928,56.6472141 115.305329,83.8557185 C112.184953,87.2753666 106.09279,89.8029326 99.7034483,92.1818182 L99.8520376,92.1818182 C86.7761755,96.6422287 80.6840125,107.347214 73.5517241,126.67566 C63.4476489,153.735484 73.8489028,180.349267 84.1015674,197.596188 C70.1341693,210.085337 51.5605016,230.008504 41.753605,253.35132 C29.569279,282.195308 28.2319749,310.444575 28.6777429,325.758651 C18.276489,336.760997 2.22884013,357.427566 0.445768025,380.621701 C-1.93166144,413.034018 9.80689655,435.03871 15.0075235,443.067449 C16.4934169,445.446334 18.1278997,447.379179 19.9109718,449.312023 C19.3166144,453.326393 19.1680251,457.638123 20.0595611,462.098534 C21.9912226,472.506158 28.5291536,480.980938 38.4846395,486.333431 C58.0984326,496.741056 85.4388715,501.201466 106.538558,490.645161 C114.116614,498.6739 127.935423,506.405279 153.047022,506.405279 L154.532915,506.405279 C160.922257,506.405279 242.052038,502.093548 265.677743,496.295015 C276.227586,493.767449 283.508464,489.307038 288.263323,485.292669 C303.419436,480.534897 345.32163,466.261584 384.846395,440.688563 C412.781191,422.54956 422.439498,418.683871 443.242006,413.628739 C463.004389,408.722287 475.783072,390.434604 473.108464,369.916716 L473.108464,369.916716 Z M437.89279,391.772727 C414.118495,397.422581 402.082759,402.626393 372.662069,421.806158 C326.599373,451.542229 276.376176,465.369501 276.376176,465.369501 C276.376176,465.369501 272.215674,471.614076 260.179937,474.439003 C239.377429,479.494135 161.070846,483.805865 153.938558,483.954545 C134.770533,484.103226 123.031975,479.048094 119.763009,471.168035 C109.807524,447.379179 134.027586,436.971554 134.027586,436.971554 C134.027586,436.971554 128.67837,433.700587 125.557994,430.726979 C122.734796,427.902053 119.763009,422.252199 118.871473,424.333724 C115.15674,433.403226 113.225078,455.556598 103.269592,465.518182 C89.599373,479.345455 63.7448276,474.736364 48.4401254,466.707625 C31.6495298,457.786804 49.6288401,436.822874 49.6288401,436.822874 C49.6288401,436.822874 40.5648903,442.175367 33.2840125,431.173021 C26.7460815,421.062757 20.6539185,403.815836 22.2884013,382.554545 C24.0714734,358.319648 51.1147335,334.828152 51.1147335,334.828152 C51.1147335,334.828152 46.3598746,298.996188 61.9617555,262.272141 C76.0777429,228.819062 114.116614,201.907918 114.116614,201.907918 C114.116614,201.907918 82.169906,166.521994 94.0570533,134.704399 C101.783699,113.88915 104.904075,114.03783 107.430094,113.145748 C116.345455,109.7261 124.963636,106.009091 131.352978,99.0211144 C163.299687,64.5272727 204.013166,71.0692082 204.013166,71.0692082 C204.013166,71.0692082 223.329781,12.3404692 241.160502,23.7888563 C246.658307,27.3571848 266.42069,71.3665689 266.42069,71.3665689 C266.42069,71.3665689 287.520376,59.0260997 289.897806,63.6351906 C302.676489,88.4648094 304.162382,135.893842 298.515987,164.73783 C289.00627,212.315543 265.231975,237.888563 255.722257,253.946041 C253.493417,257.66305 281.279624,269.408798 298.813166,318.027273 C315.009404,362.482698 300.596238,399.801466 303.122257,403.964516 C303.568025,404.707918 303.716614,405.005279 303.716614,405.005279 C303.716614,405.005279 322.290282,406.492082 359.586207,383.446628 C379.497179,371.106158 403.122884,357.278886 430.017555,356.981525 C456.02069,356.535484 457.357994,387.163636 437.89279,391.772727 L437.89279,391.772727 Z" id="Shape"></path>
            </g>
        </g>
    </g>
</svg>