<?xml version="1.0" encoding="UTF-8"?>
<svg width="761px" height="855px" viewBox="0 0 761 855" version="1.1" xmlns="http://www.w3.org/2000/svg" xmlns:xlink="http://www.w3.org/1999/xlink">
    <!-- Generator: Sketch 47.1 (45422) - http://www.bohemiancoding.com/sketch -->
    <title>GQL</title>
    <desc>Created with Sketch.</desc>
    <defs></defs>
    <g id="Page-1" stroke="none" stroke-width="1" fill="none" fill-rule="evenodd" opacity="0.119282156">
        <g id="GQL" fill-rule="nonzero" fill="#8FDCDF">
            <rect id="Rectangle-path" transform="translate(228.000000, 340.500000) rotate(-149.999272) translate(-228.000000, -340.500000) " x="210" y="-9" width="36" height="699"></rect>
            <rect id="Rectangle-path" x="31" y="586" width="699" height="36"></rect>
            <rect id="Rectangle-path" transform="translate(229.000000, 691.000000) rotate(-149.999272) translate(-229.000000, -691.000000) " x="27" y="673" width="404" height="36"></rect>
            <rect id="Rectangle-path" transform="translate(532.000000, 165.000000) rotate(-149.999272) translate(-532.000000, -165.000000) " x="330" y="147" width="404" height="36"></rect>
            <rect id="Rectangle-path" transform="translate(229.000000, 165.000000) rotate(-120.000728) translate(-229.000000, -165.000000) " x="211" y="-37" width="36" height="404"></rect>
            <rect id="Rectangle-path" transform="translate(532.500000, 340.000000) rotate(-120.000728) translate(-532.500000, -340.000000) " x="183" y="322" width="699" height="36"></rect>
            <rect id="Rectangle-path" x="59" y="226" width="36" height="404"></rect>
            <rect id="Rectangle-path" x="666" y="226" width="36" height="404"></rect>
            <rect id="Rectangle-path" transform="translate(532.000000, 690.500000) rotate(-120.000728) translate(-532.000000, -690.500000) " x="516" y="515" width="32" height="351"></rect>
            <path d="M750.65276,640.989042 C729.6358,677.345317 682.785494,689.754345 646.224742,668.85493 C609.663989,647.955514 597.185169,601.367233 618.202129,565.010958 C639.219088,528.654683 686.069394,516.245655 722.630147,537.14507 C759.409826,558.262188 771.888646,604.632767 750.65276,640.989042" id="Shape"></path>
            <path d="M141.85493,289.989042 C120.955514,326.345317 74.3672331,338.754345 38.0109579,317.85493 C1.65468261,296.955514 -10.7543455,250.367233 10.1450703,214.010958 C31.044486,177.654683 77.6327669,165.245655 113.989042,186.14507 C150.345317,207.262188 162.754345,253.632767 141.85493,289.989042" id="Shape"></path>
            <path d="M10.1450703,640.989042 C-10.7543455,604.632767 1.65468261,558.262188 38.0109579,537.14507 C74.3672331,516.245655 120.737812,528.654683 141.85493,565.010958 C162.754345,601.367233 150.345317,647.737812 113.989042,668.85493 C77.4150646,689.754345 31.044486,677.345317 10.1450703,640.989042" id="Shape"></path>
            <path d="M618.14507,289.989042 C597.245655,253.632767 609.654683,207.262188 646.010958,186.14507 C682.367233,165.245655 728.737812,177.654683 749.85493,214.010958 C770.754345,250.367233 758.345317,296.737812 721.989042,317.85493 C685.632767,338.754345 639.044486,326.345317 618.14507,289.989042" id="Shape"></path>
            <path d="M380,855 C337.971347,855 304,821.028653 304,779 C304,736.971347 337.971347,703 380,703 C422.028653,703 456,736.971347 456,779 C456,820.810888 422.028653,855 380,855" id="Shape"></path>
            <path d="M380,152 C337.971347,152 304,118.028653 304,76 C304,33.9713467 337.971347,0 380,0 C422.028653,0 456,33.9713467 456,76 C456,118.028653 422.028653,152 380,152" id="Shape"></path>
        </g>
    </g>
</svg>