<?xml version="1.0" encoding="UTF-8"?>
<svg width="1075px" height="632px" viewBox="0 0 1075 632" version="1.1" xmlns="http://www.w3.org/2000/svg" xmlns:xlink="http://www.w3.org/1999/xlink">
    <!-- Generator: Sketch 53.2 (72643) - https://sketchapp.com -->
    <title>Group</title>
    <desc>Created with Sketch.</desc>
    <g id="Behind-the-scenes" stroke="none" stroke-width="1" fill="none" fill-rule="evenodd" opacity="0.131608109">
        <g id="Footer" transform="translate(-328.000000, -30.000000)" fill="#80D7DA" fill-rule="nonzero">
            <g id="Group" transform="translate(328.000000, 30.000000)">
                <path d="M202.966798,101.497503 C202.966798,157.401933 157.570356,202.702336 101.585375,202.702336 C45.5833992,202.702336 0.199703557,157.401933 0.199703557,101.497503 C0.199703557,45.5930738 45.5791502,0.292671141 101.581126,0.292671141 C157.57248,0.292671141 202.966798,45.5930738 202.966798,101.497503" id="Shape"></path>
                <path d="M973.406126,558.248993 L406.044071,558.248993 C331.155237,558.248993 270.232905,497.43702 270.232905,422.680752 C270.232905,347.924483 331.159486,287.106148 406.044071,287.106148 L662.641897,287.106148 C706.865613,287.106148 742.84837,251.183946 742.84837,207.03302 C742.84837,162.882094 706.863488,126.959893 662.641897,126.959893 L101.572628,126.959893 C86.2188241,126.959893 73.7713439,114.531973 73.7713439,99.2091544 C73.7713439,83.882094 86.2209486,71.4562953 101.570504,71.4562953 L662.637648,71.4562953 C737.526482,71.4562953 798.442441,132.276752 798.442441,207.030899 C798.442441,281.785047 737.524358,342.599141 662.637648,342.599141 L406.039822,342.599141 C361.807609,342.599141 325.826976,378.521342 325.826976,422.680752 C325.826976,466.827436 361.811858,502.747517 406.039822,502.747517 L973.406126,502.747517 C988.759931,502.747517 1001.20741,515.175436 1001.20741,530.498255 C1001.20741,545.823195 988.762055,558.248993 973.408251,558.248993 L973.406126,558.248993 Z" id="Shape"></path>
                <path d="M872.033202,530.502497 C872.033202,474.598067 917.412648,429.297664 973.414625,429.297664 C1029.4166,429.297664 1074.79605,474.598067 1074.79605,530.502497 C1074.79605,586.406926 1029.4166,631.707329 973.414625,631.707329 C917.412648,631.707329 872.033202,586.406926 872.033202,530.502497" id="Shape"></path>
            </g>
        </g>
    </g>
</svg>