<?xml version="1.0" encoding="UTF-8"?>
<svg width="1081px" height="1266px" viewBox="0 0 1081 1266" version="1.1" xmlns="http://www.w3.org/2000/svg" xmlns:xlink="http://www.w3.org/1999/xlink">
    <!-- Generator: Sketch 52.4 (67378) - http://www.bohemiancoding.com/sketch -->
    <title>Combined Shape</title>
    <desc>Created with Sketch.</desc>
    <defs>
        <linearGradient x1="41.5476622%" y1="107.053987%" x2="41.5476622%" y2="11.49337%" id="linearGradient-1">
            <stop stop-color="#FFFFFF" offset="0%"></stop>
            <stop stop-color="#81D7DA" offset="100%"></stop>
        </linearGradient>
    </defs>
    <g id="Epic-Backgrounds" stroke="none" stroke-width="1" fill="none" fill-rule="evenodd">
        <g id="Header-Images-inline-images-Copy" transform="translate(-337.000000, 0.000000)" fill-rule="nonzero" stroke="url(#linearGradient-1)" stroke-width="4">
            <g id="Group" transform="translate(339.000000, -210.000000)">
                <path d="M443.358898,389.680698 C446.986126,385.70186 451.275818,382.200189 456.182,379.34898 C460.729176,376.733649 465.497807,374.85529 470.35,373.677284 L470.35,230.356962 C465.441695,229.181255 460.619496,227.291842 456.028,224.65102 C430.31,209.859184 421.532,176.885714 436.316,151.154082 C451.1,125.422449 484.056,116.639796 509.774,131.431633 C514.372151,134.103831 518.428793,137.347377 521.906079,141.01961 L645.957483,69.3963983 C644.523513,64.544501 643.754,59.4048817 643.754,54.0826531 C643.754,24.344898 667.778,0.308163265 697.5,0.308163265 C727.222,0.308163265 751.246,24.344898 751.246,54.0826531 C751.246,59.4315745 750.468749,64.5960502 749.020892,69.4693783 L873.041646,141.074894 C876.530531,137.379926 880.604788,134.117232 885.226,131.431633 C910.944,116.639796 943.746,125.422449 958.684,151.154082 C973.468,176.885714 964.69,209.705102 938.972,224.65102 C934.380504,227.291842 929.558305,229.181255 924.65,230.356962 L924.65,373.680167 C929.505164,374.858355 934.274533,376.735782 938.818,379.34898 C964.69,394.294898 973.468,427.114286 958.53,452.845918 C943.746,478.577551 910.79,487.360204 885.072,472.568367 C879.955512,469.625593 875.509499,465.963201 871.786105,461.781378 L748.524096,532.94882 C750.290224,538.281185 751.246,543.985861 751.246,549.917347 C751.246,550.278128 751.242427,550.638107 751.235314,550.99725 C751.242427,551.358181 751.246,551.719993 751.246,552.082653 C751.246,557.431575 750.468749,562.59605 749.020892,567.469378 L873.041646,639.074894 C876.530531,635.379926 880.604788,632.117232 885.226,629.431633 C910.944,614.639796 943.746,623.422449 958.684,649.154082 C973.468,674.885714 964.69,707.705102 938.972,722.65102 C934.380504,725.291842 929.558305,727.181255 924.65,728.356962 L924.65,871.680167 C924.732619,871.700216 924.815212,871.720467 924.897781,871.740921 C948.626445,877.329256 966.246,898.615348 966.246,924.082653 C966.246,929.431575 965.468749,934.59605 964.020892,939.469378 L1088.04165,1011.07489 C1091.53053,1007.37993 1095.60479,1004.11723 1100.226,1001.43163 C1125.944,986.639796 1158.746,995.422449 1173.684,1021.15408 C1188.468,1046.88571 1179.69,1079.7051 1153.972,1094.65102 C1149.3805,1097.29184 1144.55831,1099.18126 1139.65,1100.35696 L1139.65,1243.68017 C1144.50516,1244.85835 1149.27453,1246.73578 1153.818,1249.34898 C1179.69,1264.2949 1188.468,1297.11429 1173.53,1322.84592 C1158.746,1348.57755 1125.79,1357.3602 1100.072,1342.56837 C1094.95551,1339.62559 1090.5095,1335.9632 1086.7861,1331.78138 L963.524096,1402.94882 C965.290224,1408.28118 966.246,1413.98586 966.246,1419.91735 C966.246,1449.50102 942.222,1473.69184 912.5,1473.69184 C882.778,1473.69184 858.754,1449.6551 858.754,1419.91735 C858.754,1414.62607 859.51459,1409.51528 860.932535,1404.68827 L736.944759,1333.1018 C733.493202,1336.72413 729.475413,1339.92566 724.928,1342.56837 C699.056,1357.3602 666.254,1348.57755 651.47,1322.84592 C636.686,1297.11429 645.464,1264.2949 671.182,1249.34898 C675.729176,1246.73365 680.497807,1244.85529 685.35,1243.67728 L685.35,1100.35696 C683.893838,1100.00816 682.445255,1099.59654 681.008027,1099.12113 C659.374851,1092.16919 643.754,1071.89672 643.754,1047.91735 C643.754,1042.62607 644.51459,1037.51528 645.932535,1032.68827 L521.944759,961.101795 C518.493202,964.724135 514.475413,967.925655 509.928,970.568367 C484.056,985.360204 451.254,976.577551 436.47,950.845918 C421.686,925.114286 430.464,892.294898 456.182,877.34898 C460.729176,874.733649 465.497807,872.85529 470.35,871.677284 L470.35,728.356962 C465.441695,727.181255 460.619496,725.291842 456.028,722.65102 C450.626973,719.544592 445.973068,715.636281 442.12762,711.161565 L319.524096,781.94882 C321.290224,787.281185 322.246,792.985861 322.246,798.917347 C322.246,828.50102 298.222,852.691837 268.5,852.691837 C238.778,852.691837 214.754,828.655102 214.754,798.917347 C214.754,793.626066 215.51459,788.515278 216.932535,783.688271 L92.944759,712.101795 C89.4932019,715.724135 85.4754131,718.925655 80.928,721.568367 C55.056,736.360204 22.254,727.577551 7.47,701.845918 C-7.314,676.114286 1.464,643.294898 27.182,628.34898 C31.7291757,625.733649 36.4978074,623.85529 41.35,622.677284 L41.35,479.356962 C36.4416945,478.181255 31.6194959,476.291842 27.028,473.65102 C1.31,458.859184 -7.468,425.885714 7.316,400.154082 C22.1,374.422449 55.056,365.639796 80.774,380.431633 C85.3721507,383.103831 89.4287927,386.347377 92.9060794,390.01961 L216.957483,318.396398 C215.523513,313.544501 214.754,308.404882 214.754,303.082653 C214.754,273.344898 238.778,249.308163 268.5,249.308163 C298.222,249.308163 322.246,273.344898 322.246,303.082653 C322.246,308.431575 321.468749,313.59605 320.020892,318.469378 L443.358898,389.680698 Z M535.539425,438.82449 C535.368316,439.584404 535.180841,440.340527 534.977152,441.092292 L658.793129,512.579577 C668.563385,502.44164 682.285117,496.142857 697.5,496.142857 C713.258378,496.142857 727.415025,502.899678 737.23865,513.680581 L860.745344,442.371867 C860.37225,441.201094 860.039016,440.017883 859.74623,438.82449 L535.539425,438.82449 Z M522.631292,463.498177 C519.038936,467.403132 514.804528,470.842615 509.972,473.65102 C505.380504,476.291842 500.558305,478.181255 495.65,479.356962 L495.65,622.680167 C500.505164,623.858355 505.274533,625.735782 509.818,628.34898 C514.719308,631.180402 519.007126,634.653289 522.636431,638.597929 L645.957483,567.396398 C644.523513,562.544501 643.754,557.404882 643.754,552.082653 C643.754,551.720914 643.757555,551.360019 643.764632,551 C643.757555,550.639981 643.754,550.279086 643.754,549.917347 C643.754,544.626066 644.51459,539.515278 645.932535,534.688271 L522.631292,463.498177 Z M429.362549,428.765903 C429.077209,423.143616 429.679162,417.533864 431.113276,412.144457 L307.092381,340.538859 C306.61687,341.029261 306.132081,341.510603 305.638294,341.982604 L468.047399,623.275175 C468.723313,623.080998 469.402988,622.899981 470.086,622.732234 L470.086,479.229705 C456.406408,475.827546 444.080312,467.097778 436.514,453.928571 C431.942962,445.972655 429.624388,437.339168 429.362549,428.765903 Z M873.535093,961.65283 L749.566646,1033.22815 C753.444937,1046.75627 752.046621,1061.76927 744.486,1074.92857 C736.919688,1088.09778 724.593592,1096.82755 710.914,1100.2297 L710.914,1243.74607 C711.611638,1243.91846 712.305818,1244.10474 712.996095,1244.30479 L875.233796,963.309095 C874.653632,962.768165 874.087351,962.215893 873.535097,961.652828 Z M897.542748,975.79574 L735.164448,1257.03496 C738.790618,1260.49133 741.995285,1264.51574 744.64,1269.07143 C747.253945,1273.62101 749.131308,1278.39217 750.308691,1283.24694 L1074.69419,1283.24694 C1075.87175,1278.3892 1077.74819,1273.6173 1080.36,1269.07143 C1082.99305,1264.48859 1086.20252,1260.44338 1089.84485,1256.97321 L927.475259,975.749079 C922.723214,977.121748 917.698771,977.857143 912.5,977.857143 C908.737452,977.857143 905.066216,977.471945 901.52347,976.738747 C900.190844,976.476408 898.862985,976.16232 897.542748,975.79574 Z M712.66015,996.30469 C716.805511,997.486691 720.87302,999.187965 724.774,1001.43163 C729.372151,1004.10383 733.428793,1007.34738 736.906079,1011.01961 L860.520447,939.648728 C860.237036,938.714498 859.978865,937.772708 859.74623,936.82449 L535.23994,936.82449 C535.066651,937.526513 534.879317,938.225036 534.678061,938.919607 L658.793129,1010.57958 C668.563385,1000.44164 682.285117,994.142857 697.5,994.142857 C702.766246,994.142857 707.853608,994.897466 712.66015,996.30469 Z M534.963332,660.999113 C536.786173,667.773422 537.283057,674.899339 536.344255,681.963247 C535.559198,689.137944 533.311352,696.270525 529.486,702.928571 C521.919688,716.097778 509.593592,724.827546 495.914,728.229705 L495.914,871.746071 C496.611638,871.918461 497.305818,872.104741 497.996095,872.304794 L660.400766,591.019903 C659.871705,590.515197 659.352946,589.99978 658.844831,589.473997 L534.963332,660.999113 Z M430.448337,687.82449 L106.23994,687.82449 C106.066651,688.526513 105.879317,689.225036 105.678061,689.919607 L229.793129,761.579577 C239.563385,751.44164 253.285117,745.142857 268.5,745.142857 C284.258378,745.142857 298.415025,751.899678 308.23865,762.680581 L431.423987,691.557407 C431.054695,690.325241 430.729254,689.080073 430.448337,687.82449 Z M231.400766,342.019903 C230.871705,341.515197 230.352946,340.99978 229.844831,340.473997 L105.566646,412.228146 C109.444937,425.756266 108.046621,440.769269 100.486,453.928571 C92.9196882,467.097778 80.5935918,475.827546 66.914,479.229705 L66.914,622.746071 C67.6116378,622.918461 68.3058177,623.104741 68.9960946,623.304794 L231.400766,342.019903 Z M283.475259,354.749079 C278.723214,356.121748 273.698771,356.857143 268.5,356.857143 C263.315278,356.857143 258.303943,356.125717 253.563272,354.760193 L91.1644484,636.034956 C94.790618,639.49133 97.9952854,643.515743 100.64,648.071429 C103.253945,652.621015 105.131308,657.392174 106.308691,662.246939 L430.694191,662.246939 C431.871754,657.389201 433.748187,652.617304 436.36,648.071429 C438.99305,643.488591 442.202518,639.443376 445.844851,635.973214 L283.475259,354.749079 Z M736.092381,589.538859 C735.61687,590.029261 735.132081,590.510603 734.638294,590.982604 L897.047399,872.275175 C897.723313,872.080998 898.402988,871.899981 899.086,871.732234 L899.086,728.229705 C885.406408,724.827546 873.080312,716.097778 865.514,702.928571 C857.969544,689.797405 856.56107,674.820455 860.40855,661.314938 L736.092381,589.538859 Z M712.475259,603.749079 C707.723214,605.121748 702.698771,605.857143 697.5,605.857143 C692.315278,605.857143 687.303943,605.125717 682.563272,603.760193 L520.164448,885.034956 C523.790618,888.49133 526.995285,892.515743 529.64,897.071429 C532.253945,901.621015 534.131308,906.392174 535.308691,911.246939 L859.694191,911.246939 C860.871754,906.389201 862.748187,901.617304 865.36,897.071429 C867.99305,892.488591 871.202518,888.443376 874.844851,884.973214 L712.475259,603.749079 Z M951.092381,961.538859 C950.61687,962.029261 950.132081,962.510603 949.638294,962.982604 L1112.0474,1244.27518 C1112.72331,1244.081 1113.40299,1243.89998 1114.086,1243.73223 L1114.086,1100.2297 C1100.40641,1096.82755 1088.08031,1088.09778 1080.514,1074.92857 C1072.96954,1061.7974 1071.56107,1046.82045 1075.40855,1033.31494 L951.092381,961.538859 Z M952.23865,1383.68058 L1075.74534,1312.37187 C1075.37225,1311.20109 1075.03902,1310.01788 1074.74623,1308.82449 L750.23994,1308.82449 C750.066651,1309.52651 749.879317,1310.22504 749.678061,1310.91961 L873.793129,1382.57958 C883.563385,1372.44164 897.285117,1366.14286 912.5,1366.14286 C928.258378,1366.14286 942.415025,1372.89968 952.23865,1383.68058 Z M736.092381,91.5388592 C735.61687,92.0292605 735.132081,92.5106025 734.638294,92.9826043 L897.047399,374.275175 C897.723313,374.080998 898.402988,373.899981 899.086,373.732234 L899.086,230.229705 C885.406408,226.827546 873.080312,218.097778 865.514,204.928571 C857.969544,191.797405 856.56107,176.820455 860.40855,163.314938 L736.092381,91.5388592 Z M660.400766,93.0199032 C659.871705,92.5151967 659.352946,91.9997799 658.844831,91.4739974 L534.566646,163.228146 C538.444937,176.756266 537.046621,191.769269 529.486,204.928571 C521.919688,218.097778 509.593592,226.827546 495.914,230.229705 L495.914,373.746071 C496.611638,373.918461 497.305818,374.104741 497.996095,374.304794 L660.400766,93.0199032 Z M712.475259,105.749079 C707.723214,107.121748 702.698771,107.857143 697.5,107.857143 C692.315278,107.857143 687.303943,107.125717 682.563272,105.760193 L520.164448,387.034956 C523.790618,390.49133 526.995285,394.515743 529.64,399.071429 C532.253945,403.621015 534.131308,408.392174 535.308691,413.246939 L859.694191,413.246939 C860.871754,408.389201 862.748187,403.617304 865.36,399.071429 C867.99305,394.488591 871.202518,390.443376 874.844851,386.973214 L712.475259,105.749079 Z" id="Combined-Shape"></path>
            </g>
        </g>
    </g>
</svg>