<?xml version="1.0" encoding="UTF-8"?>
<svg width="1601px" height="1119px" viewBox="0 0 1601 1119" version="1.1" xmlns="http://www.w3.org/2000/svg" xmlns:xlink="http://www.w3.org/1999/xlink">
    <!-- Generator: Sketch 50.2 (55047) - http://www.bohemiancoding.com/sketch -->
    <title>BG</title>
    <desc>Created with Sketch.</desc>
    <defs></defs>
    <g id="Scratch-Page" stroke="none" stroke-width="1" fill="none" fill-rule="evenodd" opacity="0.447973279">
        <g id="BG" transform="translate(5.000000, 5.000000)">
            <g id="Node-Shape" transform="translate(297.000000, 177.000000)" stroke="#82D7DA" stroke-width="10">
                <path d="M94.7025209,1.5956007 C97.9858181,-0.364790358 102.100884,-0.364790358 105.427958,1.5956007 L194.405311,53.540426 C197.732386,55.4897415 199.76803,59.0782539 199.76803,62.9547334 L199.76803,166.955141 C199.76803,170.83162 197.732386,174.420133 194.405311,176.369448 L105.427958,228.314273 C102.100884,230.274664 97.9858181,230.274664 94.7025209,228.314273 L5.77988974,176.369448 C2.38714935,174.420133 0.307727817,170.83162 0.307727817,166.955141 L0.307727817,62.9547334 C0.307727817,59.0782539 2.27770611,55.4897415 5.6704465,53.540426 L94.7025209,1.5956007 Z" id="Shape"></path>
            </g>
            <g id="Node-Shape" transform="translate(0.000000, 1.000000)" stroke="#82D7DA" stroke-width="10">
                <path d="M94.7025209,1.5956007 C97.9858181,-0.364790358 102.100884,-0.364790358 105.427958,1.5956007 L194.405311,53.540426 C197.732386,55.4897415 199.76803,59.0782539 199.76803,62.9547334 L199.76803,166.955141 C199.76803,170.83162 197.732386,174.420133 194.405311,176.369448 L105.427958,228.314273 C102.100884,230.274664 97.9858181,230.274664 94.7025209,228.314273 L5.77988974,176.369448 C2.38714935,174.420133 0.307727817,170.83162 0.307727817,166.955141 L0.307727817,62.9547334 C0.307727817,59.0782539 2.27770611,55.4897415 5.6704465,53.540426 L94.7025209,1.5956007 Z" id="Shape"></path>
            </g>
            <g id="Node-Shape-Copy-2" transform="translate(493.000000, 177.000000)" fill="#82D7DA">
                <path d="M94.7025209,1.5956007 C97.9858181,-0.364790358 102.100884,-0.364790358 105.427958,1.5956007 L194.405311,53.540426 C197.732386,55.4897415 199.76803,59.0782539 199.76803,62.9547334 L199.76803,166.955141 C199.76803,170.83162 197.732386,174.420133 194.405311,176.369448 L105.427958,228.314273 C102.100884,230.274664 97.9858181,230.274664 94.7025209,228.314273 L5.77988974,176.369448 C2.38714935,174.420133 0.307727817,170.83162 0.307727817,166.955141 L0.307727817,62.9547334 C0.307727817,59.0782539 2.27770611,55.4897415 5.6704465,53.540426 L94.7025209,1.5956007 Z M58.9785156,56 L58.9785156,173 L167.330078,173 L159.307728,56 L58.9785156,56 Z" id="Combined-Shape"></path>
            </g>
            <g id="Node-Shape" transform="translate(196.000000, 1.000000)" stroke="#82D7DA" stroke-width="10">
                <path d="M94.7025209,1.5956007 C97.9858181,-0.364790358 102.100884,-0.364790358 105.427958,1.5956007 L194.405311,53.540426 C197.732386,55.4897415 199.76803,59.0782539 199.76803,62.9547334 L199.76803,166.955141 C199.76803,170.83162 197.732386,174.420133 194.405311,176.369448 L105.427958,228.314273 C102.100884,230.274664 97.9858181,230.274664 94.7025209,228.314273 L5.77988974,176.369448 C2.38714935,174.420133 0.307727817,170.83162 0.307727817,166.955141 L0.307727817,62.9547334 C0.307727817,59.0782539 2.27770611,55.4897415 5.6704465,53.540426 L94.7025209,1.5956007 Z" id="Shape"></path>
            </g>
            <g id="Node-Shape" transform="translate(985.000000, 1.000000)" stroke="#82D7DA" stroke-width="10">
                <path d="M94.7025209,1.5956007 C97.9858181,-0.364790358 102.100884,-0.364790358 105.427958,1.5956007 L194.405311,53.540426 C197.732386,55.4897415 199.76803,59.0782539 199.76803,62.9547334 L199.76803,166.955141 C199.76803,170.83162 197.732386,174.420133 194.405311,176.369448 L105.427958,228.314273 C102.100884,230.274664 97.9858181,230.274664 94.7025209,228.314273 L5.77988974,176.369448 C2.38714935,174.420133 0.307727817,170.83162 0.307727817,166.955141 L0.307727817,62.9547334 C0.307727817,59.0782539 2.27770611,55.4897415 5.6704465,53.540426 L94.7025209,1.5956007 Z" id="Shape"></path>
            </g>
            <g id="Node-Shape" transform="translate(593.000000, 352.000000)" stroke="#82D7DA" stroke-width="10">
                <path d="M94.7025209,1.5956007 C97.9858181,-0.364790358 102.100884,-0.364790358 105.427958,1.5956007 L194.405311,53.540426 C197.732386,55.4897415 199.76803,59.0782539 199.76803,62.9547334 L199.76803,166.955141 C199.76803,170.83162 197.732386,174.420133 194.405311,176.369448 L105.427958,228.314273 C102.100884,230.274664 97.9858181,230.274664 94.7025209,228.314273 L5.77988974,176.369448 C2.38714935,174.420133 0.307727817,170.83162 0.307727817,166.955141 L0.307727817,62.9547334 C0.307727817,59.0782539 2.27770611,55.4897415 5.6704465,53.540426 L94.7025209,1.5956007 Z" id="Shape"></path>
            </g>
            <g id="Node-Shape" transform="translate(1289.000000, 528.000000)" stroke="#82D7DA" stroke-width="10">
                <path d="M94.7025209,1.5956007 C97.9858181,-0.364790358 102.100884,-0.364790358 105.427958,1.5956007 L194.405311,53.540426 C197.732386,55.4897415 199.76803,59.0782539 199.76803,62.9547334 L199.76803,166.955141 C199.76803,170.83162 197.732386,174.420133 194.405311,176.369448 L105.427958,228.314273 C102.100884,230.274664 97.9858181,230.274664 94.7025209,228.314273 L5.77988974,176.369448 C2.38714935,174.420133 0.307727817,170.83162 0.307727817,166.955141 L0.307727817,62.9547334 C0.307727817,59.0782539 2.27770611,55.4897415 5.6704465,53.540426 L94.7025209,1.5956007 Z" id="Shape"></path>
            </g>
            <g id="Node-Shape" transform="translate(1085.000000, 176.000000)" stroke="#82D7DA" stroke-width="10">
                <path d="M94.7025209,1.5956007 C97.9858181,-0.364790358 102.100884,-0.364790358 105.427958,1.5956007 L194.405311,53.540426 C197.732386,55.4897415 199.76803,59.0782539 199.76803,62.9547334 L199.76803,166.955141 C199.76803,170.83162 197.732386,174.420133 194.405311,176.369448 L105.427958,228.314273 C102.100884,230.274664 97.9858181,230.274664 94.7025209,228.314273 L5.77988974,176.369448 C2.38714935,174.420133 0.307727817,170.83162 0.307727817,166.955141 L0.307727817,62.9547334 C0.307727817,59.0782539 2.27770611,55.4897415 5.6704465,53.540426 L94.7025209,1.5956007 Z" id="Shape"></path>
            </g>
            <g id="Node-Shape" transform="translate(694.000000, 177.000000)" stroke="#82D7DA" stroke-width="10">
                <path d="M94.7025209,1.5956007 C97.9858181,-0.364790358 102.100884,-0.364790358 105.427958,1.5956007 L194.405311,53.540426 C197.732386,55.4897415 199.76803,59.0782539 199.76803,62.9547334 L199.76803,166.955141 C199.76803,170.83162 197.732386,174.420133 194.405311,176.369448 L105.427958,228.314273 C102.100884,230.274664 97.9858181,230.274664 94.7025209,228.314273 L5.77988974,176.369448 C2.38714935,174.420133 0.307727817,170.83162 0.307727817,166.955141 L0.307727817,62.9547334 C0.307727817,59.0782539 2.27770611,55.4897415 5.6704465,53.540426 L94.7025209,1.5956007 Z" id="Shape"></path>
            </g>
            <g id="Node-Shape" transform="translate(397.000000, 1.000000)" stroke="#82D7DA" stroke-width="10">
                <path d="M94.7025209,1.5956007 C97.9858181,-0.364790358 102.100884,-0.364790358 105.427958,1.5956007 L194.405311,53.540426 C197.732386,55.4897415 199.76803,59.0782539 199.76803,62.9547334 L199.76803,166.955141 C199.76803,170.83162 197.732386,174.420133 194.405311,176.369448 L105.427958,228.314273 C102.100884,230.274664 97.9858181,230.274664 94.7025209,228.314273 L5.77988974,176.369448 C2.38714935,174.420133 0.307727817,170.83162 0.307727817,166.955141 L0.307727817,62.9547334 C0.307727817,59.0782539 2.27770611,55.4897415 5.6704465,53.540426 L94.7025209,1.5956007 Z" id="Shape"></path>
            </g>
            <g id="Node-Shape" transform="translate(1186.000000, 1.000000)" stroke="#82D7DA" stroke-width="10">
                <path d="M94.7025209,1.5956007 C97.9858181,-0.364790358 102.100884,-0.364790358 105.427958,1.5956007 L194.405311,53.540426 C197.732386,55.4897415 199.76803,59.0782539 199.76803,62.9547334 L199.76803,166.955141 C199.76803,170.83162 197.732386,174.420133 194.405311,176.369448 L105.427958,228.314273 C102.100884,230.274664 97.9858181,230.274664 94.7025209,228.314273 L5.77988974,176.369448 C2.38714935,174.420133 0.307727817,170.83162 0.307727817,166.955141 L0.307727817,62.9547334 C0.307727817,59.0782539 2.27770611,55.4897415 5.6704465,53.540426 L94.7025209,1.5956007 Z" id="Shape"></path>
            </g>
            <g id="Node-Shape" transform="translate(397.000000, 352.000000)" stroke="#82D7DA" stroke-width="10">
                <path d="M94.7025209,1.5956007 C97.9858181,-0.364790358 102.100884,-0.364790358 105.427958,1.5956007 L194.405311,53.540426 C197.732386,55.4897415 199.76803,59.0782539 199.76803,62.9547334 L199.76803,166.955141 C199.76803,170.83162 197.732386,174.420133 194.405311,176.369448 L105.427958,228.314273 C102.100884,230.274664 97.9858181,230.274664 94.7025209,228.314273 L5.77988974,176.369448 C2.38714935,174.420133 0.307727817,170.83162 0.307727817,166.955141 L0.307727817,62.9547334 C0.307727817,59.0782539 2.27770611,55.4897415 5.6704465,53.540426 L94.7025209,1.5956007 Z" id="Shape"></path>
            </g>
            <g id="Node-Shape" transform="translate(592.000000, 0.000000)" stroke="#82D7DA" stroke-width="10">
                <path d="M94.7025209,1.5956007 C97.9858181,-0.364790358 102.100884,-0.364790358 105.427958,1.5956007 L194.405311,53.540426 C197.732386,55.4897415 199.76803,59.0782539 199.76803,62.9547334 L199.76803,166.955141 C199.76803,170.83162 197.732386,174.420133 194.405311,176.369448 L105.427958,228.314273 C102.100884,230.274664 97.9858181,230.274664 94.7025209,228.314273 L5.77988974,176.369448 C2.38714935,174.420133 0.307727817,170.83162 0.307727817,166.955141 L0.307727817,62.9547334 C0.307727817,59.0782539 2.27770611,55.4897415 5.6704465,53.540426 L94.7025209,1.5956007 Z" id="Shape"></path>
            </g>
            <g id="Node-Shape" transform="translate(695.000000, 528.000000)" stroke="#82D7DA" stroke-width="10">
                <path d="M94.7025209,1.5956007 C97.9858181,-0.364790358 102.100884,-0.364790358 105.427958,1.5956007 L194.405311,53.540426 C197.732386,55.4897415 199.76803,59.0782539 199.76803,62.9547334 L199.76803,166.955141 C199.76803,170.83162 197.732386,174.420133 194.405311,176.369448 L105.427958,228.314273 C102.100884,230.274664 97.9858181,230.274664 94.7025209,228.314273 L5.77988974,176.369448 C2.38714935,174.420133 0.307727817,170.83162 0.307727817,166.955141 L0.307727817,62.9547334 C0.307727817,59.0782539 2.27770611,55.4897415 5.6704465,53.540426 L94.7025209,1.5956007 Z" id="Shape"></path>
            </g>
            <g id="Node-Shape" transform="translate(1286.000000, 177.000000)" stroke="#82D7DA" stroke-width="10">
                <path d="M94.7025209,1.5956007 C97.9858181,-0.364790358 102.100884,-0.364790358 105.427958,1.5956007 L194.405311,53.540426 C197.732386,55.4897415 199.76803,59.0782539 199.76803,62.9547334 L199.76803,166.955141 C199.76803,170.83162 197.732386,174.420133 194.405311,176.369448 L105.427958,228.314273 C102.100884,230.274664 97.9858181,230.274664 94.7025209,228.314273 L5.77988974,176.369448 C2.38714935,174.420133 0.307727817,170.83162 0.307727817,166.955141 L0.307727817,62.9547334 C0.307727817,59.0782539 2.27770611,55.4897415 5.6704465,53.540426 L94.7025209,1.5956007 Z" id="Shape"></path>
            </g>
            <g id="Node-Shape" transform="translate(990.000000, 353.000000)" stroke="#82D7DA" stroke-width="10">
                <path d="M94.7025209,1.5956007 C97.9858181,-0.364790358 102.100884,-0.364790358 105.427958,1.5956007 L194.405311,53.540426 C197.732386,55.4897415 199.76803,59.0782539 199.76803,62.9547334 L199.76803,166.955141 C199.76803,170.83162 197.732386,174.420133 194.405311,176.369448 L105.427958,228.314273 C102.100884,230.274664 97.9858181,230.274664 94.7025209,228.314273 L5.77988974,176.369448 C2.38714935,174.420133 0.307727817,170.83162 0.307727817,166.955141 L0.307727817,62.9547334 C0.307727817,59.0782539 2.27770611,55.4897415 5.6704465,53.540426 L94.7025209,1.5956007 Z" id="Shape"></path>
            </g>
            <g id="Node-Shape" transform="translate(1090.000000, 528.000000)" stroke="#82D7DA" stroke-width="10">
                <path d="M94.7025209,1.5956007 C97.9858181,-0.364790358 102.100884,-0.364790358 105.427958,1.5956007 L194.405311,53.540426 C197.732386,55.4897415 199.76803,59.0782539 199.76803,62.9547334 L199.76803,166.955141 C199.76803,170.83162 197.732386,174.420133 194.405311,176.369448 L105.427958,228.314273 C102.100884,230.274664 97.9858181,230.274664 94.7025209,228.314273 L5.77988974,176.369448 C2.38714935,174.420133 0.307727817,170.83162 0.307727817,166.955141 L0.307727817,62.9547334 C0.307727817,59.0782539 2.27770611,55.4897415 5.6704465,53.540426 L94.7025209,1.5956007 Z" id="Shape"></path>
            </g>
            <g id="Node-Shape" transform="translate(994.000000, 706.000000)" stroke="#82D7DA" stroke-width="10">
                <path d="M94.7025209,1.5956007 C97.9858181,-0.364790358 102.100884,-0.364790358 105.427958,1.5956007 L194.405311,53.540426 C197.732386,55.4897415 199.76803,59.0782539 199.76803,62.9547334 L199.76803,166.955141 C199.76803,170.83162 197.732386,174.420133 194.405311,176.369448 L105.427958,228.314273 C102.100884,230.274664 97.9858181,230.274664 94.7025209,228.314273 L5.77988974,176.369448 C2.38714935,174.420133 0.307727817,170.83162 0.307727817,166.955141 L0.307727817,62.9547334 C0.307727817,59.0782539 2.27770611,55.4897415 5.6704465,53.540426 L94.7025209,1.5956007 Z" id="Shape"></path>
            </g>
            <g id="Node-Shape" transform="translate(1192.000000, 704.000000)" stroke="#82D7DA" stroke-width="10">
                <path d="M94.7025209,1.5956007 C97.9858181,-0.364790358 102.100884,-0.364790358 105.427958,1.5956007 L194.405311,53.540426 C197.732386,55.4897415 199.76803,59.0782539 199.76803,62.9547334 L199.76803,166.955141 C199.76803,170.83162 197.732386,174.420133 194.405311,176.369448 L105.427958,228.314273 C102.100884,230.274664 97.9858181,230.274664 94.7025209,228.314273 L5.77988974,176.369448 C2.38714935,174.420133 0.307727817,170.83162 0.307727817,166.955141 L0.307727817,62.9547334 C0.307727817,59.0782539 2.27770611,55.4897415 5.6704465,53.540426 L94.7025209,1.5956007 Z" id="Shape"></path>
            </g>
            <g id="Node-Shape" transform="translate(1094.000000, 879.000000)" stroke="#82D7DA" stroke-width="10">
                <path d="M94.7025209,1.5956007 C97.9858181,-0.364790358 102.100884,-0.364790358 105.427958,1.5956007 L194.405311,53.540426 C197.732386,55.4897415 199.76803,59.0782539 199.76803,62.9547334 L199.76803,166.955141 C199.76803,170.83162 197.732386,174.420133 194.405311,176.369448 L105.427958,228.314273 C102.100884,230.274664 97.9858181,230.274664 94.7025209,228.314273 L5.77988974,176.369448 C2.38714935,174.420133 0.307727817,170.83162 0.307727817,166.955141 L0.307727817,62.9547334 C0.307727817,59.0782539 2.27770611,55.4897415 5.6704465,53.540426 L94.7025209,1.5956007 Z" id="Shape"></path>
            </g>
            <g id="Node-Shape" transform="translate(1191.000000, 353.000000)" stroke="#82D7DA" stroke-width="10">
                <path d="M94.7025209,1.5956007 C97.9858181,-0.364790358 102.100884,-0.364790358 105.427958,1.5956007 L194.405311,53.540426 C197.732386,55.4897415 199.76803,59.0782539 199.76803,62.9547334 L199.76803,166.955141 C199.76803,170.83162 197.732386,174.420133 194.405311,176.369448 L105.427958,228.314273 C102.100884,230.274664 97.9858181,230.274664 94.7025209,228.314273 L5.77988974,176.369448 C2.38714935,174.420133 0.307727817,170.83162 0.307727817,166.955141 L0.307727817,62.9547334 C0.307727817,59.0782539 2.27770611,55.4897415 5.6704465,53.540426 L94.7025209,1.5956007 Z" id="Shape"></path>
            </g>
            <g id="Node-Shape" transform="translate(1391.000000, 352.000000)" stroke="#82D7DA" stroke-width="10">
                <path d="M94.7025209,1.5956007 C97.9858181,-0.364790358 102.100884,-0.364790358 105.427958,1.5956007 L194.405311,53.540426 C197.732386,55.4897415 199.76803,59.0782539 199.76803,62.9547334 L199.76803,166.955141 C199.76803,170.83162 197.732386,174.420133 194.405311,176.369448 L105.427958,228.314273 C102.100884,230.274664 97.9858181,230.274664 94.7025209,228.314273 L5.77988974,176.369448 C2.38714935,174.420133 0.307727817,170.83162 0.307727817,166.955141 L0.307727817,62.9547334 C0.307727817,59.0782539 2.27770611,55.4897415 5.6704465,53.540426 L94.7025209,1.5956007 Z" id="Shape"></path>
            </g>
            <g id="Group" transform="translate(338.000000, 244.000000)" fill="#80D7DA" fill-rule="nonzero">
                <path d="M45.3559332,14.5454814 C56.5623263,13.5597863 59.7856706,6.42096483 72.8146089,5.28592208 C79.2161103,4.73333547 83.2980089,6.00279118 83.764942,8.21313759 C84.2168126,10.3189406 80.933219,11.6630702 77.1224428,12.0065699 C71.8656804,12.4695479 69.5159528,10.5728317 69.1393939,8.79559374 C65.1930565,9.24363693 64.4851258,10.9760706 64.7261235,12.1260481 C65.2081189,14.4260032 70.0280729,16.5766105 78.2521195,15.8597414 C87.5606558,15.0532636 90.6785635,11.4987877 89.8802586,7.75015963 C88.8710808,2.98596703 81.6562121,-0.926943501 68.8532091,0.193164475 C52.3900536,1.62690269 52.4352407,9.15402829 41.2288475,10.1397233 C36.6498912,10.5429622 34.0290412,9.52739762 33.6524823,7.72029008 C33.260861,5.91318254 35.5654015,5.07683525 38.246501,4.83787889 C40.7619145,4.61385729 43.7141363,4.95735707 45.1149355,5.74890004 C46.1693004,5.21124821 46.5157346,4.68853116 46.3952358,4.09114023 C46.0488016,2.4483152 42.5392725,1.68664178 38.1260021,2.07494588 C29.7362696,2.80674975 29.7814567,6.61511688 30.0977662,8.1533985 C30.9864452,12.394874 37.4180714,15.2474157 45.3559332,14.5454814 Z" id="Shape"></path>
                <path d="M22.4811359,25.9419544 C32.6880325,28.6421749 45.8669371,30 61.6726166,30 C77.8085193,30 90.6572008,28.6421749 100.864097,25.9419544 C111.73144,23.2263042 117,19.8471712 117,16.4526084 C117,14.0918442 114.688438,11.7156503 110.410548,10.0183688 C111.401217,10.6972814 112.061663,11.7156503 112.061663,13.0580456 C112.061663,16.4371785 107.123327,19.1528288 97.2466531,21.5290228 C88.030426,23.5657605 76.1724138,24.9081558 62.0028398,24.9081558 C48.1634888,24.9081558 35.9902637,23.5503306 27.0892495,21.5290228 C17.5427992,19.1682586 12.5894523,16.4526084 12.5894523,13.0580456 C12.5894523,11.7002204 13.2498986,10.3578251 15.2162272,9 C9.2872211,11.3607641 6,13.3975018 6,16.4526084 C6.34523327,19.8471712 11.6137931,23.241734 22.4811359,25.9419544 Z" id="Shape"></path>
                <path d="M102.109068,33.6277826 C91.8373623,35.9387741 78.5747781,37.6002713 62.6687403,37.6002713 C46.4303826,37.6002713 33.1677984,35.9387741 22.8960931,33.6277826 C13.6213474,31.3016865 8.65165466,28.6583955 6.99005527,26 C7.85106587,32.0569125 9.36161077,37.9174663 11.35553,43.5212432 C9.02929089,44.910859 6.91452803,46.768715 5.01124145,49.2005427 C1.37082824,53.8376303 -0.290771148,59.1393168 0.0415487305,64.4410033 C0.373868609,69.7426898 3.01732218,74.047478 7.00516072,77.3704724 C11.3102137,80.6783623 15.9475865,81.6752606 21.2495991,80.6783623 C23.2435184,80.3460628 25.5546521,79.3491645 27.5485714,78.6845656 C23.2435184,78.6845656 19.5879997,77.3553679 15.9475865,74.3797775 C11.9748534,71.3890825 9.31629442,67.4165937 8.65165466,62.4472067 C7.65469503,57.810119 8.65165466,53.5053309 11.2951082,49.850037 C11.8540099,49.1703336 12.4733333,48.5963619 13.0775512,48.0223901 C14.5276743,51.5266387 16.1288519,54.9100512 17.9112949,58.1424185 C21.884028,64.1087039 25.8718665,69.4103904 29.8445996,75.0443763 C31.506199,78.3522662 32.8203731,81.6752606 33.4850128,84.9831505 C36.1284664,88.6233398 39.7839851,90.9494359 44.4213579,92.2786336 C50.0556904,94.2724302 56.0223427,95.254224 61.9889951,94.9370291 L62.6536349,94.9370291 C68.6202872,95.2693286 74.9192594,94.2724302 80.8859118,92.2786336 C85.1909648,90.9494359 88.8464834,88.6384443 91.489937,84.9831505 C92.4868966,81.6752606 93.4838563,78.3522662 95.1303502,75.0443763 C99.1030833,69.4103904 103.090922,64.1087039 107.063655,58.1424185 C112.365668,48.5359438 116.006081,37.6002713 118,26 C116.021186,28.990695 111.051493,31.6339859 102.109068,33.6277826 Z" id="Shape"></path>
            </g>
            <g id="typescript-seeklogo.com" transform="translate(542.000000, 231.000000)" fill="#80D7DA" fill-rule="nonzero">
                <g id="Group">
                    <path d="M2.84217094e-14,62 L2.08288993e-14,7.10542736e-14 L62,5.68434189e-14 L124,5.68434189e-14 L124,62 L124,124 L62,124 L3.60145196e-14,124 L2.84217094e-14,62 Z M27.4210248,62.411294 L27.3816601,67.4893889 L35.4515012,67.4893889 L43.5213422,67.4893889 L43.5213422,90.4195479 L43.5213422,113.349706 L49.2292787,113.349706 L54.9372155,113.349706 L54.9372155,90.4195479 L54.9372155,67.4893889 L63.0070567,67.4893889 L71.076898,67.4893889 L71.076898,62.5097064 C71.076898,59.7541512 71.0178504,57.451294 70.9391202,57.3922462 C70.8800726,57.3135159 61.0584853,57.2741512 49.1505489,57.2938333 L27.4800725,57.3528811 L27.4210248,62.411294 Z M100.055712,57.2087248 C97.9103152,56.6772966 92.8322202,56.519836 90.647458,56.9331692 C83.9160293,58.2125343 79.2512675,62.5230107 77.9325377,68.7033281 C77.5585692,70.4747568 77.6766646,74.863963 78.1490455,76.615709 C78.7198389,78.721741 80.0976169,81.2411057 81.5541248,82.815709 C84.0734899,85.5318995 86.8290455,87.2442804 93.2258708,89.999836 C98.8157119,92.4207883 100.783966,93.5820584 101.748411,94.959836 C102.496347,96.0423758 102.67349,96.6722169 102.67349,98.1090422 C102.67349,99.7033281 102.201109,100.785868 101.059521,101.829042 C98.3826961,104.230312 92.9503152,104.525551 88.9941248,102.439201 C87.6163472,101.710947 85.3331725,99.5261854 84.2899978,97.9318995 L83.5420613,96.8296775 L79.9795214,98.8963439 C78.0112675,100.037931 75.9249186,101.238566 75.3738074,101.553487 C74.8030136,101.88809 74.2912675,102.203011 74.2322202,102.281741 C74.0944422,102.517931 76.3185692,105.804915 77.4601568,107.064598 C80.3731725,110.292534 85.0969821,112.752852 90.0766646,113.638566 C92.3598389,114.051899 97.3985692,114.110947 99.5242837,113.736979 C106.39349,112.575709 111.27476,109.072217 113.243014,103.915392 C115.034125,99.1718995 114.443648,92.7947568 111.806188,88.7992011 C109.444284,85.2169787 105.645553,82.697614 96.7687281,78.8792011 C91.9465057,76.7928517 90.4112675,75.7693601 89.5846012,74.0569787 C89.1909501,73.2696775 89.0531725,72.6988837 89.0531725,71.7344393 C89.0334899,68.4474551 91.4544422,66.4792011 95.2138074,66.7350742 C97.7725377,66.9122169 99.4455534,67.9160264 101.039839,70.2385663 C101.571267,71.025868 102.043648,71.537614 102.161744,71.4588837 C105.429046,69.431582 110.822061,65.8099949 110.782696,65.6525343 C110.644919,65.1211057 108.95222,62.8969787 107.810633,61.6766613 C105.606188,59.3934871 103.204919,57.9960264 100.055712,57.2087248 Z" id="Combined-Shape"></path>
                </g>
            </g>
            <g id="Page-1" transform="translate(1149.000000, 230.000000)">
                <g id="BackBone.JS">
                    <polygon id="Path" fill="#80D7DA" points="0 0 0 61.0981048 45.4793412 87.0219702 45.4793412 69.4002375 15.0543032 52.0575366 15.0543032 24.8171683 45.4793412 42.1598692 45.4793412 25.9238654"></polygon>
                    <polygon id="path2996" fill="#BCEBED" points="90.9586825 0 90.9586825 61.0981048 45.4793412 87.0219702 45.4793412 69.4002375 75.9043793 52.0575366 75.9043793 24.8171683 45.4793412 42.1598692 45.4793412 25.9238654"></polygon>
                    <polygon id="path2998" fill="#BCEBED" points="0 112.972918 0 51.874813 45.4793412 25.9509476 45.4793412 43.5726803 15.0543032 60.9153811 15.0543032 86.7700192 45.4793412 69.4273197 45.4793412 87.0490524"></polygon>
                    <polygon id="path3000" fill="#80D7DA" points="90.9586825 112.972918 90.9586825 51.874813 45.4793412 25.9509476 45.4793412 43.5726803 75.9043793 60.9153811 75.9043793 86.7700192 45.4793412 69.4273197 45.4793412 87.0490524"></polygon>
                </g>
            </g>
            <g id="Layer_2" transform="translate(794.000000, 353.000000)">
                <g id="Node-Shape"></g>
                <path d="M94.7025209,1.5956007 C97.9858181,-0.364790358 102.100884,-0.364790358 105.427958,1.5956007 L194.405311,53.540426 C197.732386,55.4897415 199.76803,59.0782539 199.76803,62.9547334 L199.76803,166.955141 C199.76803,170.83162 197.732386,174.420133 194.405311,176.369448 L105.427958,228.314273 C102.100884,230.274664 97.9858181,230.274664 94.7025209,228.314273 L5.77988974,176.369448 C2.38714935,174.420133 0.307727817,170.83162 0.307727817,166.955141 L0.307727817,62.9547334 C0.307727817,59.0782539 2.27770611,55.4897415 5.6704465,53.540426 L94.7025209,1.5956007 Z" id="Shape" stroke="#82D7DA" stroke-width="10" fill="#82D7DA"></path>
                <circle id="Oval" fill="#E1FFFF" fill-rule="nonzero" cx="100.5" cy="113.5" r="11.5"></circle>
                <path d="M141.664546,97.0660293 C154.876657,101.648039 163,108.593756 163,114.882927 C163,121.436917 154.390651,128.815337 140.202809,133.550946 C129.476045,137.131278 115.361185,139 100.5,139 C85.2634445,139 70.8352721,137.245776 59.9902027,133.511376 C46.2662857,128.785834 38,121.311649 38,114.882927 C38,108.6448 45.7561073,101.752937 58.7825092,97.1777171 C69.7891157,93.3121951 84.6916728,91 100.5,91 C116.15539,91 130.698846,93.2630244 141.664546,97.0660293 Z" id="Shape" stroke="#E1FFFF" stroke-width="6"></path>
                <path d="M79.5326639,102.187599 C87.3066827,88.6922504 96.4629701,77.2720416 105.158809,69.695884 C115.636142,60.5677658 125.606819,56.9927057 130.982488,60.0961641 C136.584568,63.3303018 138.61627,74.3931665 135.618621,88.9603163 C133.35219,99.9739161 127.94048,113.063581 120.560834,125.874541 C112.994745,139.009076 104.330788,150.58078 95.7532377,158.086857 C84.8990911,167.585503 74.4058176,171.022714 68.9107051,167.85033 C63.5787018,164.771851 61.5393763,154.685033 64.0973702,141.198011 C66.258681,129.802319 71.6826353,115.815015 79.5326639,102.187599 L79.5326639,102.187599 Z" id="Shape" stroke="#E1FFFF" stroke-width="6"></path>
                <path d="M64.2130634,87.3493924 C61.5172298,73.6938961 63.4232757,63.2530508 68.8518403,60.1383876 C74.5087942,56.8924906 85.2115622,60.6577682 96.4406997,70.539886 C104.930801,78.0111892 113.648824,89.249853 121.129856,102.057537 C128.799811,115.188561 134.548541,128.491554 136.784561,139.68763 C139.614205,153.855564 137.323774,164.680852 131.77471,167.86472 C126.390282,170.954155 116.537318,167.683261 106.030946,158.722558 C97.1538906,151.151498 87.6565881,139.4534 79.6986944,125.829613 C71.8180981,112.337754 66.450484,98.6831834 64.2130634,87.3493924 Z" id="Shape" stroke="#E1FFFF" stroke-width="6"></path>
            </g>
            <g id="Stylus-logo" transform="translate(725.000000, 249.000000)" fill="#83D7DA" fill-rule="nonzero">
                <path d="M21.1044796,64.0305905 C24.6562989,59.9496565 25.0741599,55.7349215 22.3232411,47.9075564 C20.5821533,42.9569152 17.6919475,39.1435834 19.8160746,36.0661578 C22.0794888,32.7880306 26.8848913,35.965807 22.8803892,40.3477935 L23.6812897,40.8829979 C28.4866921,41.4182024 30.8545716,35.0960998 27.2679306,33.2897848 C17.7964127,28.5398452 9.50883459,37.6717712 13.1651191,48.2420591 C14.7320981,52.7243964 16.9258688,57.4743359 15.1499592,61.2542174 C13.6178019,64.4988944 10.6579526,66.4055602 8.67311242,66.4724608 C4.52932334,66.6731625 7.28024214,57.5412365 12.0508228,55.2666176 C12.4686839,55.0659159 13.0606538,54.7983137 12.5035057,54.1293081 C6.61862876,53.4937528 3.17127482,56.1028745 1.18643468,59.7489549 C-4.59397697,70.3526931 12.1552881,74.2663756 21.1044796,64.0305905 Z" id="Shape"></path>
                <path d="M122.009862,33.1558782 C123.321816,36.4604138 125.306566,39.7305271 124.129172,42.6219957 C123.153616,45.1003974 121.875303,46.1330647 120.46243,46.3740204 C118.47768,46.7182429 119.015917,40.3501275 122.41354,38.456904 C122.716299,38.2847928 123.153616,37.4586589 122.749938,36.9767475 C118.44404,36.7357917 116.021972,38.8355487 114.710018,41.6237506 C110.908717,49.7818227 123.321816,52.0192687 129.410625,43.9988855 C131.832693,40.7976167 131.933613,37.6307701 129.612464,31.8822551 C128.132312,28.2334971 125.878443,25.5141398 127.291316,23.1045826 C128.805108,20.5573364 132.43821,22.7603601 129.713384,26.1681624 L130.318901,26.5123849 C133.851083,26.7189183 135.297596,21.899804 132.60641,20.6950254 C125.508405,17.5970233 118.881358,25.410873 122.009862,33.1558782 Z" id="Shape"></path>
                <path d="M76.2735526,24.0707406 C73.7877026,22.1198761 66.806891,25.3825287 64.8318322,30.2260543 C62.3459822,36.381368 58.6682863,45.3620715 55.0586959,49.297436 C51.2447891,53.4346141 50.870209,50.2392327 51.2447891,47.8511055 C52.1301604,42.2339613 57.6807569,29.2169865 60.7114507,25.5507067 C59.5877103,23.9025626 52.2323186,24.1380118 47.1244077,31.9751052 C45.2174543,34.9350374 40.8587036,44.7902664 36.0232146,52.5600886 C34.9675797,54.2418683 33.6395229,53.0646226 34.661105,49.1292581 C35.8188982,44.5884529 39.2241721,32.1096475 43.6169755,22.2880541 C55.1268014,20.0344693 67.3517349,18.4535964 76.7162382,18.4199608 C77.9761896,18.0836049 78.8275081,16.9736303 76.7162382,16.9063591 C68.645739,16.6372743 56.5229637,17.579071 45.1834015,18.9917659 C47.3627768,14.6864099 49.7124159,11.2555793 52.0961076,9.80924876 C49.5080994,8.19474025 44.2639776,8.83381653 41.2673365,13.2064437 C39.9392796,15.1573082 38.6112228,17.5117998 37.3512715,20.0681049 C29.042403,21.3462575 21.9253805,22.792588 18.3157901,24.1380118 C14.5699888,25.5507067 14.9786217,30.0242407 17.2601552,29.1833509 C21.993486,27.4343 28.395401,25.6179779 35.5124235,24.0034694 C30.9834092,34.0941476 27.4419243,46.0011478 26.5906058,50.8446734 C24.479336,62.6171312 31.8687804,62.54986 35.4783708,57.9081481 C39.3944358,52.8291734 47.5670933,34.968673 48.8270446,33.0850798 C49.2016248,32.4460035 49.7124159,32.7823594 49.4399939,33.3541645 C40.3138598,51.3492073 41.0970728,58.3117752 48.4865172,56.7645379 C51.8236857,56.0581904 57.5785987,50.4074106 59.0769192,47.481114 C59.3833938,46.7747665 60.0303959,46.8420377 59.8941849,47.144758 C54.1052192,61.9780549 46.7498275,73.985962 41.8121803,77.7531485 C37.3172187,81.1503435 33.9800502,73.7841484 49.8826796,63.2225719 C52.2323186,61.641699 51.1426309,59.489021 48.4865172,60.2290041 C48.4865172,60.2290041 48.4865172,60.2290041 48.4865172,60.2290041 C40.279807,61.5071566 16.7834168,68.8733517 6.46543681,75.9368264 C5.6822238,76.4749959 4.96711627,76.9122587 5.00116901,78.0222333 C5.03522175,78.6613095 6.15896215,78.4258604 6.70380598,78.0895044 C20.0524798,70.1851399 30.9834092,67.0906652 43.5148173,64.5007245 C43.685081,64.5679957 43.8893974,64.6016313 44.0596611,64.5343601 C44.6385577,64.3998177 44.6045049,64.7025381 44.2299248,64.9379872 C43.3786063,65.4088855 42.5272878,65.8461482 42.3229714,65.9134194 C33.877892,69.176072 28.7699811,76.3740892 30.5747763,80.0403689 C32.1071496,83.2021147 40.3819653,82.0585045 44.2980303,79.9730977 C53.9009028,74.8268518 60.8817144,64.7361737 65.6490979,50.8110378 C69.8035321,38.4667748 75.047654,24.4743677 76.2735526,24.0707406 Z" id="Shape"></path>
                <path d="M133.02403,52.7421326 C117.203129,50.5652821 83.0796176,53.4677494 68.0170171,57.6763269 C63.536152,58.9098754 64.777007,61.4132534 67.0519077,60.9416025 C67.0863759,60.9416025 68.0514853,60.6876366 68.0859535,60.6876366 C80.4600349,58.1479778 110.481831,55.9348465 127.991673,59.454088 C130.094233,59.8531773 136.401912,53.2137835 133.02403,52.7421326 Z" id="Shape"></path>
                <path d="M80.6442749,51.0754852 C84.9814141,48.8767987 91.4193551,35.2724264 95.6548427,27.8175051 C95.9597978,27.2678335 96.5019402,27.7144417 96.1969851,28.0923409 C85.4896726,46.7811757 90.0301152,48.9455077 94.2656028,48.6706719 C99.9242141,48.3271271 105.142335,40.082053 106.294387,38.2269113 C106.768762,37.5054673 107.039833,38.0894934 106.768762,38.6048105 C106.497691,39.4636724 105.515058,40.9752693 104.600192,43.0365379 C103.312604,45.9566683 104.66796,47.090366 105.786129,47.6056831 C107.548092,48.464545 112.359605,47.9148734 113.105051,44.926034 C108.293537,44.8229706 119.814063,21.8054719 121,20.3969384 C117.781029,18.5074422 112.800096,20.5687108 110.529875,25.1035015 C105.684477,34.8258182 101.618409,42.6586386 99.0771166,42.7960565 C94.1300672,43.0708923 104.769612,21.1183824 106.497691,20.4312928 C105.44729,18.8853414 98.7043937,19.5380765 94.9432808,25.4470463 C93.5879247,27.5770238 85.3202531,42.4181573 83.2872191,44.8573251 C79.6955257,49.185989 79.4244545,45.4757056 80.4409715,41.1470417 C80.7798105,39.6697992 81.3558368,37.7803031 82.1012826,35.6846801 C84.4731556,30.2566729 87.0144481,28.5389491 88.5731075,26.7868709 C99.0432327,15.0032857 105.040683,5.45274144 102.66881,1.70810358 C100.568008,-1.62428056 93.5540408,-0.147038104 89.0474821,6.72385704 C80.7459266,19.3319496 73.0881651,36.6122509 72.105532,44.5137803 C71.1567828,52.4153097 76.8153942,52.9993358 80.6442749,51.0754852 Z M84.3152424,27.1142232 C84.6824548,26.2668997 84.9161354,26.0296491 85.5504114,24.6061455 C85.5504114,24.6061455 85.5504114,24.6061455 85.5504114,24.6061455 C89.2225357,16.4040535 93.8293825,7.7613532 97.0007625,3.72809307 C98.9703564,1.62673065 101.741141,4.4737378 96.7336989,12.2691145 C93.7959995,16.8785547 90.4577048,21.1151724 86.8189635,24.8433961 C86.8189635,24.8433961 86.8189635,24.8433961 86.8189635,24.877289 C85.8842409,25.9279702 85.0496672,26.8091867 84.6824548,27.3175809 C84.4153912,27.6565103 84.1149447,27.5887244 84.3152424,27.1142232 Z" id="Shape"></path>
            </g>
            <g id="687474703a2f2f676172746864622e636f6d2f696d672f6a6164655f6272616e64696e672f6a6164652d30322e737667" transform="translate(1039.000000, 414.000000)" fill="#83D7DA" fill-rule="nonzero">
                <path d="M77.6650674,58.2813608 C78.1261842,58.7440236 78.2075578,59.5332719 77.6108183,59.9415038 C76.2003433,60.8940448 74.464374,60.7307521 72.8369028,60.5402439 C70.0702018,60.2408738 66.7881348,60.132012 65.3505353,57.464897 L65.2420372,57.3832506 C63.4246943,56.4034941 66.4897651,55.6958922 67.3306252,55.5870303 C69.2835907,55.3420912 71.3179297,55.8319695 73.2166461,56.2674168 C74.8983663,56.6756487 76.4173395,57.0838806 77.6650674,58.2813608 Z M102.836622,99.5672118 C101.56177,100.492537 102.131385,102.016603 101.182026,103.132437 C100.286917,104.166624 98.1169555,104.139409 96.8963521,104.166624 C91.986814,104.221055 87.1315249,103.812823 82.2219868,104.221055 C81.0013834,104.329917 79.889278,104.49321 78.6957992,104.79258 C78.3431804,104.874226 77.7735655,105.09195 77.3938222,104.901442 C76.3902149,104.384348 75.4951058,102.724205 74.2202533,103.268514 C73.1352725,103.703962 72.3486615,105.309674 71.01956,104.329917 C68.6597267,102.588128 66.6525122,104.166624 64.1841809,104.656503 C61.634476,105.173596 59.1661447,103.731177 56.6164398,104.465994 C54.7177234,105.010304 52.9275051,105.609044 50.9745396,104.955873 C48.9944497,104.302702 48.4790838,102.75142 50.1879285,101.336217 C52.873256,99.1317645 56.155323,98.805179 59.5187635,99.0501181 C64.5639242,99.45835 69.5548359,99.104549 74.5999966,98.8596099 C74.7356192,98.8596099 74.8441173,98.9412563 74.8712418,99.0501181 C77.0140789,99.9210128 78.4516785,98.152008 79.6451574,96.6823732 C79.8079045,96.491865 80.1062742,96.5735113 80.2147723,96.7640196 C82.0049906,99.45835 84.2292013,96.4102186 86.4805364,96.6279423 C87.0772759,96.6823732 87.6740153,96.8456659 87.9995095,97.4171906 C88.1622567,97.6621297 88.1893812,98.0159307 88.2165057,98.2880852 C88.3250038,99.6488582 90.0609731,99.3767036 90.006724,97.9614997 C90.006724,97.7437761 90.2508447,97.5260524 90.4678409,97.6076988 C92.2309347,98.3153007 94.5907679,99.2950572 96.109741,97.3899751 C97.357469,95.8114785 97.5473406,93.4981645 97.6287142,91.5386515 C97.8999594,86.3132834 97.5202161,80.951838 97.1675973,75.7536853 C96.8421031,70.69161 96.2996127,65.5206728 96.8963521,60.4585975 C97.4930916,55.4509531 97.4930916,50.524955 97.357469,45.4628797 C97.3032199,42.8229802 97.2218464,40.1830806 97.3303445,37.5431811 C97.4388425,35.1210053 97.8728349,32.5355367 97.5744651,30.1133609 C97.3303445,27.9361242 96.055492,26.085473 95.7571223,23.9354517 C95.4858771,21.9759387 95.7571223,19.9619947 96.2182391,18.0569126 C96.4894843,16.8594324 97.0590993,15.471444 97.0319747,14.2195329 C97.0048502,13.15813 96.9234767,12.0967271 96.9506012,11.0353242 C96.9777257,10.5182305 96.8692276,9.70176676 97.2489709,9.26631942 C97.8728349,8.53150203 98.1712046,7.47009914 96.7607295,7.30680639 C93.3701645,6.92578996 89.8711014,4.74855326 86.616159,6.81692813 C86.6432835,7.52453006 86.7246571,8.36820928 86.5347855,9.07581121 C86.6704081,9.29353488 86.8331552,9.51125855 87.0230268,9.70176676 C87.8367624,10.0555677 88.6776225,10.191645 89.5456072,10.191645 C90.576339,10.2188605 91.7426933,9.91949043 92.7463006,10.0283523 C93.6414097,10.1372141 94.3466472,10.899247 94.0482775,11.8790035 C93.8584059,12.5866054 93.2074174,13.212561 92.8276741,13.8385165 C92.1766856,14.9271349 92.2580592,16.478416 92.2580592,17.7031117 C92.2038102,20.8328894 92.2580592,23.9898826 92.3665573,27.1196604 C92.4479308,29.7323445 92.719176,32.3450285 92.9090477,34.9577126 C92.9632967,35.0121435 93.1260438,35.0937898 93.1260438,35.1754362 C93.2345419,38.0874903 94.2110246,40.9995444 94.2652737,43.938814 C94.2923982,43.9932449 93.5057871,47.55847 93.5057871,47.55847 C93.4786626,51.3686342 93.1531684,58.4174381 93.1531684,58.4174381 C93.0989193,64.9219327 91.986814,71.3175655 93.1260438,77.7948447 C93.5871607,80.4075288 92.610678,82.8841356 92.5021799,85.4696041 C92.3665573,88.3000119 92.7734251,91.157635 92.3665573,93.9880428 C92.4479308,94.1513355 92.3936818,94.3690592 92.1495611,94.3962746 C86.2364157,95.5121084 80.2418968,95.7298321 74.2473779,95.3760312 C72.7555293,95.2943848 70.9381864,95.1583075 69.5277114,95.7298321 C68.9309719,95.9747712 68.1714854,96.3830031 67.4933724,96.2741413 C66.6253877,96.138064 66.2185199,95.484893 65.3776598,95.3216002 C64.3740525,95.131092 63.3433208,94.9133684 62.3397135,94.7772911 C59.6815106,94.4234901 57.1318057,94.2601973 54.6092253,95.3488157 C53.2258748,95.9475558 51.7882752,95.7298321 50.4049247,95.131092 C48.7774535,94.4507056 47.5297256,93.6342418 45.7395072,94.5323519 C45.0071452,94.8861529 44.3561567,95.2671693 43.5424211,95.4576775 C42.8643081,95.6209703 42.2675687,95.4304621 41.6437047,95.2127384 C40.2603542,94.6956447 39.1753734,94.5323519 37.7106493,94.8045065 C37.8733964,94.9950147 37.7648983,95.4304621 37.4665286,95.4304621 C28.7053086,94.9677993 19.9169641,96.0292022 11.1557441,96.0836331 C10.7760009,96.1924949 10.4505066,96.6551577 10.1792614,96.6551577 L9.90801621,96.6551577 C9.71814457,96.6551577 9.63677101,95.9203403 9.69102005,95.784263 C8.49754117,94.5051365 8.79591089,90.2323094 8.85015993,88.9531829 C9.22990321,80.7613298 8.17204693,72.5966921 7.92792625,64.4320545 C7.81942817,60.3497356 7.81942817,56.2946323 8.47041665,52.2395289 C9.22990321,47.6945473 9.22990321,43.3400739 9.12140513,38.7406613 C8.93153349,29.7323445 9.79951813,20.7240276 9.52827293,11.7157107 C9.52827293,11.552418 9.69102005,11.497987 9.79951813,11.552418 C9.82664265,11.5252025 9.85376717,11.497987 9.90801621,11.497987 C12.3220985,11.2802634 14.9531769,10.5998769 17.3401347,11.2802634 C17.3943838,11.3074788 17.4215083,11.3346943 17.4486328,11.3619098 L17.8283761,11.4163407 L20.5137036,11.4163407 C20.6222016,11.4163407 20.7035752,11.4707716 20.7306997,11.5252025 C25.4503662,11.5796334 30.1971572,11.1441861 34.9168237,10.9264624 C36.5714195,10.844816 38.2802642,10.9264624 39.8806109,10.4093687 C40.721471,10.1372141 41.6708292,9.72898222 42.5930629,9.78341314 C44.7359,9.91949043 46.9872352,10.6270924 49.0758232,11.0625397 C50.5676718,11.3891252 51.5984036,8.80365662 52.9275051,9.64733585 C54.9618441,10.9264624 57.2945528,10.4637996 59.600137,10.5182305 C60.8207404,10.545446 62.0142193,10.3005069 63.2348227,10.3005069 C63.8858112,10.3005069 64.4554261,10.4637996 65.0792901,10.6270924 C65.703154,10.5182305 66.2456444,10.5998769 66.8966329,10.8176006 C70.5584431,10.899247 74.2202533,10.4093687 77.9091881,10.4637996 C80.1333987,10.4910151 82.5203565,10.6543078 84.6360691,9.83784406 C85.1785595,9.62012039 85.5040537,9.32075034 85.6668008,8.93973392 L85.4226801,8.39542474 C85.259933,8.06883923 85.0971859,7.74225373 84.8530652,7.47009914 C82.5203565,6.68085083 79.7536554,6.92578996 77.3124486,6.81692813 C73.8947591,6.68085083 70.5855676,7.11629817 67.1950026,7.38845276 C64.0485583,7.66060735 60.7936159,7.8239001 57.620047,7.60617643 C55.7755797,7.47009914 52.2493921,6.62641992 50.6761699,7.90554648 C50.5134228,8.01440832 50.3778002,8.01440832 50.2150531,7.90554648 C47.1771068,5.40172427 43.2169269,9.13024213 39.7449883,8.09605469 C37.6835248,7.47009914 35.7034348,7.08908272 33.5334732,7.30680639 C31.3906361,7.52453006 29.3834216,7.8239001 27.21346,7.79668464 C22.5480426,7.76946919 17.8555006,8.06883923 13.1900831,7.90554648 C12.1864759,7.87833102 11.1828687,7.85111556 10.1792614,7.74225373 C9.36552581,7.63339189 8.25342049,7.25237547 7.43968488,7.55174552 C6.16483244,8.04162377 5.89358724,8.47707112 6.00208532,8.83087208 C6.35470408,9.07581121 5.13410068,10.7359542 5.10697616,11.552418 C5.07985164,12.2872354 5.0256026,12.9948373 5.0256026,13.7024392 C4.97135356,16.8866479 4.7543574,19.8259174 4.04911987,22.9284798 C3.66937659,24.5886227 2.88276551,26.9019367 3.47950495,28.5620797 C3.85924823,29.6234826 4.67298384,30.3583 5.13410068,31.365272 C5.94783628,33.1070614 6.00208532,35.2842981 5.92071176,37.1621647 C5.64946656,43.3400739 5.64946656,49.5451985 5.4324704,55.7231076 C5.21547424,61.9282323 4.83573096,68.1333569 5.05272712,74.3384815 C5.24259876,80.0809433 6.16483244,85.9594824 5.40534588,91.6747288 C5.1612252,93.5798109 2.90989003,96.9545278 5.07985164,98.2608698 C6.30045504,98.9956872 7.81942817,99.1861954 9.20277869,99.2678418 C12.7018418,99.45835 16.2280294,99.104549 19.699968,98.7235326 C20.9748204,98.5874553 22.2767974,98.3153007 23.5516498,98.2880852 C24.5552571,98.2608698 25.4503662,98.3697316 26.3997244,98.7235326 C27.21346,99.0229026 28.461188,99.5944273 29.4647952,99.5944273 C29.5190442,99.6488582 31.0108928,99.5399964 31.1193909,99.104549 C32.4213679,98.5602398 33.5334732,98.097577 35.2151935,98.451378 C36.7884156,98.7779635 38.2802642,98.9684717 39.9077354,98.6418862 C40.7757201,98.4785935 42.077697,98.3969471 42.9456817,98.6146708 C43.0270552,98.6418862 43.2440514,98.8868253 43.325425,98.8596099 C43.6780437,98.7235326 43.1084288,99.2950572 42.7829346,99.4311345 C40.8299691,100.220383 41.4538331,102.724205 41.2097124,104.384348 C41.1825879,104.520425 41.0198408,104.602072 40.8842182,104.602072 C40.0976071,104.602072 39.0397508,104.602072 38.632883,103.785608 C37.7377738,102.071034 35.5406877,100.9552 35.5406877,104.438779 C35.5406877,104.629287 35.3779406,104.738149 35.242318,104.738149 C35.0795709,104.738149 34.9439483,104.629287 34.9439483,104.438779 C34.9439483,104.248271 32.6654886,103.023575 32.3942434,102.860282 C31.282138,102.234327 29.9530366,101.526725 28.6510596,101.962172 C27.837324,102.234327 27.1320865,102.69699 26.3997244,103.050791 C25.0163739,104.765364 23.5787743,106.5888 21.4901863,105.472966 C21.0833185,105.255243 19.3473492,103.758392 19.0489795,104.112193 C18.5607381,104.656503 18.0453722,105.119165 17.3672592,105.39132 C15.5227919,106.126137 13.5427019,105.99006 11.5897365,105.99006 C11.4541139,105.99006 11.3184913,105.881198 11.2913667,105.745121 C11.1828687,104.955873 10.7488763,103.404592 9.69102005,104.357133 L8.98578253,105.010304 C8.66028829,105.282458 8.33479405,105.636259 7.92792625,105.799552 C6.62594928,106.316646 2.69289387,105.636259 2.15040347,104.710934 C1.77066019,104.030547 1.58078855,103.322945 1.44516595,102.560912 C1.1196717,100.65583 1.33666786,98.5874553 1.2552943,96.6279423 C1.09254718,91.7291597 0.739928423,86.9392389 0.305936102,82.0676718 C0.088939941,79.5638496 -0.1009317,77.0328119 0.088939941,74.5289897 C0.197438021,72.9232776 0.251687061,70.69161 1.03829814,69.2491907 C1.71641115,68.024495 1.22816978,67.1536003 0.360185142,66.2282747 C0.143188981,65.9833356 0.0618154209,65.4934574 0.0346909008,65.1940873 C-0.1009317,63.3706516 0.197438021,61.4927849 0.305936102,59.6693492 C0.387309662,58.3357917 0.577181303,57.0022342 0.631430343,55.6414613 C0.658554863,54.6072738 0.414434182,53.6275173 0.333060622,52.6205453 C0.305936102,52.1306671 0.251687061,51.5591424 0.550056782,51.1236951 C1.17392074,50.2528004 1.03829814,49.7901376 0.712803903,48.8103811 C0.0346909008,46.8780835 0.712803903,44.591985 0.848426503,42.6324719 C0.984049104,40.2919425 1.09254718,37.951413 0.848426503,35.6108836 C0.577181303,33.025415 0.088939941,30.4943773 0.251687061,27.8816933 C0.387309662,25.5411638 0.577181303,23.3639271 0.685679383,20.9961822 C0.875551023,16.7777861 0.902675544,12.4505281 0.794177463,8.23213199 C0.794177463,8.47707112 0.794177463,9.23910396 0.767052943,9.23910396 C0.767052943,9.23910396 0.387309662,3.82322766 2.69289387,2.51688563 C6.16483244,0.802311726 10.3691331,1.15611269 14.1123168,0.965604479 C19.021855,0.747880809 23.8771441,1.23775907 28.7866822,1.23775907 C31.6076323,1.23775907 34.4285824,1.15611269 37.1952834,0.557372597 C39.1482489,0.121925256 41.0740898,-0.0957984151 43.0813043,0.0402788791 C45.468262,0.203571632 47.8009708,0.802311726 50.1879285,1.0200354 C52.5477618,1.23775907 54.8804705,1.12889723 57.2403038,0.93838902 C62.3668381,0.584588056 67.5204969,0.72066535 72.6741557,0.93838902 L80.6758891,1.29218999 C81.8964925,1.3466209 83.3612166,1.64599095 84.5546955,1.31940544 L86.8331552,0.530157138 C88.5148754,0.0947097967 89.6812298,0.502941679 91.308701,0.883958103 C93.3159155,1.37383636 95.3502545,1.8092837 97.357469,2.32637742 C98.035582,2.16308467 98.6865705,2.13586921 99.2290609,2.65296293 C100.341166,3.68715036 99.2561854,4.96627693 100.097046,6.13654166 C101.100653,7.55174552 101.995762,8.39542474 102.185634,10.2188605 C102.375505,12.1511581 102.511128,14.165102 101.887264,16.0157532 C101.480396,17.2676643 100.910781,18.6284373 101.426147,19.9075638 C101.751641,20.7240276 102.294132,21.5404914 102.484003,22.3841706 C102.890871,24.2348218 102.890871,26.1126884 102.782373,27.9905551 C102.673875,30.1677918 102.592501,32.3450285 102.321256,34.5222652 C102.158509,35.8830382 101.616019,37.2438111 101.56177,38.6317995 C101.534645,39.7748488 101.887264,40.7001744 102.10426,41.7887927 C102.809498,45.3540178 99.7444267,47.55847 99.1748118,50.8243251 C98.8764421,52.5661144 100.883657,51.831297 101.724517,52.838269 C102.267007,53.49144 101.995762,54.6344893 101.914388,55.3965221 C101.724517,57.3016043 102.267007,59.1794709 102.185634,61.0573376 C102.050011,63.397867 101.371898,65.3845955 101.941513,67.7523404 C102.267007,69.0858979 102.511128,70.4194554 102.212758,71.7530129 C101.914388,73.0593549 100.368291,76.4612873 102.40263,77.0600274 C102.484003,77.0872428 102.538252,77.1688892 102.538252,77.2505356 C102.538252,77.8492757 102.429754,78.284723 102.158509,78.8562476 C101.236275,80.8974071 102.64675,80.5163906 102.917996,81.8499481 C103.162116,83.0746438 102.429754,83.5373066 102.267007,84.6803558 C101.968637,86.531007 102.917996,88.0006418 102.890871,89.7968621 C102.863747,91.4842205 101.914388,92.4367616 102.239883,93.9608273 C102.348381,93.9608273 102.429754,94.0424737 102.456879,94.178551 C102.619626,95.0222302 102.700999,95.9203403 102.40263,96.7640196 C101.995762,97.9614997 101.507521,98.2336543 102.836622,98.9684717 C103.080743,99.1589799 103.026494,99.4311345 102.836622,99.5672118 Z M80.2961458,42.1698091 C79.4552857,37.1077338 78.9941689,31.8551502 77.3124486,26.9835831 C76.6072111,24.9424237 76.2274678,22.7379715 73.8676346,22.3569551 C70.8025638,21.8398614 71.8332956,24.42533 72.2130389,26.8747213 C72.8369028,30.712101 73.0810235,34.5494807 74.0575062,38.305214 C74.7356192,40.8906826 76.0375962,43.9932449 72.5927821,41.9520855 C66.7881348,38.5229377 64.8080449,30.8481783 62.4753361,25.1329319 C61.4174799,22.5746788 58.4066581,16.3423387 56.3723191,14.818273 C55.3958364,14.0834556 50.4862983,12.9948373 49.5640646,13.6207928 C47.5297256,15.0087812 53.7683652,24.7247 54.6363498,26.4664894 C56.5350662,30.3310846 58.5694052,34.1956797 61.0106121,37.7336894 C62.7465813,40.2375116 65.5404069,42.4963947 61.6073515,43.9932449 C57.5386735,45.544526 55.585708,43.285643 52.7918825,41.1628372 C50.5947963,39.4754787 47.8009708,39.2849705 45.0342697,38.9311695 C37.4936531,37.9786285 30.2514063,38.8767386 24.1755138,43.9115985 C21.2189411,46.3609898 19.4015982,49.7629222 17.8555006,53.2192854 C17.4486328,54.0901801 14.9260524,61.737724 15.2786712,61.792155 C13.7596981,61.5472158 14.6276827,57.9547753 12.6747173,60.0503656 C10.938748,61.9282323 13.1629586,67.2896776 13.9495697,69.1403288 C15.7126635,73.304294 17.5571309,77.3866129 18.9404814,81.6866554 C20.3509564,86.0139133 20.6222016,85.9050515 24.6366306,86.2588524 C29.6817914,86.7215152 34.618454,85.1702341 39.5822412,84.5442785 C39.5822412,84.5442785 30.7667722,79.0739713 48.1807141,85.0613723 C52.0323959,86.3949297 56.155323,86.0411288 60.1968765,86.2044215 C63.0992001,85.5240351 63.1534491,80.5436061 64.6724223,78.2030766 C65.2420372,77.3321819 68.0087382,72.9232776 68.9038474,72.5694767 C70.1515753,72.0795984 71.9417937,73.3859404 73.1623971,73.5764486 C80.4317684,74.7194979 82.6559791,68.732097 81.5167492,62.8807733 C80.513142,57.7370516 81.1098814,52.1034516 81.8422435,48.1027792 C82.0863642,46.7147908 80.5402665,43.5577975 80.2961458,42.1698091 Z M47.9094689,104.302702 C47.1228578,103.567884 45.9293789,103.377376 45.1698923,102.615343 C44.7359,102.179896 44.6274019,101.662802 44.7087755,101.172924 L44.6545264,101.118493 C44.112036,100.111521 45.3868885,99.2134108 46.3091222,99.5944273 C46.770239,99.7849355 47.5026011,100.111521 47.5568501,100.683046 C47.6382237,101.390648 47.1228578,101.907741 46.9872352,102.560912 C47.4754765,102.860282 48.0179669,103.567884 48.2892121,103.976116 C48.5062083,104.248271 48.126465,104.49321 47.9094689,104.302702 Z" id="Shape"></path>
            </g>
            <g id="SC" transform="translate(1139.000000, 591.000000)">
                <rect id="Rectangle-2" stroke="#81D7DA" stroke-width="4" x="2" y="2" width="101" height="101"></rect>
                <polyline id="Path-2" stroke="#81D7DA" stroke-width="3" points="26 28 14 35.0424237 14 36.7401143 26 44"></polyline>
                <polyline id="Path-2-Copy" stroke="#81D7DA" stroke-width="3" transform="translate(81.000000, 36.000000) scale(-1, 1) translate(-81.000000, -36.000000) " points="87 28 75 35.0424237 75 36.7401143 87 44"></polyline>
                <path d="M58.1436308,29.0000298 C58.8690484,29.0000298 59,28.9728508 59,30.5609775 C59,31.6197287 58.3242305,33.0539333 56.9726916,34.8635914 C54.5897647,36.8580004 53.1378931,37.8935953 52.6170768,37.9703763 C51.8358525,38.0855476 51.1550386,37.8719276 50.6669478,37.2058597 C50.178857,36.5397918 49.5727889,36.1295284 50.4327437,34.741836 C51.2926985,33.3541435 52.7260748,32.0370775 54.1250539,30.9060986 C55.5240329,29.7751196 57.4182132,29.0000298 58.1436308,29.0000298 Z" id="Path-4-Copy" fill="#82D7DA"></path>
                <path d="M36,43.6044922 L53.4567871,31.8566895 C51.6758348,33.8474218 50.8219027,35.0747264 50.8949908,35.5386032 C51.0238197,36.3562561 51.6210214,37.2468796 52.2469096,37.2468796 C53.7317455,37.2468796 55.6170543,36.1487385 57.902836,33.9524563 C58.1612929,35.3289092 57.9041271,36.3585605 57.1313386,37.0414102 C56.3585501,37.7242598 51.9048108,42.0437898 43.7701208,50 L36,50 L36,43.6044922 Z" id="Path-3-Copy" fill="#81D7DA"></path>
                <path d="M43,50 L54.0431007,40 C53.0251977,41.1676256 52.5544231,41.9718792 52.6307769,42.412761 C52.7653619,43.1898817 53.3892472,44.0363557 54.0431007,44.0363557 C55.5942806,44.0363557 57.5564088,42.959039 59.9294853,40.8044058 C60.1301907,42.3937497 59.9024463,43.6215445 59.246252,44.4877902 C58.5900577,45.3540359 57.1435016,47.1369908 54.9065836,49.836655 L43,50 Z" id="Path-3-Copy-2" fill="#81D7DA"></path>
                <path d="M60.1436308,36.0000298 C60.8690484,36.0000298 61,35.9728508 61,37.5609775 C61,38.6197287 60.3242305,40.0539333 58.9726916,41.8635914 C56.5897647,43.8580004 55.1378931,44.8935953 54.6170768,44.9703763 C53.8358525,45.0855476 53.1550386,44.8719276 52.6669478,44.2058597 C52.178857,43.5397918 51.5727889,43.1295284 52.4327437,41.741836 C53.2926985,40.3541435 54.7260748,39.0370775 56.1250539,37.9060986 C57.5240329,36.7751196 59.4182132,36.0000298 60.1436308,36.0000298 Z" id="Path-4-Copy-2" fill="#82D7DA"></path>
                <g id="styled-components" transform="translate(12.000000, 73.000000)" fill="#82D7DA" fill-rule="nonzero">
                    <path d="M2.95510984,2.56664977 C1.45725883,2.56664977 0.47086915,3.36948809 0.47086915,4.43993918 C0.47086915,5.3887481 1.05539637,6.02128738 2.38276027,6.38621389 C3.58834766,6.72681196 3.84407832,6.897111 3.84407832,7.43233654 C3.84407832,7.91890522 3.39350525,8.21084643 2.69937918,8.21084643 C2.04178606,8.21084643 1.44508118,7.95539787 0.945797517,7.57830715 L0.166427889,8.45413077 C0.76313276,8.98935631 1.62774594,9.36644703 2.73591213,9.36644703 C4.20940783,9.36644703 5.45152818,8.66092245 5.45152818,7.32285859 C5.45152818,6.1794222 4.7086915,5.64419665 3.39350525,5.29143436 C2.29751671,4.98732894 2.04178606,4.79270147 2.04178606,4.36695388 C2.04178606,3.97769894 2.39493792,3.72225038 3.01599809,3.72225038 C3.58834766,3.72225038 4.09980898,3.90471363 4.6356256,4.24531171 L5.24450812,3.33299544 C4.6356256,2.85859098 3.88061127,2.56664977 2.95510984,2.56664977 Z M9.85983763,7.88241257 L10.4078319,8.87987836 C9.94508118,9.20831221 9.36055396,9.36644703 8.78820439,9.36644703 C7.52172875,9.35428282 6.85195798,8.63659402 6.85195798,7.26203751 L6.85195798,3.86822098 L5.84121299,3.86822098 L5.84121299,2.74911303 L6.85195798,2.74911303 L6.85195798,1.32589965 L8.41069723,1.14343639 L8.41069723,2.74911303 L9.90854823,2.74911303 L9.75023878,3.86822098 L8.41069723,3.86822098 L8.41069723,7.22554486 C8.41069723,7.85808414 8.61771729,8.11353269 9.09264565,8.11353269 C9.33619866,8.11353269 9.57975167,8.04054739 9.85983763,7.88241257 Z M16.4966571,2.74911303 L14.4021012,9.20831221 C13.9149952,10.7166751 12.9651385,11.6898125 11.0532474,11.8357831 L10.8949379,10.7045109 C12.1735912,10.5098834 12.5876313,10.0963001 12.9529608,9.18398378 L12.4171442,9.18398378 L10.3712989,2.74911303 L12.0274594,2.74911303 L13.4278892,8.15002534 L14.8892073,2.74911303 L16.4966571,2.74911303 Z M18.9687202,9.36644703 C19.3705826,9.36644703 19.7359121,9.2691333 20.0038204,9.14749113 L19.6750239,8.05271161 C19.565425,8.08920426 19.4558262,8.11353269 19.3096944,8.11353269 C19.0539637,8.11353269 18.9443649,7.96756209 18.9443649,7.66345666 L18.9443649,2.84217094e-13 L17.3856256,0.170299037 L17.3856256,7.71211353 C17.3856256,8.77040041 17.9823305,9.36644703 18.9687202,9.36644703 Z M26.324021,5.81449569 C26.324021,6.02128738 26.2996657,6.27673594 26.2874881,6.44703497 L22.2445081,6.44703497 C22.354107,7.7607704 22.9751671,8.18651799 23.8276027,8.18651799 C24.3999522,8.18651799 24.8748806,8.00405474 25.4350525,7.6147998 L26.080468,8.50278763 C25.4472302,9.01368474 24.6678606,9.36644703 23.6936485,9.36644703 C21.6965138,9.36644703 20.6248806,8.04054739 20.6248806,6.00912316 C20.6248806,4.05068424 21.6599809,2.56664977 23.4866285,2.56664977 C25.2889207,2.56664977 26.324021,3.78307146 26.324021,5.81449569 Z M24.7774594,5.43740497 L24.7774594,5.36441967 C24.7774594,4.30613279 24.3999522,3.67359351 23.5231614,3.67359351 C22.7925024,3.67359351 22.3297517,4.16016219 22.2445081,5.43740497 L24.7774594,5.43740497 Z M31.584766,2.93820645e-13 L33.1435053,0.170299037 L33.1435053,9.18398378 L31.7674308,9.18398378 L31.6578319,8.36898125 C31.2681471,8.95286366 30.6470869,9.36644703 29.8190067,9.36644703 C28.2115568,9.36644703 27.3712989,8.01621896 27.3712989,5.97263051 C27.3712989,3.98986315 28.3698663,2.56664977 29.9651385,2.56664977 C30.6470869,2.56664977 31.1829035,2.85859098 31.584766,3.26001014 L31.584766,2.84217094e-13 Z M30.2574021,8.18651799 C30.8297517,8.18651799 31.2194365,7.906741 31.584766,7.35935124 L31.584766,4.41561075 C31.2437918,4.00202737 30.8784623,3.7344146 30.3548233,3.7344146 C29.5510984,3.7344146 29.0152818,4.41561075 29.0152818,5.96046629 C29.0152818,7.6147998 29.4902101,8.18651799 30.2574021,8.18651799 Z M3.00787966,14.7308667 C1.15687679,14.7308667 0,16.1297516 0,18.1855043 C0,20.241257 1.15687679,21.530664 3.02005731,21.530664 C3.84813754,21.530664 4.51790831,21.2630512 5.10243553,20.7886467 L4.40830946,19.8033452 C3.93338109,20.1074506 3.59240688,20.2655854 3.10530086,20.2655854 C2.22851003,20.2655854 1.65616046,19.7181956 1.65616046,18.1611759 C1.65616046,16.6163203 2.20415473,15.9594526 3.10530086,15.9594526 C3.59240688,15.9594526 3.98209169,16.1054232 4.40830946,16.4216929 L5.10243553,15.4850482 C4.49355301,14.9619868 3.84813754,14.7308667 3.00787966,14.7308667 Z M8.86532951,14.7308667 C10.765043,14.7308667 11.8853868,16.0202737 11.8853868,18.1246832 C11.8853868,20.1561075 10.7528653,21.530664 8.85315186,21.530664 C6.9534384,21.530664 5.82091691,20.241257 5.82091691,18.1246832 C5.82091691,16.1054232 6.9534384,14.7308667 8.86532951,14.7308667 Z M8.86532951,15.9107957 C7.95200573,15.9107957 7.46489971,16.6041561 7.46489971,18.1246832 C7.46489971,19.6695388 7.93982808,20.3507349 8.85315186,20.3507349 C9.76647564,20.3507349 10.241404,19.6573746 10.241404,18.1246832 C10.241404,16.5919919 9.76647564,15.9107957 8.86532951,15.9107957 Z M20.1783668,14.7308667 C19.3259312,14.7308667 18.7292264,15.1444501 18.2421203,15.813482 C17.9985673,15.1322859 17.4383954,14.7308667 16.6833811,14.7308667 C15.8674785,14.7308667 15.2829513,15.1079574 14.8202006,15.7526609 L14.6984241,14.91333 L13.3467049,14.91333 L13.3467049,21.3482007 L14.9054441,21.3482007 L14.9054441,16.8717689 C15.258596,16.2757223 15.5873926,15.8986315 16.1353868,15.8986315 C16.512894,15.8986315 16.8416905,16.1297516 16.8416905,16.93259 L16.8416905,21.3482007 L18.4004298,21.3482007 L18.4004298,16.8717689 C18.7535817,16.2757223 19.0823782,15.8986315 19.6181948,15.8986315 C20.0078797,15.8986315 20.3244986,16.1297516 20.3244986,16.93259 L20.3244986,21.3482007 L21.8832378,21.3482007 L21.8832378,16.6893056 C21.8832378,15.4728839 21.2012894,14.7308667 20.1783668,14.7308667 Z M27.034384,14.7308667 C28.7148997,14.7308667 29.4212034,16.0567663 29.4212034,18.112519 C29.4212034,20.0831221 28.5078797,21.530664 26.8760745,21.530664 C26.2184814,21.530664 25.6583095,21.2995438 25.256447,20.8251394 L25.256447,23.829701 L23.6977077,24 L23.6977077,14.91333 L25.0616046,14.91333 L25.1468481,15.7040041 C25.6583095,15.0349721 26.3402579,14.7308667 27.034384,14.7308667 Z M26.4376791,20.3385707 C27.2901146,20.3385707 27.7893983,19.681703 27.7893983,18.1246832 C27.7893983,16.4946782 27.3510029,15.8986315 26.5716332,15.8986315 C26.023639,15.8986315 25.5608883,16.2757223 25.256447,16.7744551 L25.256447,19.6695388 C25.5608883,20.1196148 25.9505731,20.3385707 26.4376791,20.3385707 Z M33.5859599,14.7308667 C35.4856734,14.7308667 36.6060172,16.0202737 36.6060172,18.1246832 C36.6060172,20.1561075 35.4734957,21.530664 33.5737822,21.530664 C31.6740688,21.530664 30.5415473,20.241257 30.5415473,18.1246832 C30.5415473,16.1054232 31.6740688,14.7308667 33.5859599,14.7308667 Z M33.5859599,15.9107957 C32.6726361,15.9107957 32.1855301,16.6041561 32.1855301,18.1246832 C32.1855301,19.6695388 32.6604585,20.3507349 33.5737822,20.3507349 C34.487106,20.3507349 34.9620344,19.6573746 34.9620344,18.1246832 C34.9620344,16.5919919 34.487106,15.9107957 33.5859599,15.9107957 Z M41.5014327,14.7308667 C40.6855301,14.7308667 40.0401146,15.1079574 39.5408309,15.7526609 L39.4190544,14.91333 L38.0673352,14.91333 L38.0673352,21.3482007 L39.6260745,21.3482007 L39.6260745,16.8717689 C40.0035817,16.2757223 40.4176218,15.8986315 40.9777937,15.8986315 C41.4648997,15.8986315 41.769341,16.1297516 41.769341,16.93259 L41.769341,21.3482007 L43.3280802,21.3482007 L43.3280802,16.6893056 C43.3280802,15.4607197 42.6583095,14.7308667 41.5014327,14.7308667 Z M50.4276504,17.9787126 C50.4276504,18.1855043 50.4032951,18.4409529 50.3911175,18.6112519 L46.3481375,18.6112519 C46.4577364,19.9249873 47.0787966,20.3507349 47.9312321,20.3507349 C48.5035817,20.3507349 48.97851,20.1682717 49.5386819,19.7790167 L50.1840974,20.6670046 C49.5508596,21.1779017 48.77149,21.530664 47.7972779,21.530664 C45.8001433,21.530664 44.72851,20.2047643 44.72851,18.1733401 C44.72851,16.2149012 45.7636103,14.7308667 47.5902579,14.7308667 C49.3925501,14.7308667 50.4276504,15.9472884 50.4276504,17.9787126 Z M48.8810888,17.6016219 L48.8810888,17.5286366 C48.8810888,16.4703497 48.5035817,15.8378104 47.6267908,15.8378104 C46.8961318,15.8378104 46.4333811,16.3243791 46.3481375,17.6016219 L48.8810888,17.6016219 Z M55.2621777,14.7308667 C54.4462751,14.7308667 53.8008596,15.1079574 53.3015759,15.7526609 L53.1797994,14.91333 L51.8280802,14.91333 L51.8280802,21.3482007 L53.3868195,21.3482007 L53.3868195,16.8717689 C53.7643266,16.2757223 54.1783668,15.8986315 54.7385387,15.8986315 C55.2256447,15.8986315 55.530086,16.1297516 55.530086,16.93259 L55.530086,21.3482007 L57.0888252,21.3482007 L57.0888252,16.6893056 C57.0888252,15.4607197 56.4190544,14.7308667 55.2621777,14.7308667 Z M62.0451289,20.0466295 C61.765043,20.2047643 61.52149,20.2777496 61.277937,20.2777496 C60.8030086,20.2777496 60.5959885,20.0223011 60.5959885,19.3897618 L60.5959885,16.0324379 L61.9355301,16.0324379 L62.0938395,14.91333 L60.5959885,14.91333 L60.5959885,13.3076533 L59.0372493,13.4901166 L59.0372493,14.91333 L58.0265043,14.91333 L58.0265043,16.0324379 L59.0372493,16.0324379 L59.0372493,19.4262544 C59.0372493,20.8008109 59.7070201,21.5184997 60.9734957,21.530664 C61.5458453,21.530664 62.1303725,21.3725291 62.5931232,21.0440953 L62.0451289,20.0466295 Z M65.5035817,14.7308667 C64.0057307,14.7308667 63.019341,15.533705 63.019341,16.6041561 C63.019341,17.552965 63.6038682,18.1855043 64.9312321,18.5504308 C66.1368195,18.8910289 66.3925501,19.0613279 66.3925501,19.5965535 C66.3925501,20.0831221 65.9419771,20.3750634 65.247851,20.3750634 C64.5902579,20.3750634 63.993553,20.1196148 63.4942693,19.7425241 L62.7148997,20.6183477 C63.3116046,21.1535732 64.1762178,21.530664 65.284384,21.530664 C66.7578797,21.530664 68,20.8251394 68,19.4870755 C68,18.3436391 67.2571633,17.8084136 65.9419771,17.4556513 C64.8459885,17.1515459 64.5902579,16.9569184 64.5902579,16.5311708 C64.5902579,16.1419159 64.9434097,15.8864673 65.5644699,15.8864673 C66.1368195,15.8864673 66.6482808,16.0689306 67.1840974,16.4095286 L67.7929799,15.4972124 C67.1840974,15.0228079 66.4290831,14.7308667 65.5035817,14.7308667 Z" id="Shape"></path>
                </g>
                <path d="M67,22.5888734 L63.4418716,33 C62.3541328,32.4557254 61.8818315,32.129954 62.0249675,32.0226859 C62.1681036,31.9154178 62.9931144,28.2411892 64.5,21 L67,22.5888734 Z" id="Path-7" fill="#82D7DA"></path>
                <path d="M36,39.6759432 L45.3398765,31 C44.3680406,32.2548762 43.9185718,33.1192275 43.99147,33.5930541 C44.1199641,34.4282451 44.7156144,35.3379716 45.3398765,35.3379716 C46.8208549,35.3379716 48.7012657,34.2162763 50.981109,31.9728857 C51.049541,33.0225953 50.9320537,33.660888 50.6286469,33.8877639 C50.3252401,34.1146398 45.4490245,38.8187185 36,48 L36,39.6759432 Z" id="Path-3" fill="#81D7DA"></path>
                <path d="M51.7247312,26.0001035 C52.5307507,26.0001035 53,25.9546768 53,27.7673707 C53,28.9758333 52.249145,30.6128399 50.7474351,32.6783905 C48.0361352,34.7517552 46.3911428,35.8322566 45.8124581,35.9198946 C44.944431,36.0513516 44.2833762,36.1121169 43.7410531,35.3518644 C43.19873,34.591612 42.525321,34.1233358 43.4808263,32.5394184 C44.4363317,30.9555009 46.028972,29.4521968 47.5833932,28.1612932 C49.1378143,26.8703895 50.9187116,26.0001035 51.7247312,26.0001035 Z" id="Path-4" fill="#82D7DA"></path>
                <path d="M63.2593372,32 C63.7961738,32 64.227949,33.2468025 63.8672672,33.9570156 C63.5065853,34.6672288 62.7772799,36.4811087 61.71839,37.0692342 C61.0124633,37.4613178 60.1063334,37.7715731 59,38 C60.1571098,37.3935817 60.7681176,36.7299814 60.8330235,36.0091991 C60.9303822,34.9280257 60.5483149,34.7241397 61.193801,33.6963091 C61.839287,32.6684784 62.1948497,32 62.7270935,32 C63.2593372,32 62.7225006,32 63.2593372,32 Z" id="Path-5" fill="#81D7DA"></path>
                <path d="M62.452158,17 L68,17 L68,22.9311486 C64.9062053,23.2135172 62.9064644,22.6273629 62.0007773,21.1726858 C61.9877612,20.068073 62.1382215,18.6771778 62.452158,17 Z" id="Path-6" fill="#82D7DA"></path>
            </g>
        </g>
    </g>
</svg>