<?xml version="1.0" encoding="UTF-8"?>
<svg width="80px" height="79px" viewBox="0 0 80 79" version="1.1" xmlns="http://www.w3.org/2000/svg" xmlns:xlink="http://www.w3.org/1999/xlink">
    <!-- Generator: Sketch 52.6 (67491) - http://www.bohemiancoding.com/sketch -->
    <title>Q</title>
    <desc>Created with Sketch.</desc>
    <g id="Hiring-Post" stroke="none" stroke-width="1" fill="none" fill-rule="evenodd">
        <g transform="translate(-210.000000, -623.000000)" fill="#B5B6B6" id="Q">
            <path d="M290,688.589232 L290,701.03904 C285.477387,701.140258 277.638191,700.53295 270.703518,695.370835 C262.361809,700.330514 254.020101,701.03904 249.396985,701.03904 C227.889447,701.03904 210,684.135642 210,662.272565 C210,643.952116 223.266332,623 249.19598,623 C271.20603,623 288.39196,638.688782 288.39196,662.272565 C288.39196,674.722373 283.567839,682.313719 279.849246,686.564873 C281.457286,687.475834 284.572864,688.791668 290,688.589232 Z M228.536585,676.991483 C233.9364,685.245451 242.800247,688.365854 250.135844,688.365854 C252.581044,688.365854 257.573325,687.862563 260.731707,686.050716 C252.071627,679.105304 243.309663,675.682927 235.566533,675.682927 C233.01945,675.682927 230.778018,676.186218 228.536585,676.991483 Z M224.838523,665.354441 C228.415116,664.436765 231.480767,663.926945 235.261737,663.824981 C251.4075,663.417125 263.36354,671.982098 270.516726,678.609756 C272.356117,676.672441 276.341463,670.146747 276.341463,661.785702 C276.341463,649.855918 267.75764,635.682927 250.692182,635.682927 C235.466114,635.682927 224.634146,647.510747 224.634146,661.683738 C224.634146,663.009269 224.634146,664.028909 224.838523,665.354441 Z"></path>
        </g>
    </g>
</svg>