<?xml version="1.0" encoding="UTF-8" standalone="no"?>
<svg width="1124px" height="1001px" viewBox="0 0 1124 1001" version="1.1" xmlns="http://www.w3.org/2000/svg" xmlns:xlink="http://www.w3.org/1999/xlink">
    <!-- Generator: Sketch 39.1 (31720) - http://www.bohemiancoding.com/sketch -->
    <title>React.js_logo</title>
    <desc>Created with Sketch.</desc>
    <defs></defs>
    <g id="Page-1" stroke="none" stroke-width="1" fill="none" fill-rule="evenodd">
        <g id="React.js_logo" transform="translate(24.000000, 24.000000)">
            <g id="Layer_2">
                <circle id="Oval" fill="#82D7DA" cx="538.058" cy="475.256" r="100.334"></circle>
                <path d="M892.272,323.07 C1005.96,362.208 1075.86,421.536 1075.86,475.256 C1075.86,531.238 1001.778,594.262 879.694,634.712 C787.392,665.294 665.936,681.256 538.058,681.256 C406.95,681.256 282.798,666.272 189.478,634.374 C71.386,594.01 0.256,530.168 0.256,475.256 C0.256,421.972 66.996,363.104 179.086,324.024 C273.796,291.006 402.03,271.256 538.058,271.256 C672.77,271.256 797.914,290.586 892.272,323.07 Z" id="Shape" stroke="#82D7DA" stroke-width="48"></path>
                <path d="M360.472,373.844 C427.77,257.148 507.034,158.396 582.312,92.884 C673.012,13.952 759.326,-16.962 805.862,9.874 C854.358,37.84 871.946,133.502 845.996,259.466 C826.376,354.702 779.528,467.89 715.644,578.668 C650.146,692.244 575.144,792.306 500.89,857.212 C406.928,939.348 316.09,969.07 268.52,941.638 C222.362,915.018 204.708,827.796 226.852,711.172 C245.562,612.632 292.516,491.682 360.472,373.844 L360.472,373.844 Z" id="Shape" stroke="#82D7DA" stroke-width="48"></path>
                <path d="M228.018,246.454 C204.93,128.456 221.254,38.236 267.746,11.322 C316.194,-16.726 407.856,15.81 504.026,101.202 C576.738,165.762 651.402,262.876 715.472,373.548 C781.16,487.014 830.394,601.966 849.544,698.712 C873.778,821.138 854.162,914.68 806.638,942.192 C760.524,968.888 676.14,940.624 586.16,863.194 C510.134,797.772 428.796,696.688 360.642,578.964 C293.15,462.38 247.18,344.39 228.018,246.454 Z" id="Shape" stroke="#82D7DA" stroke-width="48"></path>
            </g>
        </g>
    </g>
</svg>