<?xml version="1.0" encoding="UTF-8"?>
<svg width="1214px" height="1076px" viewBox="0 0 1214 1076" version="1.1" xmlns="http://www.w3.org/2000/svg" xmlns:xlink="http://www.w3.org/1999/xlink">
    <!-- Generator: Sketch 45.1 (43504) - http://www.bohemiancoding.com/sketch -->
    <title>artsy_react_logo</title>
    <desc>Created with Sketch.</desc>
    <defs></defs>
    <g id="Epic" stroke="none" stroke-width="1" fill="none" fill-rule="evenodd" opacity="0.15">
        <g id="Footer" transform="translate(-102.000000, -43.000000)">
            <g id="artsy_react_logo" transform="translate(120.000000, 61.000000)">
                <g id="React.js_logo">
                    <g id="Page-1">
                        <g id="React.js_logo">
                            <g id="Layer_2">
                                <ellipse id="Oval" fill="#82D7DA" fill-rule="nonzero" cx="589.063498" cy="519.141129" rx="109.845216" ry="109.598839"></ellipse>
                                <path d="M976.855405,352.902277 C1101.32052,395.654279 1177.84673,460.460625 1177.84673,519.141129 C1177.84673,580.292506 1096.74209,649.136141 963.085067,693.321293 C862.033249,726.727234 729.063762,744.163165 589.063498,744.163165 C445.527045,744.163165 309.605989,727.795542 207.439669,692.952082 C78.1530743,648.860871 0.280267658,579.123702 0.280267658,519.141129 C0.280267658,460.936886 73.3469219,396.633016 196.062554,353.944369 C299.750639,317.877488 440.140651,296.303773 589.063498,296.303773 C736.545595,296.303773 873.552688,317.418705 976.855405,352.902277 Z" id="Shape" stroke="#82D7DA" stroke-width="35"></path>
                                <path d="M394.643138,408.364747 C468.320688,280.893041 555.098561,173.022283 637.51258,101.460907 C736.810535,15.2403274 831.306717,-18.5282707 882.254123,10.785765 C935.347327,41.3341448 954.602591,145.829572 926.192647,283.425085 C904.712758,387.455175 853.423777,511.094953 783.483859,632.102191 C711.776941,756.165796 629.665086,865.467519 548.372138,936.366938 C445.502959,1026.08737 346.053922,1058.5539 293.974498,1028.58883 C243.440926,999.510743 224.113405,904.234665 248.356558,776.841608 C268.840182,669.202426 320.245212,537.083906 394.643138,408.364747 L394.643138,408.364747 Z" id="Shape" stroke="#82D7DA" stroke-width="35"></path>
                                <path d="M249.633089,269.211557 C224.35645,140.317624 242.227892,41.7667114 293.127126,12.3674732 C346.167781,-18.2704785 446.518929,17.2698951 551.805416,110.546991 C631.41019,181.06846 713.152004,287.149964 783.295554,408.041414 C855.210483,531.984863 909.111647,657.551528 930.076981,763.231051 C956.608257,896.961866 935.132747,999.141532 883.103684,1029.19399 C832.618283,1058.3551 740.235056,1027.4812 641.725353,942.901316 C558.492428,871.43825 469.443948,761.020155 394.829253,632.425524 C320.939312,505.076159 270.611561,376.190965 249.633089,269.211557 Z" id="Shape" stroke="#82D7DA" stroke-width="35"></path>
                            </g>
                        </g>
                    </g>
                </g>
            </g>
        </g>
    </g>
</svg>
