<?xml version="1.0" encoding="UTF-8"?>
<svg width="490px" height="159px" viewBox="0 0 490 159" version="1.1" xmlns="http://www.w3.org/2000/svg" xmlns:xlink="http://www.w3.org/1999/xlink">
    <!-- Generator: Sketch 3.8.3 (29802) - http://www.bohemiancoding.com/sketch -->
    <title>Group 4</title>
    <desc>Created with Sketch.</desc>
    <defs>
        <rect id="path-1" x="219" y="25" width="121.4681" height="80"></rect>
        <mask id="mask-2" maskContentUnits="userSpaceOnUse" maskUnits="objectBoundingBox" x="0" y="0" width="121.4681" height="80" fill="white">
            <use xlink:href="#path-1"></use>
        </mask>
        <rect id="path-3" x="0.911640597" y="73" width="104.088359" height="63" rx="7"></rect>
        <mask id="mask-4" maskContentUnits="userSpaceOnUse" maskUnits="objectBoundingBox" x="-1" y="-1" width="106.088359" height="65">
            <rect x="-0.0883594029" y="72" width="106.088359" height="65" fill="white"></rect>
            <use xlink:href="#path-3" fill="black"></use>
        </mask>
        <rect id="path-5" x="9.85673398" y="76.15" width="86.6785626" height="57.5217391"></rect>
        <mask id="mask-6" maskContentUnits="userSpaceOnUse" maskUnits="objectBoundingBox" x="0" y="0" width="86.6785626" height="57.5217391" fill="white">
            <use xlink:href="#path-5"></use>
        </mask>
    </defs>
    <g id="GraphQL" stroke="none" stroke-width="1" fill="none" fill-rule="evenodd">
        <g id="Artboard-1" transform="translate(-218.000000, -192.000000)">
            <g id="Group-4" transform="translate(219.000000, 192.000000)">
                <use id="Rectangle-3" stroke="#82D7DA" mask="url(#mask-2)" stroke-width="3" fill="#82D7DA" xlink:href="#path-1"></use>
                <g id="Group-3" transform="translate(430.000000, 2.000000)" stroke="#82D7DA">
                    <g id="Group">
                        <path d="M0.0227852069,13 L0,13 L0,64 L0.0227852069,64 C0.631919668,70.6717666 13.3776442,76 29.0117188,76 C44.6457933,76 57.3915178,70.6717666 58.0006523,64 L58.0234375,64 L58.0234375,13 L58.0006523,13 C57.3915178,19.6717666 44.6457933,25 29.0117188,25 C13.3776442,25 0.631919668,19.6717666 0.0227852069,13 Z" id="Combined-Shape"></path>
                        <ellipse id="Oval-1" cx="29.0117188" cy="12.5" rx="29.0117188" ry="12.5"></ellipse>
                    </g>
                    <g id="Group-2" transform="translate(0.000000, 80.000000)">
                        <path d="M0.0227852069,13 L0,13 L0,64 L0.0227852069,64 C0.631919668,70.6717666 13.3776442,76 29.0117188,76 C44.6457933,76 57.3915178,70.6717666 58.0006523,64 L58.0234375,64 L58.0234375,13 L58.0006523,13 C57.3915178,19.6717666 44.6457933,25 29.0117188,25 C13.3776442,25 0.631919668,19.6717666 0.0227852069,13 Z" id="Combined-Shape-Copy"></path>
                        <ellipse id="Oval-1-Copy-2" cx="29.0117188" cy="12.5" rx="29.0117188" ry="12.5"></ellipse>
                    </g>
                </g>
                <use id="Edge" stroke="#82D7DA" mask="url(#mask-4)" stroke-width="2" xlink:href="#path-3"></use>
                <use id="Rectangle-3" stroke="#82D7DA" mask="url(#mask-6)" stroke-width="2" xlink:href="#path-5"></use>
                <rect id="Window" stroke="#82D7DA" x="15" y="0.5" width="89.5224067" height="63"></rect>
                <path d="M15,9.5 L104.522407,9.5" id="titlebar-bottom" stroke="#82D7DA"></path>
                <g id="traffic-lights" transform="translate(22.000000, 4.500000)" stroke="#82D7DA">
                    <ellipse id="Oval-16" cx="1.60123986" cy="1.46048251" rx="1.08589141" ry="1.0920965"></ellipse>
                    <ellipse id="Oval-16-Copy" cx="8.1165883" cy="1.46048251" rx="1.08589141" ry="1.0920965"></ellipse>
                    <ellipse id="Oval-16-Copy-2" cx="14.6319368" cy="1.46048251" rx="1.08589141" ry="1.0920965"></ellipse>
                </g>
                <path d="M249.34,65.78 C249.34,66.8333386 249.126669,67.8166621 248.7,68.73 C248.273331,69.6433379 247.700004,70.4399966 246.98,71.12 C246.259996,71.8000034 245.426671,72.3333314 244.48,72.72 C243.533329,73.1066686 242.540005,73.3 241.5,73.3 C240.419995,73.3 239.400005,73.1033353 238.44,72.71 C237.479995,72.3166647 236.63667,71.7766701 235.91,71.09 C235.18333,70.4033299 234.606669,69.5900047 234.18,68.65 C233.753331,67.7099953 233.54,66.6933388 233.54,65.6 C233.54,64.5199946 233.749998,63.513338 234.17,62.58 C234.590002,61.646662 235.159996,60.8333368 235.88,60.14 C236.600004,59.4466632 237.436662,58.900002 238.39,58.5 C239.343338,58.099998 240.353328,57.9 241.42,57.9 C242.153337,57.9 242.889996,58.0099989 243.63,58.23 C244.370004,58.4500011 245.066663,58.759998 245.72,59.16 C246.373337,59.560002 246.953331,60.0466638 247.46,60.62 C247.966669,61.1933362 248.346665,61.8333298 248.6,62.54 L245.32,62.54 C244.893331,61.87333 244.323337,61.3600018 243.61,61 C242.896663,60.6399982 242.146671,60.46 241.36,60.46 C240.639996,60.46 239.973336,60.5966653 239.36,60.87 C238.746664,61.1433347 238.210002,61.513331 237.75,61.98 C237.289998,62.446669 236.930001,62.9933302 236.67,63.62 C236.409999,64.2466698 236.28,64.9133298 236.28,65.62 C236.28,65.9666684 236.316666,66.3099983 236.39,66.65 C236.463334,66.9900017 236.566666,67.3133318 236.7,67.62 C237.126669,68.620005 237.763329,69.3899973 238.61,69.93 C239.456671,70.4700027 240.419995,70.74 241.5,70.74 C242.446671,70.74 243.306663,70.4966691 244.08,70.01 C244.853337,69.5233309 245.453331,68.8600042 245.88,68.02 L239.68,68.02 L239.68,65.46 L249.34,65.46 L249.34,65.78 Z M257.78,73 L253.86,67.34 L253.82,67.34 L253.82,73 L251.08,73 L251.08,58.2 L255.62,58.2 C256.273337,58.2 256.906664,58.2599994 257.52,58.38 C258.133336,58.5000006 258.699997,58.7733312 259.22,59.2 C259.780003,59.6400022 260.209999,60.1699969 260.51,60.79 C260.810002,61.4100031 260.96,62.0733298 260.96,62.78 C260.96,63.4200032 260.836668,64.0599968 260.59,64.7 C260.343332,65.3400032 259.993336,65.8799978 259.54,66.32 C259.153331,66.6800018 258.773335,66.9433325 258.4,67.11 C258.026665,67.2766675 257.586669,67.4199994 257.08,67.54 L261.1,73 L257.78,73 Z M258.22,63 C258.22,62.6266648 258.146667,62.2966681 258,62.01 C257.853333,61.7233319 257.660001,61.4900009 257.42,61.31 C257.179999,61.1299991 256.900002,60.9933338 256.58,60.9 C256.259998,60.8066662 255.926668,60.76 255.58,60.76 L253.82,60.76 L253.82,65.28 L255.58,65.28 C255.940002,65.28 256.279998,65.2333338 256.6,65.14 C256.920002,65.0466662 257.199999,64.9066676 257.44,64.72 C257.680001,64.5333324 257.869999,64.2966681 258.01,64.01 C258.150001,63.7233319 258.22,63.3866686 258.22,63 L258.22,63 Z M273.02,73 L271.44,69.18 L266.14,69.18 L264.56,73 L261.54,73 L267.7,58.2 L269.84,58.2 L276.04,73 L273.02,73 Z M268.78,62.06 L268.74,62.06 L267.06,66.6 L270.46,66.6 L268.78,62.06 Z M287.1,62.78 C287.1,63.44667 286.993334,64.0699971 286.78,64.65 C286.566666,65.2300029 286.206669,65.7399978 285.7,66.18 C285.379998,66.4600014 285.060002,66.6799992 284.74,66.84 C284.419998,67.0000008 284.090002,67.1166663 283.75,67.19 C283.409998,67.2633337 283.056669,67.3099999 282.69,67.33 C282.323332,67.3500001 281.940002,67.36 281.54,67.36 L280.38,67.36 L280.38,73 L277.64,73 L277.64,58.2 L281.54,58.2 C281.940002,58.2 282.323332,58.2099999 282.69,58.23 C283.056669,58.2500001 283.409998,58.2966663 283.75,58.37 C284.090002,58.4433337 284.419998,58.5599992 284.74,58.72 C285.060002,58.8800008 285.379998,59.0999986 285.7,59.38 C286.206669,59.8200022 286.566666,60.3299971 286.78,60.91 C286.993334,61.4900029 287.1,62.11333 287.1,62.78 L287.1,62.78 Z M284.36,62.78 C284.36,62.3266644 284.270001,61.966668 284.09,61.7 C283.909999,61.433332 283.676668,61.2300007 283.39,61.09 C283.103332,60.9499993 282.783335,60.8600002 282.43,60.82 C282.076665,60.7799998 281.720002,60.76 281.36,60.76 L280.38,60.76 L280.38,64.8 L281.26,64.8 C281.620002,64.8 281.983332,64.7800002 282.35,64.74 C282.716669,64.6999998 283.049999,64.6100007 283.35,64.47 C283.650002,64.3299993 283.893332,64.126668 284.08,63.86 C284.266668,63.593332 284.36,63.2333356 284.36,62.78 L284.36,62.78 Z M296.86,73 L296.86,66.78 L291.56,66.78 L291.56,73 L288.82,73 L288.82,58.2 L291.56,58.2 L291.56,64.22 L296.86,64.22 L296.86,58.2 L299.6,58.2 L299.6,73 L296.86,73 Z M317.1,73.3 C316.406663,73.3 315.786669,73.1933344 315.24,72.98 C314.693331,72.7666656 314.140003,72.4666686 313.58,72.08 C312.95333,72.480002 312.283337,72.7833323 311.57,72.99 C310.856663,73.1966677 310.12667,73.3 309.38,73.3 C308.313328,73.3 307.313338,73.100002 306.38,72.7 C305.446662,72.299998 304.62667,71.7566701 303.92,71.07 C303.21333,70.3833299 302.656669,69.573338 302.25,68.64 C301.843331,67.706662 301.64,66.706672 301.64,65.64 C301.64,64.5599946 301.843331,63.5500047 302.25,62.61 C302.656669,61.6699953 303.209997,60.8500035 303.91,60.15 C304.610004,59.4499965 305.429995,58.900002 306.37,58.5 C307.310005,58.099998 308.313328,57.9 309.38,57.9 C310.433339,57.9 311.429995,58.099998 312.37,58.5 C313.310005,58.900002 314.129997,59.4433299 314.83,60.13 C315.530004,60.8166701 316.086665,61.626662 316.5,62.56 C316.913335,63.493338 317.12,64.4866614 317.12,65.54 C317.12,66.4866714 316.990001,67.326663 316.73,68.06 C316.469999,68.793337 316.060003,69.526663 315.5,70.26 C315.846668,70.4866678 316.169999,70.6233331 316.47,70.67 C316.770002,70.7166669 317.106665,70.74 317.48,70.74 L317.48,73.3 L317.1,73.3 Z M314.38,65.62 C314.38,64.9266632 314.253335,64.2666698 314,63.64 C313.746665,63.0133302 313.396669,62.4633357 312.95,61.99 C312.503331,61.5166643 311.97667,61.1433347 311.37,60.87 C310.76333,60.5966653 310.100004,60.46 309.38,60.46 C308.686663,60.46 308.03667,60.5966653 307.43,60.87 C306.82333,61.1433347 306.293336,61.513331 305.84,61.98 C305.386664,62.446669 305.030001,62.9866636 304.77,63.6 C304.509999,64.2133364 304.38,64.8666632 304.38,65.56 L304.38,65.73 C304.38,65.7766669 304.393333,65.833333 304.42,65.9 C304.766668,65.8199996 305.103332,65.7700001 305.43,65.75 C305.756668,65.7299999 306.093332,65.72 306.44,65.72 C307.040003,65.72 307.65333,65.7966659 308.28,65.95 C308.90667,66.1033341 309.52333,66.313332 310.13,66.58 C310.73667,66.846668 311.309997,67.1633315 311.85,67.53 C312.390003,67.8966685 312.873331,68.2866646 313.3,68.7 L313.34,68.7 C313.526668,68.4466654 313.686666,68.2066678 313.82,67.98 C313.953334,67.7533322 314.06,67.5200012 314.14,67.28 C314.22,67.0399988 314.28,66.786668 314.32,66.52 C314.36,66.253332 314.38,65.953335 314.38,65.62 L314.38,65.62 Z M311.4,70.3 C310.65333,69.7399972 309.873337,69.2633353 309.06,68.87 C308.246663,68.4766647 307.366671,68.28 306.42,68.28 C306.219999,68.28 306.020001,68.2933332 305.82,68.32 C305.619999,68.3466668 305.426668,68.393333 305.24,68.46 C305.680002,69.1666702 306.269996,69.7233313 307.01,70.13 C307.750004,70.5366687 308.539996,70.74 309.38,70.74 C309.766669,70.74 310.113332,70.7033337 310.42,70.63 C310.726668,70.5566663 311.053332,70.4466674 311.4,70.3 L311.4,70.3 Z M319.24,73 L319.24,58.2 L321.98,58.2 L321.98,70.44 L326.5,70.44 L326.5,73 L319.24,73 Z" id="GRAPHQL" fill="#FFFFFF"></path>
                <text id="CLIENTS" font-family="AvantGardeGothicITCW01Dm, Avant Garde Gothic ITCW01Dm" font-size="20" font-weight="normal" fill="#82D7DA">
                    <tspan x="125" y="73">CLIENTS</tspan>
                </text>
                <text id="APIS" font-family="AvantGardeGothicITCW01Dm, Avant Garde Gothic ITCW01Dm" font-size="20" font-weight="normal" fill="#82D7DA">
                    <tspan x="361" y="73">APIS</tspan>
                </text>
                <path d="M129,38 L451.038818,38" id="Line" stroke="#82D7DA" stroke-linecap="square"></path>
                <path id="Line-decoration-1" d="M440.238818,41 L451.038818,38 L440.238818,35" stroke="#82D7DA" stroke-linecap="square"></path>
                <path d="M450.621235,93 L127.453194,93" id="Line-Copy-2" stroke="#82D7DA" stroke-linecap="square"></path>
                <path id="Line-Copy-2-decoration-1" d="M138.253194,90 L127.453194,93 L138.253194,96" stroke="#82D7DA" stroke-linecap="square"></path>
                <path d="M456.5,36.494253 L456.5,96.5" id="Line-Copy" stroke="#82D7DA" stroke-linecap="square"></path>
                <path id="Line-Copy-decoration-1" d="M453.5,85.7 L456.5,96.5 L459.5,85.7" stroke="#82D7DA" stroke-linecap="square"></path>
            </g>
        </g>
    </g>
</svg>