<svg xmlns="http://www.w3.org/2000/svg" width="491.04" height="360" style="outline: solid 2px red"><text transform="translate(386.081 80)" fill="#AFB1B4" font-family="'AGaramondPro-Regular'" font-size="20">Rosalind</text><path fill="#E6E7E8" d="M180.5 324.5a9 9 0 0 0 9 9H449a9 9 0 0 0 9-9V94a9 9 0 0 0-9-9H189.5a9 9 0 0 0-9 9v230.5z"/><ellipse fill="#FFF" stroke="#000" stroke-miterlimit="10" cx="388.74" cy="211.14" rx="43.148" ry="18.38"/><ellipse fill="#FFF" stroke="#000" stroke-miterlimit="10" cx="388.74" cy="153.593" rx="43.148" ry="18.379"/><path fill="#FFF" stroke="#000" stroke-miterlimit="10" d="M204.111 159.148h68.518v43.334h-68.518zM271.167 265.32h92.406v58.442h-92.406zM271.167 260.223h92.406v5.097h-92.406zM59.787 186.186h68.518v43.334H59.787zM59.787 130.63h68.518v43.333H59.787z"/><circle fill="#808285" cx="274.423" cy="262.771" r="1.11"/><circle fill="#808285" cx="277.753" cy="262.771" r="1.11"/><circle fill="#808285" cx="281.083" cy="262.771" r="1.11"/><g><path fill="none" stroke="#000" stroke-miterlimit="10" d="M285.867 192.624c15.032 7.554 28.089 14.097 46.32 15.097"/><path d="M282.63 191c1.246 1.323 2.661 3.229 3.328 4.834l.343-3.016 2.191-2.098c-1.681.443-4.054.47-5.862.28zM331.109 207.639l-1.236-2.207.075-.046 3.473 1.524 3.653.942-3.711.679-3.573 1.272-.072-.039 1.391-2.125z"/><path fill="none" stroke="#000" stroke-miterlimit="10" d="M285.867 168.821c15.032-7.554 28.089-14.096 46.32-15.096"/><path d="M282.63 170.445c1.808-.19 4.181-.162 5.862.28l-2.191-2.099-.343-3.015c-.666 1.607-2.082 3.512-3.328 4.834zM331.109 153.807l-1.391-2.113.071-.052 3.573 1.273 3.711.678-3.653.942-3.473 1.525-.075-.034 1.237-2.219z"/><g><path fill="none" stroke="#000" stroke-miterlimit="10" d="M190.503 192.624c-15.033 7.554-28.089 14.097-46.32 15.097"/><path d="M193.74 191c-1.808.19-4.181.162-5.862-.28l2.192 2.099.342 3.015c.667-1.606 2.082-3.512 3.328-4.834zM145.26 207.639l1.392 2.114-.072.051-3.573-1.272-3.711-.679c1.218-.313 2.436-.628 3.653-.942l3.473-1.524.075.034-1.237 2.218z"/></g><g><path fill="none" stroke="#000" stroke-miterlimit="10" d="M247.552 211.044l54.648 39.254"/><path d="M244.61 208.932c1.015 1.508 2.103 3.617 2.501 5.31l.826-2.92 2.503-1.715c-1.731.163-4.077-.194-5.83-.675zM301.325 249.67l.193-2.523.089.004 2.046 3.193 2.52 2.808-3.466-1.491-3.68-.919-.038-.073 2.336-.999z"/></g><g><path fill="none" stroke="#000" stroke-miterlimit="10" d="M190.503 168.821c-15.033-7.554-28.089-14.096-46.32-15.096"/><path d="M193.74 170.445c-1.246-1.323-2.661-3.228-3.328-4.834l-.342 3.015-2.191 2.098c1.681-.441 4.054-.469 5.861-.279zM145.26 153.807l1.237 2.208-.076.046-3.473-1.525-3.653-.942 3.711-.678 3.573-1.273.073.04-1.392 2.124z"/></g></g><g><path fill="none" d="M140.555 95.5h112.798v38.573H140.555z"/><text transform="translate(140.555 101.221)"><tspan x="0" y="0" font-family="'AGaramondPro-Semibold'" font-size="8">Build up and execute boolean </tspan><tspan x="0" y="10" font-family="'AGaramondPro-Semibold'" font-size="8">queries against genome and other </tspan><tspan x="0" y="20" font-family="'AGaramondPro-Semibold'" font-size="8">metadata; retrieve artwork search </tspan><tspan x="0" y="30" font-family="'AGaramondPro-Semibold'" font-size="8">results by the hundreds</tspan></text><path fill="none" d="M188.74 232.163h71.445v19.287H188.74z"/><text transform="translate(196.426 237.885)"><tspan x="0" y="0" font-family="'AGaramondPro-Semibold'" font-size="8">Search interface and </tspan><tspan x="-1.752" y="10" font-family="'AGaramondPro-Semibold'" font-size="8">batch update builder</tspan></text><path fill="none" d="M276.074 95.5h100v54.667h-100z"/><text transform="translate(276.074 101.221)"><tspan x="0" y="0" font-family="'AGaramondPro-Semibold'" font-size="8">Persist a history of batch </tspan><tspan x="0" y="10" font-family="'AGaramondPro-Semibold'" font-size="8">updates; enqueue artwork </tspan><tspan x="0" y="20" font-family="'AGaramondPro-Semibold'" font-size="8">genome update jobs to be </tspan><tspan x="0" y="30" font-family="'AGaramondPro-Semibold'" font-size="8">worked off asynchronously</tspan></text><text transform="translate(79.014 154.297)" font-family="'AGaramondPro-Semibold'" font-size="8">Core API</text><text transform="translate(223.79 183.592)" font-family="'AGaramondPro-Semibold'" font-size="8">Rails app</text><text transform="translate(300.166 294.541)" font-family="'AGaramondPro-Semibold'" font-size="8">React UI</text><text transform="translate(73.89 207.852)"><tspan x="0" y="0" font-family="'AGaramondPro-Semibold'" font-size="8">Elasticsearch</tspan><tspan x="9.744" y="9.6" font-family="'AGaramondPro-Semibold'" font-size="8">cluster</tspan></text><text transform="translate(375.48 155.297)" font-family="'AGaramondPro-Semibold'" font-size="8">Postgres</text><text transform="translate(379.973 213.088)" font-family="'AGaramondPro-Semibold'" font-size="8">Redis</text></g></svg>